%TF.GenerationSoftware,KiCad,Pcbnew,8.0.7-8.0.7-0~ubuntu22.04.1*%
%TF.CreationDate,2024-12-30T17:04:23+01:00*%
%TF.ProjectId,electronics,656c6563-7472-46f6-9e69-63732e6b6963,rev?*%
%TF.SameCoordinates,Original*%
%TF.FileFunction,Legend,Bot*%
%TF.FilePolarity,Positive*%
%FSLAX46Y46*%
G04 Gerber Fmt 4.6, Leading zero omitted, Abs format (unit mm)*
G04 Created by KiCad (PCBNEW 8.0.7-8.0.7-0~ubuntu22.04.1) date 2024-12-30 17:04:23*
%MOMM*%
%LPD*%
G01*
G04 APERTURE LIST*
%ADD10C,0.150000*%
%ADD11C,0.120000*%
G04 APERTURE END LIST*
D10*
X116592857Y-109634819D02*
X116926190Y-109158628D01*
X117164285Y-109634819D02*
X117164285Y-108634819D01*
X117164285Y-108634819D02*
X116783333Y-108634819D01*
X116783333Y-108634819D02*
X116688095Y-108682438D01*
X116688095Y-108682438D02*
X116640476Y-108730057D01*
X116640476Y-108730057D02*
X116592857Y-108825295D01*
X116592857Y-108825295D02*
X116592857Y-108968152D01*
X116592857Y-108968152D02*
X116640476Y-109063390D01*
X116640476Y-109063390D02*
X116688095Y-109111009D01*
X116688095Y-109111009D02*
X116783333Y-109158628D01*
X116783333Y-109158628D02*
X117164285Y-109158628D01*
X115640476Y-109634819D02*
X116211904Y-109634819D01*
X115926190Y-109634819D02*
X115926190Y-108634819D01*
X115926190Y-108634819D02*
X116021428Y-108777676D01*
X116021428Y-108777676D02*
X116116666Y-108872914D01*
X116116666Y-108872914D02*
X116211904Y-108920533D01*
X114735714Y-108634819D02*
X115211904Y-108634819D01*
X115211904Y-108634819D02*
X115259523Y-109111009D01*
X115259523Y-109111009D02*
X115211904Y-109063390D01*
X115211904Y-109063390D02*
X115116666Y-109015771D01*
X115116666Y-109015771D02*
X114878571Y-109015771D01*
X114878571Y-109015771D02*
X114783333Y-109063390D01*
X114783333Y-109063390D02*
X114735714Y-109111009D01*
X114735714Y-109111009D02*
X114688095Y-109206247D01*
X114688095Y-109206247D02*
X114688095Y-109444342D01*
X114688095Y-109444342D02*
X114735714Y-109539580D01*
X114735714Y-109539580D02*
X114783333Y-109587200D01*
X114783333Y-109587200D02*
X114878571Y-109634819D01*
X114878571Y-109634819D02*
X115116666Y-109634819D01*
X115116666Y-109634819D02*
X115211904Y-109587200D01*
X115211904Y-109587200D02*
X115259523Y-109539580D01*
X59142857Y-45954819D02*
X59476190Y-45478628D01*
X59714285Y-45954819D02*
X59714285Y-44954819D01*
X59714285Y-44954819D02*
X59333333Y-44954819D01*
X59333333Y-44954819D02*
X59238095Y-45002438D01*
X59238095Y-45002438D02*
X59190476Y-45050057D01*
X59190476Y-45050057D02*
X59142857Y-45145295D01*
X59142857Y-45145295D02*
X59142857Y-45288152D01*
X59142857Y-45288152D02*
X59190476Y-45383390D01*
X59190476Y-45383390D02*
X59238095Y-45431009D01*
X59238095Y-45431009D02*
X59333333Y-45478628D01*
X59333333Y-45478628D02*
X59714285Y-45478628D01*
X58190476Y-45954819D02*
X58761904Y-45954819D01*
X58476190Y-45954819D02*
X58476190Y-44954819D01*
X58476190Y-44954819D02*
X58571428Y-45097676D01*
X58571428Y-45097676D02*
X58666666Y-45192914D01*
X58666666Y-45192914D02*
X58761904Y-45240533D01*
X57809523Y-45050057D02*
X57761904Y-45002438D01*
X57761904Y-45002438D02*
X57666666Y-44954819D01*
X57666666Y-44954819D02*
X57428571Y-44954819D01*
X57428571Y-44954819D02*
X57333333Y-45002438D01*
X57333333Y-45002438D02*
X57285714Y-45050057D01*
X57285714Y-45050057D02*
X57238095Y-45145295D01*
X57238095Y-45145295D02*
X57238095Y-45240533D01*
X57238095Y-45240533D02*
X57285714Y-45383390D01*
X57285714Y-45383390D02*
X57857142Y-45954819D01*
X57857142Y-45954819D02*
X57238095Y-45954819D01*
X86811904Y-108754819D02*
X86811904Y-109564342D01*
X86811904Y-109564342D02*
X86764285Y-109659580D01*
X86764285Y-109659580D02*
X86716666Y-109707200D01*
X86716666Y-109707200D02*
X86621428Y-109754819D01*
X86621428Y-109754819D02*
X86430952Y-109754819D01*
X86430952Y-109754819D02*
X86335714Y-109707200D01*
X86335714Y-109707200D02*
X86288095Y-109659580D01*
X86288095Y-109659580D02*
X86240476Y-109564342D01*
X86240476Y-109564342D02*
X86240476Y-108754819D01*
X85335714Y-109088152D02*
X85335714Y-109754819D01*
X85573809Y-108707200D02*
X85811904Y-109421485D01*
X85811904Y-109421485D02*
X85192857Y-109421485D01*
X56142857Y-51454819D02*
X56476190Y-50978628D01*
X56714285Y-51454819D02*
X56714285Y-50454819D01*
X56714285Y-50454819D02*
X56333333Y-50454819D01*
X56333333Y-50454819D02*
X56238095Y-50502438D01*
X56238095Y-50502438D02*
X56190476Y-50550057D01*
X56190476Y-50550057D02*
X56142857Y-50645295D01*
X56142857Y-50645295D02*
X56142857Y-50788152D01*
X56142857Y-50788152D02*
X56190476Y-50883390D01*
X56190476Y-50883390D02*
X56238095Y-50931009D01*
X56238095Y-50931009D02*
X56333333Y-50978628D01*
X56333333Y-50978628D02*
X56714285Y-50978628D01*
X55190476Y-51454819D02*
X55761904Y-51454819D01*
X55476190Y-51454819D02*
X55476190Y-50454819D01*
X55476190Y-50454819D02*
X55571428Y-50597676D01*
X55571428Y-50597676D02*
X55666666Y-50692914D01*
X55666666Y-50692914D02*
X55761904Y-50740533D01*
X54571428Y-50454819D02*
X54476190Y-50454819D01*
X54476190Y-50454819D02*
X54380952Y-50502438D01*
X54380952Y-50502438D02*
X54333333Y-50550057D01*
X54333333Y-50550057D02*
X54285714Y-50645295D01*
X54285714Y-50645295D02*
X54238095Y-50835771D01*
X54238095Y-50835771D02*
X54238095Y-51073866D01*
X54238095Y-51073866D02*
X54285714Y-51264342D01*
X54285714Y-51264342D02*
X54333333Y-51359580D01*
X54333333Y-51359580D02*
X54380952Y-51407200D01*
X54380952Y-51407200D02*
X54476190Y-51454819D01*
X54476190Y-51454819D02*
X54571428Y-51454819D01*
X54571428Y-51454819D02*
X54666666Y-51407200D01*
X54666666Y-51407200D02*
X54714285Y-51359580D01*
X54714285Y-51359580D02*
X54761904Y-51264342D01*
X54761904Y-51264342D02*
X54809523Y-51073866D01*
X54809523Y-51073866D02*
X54809523Y-50835771D01*
X54809523Y-50835771D02*
X54761904Y-50645295D01*
X54761904Y-50645295D02*
X54714285Y-50550057D01*
X54714285Y-50550057D02*
X54666666Y-50502438D01*
X54666666Y-50502438D02*
X54571428Y-50454819D01*
X55804819Y-102976190D02*
X55328628Y-102642857D01*
X55804819Y-102404762D02*
X54804819Y-102404762D01*
X54804819Y-102404762D02*
X54804819Y-102785714D01*
X54804819Y-102785714D02*
X54852438Y-102880952D01*
X54852438Y-102880952D02*
X54900057Y-102928571D01*
X54900057Y-102928571D02*
X54995295Y-102976190D01*
X54995295Y-102976190D02*
X55138152Y-102976190D01*
X55138152Y-102976190D02*
X55233390Y-102928571D01*
X55233390Y-102928571D02*
X55281009Y-102880952D01*
X55281009Y-102880952D02*
X55328628Y-102785714D01*
X55328628Y-102785714D02*
X55328628Y-102404762D01*
X55900057Y-103166667D02*
X55900057Y-103928571D01*
X55804819Y-104166667D02*
X54804819Y-104166667D01*
X54804819Y-104166667D02*
X54804819Y-104404762D01*
X54804819Y-104404762D02*
X54852438Y-104547619D01*
X54852438Y-104547619D02*
X54947676Y-104642857D01*
X54947676Y-104642857D02*
X55042914Y-104690476D01*
X55042914Y-104690476D02*
X55233390Y-104738095D01*
X55233390Y-104738095D02*
X55376247Y-104738095D01*
X55376247Y-104738095D02*
X55566723Y-104690476D01*
X55566723Y-104690476D02*
X55661961Y-104642857D01*
X55661961Y-104642857D02*
X55757200Y-104547619D01*
X55757200Y-104547619D02*
X55804819Y-104404762D01*
X55804819Y-104404762D02*
X55804819Y-104166667D01*
X55281009Y-105166667D02*
X55281009Y-105500000D01*
X55804819Y-105642857D02*
X55804819Y-105166667D01*
X55804819Y-105166667D02*
X54804819Y-105166667D01*
X54804819Y-105166667D02*
X54804819Y-105642857D01*
X55804819Y-106071429D02*
X54804819Y-106071429D01*
X54804819Y-106071429D02*
X55804819Y-106642857D01*
X55804819Y-106642857D02*
X54804819Y-106642857D01*
X55138152Y-107547619D02*
X55804819Y-107547619D01*
X54757200Y-107309524D02*
X55471485Y-107071429D01*
X55471485Y-107071429D02*
X55471485Y-107690476D01*
X93959819Y-123213095D02*
X94769342Y-123213095D01*
X94769342Y-123213095D02*
X94864580Y-123260714D01*
X94864580Y-123260714D02*
X94912200Y-123308333D01*
X94912200Y-123308333D02*
X94959819Y-123403571D01*
X94959819Y-123403571D02*
X94959819Y-123594047D01*
X94959819Y-123594047D02*
X94912200Y-123689285D01*
X94912200Y-123689285D02*
X94864580Y-123736904D01*
X94864580Y-123736904D02*
X94769342Y-123784523D01*
X94769342Y-123784523D02*
X93959819Y-123784523D01*
X93959819Y-124165476D02*
X93959819Y-124784523D01*
X93959819Y-124784523D02*
X94340771Y-124451190D01*
X94340771Y-124451190D02*
X94340771Y-124594047D01*
X94340771Y-124594047D02*
X94388390Y-124689285D01*
X94388390Y-124689285D02*
X94436009Y-124736904D01*
X94436009Y-124736904D02*
X94531247Y-124784523D01*
X94531247Y-124784523D02*
X94769342Y-124784523D01*
X94769342Y-124784523D02*
X94864580Y-124736904D01*
X94864580Y-124736904D02*
X94912200Y-124689285D01*
X94912200Y-124689285D02*
X94959819Y-124594047D01*
X94959819Y-124594047D02*
X94959819Y-124308333D01*
X94959819Y-124308333D02*
X94912200Y-124213095D01*
X94912200Y-124213095D02*
X94864580Y-124165476D01*
X96771666Y-117364580D02*
X96819285Y-117412200D01*
X96819285Y-117412200D02*
X96962142Y-117459819D01*
X96962142Y-117459819D02*
X97057380Y-117459819D01*
X97057380Y-117459819D02*
X97200237Y-117412200D01*
X97200237Y-117412200D02*
X97295475Y-117316961D01*
X97295475Y-117316961D02*
X97343094Y-117221723D01*
X97343094Y-117221723D02*
X97390713Y-117031247D01*
X97390713Y-117031247D02*
X97390713Y-116888390D01*
X97390713Y-116888390D02*
X97343094Y-116697914D01*
X97343094Y-116697914D02*
X97295475Y-116602676D01*
X97295475Y-116602676D02*
X97200237Y-116507438D01*
X97200237Y-116507438D02*
X97057380Y-116459819D01*
X97057380Y-116459819D02*
X96962142Y-116459819D01*
X96962142Y-116459819D02*
X96819285Y-116507438D01*
X96819285Y-116507438D02*
X96771666Y-116555057D01*
X95914523Y-116793152D02*
X95914523Y-117459819D01*
X96152618Y-116412200D02*
X96390713Y-117126485D01*
X96390713Y-117126485D02*
X95771666Y-117126485D01*
X92859819Y-108713095D02*
X93669342Y-108713095D01*
X93669342Y-108713095D02*
X93764580Y-108760714D01*
X93764580Y-108760714D02*
X93812200Y-108808333D01*
X93812200Y-108808333D02*
X93859819Y-108903571D01*
X93859819Y-108903571D02*
X93859819Y-109094047D01*
X93859819Y-109094047D02*
X93812200Y-109189285D01*
X93812200Y-109189285D02*
X93764580Y-109236904D01*
X93764580Y-109236904D02*
X93669342Y-109284523D01*
X93669342Y-109284523D02*
X92859819Y-109284523D01*
X92955057Y-109713095D02*
X92907438Y-109760714D01*
X92907438Y-109760714D02*
X92859819Y-109855952D01*
X92859819Y-109855952D02*
X92859819Y-110094047D01*
X92859819Y-110094047D02*
X92907438Y-110189285D01*
X92907438Y-110189285D02*
X92955057Y-110236904D01*
X92955057Y-110236904D02*
X93050295Y-110284523D01*
X93050295Y-110284523D02*
X93145533Y-110284523D01*
X93145533Y-110284523D02*
X93288390Y-110236904D01*
X93288390Y-110236904D02*
X93859819Y-109665476D01*
X93859819Y-109665476D02*
X93859819Y-110284523D01*
X109337333Y-114159819D02*
X109337333Y-114874104D01*
X109337333Y-114874104D02*
X109384952Y-115016961D01*
X109384952Y-115016961D02*
X109480190Y-115112200D01*
X109480190Y-115112200D02*
X109623047Y-115159819D01*
X109623047Y-115159819D02*
X109718285Y-115159819D01*
X108337333Y-115159819D02*
X108908761Y-115159819D01*
X108623047Y-115159819D02*
X108623047Y-114159819D01*
X108623047Y-114159819D02*
X108718285Y-114302676D01*
X108718285Y-114302676D02*
X108813523Y-114397914D01*
X108813523Y-114397914D02*
X108908761Y-114445533D01*
X51879819Y-102976190D02*
X51403628Y-102642857D01*
X51879819Y-102404762D02*
X50879819Y-102404762D01*
X50879819Y-102404762D02*
X50879819Y-102785714D01*
X50879819Y-102785714D02*
X50927438Y-102880952D01*
X50927438Y-102880952D02*
X50975057Y-102928571D01*
X50975057Y-102928571D02*
X51070295Y-102976190D01*
X51070295Y-102976190D02*
X51213152Y-102976190D01*
X51213152Y-102976190D02*
X51308390Y-102928571D01*
X51308390Y-102928571D02*
X51356009Y-102880952D01*
X51356009Y-102880952D02*
X51403628Y-102785714D01*
X51403628Y-102785714D02*
X51403628Y-102404762D01*
X51975057Y-103166667D02*
X51975057Y-103928571D01*
X51879819Y-104166667D02*
X50879819Y-104166667D01*
X50879819Y-104166667D02*
X50879819Y-104404762D01*
X50879819Y-104404762D02*
X50927438Y-104547619D01*
X50927438Y-104547619D02*
X51022676Y-104642857D01*
X51022676Y-104642857D02*
X51117914Y-104690476D01*
X51117914Y-104690476D02*
X51308390Y-104738095D01*
X51308390Y-104738095D02*
X51451247Y-104738095D01*
X51451247Y-104738095D02*
X51641723Y-104690476D01*
X51641723Y-104690476D02*
X51736961Y-104642857D01*
X51736961Y-104642857D02*
X51832200Y-104547619D01*
X51832200Y-104547619D02*
X51879819Y-104404762D01*
X51879819Y-104404762D02*
X51879819Y-104166667D01*
X51356009Y-105166667D02*
X51356009Y-105500000D01*
X51879819Y-105642857D02*
X51879819Y-105166667D01*
X51879819Y-105166667D02*
X50879819Y-105166667D01*
X50879819Y-105166667D02*
X50879819Y-105642857D01*
X51879819Y-106071429D02*
X50879819Y-106071429D01*
X50879819Y-106071429D02*
X51879819Y-106642857D01*
X51879819Y-106642857D02*
X50879819Y-106642857D01*
X50879819Y-107023810D02*
X50879819Y-107642857D01*
X50879819Y-107642857D02*
X51260771Y-107309524D01*
X51260771Y-107309524D02*
X51260771Y-107452381D01*
X51260771Y-107452381D02*
X51308390Y-107547619D01*
X51308390Y-107547619D02*
X51356009Y-107595238D01*
X51356009Y-107595238D02*
X51451247Y-107642857D01*
X51451247Y-107642857D02*
X51689342Y-107642857D01*
X51689342Y-107642857D02*
X51784580Y-107595238D01*
X51784580Y-107595238D02*
X51832200Y-107547619D01*
X51832200Y-107547619D02*
X51879819Y-107452381D01*
X51879819Y-107452381D02*
X51879819Y-107166667D01*
X51879819Y-107166667D02*
X51832200Y-107071429D01*
X51832200Y-107071429D02*
X51784580Y-107023810D01*
X80761904Y-119204819D02*
X80761904Y-120014342D01*
X80761904Y-120014342D02*
X80714285Y-120109580D01*
X80714285Y-120109580D02*
X80666666Y-120157200D01*
X80666666Y-120157200D02*
X80571428Y-120204819D01*
X80571428Y-120204819D02*
X80380952Y-120204819D01*
X80380952Y-120204819D02*
X80285714Y-120157200D01*
X80285714Y-120157200D02*
X80238095Y-120109580D01*
X80238095Y-120109580D02*
X80190476Y-120014342D01*
X80190476Y-120014342D02*
X80190476Y-119204819D01*
X79238095Y-119204819D02*
X79714285Y-119204819D01*
X79714285Y-119204819D02*
X79761904Y-119681009D01*
X79761904Y-119681009D02*
X79714285Y-119633390D01*
X79714285Y-119633390D02*
X79619047Y-119585771D01*
X79619047Y-119585771D02*
X79380952Y-119585771D01*
X79380952Y-119585771D02*
X79285714Y-119633390D01*
X79285714Y-119633390D02*
X79238095Y-119681009D01*
X79238095Y-119681009D02*
X79190476Y-119776247D01*
X79190476Y-119776247D02*
X79190476Y-120014342D01*
X79190476Y-120014342D02*
X79238095Y-120109580D01*
X79238095Y-120109580D02*
X79285714Y-120157200D01*
X79285714Y-120157200D02*
X79380952Y-120204819D01*
X79380952Y-120204819D02*
X79619047Y-120204819D01*
X79619047Y-120204819D02*
X79714285Y-120157200D01*
X79714285Y-120157200D02*
X79761904Y-120109580D01*
X41954819Y-104190476D02*
X41478628Y-103857143D01*
X41954819Y-103619048D02*
X40954819Y-103619048D01*
X40954819Y-103619048D02*
X40954819Y-104000000D01*
X40954819Y-104000000D02*
X41002438Y-104095238D01*
X41002438Y-104095238D02*
X41050057Y-104142857D01*
X41050057Y-104142857D02*
X41145295Y-104190476D01*
X41145295Y-104190476D02*
X41288152Y-104190476D01*
X41288152Y-104190476D02*
X41383390Y-104142857D01*
X41383390Y-104142857D02*
X41431009Y-104095238D01*
X41431009Y-104095238D02*
X41478628Y-104000000D01*
X41478628Y-104000000D02*
X41478628Y-103619048D01*
X42050057Y-104380953D02*
X42050057Y-105142857D01*
X41954819Y-105380953D02*
X40954819Y-105380953D01*
X41954819Y-105857143D02*
X40954819Y-105857143D01*
X40954819Y-105857143D02*
X41954819Y-106428571D01*
X41954819Y-106428571D02*
X40954819Y-106428571D01*
X41954819Y-107428571D02*
X41954819Y-106857143D01*
X41954819Y-107142857D02*
X40954819Y-107142857D01*
X40954819Y-107142857D02*
X41097676Y-107047619D01*
X41097676Y-107047619D02*
X41192914Y-106952381D01*
X41192914Y-106952381D02*
X41240533Y-106857143D01*
X97071666Y-99779819D02*
X97404999Y-99303628D01*
X97643094Y-99779819D02*
X97643094Y-98779819D01*
X97643094Y-98779819D02*
X97262142Y-98779819D01*
X97262142Y-98779819D02*
X97166904Y-98827438D01*
X97166904Y-98827438D02*
X97119285Y-98875057D01*
X97119285Y-98875057D02*
X97071666Y-98970295D01*
X97071666Y-98970295D02*
X97071666Y-99113152D01*
X97071666Y-99113152D02*
X97119285Y-99208390D01*
X97119285Y-99208390D02*
X97166904Y-99256009D01*
X97166904Y-99256009D02*
X97262142Y-99303628D01*
X97262142Y-99303628D02*
X97643094Y-99303628D01*
X96738332Y-98779819D02*
X96119285Y-98779819D01*
X96119285Y-98779819D02*
X96452618Y-99160771D01*
X96452618Y-99160771D02*
X96309761Y-99160771D01*
X96309761Y-99160771D02*
X96214523Y-99208390D01*
X96214523Y-99208390D02*
X96166904Y-99256009D01*
X96166904Y-99256009D02*
X96119285Y-99351247D01*
X96119285Y-99351247D02*
X96119285Y-99589342D01*
X96119285Y-99589342D02*
X96166904Y-99684580D01*
X96166904Y-99684580D02*
X96214523Y-99732200D01*
X96214523Y-99732200D02*
X96309761Y-99779819D01*
X96309761Y-99779819D02*
X96595475Y-99779819D01*
X96595475Y-99779819D02*
X96690713Y-99732200D01*
X96690713Y-99732200D02*
X96738332Y-99684580D01*
X59954819Y-102976190D02*
X59478628Y-102642857D01*
X59954819Y-102404762D02*
X58954819Y-102404762D01*
X58954819Y-102404762D02*
X58954819Y-102785714D01*
X58954819Y-102785714D02*
X59002438Y-102880952D01*
X59002438Y-102880952D02*
X59050057Y-102928571D01*
X59050057Y-102928571D02*
X59145295Y-102976190D01*
X59145295Y-102976190D02*
X59288152Y-102976190D01*
X59288152Y-102976190D02*
X59383390Y-102928571D01*
X59383390Y-102928571D02*
X59431009Y-102880952D01*
X59431009Y-102880952D02*
X59478628Y-102785714D01*
X59478628Y-102785714D02*
X59478628Y-102404762D01*
X60050057Y-103166667D02*
X60050057Y-103928571D01*
X59954819Y-104166667D02*
X58954819Y-104166667D01*
X58954819Y-104166667D02*
X58954819Y-104404762D01*
X58954819Y-104404762D02*
X59002438Y-104547619D01*
X59002438Y-104547619D02*
X59097676Y-104642857D01*
X59097676Y-104642857D02*
X59192914Y-104690476D01*
X59192914Y-104690476D02*
X59383390Y-104738095D01*
X59383390Y-104738095D02*
X59526247Y-104738095D01*
X59526247Y-104738095D02*
X59716723Y-104690476D01*
X59716723Y-104690476D02*
X59811961Y-104642857D01*
X59811961Y-104642857D02*
X59907200Y-104547619D01*
X59907200Y-104547619D02*
X59954819Y-104404762D01*
X59954819Y-104404762D02*
X59954819Y-104166667D01*
X59431009Y-105166667D02*
X59431009Y-105500000D01*
X59954819Y-105642857D02*
X59954819Y-105166667D01*
X59954819Y-105166667D02*
X58954819Y-105166667D01*
X58954819Y-105166667D02*
X58954819Y-105642857D01*
X59954819Y-106071429D02*
X58954819Y-106071429D01*
X58954819Y-106071429D02*
X59954819Y-106642857D01*
X59954819Y-106642857D02*
X58954819Y-106642857D01*
X58954819Y-107595238D02*
X58954819Y-107119048D01*
X58954819Y-107119048D02*
X59431009Y-107071429D01*
X59431009Y-107071429D02*
X59383390Y-107119048D01*
X59383390Y-107119048D02*
X59335771Y-107214286D01*
X59335771Y-107214286D02*
X59335771Y-107452381D01*
X59335771Y-107452381D02*
X59383390Y-107547619D01*
X59383390Y-107547619D02*
X59431009Y-107595238D01*
X59431009Y-107595238D02*
X59526247Y-107642857D01*
X59526247Y-107642857D02*
X59764342Y-107642857D01*
X59764342Y-107642857D02*
X59859580Y-107595238D01*
X59859580Y-107595238D02*
X59907200Y-107547619D01*
X59907200Y-107547619D02*
X59954819Y-107452381D01*
X59954819Y-107452381D02*
X59954819Y-107214286D01*
X59954819Y-107214286D02*
X59907200Y-107119048D01*
X59907200Y-107119048D02*
X59859580Y-107071429D01*
X42398819Y-120738095D02*
X43208342Y-120738095D01*
X43208342Y-120738095D02*
X43303580Y-120785714D01*
X43303580Y-120785714D02*
X43351200Y-120833333D01*
X43351200Y-120833333D02*
X43398819Y-120928571D01*
X43398819Y-120928571D02*
X43398819Y-121119047D01*
X43398819Y-121119047D02*
X43351200Y-121214285D01*
X43351200Y-121214285D02*
X43303580Y-121261904D01*
X43303580Y-121261904D02*
X43208342Y-121309523D01*
X43208342Y-121309523D02*
X42398819Y-121309523D01*
X42827390Y-121928571D02*
X42779771Y-121833333D01*
X42779771Y-121833333D02*
X42732152Y-121785714D01*
X42732152Y-121785714D02*
X42636914Y-121738095D01*
X42636914Y-121738095D02*
X42589295Y-121738095D01*
X42589295Y-121738095D02*
X42494057Y-121785714D01*
X42494057Y-121785714D02*
X42446438Y-121833333D01*
X42446438Y-121833333D02*
X42398819Y-121928571D01*
X42398819Y-121928571D02*
X42398819Y-122119047D01*
X42398819Y-122119047D02*
X42446438Y-122214285D01*
X42446438Y-122214285D02*
X42494057Y-122261904D01*
X42494057Y-122261904D02*
X42589295Y-122309523D01*
X42589295Y-122309523D02*
X42636914Y-122309523D01*
X42636914Y-122309523D02*
X42732152Y-122261904D01*
X42732152Y-122261904D02*
X42779771Y-122214285D01*
X42779771Y-122214285D02*
X42827390Y-122119047D01*
X42827390Y-122119047D02*
X42827390Y-121928571D01*
X42827390Y-121928571D02*
X42875009Y-121833333D01*
X42875009Y-121833333D02*
X42922628Y-121785714D01*
X42922628Y-121785714D02*
X43017866Y-121738095D01*
X43017866Y-121738095D02*
X43208342Y-121738095D01*
X43208342Y-121738095D02*
X43303580Y-121785714D01*
X43303580Y-121785714D02*
X43351200Y-121833333D01*
X43351200Y-121833333D02*
X43398819Y-121928571D01*
X43398819Y-121928571D02*
X43398819Y-122119047D01*
X43398819Y-122119047D02*
X43351200Y-122214285D01*
X43351200Y-122214285D02*
X43303580Y-122261904D01*
X43303580Y-122261904D02*
X43208342Y-122309523D01*
X43208342Y-122309523D02*
X43017866Y-122309523D01*
X43017866Y-122309523D02*
X42922628Y-122261904D01*
X42922628Y-122261904D02*
X42875009Y-122214285D01*
X42875009Y-122214285D02*
X42827390Y-122119047D01*
X30996428Y-126679580D02*
X31044047Y-126727200D01*
X31044047Y-126727200D02*
X31186904Y-126774819D01*
X31186904Y-126774819D02*
X31282142Y-126774819D01*
X31282142Y-126774819D02*
X31424999Y-126727200D01*
X31424999Y-126727200D02*
X31520237Y-126631961D01*
X31520237Y-126631961D02*
X31567856Y-126536723D01*
X31567856Y-126536723D02*
X31615475Y-126346247D01*
X31615475Y-126346247D02*
X31615475Y-126203390D01*
X31615475Y-126203390D02*
X31567856Y-126012914D01*
X31567856Y-126012914D02*
X31520237Y-125917676D01*
X31520237Y-125917676D02*
X31424999Y-125822438D01*
X31424999Y-125822438D02*
X31282142Y-125774819D01*
X31282142Y-125774819D02*
X31186904Y-125774819D01*
X31186904Y-125774819D02*
X31044047Y-125822438D01*
X31044047Y-125822438D02*
X30996428Y-125870057D01*
X30805952Y-126870057D02*
X30044047Y-126870057D01*
X29282142Y-125822438D02*
X29377380Y-125774819D01*
X29377380Y-125774819D02*
X29520237Y-125774819D01*
X29520237Y-125774819D02*
X29663094Y-125822438D01*
X29663094Y-125822438D02*
X29758332Y-125917676D01*
X29758332Y-125917676D02*
X29805951Y-126012914D01*
X29805951Y-126012914D02*
X29853570Y-126203390D01*
X29853570Y-126203390D02*
X29853570Y-126346247D01*
X29853570Y-126346247D02*
X29805951Y-126536723D01*
X29805951Y-126536723D02*
X29758332Y-126631961D01*
X29758332Y-126631961D02*
X29663094Y-126727200D01*
X29663094Y-126727200D02*
X29520237Y-126774819D01*
X29520237Y-126774819D02*
X29424999Y-126774819D01*
X29424999Y-126774819D02*
X29282142Y-126727200D01*
X29282142Y-126727200D02*
X29234523Y-126679580D01*
X29234523Y-126679580D02*
X29234523Y-126346247D01*
X29234523Y-126346247D02*
X29424999Y-126346247D01*
X28805951Y-126774819D02*
X28805951Y-125774819D01*
X28805951Y-125774819D02*
X28234523Y-126774819D01*
X28234523Y-126774819D02*
X28234523Y-125774819D01*
X27758332Y-126774819D02*
X27758332Y-125774819D01*
X27758332Y-125774819D02*
X27520237Y-125774819D01*
X27520237Y-125774819D02*
X27377380Y-125822438D01*
X27377380Y-125822438D02*
X27282142Y-125917676D01*
X27282142Y-125917676D02*
X27234523Y-126012914D01*
X27234523Y-126012914D02*
X27186904Y-126203390D01*
X27186904Y-126203390D02*
X27186904Y-126346247D01*
X27186904Y-126346247D02*
X27234523Y-126536723D01*
X27234523Y-126536723D02*
X27282142Y-126631961D01*
X27282142Y-126631961D02*
X27377380Y-126727200D01*
X27377380Y-126727200D02*
X27520237Y-126774819D01*
X27520237Y-126774819D02*
X27758332Y-126774819D01*
X26234523Y-126774819D02*
X26805951Y-126774819D01*
X26520237Y-126774819D02*
X26520237Y-125774819D01*
X26520237Y-125774819D02*
X26615475Y-125917676D01*
X26615475Y-125917676D02*
X26710713Y-126012914D01*
X26710713Y-126012914D02*
X26805951Y-126060533D01*
X59142857Y-47954819D02*
X59476190Y-47478628D01*
X59714285Y-47954819D02*
X59714285Y-46954819D01*
X59714285Y-46954819D02*
X59333333Y-46954819D01*
X59333333Y-46954819D02*
X59238095Y-47002438D01*
X59238095Y-47002438D02*
X59190476Y-47050057D01*
X59190476Y-47050057D02*
X59142857Y-47145295D01*
X59142857Y-47145295D02*
X59142857Y-47288152D01*
X59142857Y-47288152D02*
X59190476Y-47383390D01*
X59190476Y-47383390D02*
X59238095Y-47431009D01*
X59238095Y-47431009D02*
X59333333Y-47478628D01*
X59333333Y-47478628D02*
X59714285Y-47478628D01*
X58190476Y-47954819D02*
X58761904Y-47954819D01*
X58476190Y-47954819D02*
X58476190Y-46954819D01*
X58476190Y-46954819D02*
X58571428Y-47097676D01*
X58571428Y-47097676D02*
X58666666Y-47192914D01*
X58666666Y-47192914D02*
X58761904Y-47240533D01*
X57857142Y-46954819D02*
X57238095Y-46954819D01*
X57238095Y-46954819D02*
X57571428Y-47335771D01*
X57571428Y-47335771D02*
X57428571Y-47335771D01*
X57428571Y-47335771D02*
X57333333Y-47383390D01*
X57333333Y-47383390D02*
X57285714Y-47431009D01*
X57285714Y-47431009D02*
X57238095Y-47526247D01*
X57238095Y-47526247D02*
X57238095Y-47764342D01*
X57238095Y-47764342D02*
X57285714Y-47859580D01*
X57285714Y-47859580D02*
X57333333Y-47907200D01*
X57333333Y-47907200D02*
X57428571Y-47954819D01*
X57428571Y-47954819D02*
X57714285Y-47954819D01*
X57714285Y-47954819D02*
X57809523Y-47907200D01*
X57809523Y-47907200D02*
X57857142Y-47859580D01*
X125666666Y-110804819D02*
X125999999Y-110328628D01*
X126238094Y-110804819D02*
X126238094Y-109804819D01*
X126238094Y-109804819D02*
X125857142Y-109804819D01*
X125857142Y-109804819D02*
X125761904Y-109852438D01*
X125761904Y-109852438D02*
X125714285Y-109900057D01*
X125714285Y-109900057D02*
X125666666Y-109995295D01*
X125666666Y-109995295D02*
X125666666Y-110138152D01*
X125666666Y-110138152D02*
X125714285Y-110233390D01*
X125714285Y-110233390D02*
X125761904Y-110281009D01*
X125761904Y-110281009D02*
X125857142Y-110328628D01*
X125857142Y-110328628D02*
X126238094Y-110328628D01*
X125285713Y-109900057D02*
X125238094Y-109852438D01*
X125238094Y-109852438D02*
X125142856Y-109804819D01*
X125142856Y-109804819D02*
X124904761Y-109804819D01*
X124904761Y-109804819D02*
X124809523Y-109852438D01*
X124809523Y-109852438D02*
X124761904Y-109900057D01*
X124761904Y-109900057D02*
X124714285Y-109995295D01*
X124714285Y-109995295D02*
X124714285Y-110090533D01*
X124714285Y-110090533D02*
X124761904Y-110233390D01*
X124761904Y-110233390D02*
X125333332Y-110804819D01*
X125333332Y-110804819D02*
X124714285Y-110804819D01*
X49954819Y-104690476D02*
X49478628Y-104357143D01*
X49954819Y-104119048D02*
X48954819Y-104119048D01*
X48954819Y-104119048D02*
X48954819Y-104500000D01*
X48954819Y-104500000D02*
X49002438Y-104595238D01*
X49002438Y-104595238D02*
X49050057Y-104642857D01*
X49050057Y-104642857D02*
X49145295Y-104690476D01*
X49145295Y-104690476D02*
X49288152Y-104690476D01*
X49288152Y-104690476D02*
X49383390Y-104642857D01*
X49383390Y-104642857D02*
X49431009Y-104595238D01*
X49431009Y-104595238D02*
X49478628Y-104500000D01*
X49478628Y-104500000D02*
X49478628Y-104119048D01*
X50050057Y-104880953D02*
X50050057Y-105642857D01*
X49954819Y-105880953D02*
X48954819Y-105880953D01*
X49954819Y-106357143D02*
X48954819Y-106357143D01*
X48954819Y-106357143D02*
X49954819Y-106928571D01*
X49954819Y-106928571D02*
X48954819Y-106928571D01*
X48954819Y-107309524D02*
X48954819Y-107928571D01*
X48954819Y-107928571D02*
X49335771Y-107595238D01*
X49335771Y-107595238D02*
X49335771Y-107738095D01*
X49335771Y-107738095D02*
X49383390Y-107833333D01*
X49383390Y-107833333D02*
X49431009Y-107880952D01*
X49431009Y-107880952D02*
X49526247Y-107928571D01*
X49526247Y-107928571D02*
X49764342Y-107928571D01*
X49764342Y-107928571D02*
X49859580Y-107880952D01*
X49859580Y-107880952D02*
X49907200Y-107833333D01*
X49907200Y-107833333D02*
X49954819Y-107738095D01*
X49954819Y-107738095D02*
X49954819Y-107452381D01*
X49954819Y-107452381D02*
X49907200Y-107357143D01*
X49907200Y-107357143D02*
X49859580Y-107309524D01*
X124261904Y-114454819D02*
X124261904Y-115264342D01*
X124261904Y-115264342D02*
X124214285Y-115359580D01*
X124214285Y-115359580D02*
X124166666Y-115407200D01*
X124166666Y-115407200D02*
X124071428Y-115454819D01*
X124071428Y-115454819D02*
X123880952Y-115454819D01*
X123880952Y-115454819D02*
X123785714Y-115407200D01*
X123785714Y-115407200D02*
X123738095Y-115359580D01*
X123738095Y-115359580D02*
X123690476Y-115264342D01*
X123690476Y-115264342D02*
X123690476Y-114454819D01*
X122690476Y-115454819D02*
X123261904Y-115454819D01*
X122976190Y-115454819D02*
X122976190Y-114454819D01*
X122976190Y-114454819D02*
X123071428Y-114597676D01*
X123071428Y-114597676D02*
X123166666Y-114692914D01*
X123166666Y-114692914D02*
X123261904Y-114740533D01*
X49898819Y-120738095D02*
X50708342Y-120738095D01*
X50708342Y-120738095D02*
X50803580Y-120785714D01*
X50803580Y-120785714D02*
X50851200Y-120833333D01*
X50851200Y-120833333D02*
X50898819Y-120928571D01*
X50898819Y-120928571D02*
X50898819Y-121119047D01*
X50898819Y-121119047D02*
X50851200Y-121214285D01*
X50851200Y-121214285D02*
X50803580Y-121261904D01*
X50803580Y-121261904D02*
X50708342Y-121309523D01*
X50708342Y-121309523D02*
X49898819Y-121309523D01*
X50898819Y-121833333D02*
X50898819Y-122023809D01*
X50898819Y-122023809D02*
X50851200Y-122119047D01*
X50851200Y-122119047D02*
X50803580Y-122166666D01*
X50803580Y-122166666D02*
X50660723Y-122261904D01*
X50660723Y-122261904D02*
X50470247Y-122309523D01*
X50470247Y-122309523D02*
X50089295Y-122309523D01*
X50089295Y-122309523D02*
X49994057Y-122261904D01*
X49994057Y-122261904D02*
X49946438Y-122214285D01*
X49946438Y-122214285D02*
X49898819Y-122119047D01*
X49898819Y-122119047D02*
X49898819Y-121928571D01*
X49898819Y-121928571D02*
X49946438Y-121833333D01*
X49946438Y-121833333D02*
X49994057Y-121785714D01*
X49994057Y-121785714D02*
X50089295Y-121738095D01*
X50089295Y-121738095D02*
X50327390Y-121738095D01*
X50327390Y-121738095D02*
X50422628Y-121785714D01*
X50422628Y-121785714D02*
X50470247Y-121833333D01*
X50470247Y-121833333D02*
X50517866Y-121928571D01*
X50517866Y-121928571D02*
X50517866Y-122119047D01*
X50517866Y-122119047D02*
X50470247Y-122214285D01*
X50470247Y-122214285D02*
X50422628Y-122261904D01*
X50422628Y-122261904D02*
X50327390Y-122309523D01*
X56642857Y-54454819D02*
X56976190Y-53978628D01*
X57214285Y-54454819D02*
X57214285Y-53454819D01*
X57214285Y-53454819D02*
X56833333Y-53454819D01*
X56833333Y-53454819D02*
X56738095Y-53502438D01*
X56738095Y-53502438D02*
X56690476Y-53550057D01*
X56690476Y-53550057D02*
X56642857Y-53645295D01*
X56642857Y-53645295D02*
X56642857Y-53788152D01*
X56642857Y-53788152D02*
X56690476Y-53883390D01*
X56690476Y-53883390D02*
X56738095Y-53931009D01*
X56738095Y-53931009D02*
X56833333Y-53978628D01*
X56833333Y-53978628D02*
X57214285Y-53978628D01*
X55690476Y-54454819D02*
X56261904Y-54454819D01*
X55976190Y-54454819D02*
X55976190Y-53454819D01*
X55976190Y-53454819D02*
X56071428Y-53597676D01*
X56071428Y-53597676D02*
X56166666Y-53692914D01*
X56166666Y-53692914D02*
X56261904Y-53740533D01*
X54738095Y-54454819D02*
X55309523Y-54454819D01*
X55023809Y-54454819D02*
X55023809Y-53454819D01*
X55023809Y-53454819D02*
X55119047Y-53597676D01*
X55119047Y-53597676D02*
X55214285Y-53692914D01*
X55214285Y-53692914D02*
X55309523Y-53740533D01*
X63359580Y-55333333D02*
X63407200Y-55285714D01*
X63407200Y-55285714D02*
X63454819Y-55142857D01*
X63454819Y-55142857D02*
X63454819Y-55047619D01*
X63454819Y-55047619D02*
X63407200Y-54904762D01*
X63407200Y-54904762D02*
X63311961Y-54809524D01*
X63311961Y-54809524D02*
X63216723Y-54761905D01*
X63216723Y-54761905D02*
X63026247Y-54714286D01*
X63026247Y-54714286D02*
X62883390Y-54714286D01*
X62883390Y-54714286D02*
X62692914Y-54761905D01*
X62692914Y-54761905D02*
X62597676Y-54809524D01*
X62597676Y-54809524D02*
X62502438Y-54904762D01*
X62502438Y-54904762D02*
X62454819Y-55047619D01*
X62454819Y-55047619D02*
X62454819Y-55142857D01*
X62454819Y-55142857D02*
X62502438Y-55285714D01*
X62502438Y-55285714D02*
X62550057Y-55333333D01*
X62454819Y-56190476D02*
X62454819Y-56000000D01*
X62454819Y-56000000D02*
X62502438Y-55904762D01*
X62502438Y-55904762D02*
X62550057Y-55857143D01*
X62550057Y-55857143D02*
X62692914Y-55761905D01*
X62692914Y-55761905D02*
X62883390Y-55714286D01*
X62883390Y-55714286D02*
X63264342Y-55714286D01*
X63264342Y-55714286D02*
X63359580Y-55761905D01*
X63359580Y-55761905D02*
X63407200Y-55809524D01*
X63407200Y-55809524D02*
X63454819Y-55904762D01*
X63454819Y-55904762D02*
X63454819Y-56095238D01*
X63454819Y-56095238D02*
X63407200Y-56190476D01*
X63407200Y-56190476D02*
X63359580Y-56238095D01*
X63359580Y-56238095D02*
X63264342Y-56285714D01*
X63264342Y-56285714D02*
X63026247Y-56285714D01*
X63026247Y-56285714D02*
X62931009Y-56238095D01*
X62931009Y-56238095D02*
X62883390Y-56190476D01*
X62883390Y-56190476D02*
X62835771Y-56095238D01*
X62835771Y-56095238D02*
X62835771Y-55904762D01*
X62835771Y-55904762D02*
X62883390Y-55809524D01*
X62883390Y-55809524D02*
X62931009Y-55761905D01*
X62931009Y-55761905D02*
X63026247Y-55714286D01*
X101371666Y-99684580D02*
X101419285Y-99732200D01*
X101419285Y-99732200D02*
X101562142Y-99779819D01*
X101562142Y-99779819D02*
X101657380Y-99779819D01*
X101657380Y-99779819D02*
X101800237Y-99732200D01*
X101800237Y-99732200D02*
X101895475Y-99636961D01*
X101895475Y-99636961D02*
X101943094Y-99541723D01*
X101943094Y-99541723D02*
X101990713Y-99351247D01*
X101990713Y-99351247D02*
X101990713Y-99208390D01*
X101990713Y-99208390D02*
X101943094Y-99017914D01*
X101943094Y-99017914D02*
X101895475Y-98922676D01*
X101895475Y-98922676D02*
X101800237Y-98827438D01*
X101800237Y-98827438D02*
X101657380Y-98779819D01*
X101657380Y-98779819D02*
X101562142Y-98779819D01*
X101562142Y-98779819D02*
X101419285Y-98827438D01*
X101419285Y-98827438D02*
X101371666Y-98875057D01*
X100419285Y-99779819D02*
X100990713Y-99779819D01*
X100704999Y-99779819D02*
X100704999Y-98779819D01*
X100704999Y-98779819D02*
X100800237Y-98922676D01*
X100800237Y-98922676D02*
X100895475Y-99017914D01*
X100895475Y-99017914D02*
X100990713Y-99065533D01*
X72166666Y-56359580D02*
X72214285Y-56407200D01*
X72214285Y-56407200D02*
X72357142Y-56454819D01*
X72357142Y-56454819D02*
X72452380Y-56454819D01*
X72452380Y-56454819D02*
X72595237Y-56407200D01*
X72595237Y-56407200D02*
X72690475Y-56311961D01*
X72690475Y-56311961D02*
X72738094Y-56216723D01*
X72738094Y-56216723D02*
X72785713Y-56026247D01*
X72785713Y-56026247D02*
X72785713Y-55883390D01*
X72785713Y-55883390D02*
X72738094Y-55692914D01*
X72738094Y-55692914D02*
X72690475Y-55597676D01*
X72690475Y-55597676D02*
X72595237Y-55502438D01*
X72595237Y-55502438D02*
X72452380Y-55454819D01*
X72452380Y-55454819D02*
X72357142Y-55454819D01*
X72357142Y-55454819D02*
X72214285Y-55502438D01*
X72214285Y-55502438D02*
X72166666Y-55550057D01*
X71833332Y-55454819D02*
X71166666Y-55454819D01*
X71166666Y-55454819D02*
X71595237Y-56454819D01*
X43954819Y-102976190D02*
X43478628Y-102642857D01*
X43954819Y-102404762D02*
X42954819Y-102404762D01*
X42954819Y-102404762D02*
X42954819Y-102785714D01*
X42954819Y-102785714D02*
X43002438Y-102880952D01*
X43002438Y-102880952D02*
X43050057Y-102928571D01*
X43050057Y-102928571D02*
X43145295Y-102976190D01*
X43145295Y-102976190D02*
X43288152Y-102976190D01*
X43288152Y-102976190D02*
X43383390Y-102928571D01*
X43383390Y-102928571D02*
X43431009Y-102880952D01*
X43431009Y-102880952D02*
X43478628Y-102785714D01*
X43478628Y-102785714D02*
X43478628Y-102404762D01*
X44050057Y-103166667D02*
X44050057Y-103928571D01*
X43954819Y-104166667D02*
X42954819Y-104166667D01*
X42954819Y-104166667D02*
X42954819Y-104404762D01*
X42954819Y-104404762D02*
X43002438Y-104547619D01*
X43002438Y-104547619D02*
X43097676Y-104642857D01*
X43097676Y-104642857D02*
X43192914Y-104690476D01*
X43192914Y-104690476D02*
X43383390Y-104738095D01*
X43383390Y-104738095D02*
X43526247Y-104738095D01*
X43526247Y-104738095D02*
X43716723Y-104690476D01*
X43716723Y-104690476D02*
X43811961Y-104642857D01*
X43811961Y-104642857D02*
X43907200Y-104547619D01*
X43907200Y-104547619D02*
X43954819Y-104404762D01*
X43954819Y-104404762D02*
X43954819Y-104166667D01*
X43431009Y-105166667D02*
X43431009Y-105500000D01*
X43954819Y-105642857D02*
X43954819Y-105166667D01*
X43954819Y-105166667D02*
X42954819Y-105166667D01*
X42954819Y-105166667D02*
X42954819Y-105642857D01*
X43954819Y-106071429D02*
X42954819Y-106071429D01*
X42954819Y-106071429D02*
X43954819Y-106642857D01*
X43954819Y-106642857D02*
X42954819Y-106642857D01*
X43954819Y-107642857D02*
X43954819Y-107071429D01*
X43954819Y-107357143D02*
X42954819Y-107357143D01*
X42954819Y-107357143D02*
X43097676Y-107261905D01*
X43097676Y-107261905D02*
X43192914Y-107166667D01*
X43192914Y-107166667D02*
X43240533Y-107071429D01*
X60496428Y-126679580D02*
X60544047Y-126727200D01*
X60544047Y-126727200D02*
X60686904Y-126774819D01*
X60686904Y-126774819D02*
X60782142Y-126774819D01*
X60782142Y-126774819D02*
X60924999Y-126727200D01*
X60924999Y-126727200D02*
X61020237Y-126631961D01*
X61020237Y-126631961D02*
X61067856Y-126536723D01*
X61067856Y-126536723D02*
X61115475Y-126346247D01*
X61115475Y-126346247D02*
X61115475Y-126203390D01*
X61115475Y-126203390D02*
X61067856Y-126012914D01*
X61067856Y-126012914D02*
X61020237Y-125917676D01*
X61020237Y-125917676D02*
X60924999Y-125822438D01*
X60924999Y-125822438D02*
X60782142Y-125774819D01*
X60782142Y-125774819D02*
X60686904Y-125774819D01*
X60686904Y-125774819D02*
X60544047Y-125822438D01*
X60544047Y-125822438D02*
X60496428Y-125870057D01*
X60305952Y-126870057D02*
X59544047Y-126870057D01*
X58782142Y-125822438D02*
X58877380Y-125774819D01*
X58877380Y-125774819D02*
X59020237Y-125774819D01*
X59020237Y-125774819D02*
X59163094Y-125822438D01*
X59163094Y-125822438D02*
X59258332Y-125917676D01*
X59258332Y-125917676D02*
X59305951Y-126012914D01*
X59305951Y-126012914D02*
X59353570Y-126203390D01*
X59353570Y-126203390D02*
X59353570Y-126346247D01*
X59353570Y-126346247D02*
X59305951Y-126536723D01*
X59305951Y-126536723D02*
X59258332Y-126631961D01*
X59258332Y-126631961D02*
X59163094Y-126727200D01*
X59163094Y-126727200D02*
X59020237Y-126774819D01*
X59020237Y-126774819D02*
X58924999Y-126774819D01*
X58924999Y-126774819D02*
X58782142Y-126727200D01*
X58782142Y-126727200D02*
X58734523Y-126679580D01*
X58734523Y-126679580D02*
X58734523Y-126346247D01*
X58734523Y-126346247D02*
X58924999Y-126346247D01*
X58305951Y-126774819D02*
X58305951Y-125774819D01*
X58305951Y-125774819D02*
X57734523Y-126774819D01*
X57734523Y-126774819D02*
X57734523Y-125774819D01*
X57258332Y-126774819D02*
X57258332Y-125774819D01*
X57258332Y-125774819D02*
X57020237Y-125774819D01*
X57020237Y-125774819D02*
X56877380Y-125822438D01*
X56877380Y-125822438D02*
X56782142Y-125917676D01*
X56782142Y-125917676D02*
X56734523Y-126012914D01*
X56734523Y-126012914D02*
X56686904Y-126203390D01*
X56686904Y-126203390D02*
X56686904Y-126346247D01*
X56686904Y-126346247D02*
X56734523Y-126536723D01*
X56734523Y-126536723D02*
X56782142Y-126631961D01*
X56782142Y-126631961D02*
X56877380Y-126727200D01*
X56877380Y-126727200D02*
X57020237Y-126774819D01*
X57020237Y-126774819D02*
X57258332Y-126774819D01*
X55782142Y-125774819D02*
X56258332Y-125774819D01*
X56258332Y-125774819D02*
X56305951Y-126251009D01*
X56305951Y-126251009D02*
X56258332Y-126203390D01*
X56258332Y-126203390D02*
X56163094Y-126155771D01*
X56163094Y-126155771D02*
X55924999Y-126155771D01*
X55924999Y-126155771D02*
X55829761Y-126203390D01*
X55829761Y-126203390D02*
X55782142Y-126251009D01*
X55782142Y-126251009D02*
X55734523Y-126346247D01*
X55734523Y-126346247D02*
X55734523Y-126584342D01*
X55734523Y-126584342D02*
X55782142Y-126679580D01*
X55782142Y-126679580D02*
X55829761Y-126727200D01*
X55829761Y-126727200D02*
X55924999Y-126774819D01*
X55924999Y-126774819D02*
X56163094Y-126774819D01*
X56163094Y-126774819D02*
X56258332Y-126727200D01*
X56258332Y-126727200D02*
X56305951Y-126679580D01*
X57323819Y-120261905D02*
X58133342Y-120261905D01*
X58133342Y-120261905D02*
X58228580Y-120309524D01*
X58228580Y-120309524D02*
X58276200Y-120357143D01*
X58276200Y-120357143D02*
X58323819Y-120452381D01*
X58323819Y-120452381D02*
X58323819Y-120642857D01*
X58323819Y-120642857D02*
X58276200Y-120738095D01*
X58276200Y-120738095D02*
X58228580Y-120785714D01*
X58228580Y-120785714D02*
X58133342Y-120833333D01*
X58133342Y-120833333D02*
X57323819Y-120833333D01*
X58323819Y-121833333D02*
X58323819Y-121261905D01*
X58323819Y-121547619D02*
X57323819Y-121547619D01*
X57323819Y-121547619D02*
X57466676Y-121452381D01*
X57466676Y-121452381D02*
X57561914Y-121357143D01*
X57561914Y-121357143D02*
X57609533Y-121261905D01*
X57323819Y-122452381D02*
X57323819Y-122547619D01*
X57323819Y-122547619D02*
X57371438Y-122642857D01*
X57371438Y-122642857D02*
X57419057Y-122690476D01*
X57419057Y-122690476D02*
X57514295Y-122738095D01*
X57514295Y-122738095D02*
X57704771Y-122785714D01*
X57704771Y-122785714D02*
X57942866Y-122785714D01*
X57942866Y-122785714D02*
X58133342Y-122738095D01*
X58133342Y-122738095D02*
X58228580Y-122690476D01*
X58228580Y-122690476D02*
X58276200Y-122642857D01*
X58276200Y-122642857D02*
X58323819Y-122547619D01*
X58323819Y-122547619D02*
X58323819Y-122452381D01*
X58323819Y-122452381D02*
X58276200Y-122357143D01*
X58276200Y-122357143D02*
X58228580Y-122309524D01*
X58228580Y-122309524D02*
X58133342Y-122261905D01*
X58133342Y-122261905D02*
X57942866Y-122214286D01*
X57942866Y-122214286D02*
X57704771Y-122214286D01*
X57704771Y-122214286D02*
X57514295Y-122261905D01*
X57514295Y-122261905D02*
X57419057Y-122309524D01*
X57419057Y-122309524D02*
X57371438Y-122357143D01*
X57371438Y-122357143D02*
X57323819Y-122452381D01*
X38496428Y-126679580D02*
X38544047Y-126727200D01*
X38544047Y-126727200D02*
X38686904Y-126774819D01*
X38686904Y-126774819D02*
X38782142Y-126774819D01*
X38782142Y-126774819D02*
X38924999Y-126727200D01*
X38924999Y-126727200D02*
X39020237Y-126631961D01*
X39020237Y-126631961D02*
X39067856Y-126536723D01*
X39067856Y-126536723D02*
X39115475Y-126346247D01*
X39115475Y-126346247D02*
X39115475Y-126203390D01*
X39115475Y-126203390D02*
X39067856Y-126012914D01*
X39067856Y-126012914D02*
X39020237Y-125917676D01*
X39020237Y-125917676D02*
X38924999Y-125822438D01*
X38924999Y-125822438D02*
X38782142Y-125774819D01*
X38782142Y-125774819D02*
X38686904Y-125774819D01*
X38686904Y-125774819D02*
X38544047Y-125822438D01*
X38544047Y-125822438D02*
X38496428Y-125870057D01*
X38305952Y-126870057D02*
X37544047Y-126870057D01*
X36782142Y-125822438D02*
X36877380Y-125774819D01*
X36877380Y-125774819D02*
X37020237Y-125774819D01*
X37020237Y-125774819D02*
X37163094Y-125822438D01*
X37163094Y-125822438D02*
X37258332Y-125917676D01*
X37258332Y-125917676D02*
X37305951Y-126012914D01*
X37305951Y-126012914D02*
X37353570Y-126203390D01*
X37353570Y-126203390D02*
X37353570Y-126346247D01*
X37353570Y-126346247D02*
X37305951Y-126536723D01*
X37305951Y-126536723D02*
X37258332Y-126631961D01*
X37258332Y-126631961D02*
X37163094Y-126727200D01*
X37163094Y-126727200D02*
X37020237Y-126774819D01*
X37020237Y-126774819D02*
X36924999Y-126774819D01*
X36924999Y-126774819D02*
X36782142Y-126727200D01*
X36782142Y-126727200D02*
X36734523Y-126679580D01*
X36734523Y-126679580D02*
X36734523Y-126346247D01*
X36734523Y-126346247D02*
X36924999Y-126346247D01*
X36305951Y-126774819D02*
X36305951Y-125774819D01*
X36305951Y-125774819D02*
X35734523Y-126774819D01*
X35734523Y-126774819D02*
X35734523Y-125774819D01*
X35258332Y-126774819D02*
X35258332Y-125774819D01*
X35258332Y-125774819D02*
X35020237Y-125774819D01*
X35020237Y-125774819D02*
X34877380Y-125822438D01*
X34877380Y-125822438D02*
X34782142Y-125917676D01*
X34782142Y-125917676D02*
X34734523Y-126012914D01*
X34734523Y-126012914D02*
X34686904Y-126203390D01*
X34686904Y-126203390D02*
X34686904Y-126346247D01*
X34686904Y-126346247D02*
X34734523Y-126536723D01*
X34734523Y-126536723D02*
X34782142Y-126631961D01*
X34782142Y-126631961D02*
X34877380Y-126727200D01*
X34877380Y-126727200D02*
X35020237Y-126774819D01*
X35020237Y-126774819D02*
X35258332Y-126774819D01*
X34305951Y-125870057D02*
X34258332Y-125822438D01*
X34258332Y-125822438D02*
X34163094Y-125774819D01*
X34163094Y-125774819D02*
X33924999Y-125774819D01*
X33924999Y-125774819D02*
X33829761Y-125822438D01*
X33829761Y-125822438D02*
X33782142Y-125870057D01*
X33782142Y-125870057D02*
X33734523Y-125965295D01*
X33734523Y-125965295D02*
X33734523Y-126060533D01*
X33734523Y-126060533D02*
X33782142Y-126203390D01*
X33782142Y-126203390D02*
X34353570Y-126774819D01*
X34353570Y-126774819D02*
X33734523Y-126774819D01*
X53496428Y-126679580D02*
X53544047Y-126727200D01*
X53544047Y-126727200D02*
X53686904Y-126774819D01*
X53686904Y-126774819D02*
X53782142Y-126774819D01*
X53782142Y-126774819D02*
X53924999Y-126727200D01*
X53924999Y-126727200D02*
X54020237Y-126631961D01*
X54020237Y-126631961D02*
X54067856Y-126536723D01*
X54067856Y-126536723D02*
X54115475Y-126346247D01*
X54115475Y-126346247D02*
X54115475Y-126203390D01*
X54115475Y-126203390D02*
X54067856Y-126012914D01*
X54067856Y-126012914D02*
X54020237Y-125917676D01*
X54020237Y-125917676D02*
X53924999Y-125822438D01*
X53924999Y-125822438D02*
X53782142Y-125774819D01*
X53782142Y-125774819D02*
X53686904Y-125774819D01*
X53686904Y-125774819D02*
X53544047Y-125822438D01*
X53544047Y-125822438D02*
X53496428Y-125870057D01*
X53305952Y-126870057D02*
X52544047Y-126870057D01*
X51782142Y-125822438D02*
X51877380Y-125774819D01*
X51877380Y-125774819D02*
X52020237Y-125774819D01*
X52020237Y-125774819D02*
X52163094Y-125822438D01*
X52163094Y-125822438D02*
X52258332Y-125917676D01*
X52258332Y-125917676D02*
X52305951Y-126012914D01*
X52305951Y-126012914D02*
X52353570Y-126203390D01*
X52353570Y-126203390D02*
X52353570Y-126346247D01*
X52353570Y-126346247D02*
X52305951Y-126536723D01*
X52305951Y-126536723D02*
X52258332Y-126631961D01*
X52258332Y-126631961D02*
X52163094Y-126727200D01*
X52163094Y-126727200D02*
X52020237Y-126774819D01*
X52020237Y-126774819D02*
X51924999Y-126774819D01*
X51924999Y-126774819D02*
X51782142Y-126727200D01*
X51782142Y-126727200D02*
X51734523Y-126679580D01*
X51734523Y-126679580D02*
X51734523Y-126346247D01*
X51734523Y-126346247D02*
X51924999Y-126346247D01*
X51305951Y-126774819D02*
X51305951Y-125774819D01*
X51305951Y-125774819D02*
X50734523Y-126774819D01*
X50734523Y-126774819D02*
X50734523Y-125774819D01*
X50258332Y-126774819D02*
X50258332Y-125774819D01*
X50258332Y-125774819D02*
X50020237Y-125774819D01*
X50020237Y-125774819D02*
X49877380Y-125822438D01*
X49877380Y-125822438D02*
X49782142Y-125917676D01*
X49782142Y-125917676D02*
X49734523Y-126012914D01*
X49734523Y-126012914D02*
X49686904Y-126203390D01*
X49686904Y-126203390D02*
X49686904Y-126346247D01*
X49686904Y-126346247D02*
X49734523Y-126536723D01*
X49734523Y-126536723D02*
X49782142Y-126631961D01*
X49782142Y-126631961D02*
X49877380Y-126727200D01*
X49877380Y-126727200D02*
X50020237Y-126774819D01*
X50020237Y-126774819D02*
X50258332Y-126774819D01*
X48829761Y-126108152D02*
X48829761Y-126774819D01*
X49067856Y-125727200D02*
X49305951Y-126441485D01*
X49305951Y-126441485D02*
X48686904Y-126441485D01*
X130179580Y-117333333D02*
X130227200Y-117285714D01*
X130227200Y-117285714D02*
X130274819Y-117142857D01*
X130274819Y-117142857D02*
X130274819Y-117047619D01*
X130274819Y-117047619D02*
X130227200Y-116904762D01*
X130227200Y-116904762D02*
X130131961Y-116809524D01*
X130131961Y-116809524D02*
X130036723Y-116761905D01*
X130036723Y-116761905D02*
X129846247Y-116714286D01*
X129846247Y-116714286D02*
X129703390Y-116714286D01*
X129703390Y-116714286D02*
X129512914Y-116761905D01*
X129512914Y-116761905D02*
X129417676Y-116809524D01*
X129417676Y-116809524D02*
X129322438Y-116904762D01*
X129322438Y-116904762D02*
X129274819Y-117047619D01*
X129274819Y-117047619D02*
X129274819Y-117142857D01*
X129274819Y-117142857D02*
X129322438Y-117285714D01*
X129322438Y-117285714D02*
X129370057Y-117333333D01*
X129370057Y-117714286D02*
X129322438Y-117761905D01*
X129322438Y-117761905D02*
X129274819Y-117857143D01*
X129274819Y-117857143D02*
X129274819Y-118095238D01*
X129274819Y-118095238D02*
X129322438Y-118190476D01*
X129322438Y-118190476D02*
X129370057Y-118238095D01*
X129370057Y-118238095D02*
X129465295Y-118285714D01*
X129465295Y-118285714D02*
X129560533Y-118285714D01*
X129560533Y-118285714D02*
X129703390Y-118238095D01*
X129703390Y-118238095D02*
X130274819Y-117666667D01*
X130274819Y-117666667D02*
X130274819Y-118285714D01*
X45879819Y-104190476D02*
X45403628Y-103857143D01*
X45879819Y-103619048D02*
X44879819Y-103619048D01*
X44879819Y-103619048D02*
X44879819Y-104000000D01*
X44879819Y-104000000D02*
X44927438Y-104095238D01*
X44927438Y-104095238D02*
X44975057Y-104142857D01*
X44975057Y-104142857D02*
X45070295Y-104190476D01*
X45070295Y-104190476D02*
X45213152Y-104190476D01*
X45213152Y-104190476D02*
X45308390Y-104142857D01*
X45308390Y-104142857D02*
X45356009Y-104095238D01*
X45356009Y-104095238D02*
X45403628Y-104000000D01*
X45403628Y-104000000D02*
X45403628Y-103619048D01*
X45975057Y-104380953D02*
X45975057Y-105142857D01*
X45879819Y-105380953D02*
X44879819Y-105380953D01*
X45879819Y-105857143D02*
X44879819Y-105857143D01*
X44879819Y-105857143D02*
X45879819Y-106428571D01*
X45879819Y-106428571D02*
X44879819Y-106428571D01*
X44975057Y-106857143D02*
X44927438Y-106904762D01*
X44927438Y-106904762D02*
X44879819Y-107000000D01*
X44879819Y-107000000D02*
X44879819Y-107238095D01*
X44879819Y-107238095D02*
X44927438Y-107333333D01*
X44927438Y-107333333D02*
X44975057Y-107380952D01*
X44975057Y-107380952D02*
X45070295Y-107428571D01*
X45070295Y-107428571D02*
X45165533Y-107428571D01*
X45165533Y-107428571D02*
X45308390Y-107380952D01*
X45308390Y-107380952D02*
X45879819Y-106809524D01*
X45879819Y-106809524D02*
X45879819Y-107428571D01*
X70204166Y-45679580D02*
X70251785Y-45727200D01*
X70251785Y-45727200D02*
X70394642Y-45774819D01*
X70394642Y-45774819D02*
X70489880Y-45774819D01*
X70489880Y-45774819D02*
X70632737Y-45727200D01*
X70632737Y-45727200D02*
X70727975Y-45631961D01*
X70727975Y-45631961D02*
X70775594Y-45536723D01*
X70775594Y-45536723D02*
X70823213Y-45346247D01*
X70823213Y-45346247D02*
X70823213Y-45203390D01*
X70823213Y-45203390D02*
X70775594Y-45012914D01*
X70775594Y-45012914D02*
X70727975Y-44917676D01*
X70727975Y-44917676D02*
X70632737Y-44822438D01*
X70632737Y-44822438D02*
X70489880Y-44774819D01*
X70489880Y-44774819D02*
X70394642Y-44774819D01*
X70394642Y-44774819D02*
X70251785Y-44822438D01*
X70251785Y-44822438D02*
X70204166Y-44870057D01*
X69632737Y-45203390D02*
X69727975Y-45155771D01*
X69727975Y-45155771D02*
X69775594Y-45108152D01*
X69775594Y-45108152D02*
X69823213Y-45012914D01*
X69823213Y-45012914D02*
X69823213Y-44965295D01*
X69823213Y-44965295D02*
X69775594Y-44870057D01*
X69775594Y-44870057D02*
X69727975Y-44822438D01*
X69727975Y-44822438D02*
X69632737Y-44774819D01*
X69632737Y-44774819D02*
X69442261Y-44774819D01*
X69442261Y-44774819D02*
X69347023Y-44822438D01*
X69347023Y-44822438D02*
X69299404Y-44870057D01*
X69299404Y-44870057D02*
X69251785Y-44965295D01*
X69251785Y-44965295D02*
X69251785Y-45012914D01*
X69251785Y-45012914D02*
X69299404Y-45108152D01*
X69299404Y-45108152D02*
X69347023Y-45155771D01*
X69347023Y-45155771D02*
X69442261Y-45203390D01*
X69442261Y-45203390D02*
X69632737Y-45203390D01*
X69632737Y-45203390D02*
X69727975Y-45251009D01*
X69727975Y-45251009D02*
X69775594Y-45298628D01*
X69775594Y-45298628D02*
X69823213Y-45393866D01*
X69823213Y-45393866D02*
X69823213Y-45584342D01*
X69823213Y-45584342D02*
X69775594Y-45679580D01*
X69775594Y-45679580D02*
X69727975Y-45727200D01*
X69727975Y-45727200D02*
X69632737Y-45774819D01*
X69632737Y-45774819D02*
X69442261Y-45774819D01*
X69442261Y-45774819D02*
X69347023Y-45727200D01*
X69347023Y-45727200D02*
X69299404Y-45679580D01*
X69299404Y-45679580D02*
X69251785Y-45584342D01*
X69251785Y-45584342D02*
X69251785Y-45393866D01*
X69251785Y-45393866D02*
X69299404Y-45298628D01*
X69299404Y-45298628D02*
X69347023Y-45251009D01*
X69347023Y-45251009D02*
X69442261Y-45203390D01*
X68454819Y-61833333D02*
X67978628Y-61500000D01*
X68454819Y-61261905D02*
X67454819Y-61261905D01*
X67454819Y-61261905D02*
X67454819Y-61642857D01*
X67454819Y-61642857D02*
X67502438Y-61738095D01*
X67502438Y-61738095D02*
X67550057Y-61785714D01*
X67550057Y-61785714D02*
X67645295Y-61833333D01*
X67645295Y-61833333D02*
X67788152Y-61833333D01*
X67788152Y-61833333D02*
X67883390Y-61785714D01*
X67883390Y-61785714D02*
X67931009Y-61738095D01*
X67931009Y-61738095D02*
X67978628Y-61642857D01*
X67978628Y-61642857D02*
X67978628Y-61261905D01*
X67454819Y-62166667D02*
X67454819Y-62833333D01*
X67454819Y-62833333D02*
X68454819Y-62404762D01*
X57954819Y-104690476D02*
X57478628Y-104357143D01*
X57954819Y-104119048D02*
X56954819Y-104119048D01*
X56954819Y-104119048D02*
X56954819Y-104500000D01*
X56954819Y-104500000D02*
X57002438Y-104595238D01*
X57002438Y-104595238D02*
X57050057Y-104642857D01*
X57050057Y-104642857D02*
X57145295Y-104690476D01*
X57145295Y-104690476D02*
X57288152Y-104690476D01*
X57288152Y-104690476D02*
X57383390Y-104642857D01*
X57383390Y-104642857D02*
X57431009Y-104595238D01*
X57431009Y-104595238D02*
X57478628Y-104500000D01*
X57478628Y-104500000D02*
X57478628Y-104119048D01*
X58050057Y-104880953D02*
X58050057Y-105642857D01*
X57954819Y-105880953D02*
X56954819Y-105880953D01*
X57954819Y-106357143D02*
X56954819Y-106357143D01*
X56954819Y-106357143D02*
X57954819Y-106928571D01*
X57954819Y-106928571D02*
X56954819Y-106928571D01*
X56954819Y-107880952D02*
X56954819Y-107404762D01*
X56954819Y-107404762D02*
X57431009Y-107357143D01*
X57431009Y-107357143D02*
X57383390Y-107404762D01*
X57383390Y-107404762D02*
X57335771Y-107500000D01*
X57335771Y-107500000D02*
X57335771Y-107738095D01*
X57335771Y-107738095D02*
X57383390Y-107833333D01*
X57383390Y-107833333D02*
X57431009Y-107880952D01*
X57431009Y-107880952D02*
X57526247Y-107928571D01*
X57526247Y-107928571D02*
X57764342Y-107928571D01*
X57764342Y-107928571D02*
X57859580Y-107880952D01*
X57859580Y-107880952D02*
X57907200Y-107833333D01*
X57907200Y-107833333D02*
X57954819Y-107738095D01*
X57954819Y-107738095D02*
X57954819Y-107500000D01*
X57954819Y-107500000D02*
X57907200Y-107404762D01*
X57907200Y-107404762D02*
X57859580Y-107357143D01*
X116642857Y-105634819D02*
X116976190Y-105158628D01*
X117214285Y-105634819D02*
X117214285Y-104634819D01*
X117214285Y-104634819D02*
X116833333Y-104634819D01*
X116833333Y-104634819D02*
X116738095Y-104682438D01*
X116738095Y-104682438D02*
X116690476Y-104730057D01*
X116690476Y-104730057D02*
X116642857Y-104825295D01*
X116642857Y-104825295D02*
X116642857Y-104968152D01*
X116642857Y-104968152D02*
X116690476Y-105063390D01*
X116690476Y-105063390D02*
X116738095Y-105111009D01*
X116738095Y-105111009D02*
X116833333Y-105158628D01*
X116833333Y-105158628D02*
X117214285Y-105158628D01*
X115690476Y-105634819D02*
X116261904Y-105634819D01*
X115976190Y-105634819D02*
X115976190Y-104634819D01*
X115976190Y-104634819D02*
X116071428Y-104777676D01*
X116071428Y-104777676D02*
X116166666Y-104872914D01*
X116166666Y-104872914D02*
X116261904Y-104920533D01*
X114833333Y-104968152D02*
X114833333Y-105634819D01*
X115071428Y-104587200D02*
X115309523Y-105301485D01*
X115309523Y-105301485D02*
X114690476Y-105301485D01*
X130666666Y-110804819D02*
X130999999Y-110328628D01*
X131238094Y-110804819D02*
X131238094Y-109804819D01*
X131238094Y-109804819D02*
X130857142Y-109804819D01*
X130857142Y-109804819D02*
X130761904Y-109852438D01*
X130761904Y-109852438D02*
X130714285Y-109900057D01*
X130714285Y-109900057D02*
X130666666Y-109995295D01*
X130666666Y-109995295D02*
X130666666Y-110138152D01*
X130666666Y-110138152D02*
X130714285Y-110233390D01*
X130714285Y-110233390D02*
X130761904Y-110281009D01*
X130761904Y-110281009D02*
X130857142Y-110328628D01*
X130857142Y-110328628D02*
X131238094Y-110328628D01*
X129714285Y-110804819D02*
X130285713Y-110804819D01*
X129999999Y-110804819D02*
X129999999Y-109804819D01*
X129999999Y-109804819D02*
X130095237Y-109947676D01*
X130095237Y-109947676D02*
X130190475Y-110042914D01*
X130190475Y-110042914D02*
X130285713Y-110090533D01*
X46496428Y-126679580D02*
X46544047Y-126727200D01*
X46544047Y-126727200D02*
X46686904Y-126774819D01*
X46686904Y-126774819D02*
X46782142Y-126774819D01*
X46782142Y-126774819D02*
X46924999Y-126727200D01*
X46924999Y-126727200D02*
X47020237Y-126631961D01*
X47020237Y-126631961D02*
X47067856Y-126536723D01*
X47067856Y-126536723D02*
X47115475Y-126346247D01*
X47115475Y-126346247D02*
X47115475Y-126203390D01*
X47115475Y-126203390D02*
X47067856Y-126012914D01*
X47067856Y-126012914D02*
X47020237Y-125917676D01*
X47020237Y-125917676D02*
X46924999Y-125822438D01*
X46924999Y-125822438D02*
X46782142Y-125774819D01*
X46782142Y-125774819D02*
X46686904Y-125774819D01*
X46686904Y-125774819D02*
X46544047Y-125822438D01*
X46544047Y-125822438D02*
X46496428Y-125870057D01*
X46305952Y-126870057D02*
X45544047Y-126870057D01*
X44782142Y-125822438D02*
X44877380Y-125774819D01*
X44877380Y-125774819D02*
X45020237Y-125774819D01*
X45020237Y-125774819D02*
X45163094Y-125822438D01*
X45163094Y-125822438D02*
X45258332Y-125917676D01*
X45258332Y-125917676D02*
X45305951Y-126012914D01*
X45305951Y-126012914D02*
X45353570Y-126203390D01*
X45353570Y-126203390D02*
X45353570Y-126346247D01*
X45353570Y-126346247D02*
X45305951Y-126536723D01*
X45305951Y-126536723D02*
X45258332Y-126631961D01*
X45258332Y-126631961D02*
X45163094Y-126727200D01*
X45163094Y-126727200D02*
X45020237Y-126774819D01*
X45020237Y-126774819D02*
X44924999Y-126774819D01*
X44924999Y-126774819D02*
X44782142Y-126727200D01*
X44782142Y-126727200D02*
X44734523Y-126679580D01*
X44734523Y-126679580D02*
X44734523Y-126346247D01*
X44734523Y-126346247D02*
X44924999Y-126346247D01*
X44305951Y-126774819D02*
X44305951Y-125774819D01*
X44305951Y-125774819D02*
X43734523Y-126774819D01*
X43734523Y-126774819D02*
X43734523Y-125774819D01*
X43258332Y-126774819D02*
X43258332Y-125774819D01*
X43258332Y-125774819D02*
X43020237Y-125774819D01*
X43020237Y-125774819D02*
X42877380Y-125822438D01*
X42877380Y-125822438D02*
X42782142Y-125917676D01*
X42782142Y-125917676D02*
X42734523Y-126012914D01*
X42734523Y-126012914D02*
X42686904Y-126203390D01*
X42686904Y-126203390D02*
X42686904Y-126346247D01*
X42686904Y-126346247D02*
X42734523Y-126536723D01*
X42734523Y-126536723D02*
X42782142Y-126631961D01*
X42782142Y-126631961D02*
X42877380Y-126727200D01*
X42877380Y-126727200D02*
X43020237Y-126774819D01*
X43020237Y-126774819D02*
X43258332Y-126774819D01*
X42353570Y-125774819D02*
X41734523Y-125774819D01*
X41734523Y-125774819D02*
X42067856Y-126155771D01*
X42067856Y-126155771D02*
X41924999Y-126155771D01*
X41924999Y-126155771D02*
X41829761Y-126203390D01*
X41829761Y-126203390D02*
X41782142Y-126251009D01*
X41782142Y-126251009D02*
X41734523Y-126346247D01*
X41734523Y-126346247D02*
X41734523Y-126584342D01*
X41734523Y-126584342D02*
X41782142Y-126679580D01*
X41782142Y-126679580D02*
X41829761Y-126727200D01*
X41829761Y-126727200D02*
X41924999Y-126774819D01*
X41924999Y-126774819D02*
X42210713Y-126774819D01*
X42210713Y-126774819D02*
X42305951Y-126727200D01*
X42305951Y-126727200D02*
X42353570Y-126679580D01*
X53879819Y-104690476D02*
X53403628Y-104357143D01*
X53879819Y-104119048D02*
X52879819Y-104119048D01*
X52879819Y-104119048D02*
X52879819Y-104500000D01*
X52879819Y-104500000D02*
X52927438Y-104595238D01*
X52927438Y-104595238D02*
X52975057Y-104642857D01*
X52975057Y-104642857D02*
X53070295Y-104690476D01*
X53070295Y-104690476D02*
X53213152Y-104690476D01*
X53213152Y-104690476D02*
X53308390Y-104642857D01*
X53308390Y-104642857D02*
X53356009Y-104595238D01*
X53356009Y-104595238D02*
X53403628Y-104500000D01*
X53403628Y-104500000D02*
X53403628Y-104119048D01*
X53975057Y-104880953D02*
X53975057Y-105642857D01*
X53879819Y-105880953D02*
X52879819Y-105880953D01*
X53879819Y-106357143D02*
X52879819Y-106357143D01*
X52879819Y-106357143D02*
X53879819Y-106928571D01*
X53879819Y-106928571D02*
X52879819Y-106928571D01*
X53213152Y-107833333D02*
X53879819Y-107833333D01*
X52832200Y-107595238D02*
X53546485Y-107357143D01*
X53546485Y-107357143D02*
X53546485Y-107976190D01*
X34898819Y-120738095D02*
X35708342Y-120738095D01*
X35708342Y-120738095D02*
X35803580Y-120785714D01*
X35803580Y-120785714D02*
X35851200Y-120833333D01*
X35851200Y-120833333D02*
X35898819Y-120928571D01*
X35898819Y-120928571D02*
X35898819Y-121119047D01*
X35898819Y-121119047D02*
X35851200Y-121214285D01*
X35851200Y-121214285D02*
X35803580Y-121261904D01*
X35803580Y-121261904D02*
X35708342Y-121309523D01*
X35708342Y-121309523D02*
X34898819Y-121309523D01*
X34898819Y-121690476D02*
X34898819Y-122357142D01*
X34898819Y-122357142D02*
X35898819Y-121928571D01*
X27323819Y-120738095D02*
X28133342Y-120738095D01*
X28133342Y-120738095D02*
X28228580Y-120785714D01*
X28228580Y-120785714D02*
X28276200Y-120833333D01*
X28276200Y-120833333D02*
X28323819Y-120928571D01*
X28323819Y-120928571D02*
X28323819Y-121119047D01*
X28323819Y-121119047D02*
X28276200Y-121214285D01*
X28276200Y-121214285D02*
X28228580Y-121261904D01*
X28228580Y-121261904D02*
X28133342Y-121309523D01*
X28133342Y-121309523D02*
X27323819Y-121309523D01*
X27323819Y-122214285D02*
X27323819Y-122023809D01*
X27323819Y-122023809D02*
X27371438Y-121928571D01*
X27371438Y-121928571D02*
X27419057Y-121880952D01*
X27419057Y-121880952D02*
X27561914Y-121785714D01*
X27561914Y-121785714D02*
X27752390Y-121738095D01*
X27752390Y-121738095D02*
X28133342Y-121738095D01*
X28133342Y-121738095D02*
X28228580Y-121785714D01*
X28228580Y-121785714D02*
X28276200Y-121833333D01*
X28276200Y-121833333D02*
X28323819Y-121928571D01*
X28323819Y-121928571D02*
X28323819Y-122119047D01*
X28323819Y-122119047D02*
X28276200Y-122214285D01*
X28276200Y-122214285D02*
X28228580Y-122261904D01*
X28228580Y-122261904D02*
X28133342Y-122309523D01*
X28133342Y-122309523D02*
X27895247Y-122309523D01*
X27895247Y-122309523D02*
X27800009Y-122261904D01*
X27800009Y-122261904D02*
X27752390Y-122214285D01*
X27752390Y-122214285D02*
X27704771Y-122119047D01*
X27704771Y-122119047D02*
X27704771Y-121928571D01*
X27704771Y-121928571D02*
X27752390Y-121833333D01*
X27752390Y-121833333D02*
X27800009Y-121785714D01*
X27800009Y-121785714D02*
X27895247Y-121738095D01*
X109229594Y-120939819D02*
X109229594Y-119939819D01*
X109229594Y-119939819D02*
X108991499Y-119939819D01*
X108991499Y-119939819D02*
X108848642Y-119987438D01*
X108848642Y-119987438D02*
X108753404Y-120082676D01*
X108753404Y-120082676D02*
X108705785Y-120177914D01*
X108705785Y-120177914D02*
X108658166Y-120368390D01*
X108658166Y-120368390D02*
X108658166Y-120511247D01*
X108658166Y-120511247D02*
X108705785Y-120701723D01*
X108705785Y-120701723D02*
X108753404Y-120796961D01*
X108753404Y-120796961D02*
X108848642Y-120892200D01*
X108848642Y-120892200D02*
X108991499Y-120939819D01*
X108991499Y-120939819D02*
X109229594Y-120939819D01*
X107705785Y-120939819D02*
X108277213Y-120939819D01*
X107991499Y-120939819D02*
X107991499Y-119939819D01*
X107991499Y-119939819D02*
X108086737Y-120082676D01*
X108086737Y-120082676D02*
X108181975Y-120177914D01*
X108181975Y-120177914D02*
X108277213Y-120225533D01*
X70454819Y-61833333D02*
X69978628Y-61500000D01*
X70454819Y-61261905D02*
X69454819Y-61261905D01*
X69454819Y-61261905D02*
X69454819Y-61642857D01*
X69454819Y-61642857D02*
X69502438Y-61738095D01*
X69502438Y-61738095D02*
X69550057Y-61785714D01*
X69550057Y-61785714D02*
X69645295Y-61833333D01*
X69645295Y-61833333D02*
X69788152Y-61833333D01*
X69788152Y-61833333D02*
X69883390Y-61785714D01*
X69883390Y-61785714D02*
X69931009Y-61738095D01*
X69931009Y-61738095D02*
X69978628Y-61642857D01*
X69978628Y-61642857D02*
X69978628Y-61261905D01*
X70454819Y-62309524D02*
X70454819Y-62500000D01*
X70454819Y-62500000D02*
X70407200Y-62595238D01*
X70407200Y-62595238D02*
X70359580Y-62642857D01*
X70359580Y-62642857D02*
X70216723Y-62738095D01*
X70216723Y-62738095D02*
X70026247Y-62785714D01*
X70026247Y-62785714D02*
X69645295Y-62785714D01*
X69645295Y-62785714D02*
X69550057Y-62738095D01*
X69550057Y-62738095D02*
X69502438Y-62690476D01*
X69502438Y-62690476D02*
X69454819Y-62595238D01*
X69454819Y-62595238D02*
X69454819Y-62404762D01*
X69454819Y-62404762D02*
X69502438Y-62309524D01*
X69502438Y-62309524D02*
X69550057Y-62261905D01*
X69550057Y-62261905D02*
X69645295Y-62214286D01*
X69645295Y-62214286D02*
X69883390Y-62214286D01*
X69883390Y-62214286D02*
X69978628Y-62261905D01*
X69978628Y-62261905D02*
X70026247Y-62309524D01*
X70026247Y-62309524D02*
X70073866Y-62404762D01*
X70073866Y-62404762D02*
X70073866Y-62595238D01*
X70073866Y-62595238D02*
X70026247Y-62690476D01*
X70026247Y-62690476D02*
X69978628Y-62738095D01*
X69978628Y-62738095D02*
X69883390Y-62785714D01*
X92771666Y-99779819D02*
X93104999Y-99303628D01*
X93343094Y-99779819D02*
X93343094Y-98779819D01*
X93343094Y-98779819D02*
X92962142Y-98779819D01*
X92962142Y-98779819D02*
X92866904Y-98827438D01*
X92866904Y-98827438D02*
X92819285Y-98875057D01*
X92819285Y-98875057D02*
X92771666Y-98970295D01*
X92771666Y-98970295D02*
X92771666Y-99113152D01*
X92771666Y-99113152D02*
X92819285Y-99208390D01*
X92819285Y-99208390D02*
X92866904Y-99256009D01*
X92866904Y-99256009D02*
X92962142Y-99303628D01*
X92962142Y-99303628D02*
X93343094Y-99303628D01*
X91914523Y-99113152D02*
X91914523Y-99779819D01*
X92152618Y-98732200D02*
X92390713Y-99446485D01*
X92390713Y-99446485D02*
X91771666Y-99446485D01*
X67166666Y-46859580D02*
X67214285Y-46907200D01*
X67214285Y-46907200D02*
X67357142Y-46954819D01*
X67357142Y-46954819D02*
X67452380Y-46954819D01*
X67452380Y-46954819D02*
X67595237Y-46907200D01*
X67595237Y-46907200D02*
X67690475Y-46811961D01*
X67690475Y-46811961D02*
X67738094Y-46716723D01*
X67738094Y-46716723D02*
X67785713Y-46526247D01*
X67785713Y-46526247D02*
X67785713Y-46383390D01*
X67785713Y-46383390D02*
X67738094Y-46192914D01*
X67738094Y-46192914D02*
X67690475Y-46097676D01*
X67690475Y-46097676D02*
X67595237Y-46002438D01*
X67595237Y-46002438D02*
X67452380Y-45954819D01*
X67452380Y-45954819D02*
X67357142Y-45954819D01*
X67357142Y-45954819D02*
X67214285Y-46002438D01*
X67214285Y-46002438D02*
X67166666Y-46050057D01*
X66261904Y-45954819D02*
X66738094Y-45954819D01*
X66738094Y-45954819D02*
X66785713Y-46431009D01*
X66785713Y-46431009D02*
X66738094Y-46383390D01*
X66738094Y-46383390D02*
X66642856Y-46335771D01*
X66642856Y-46335771D02*
X66404761Y-46335771D01*
X66404761Y-46335771D02*
X66309523Y-46383390D01*
X66309523Y-46383390D02*
X66261904Y-46431009D01*
X66261904Y-46431009D02*
X66214285Y-46526247D01*
X66214285Y-46526247D02*
X66214285Y-46764342D01*
X66214285Y-46764342D02*
X66261904Y-46859580D01*
X66261904Y-46859580D02*
X66309523Y-46907200D01*
X66309523Y-46907200D02*
X66404761Y-46954819D01*
X66404761Y-46954819D02*
X66642856Y-46954819D01*
X66642856Y-46954819D02*
X66738094Y-46907200D01*
X66738094Y-46907200D02*
X66785713Y-46859580D01*
X115166666Y-120039580D02*
X115214285Y-120087200D01*
X115214285Y-120087200D02*
X115357142Y-120134819D01*
X115357142Y-120134819D02*
X115452380Y-120134819D01*
X115452380Y-120134819D02*
X115595237Y-120087200D01*
X115595237Y-120087200D02*
X115690475Y-119991961D01*
X115690475Y-119991961D02*
X115738094Y-119896723D01*
X115738094Y-119896723D02*
X115785713Y-119706247D01*
X115785713Y-119706247D02*
X115785713Y-119563390D01*
X115785713Y-119563390D02*
X115738094Y-119372914D01*
X115738094Y-119372914D02*
X115690475Y-119277676D01*
X115690475Y-119277676D02*
X115595237Y-119182438D01*
X115595237Y-119182438D02*
X115452380Y-119134819D01*
X115452380Y-119134819D02*
X115357142Y-119134819D01*
X115357142Y-119134819D02*
X115214285Y-119182438D01*
X115214285Y-119182438D02*
X115166666Y-119230057D01*
X114833332Y-119134819D02*
X114214285Y-119134819D01*
X114214285Y-119134819D02*
X114547618Y-119515771D01*
X114547618Y-119515771D02*
X114404761Y-119515771D01*
X114404761Y-119515771D02*
X114309523Y-119563390D01*
X114309523Y-119563390D02*
X114261904Y-119611009D01*
X114261904Y-119611009D02*
X114214285Y-119706247D01*
X114214285Y-119706247D02*
X114214285Y-119944342D01*
X114214285Y-119944342D02*
X114261904Y-120039580D01*
X114261904Y-120039580D02*
X114309523Y-120087200D01*
X114309523Y-120087200D02*
X114404761Y-120134819D01*
X114404761Y-120134819D02*
X114690475Y-120134819D01*
X114690475Y-120134819D02*
X114785713Y-120087200D01*
X114785713Y-120087200D02*
X114833332Y-120039580D01*
X72738094Y-50954819D02*
X72738094Y-51764342D01*
X72738094Y-51764342D02*
X72690475Y-51859580D01*
X72690475Y-51859580D02*
X72642856Y-51907200D01*
X72642856Y-51907200D02*
X72547618Y-51954819D01*
X72547618Y-51954819D02*
X72357142Y-51954819D01*
X72357142Y-51954819D02*
X72261904Y-51907200D01*
X72261904Y-51907200D02*
X72214285Y-51859580D01*
X72214285Y-51859580D02*
X72166666Y-51764342D01*
X72166666Y-51764342D02*
X72166666Y-50954819D01*
X71166666Y-51954819D02*
X71738094Y-51954819D01*
X71452380Y-51954819D02*
X71452380Y-50954819D01*
X71452380Y-50954819D02*
X71547618Y-51097676D01*
X71547618Y-51097676D02*
X71642856Y-51192914D01*
X71642856Y-51192914D02*
X71738094Y-51240533D01*
X70214285Y-51954819D02*
X70785713Y-51954819D01*
X70499999Y-51954819D02*
X70499999Y-50954819D01*
X70499999Y-50954819D02*
X70595237Y-51097676D01*
X70595237Y-51097676D02*
X70690475Y-51192914D01*
X70690475Y-51192914D02*
X70785713Y-51240533D01*
X47879819Y-102976190D02*
X47403628Y-102642857D01*
X47879819Y-102404762D02*
X46879819Y-102404762D01*
X46879819Y-102404762D02*
X46879819Y-102785714D01*
X46879819Y-102785714D02*
X46927438Y-102880952D01*
X46927438Y-102880952D02*
X46975057Y-102928571D01*
X46975057Y-102928571D02*
X47070295Y-102976190D01*
X47070295Y-102976190D02*
X47213152Y-102976190D01*
X47213152Y-102976190D02*
X47308390Y-102928571D01*
X47308390Y-102928571D02*
X47356009Y-102880952D01*
X47356009Y-102880952D02*
X47403628Y-102785714D01*
X47403628Y-102785714D02*
X47403628Y-102404762D01*
X47975057Y-103166667D02*
X47975057Y-103928571D01*
X47879819Y-104166667D02*
X46879819Y-104166667D01*
X46879819Y-104166667D02*
X46879819Y-104404762D01*
X46879819Y-104404762D02*
X46927438Y-104547619D01*
X46927438Y-104547619D02*
X47022676Y-104642857D01*
X47022676Y-104642857D02*
X47117914Y-104690476D01*
X47117914Y-104690476D02*
X47308390Y-104738095D01*
X47308390Y-104738095D02*
X47451247Y-104738095D01*
X47451247Y-104738095D02*
X47641723Y-104690476D01*
X47641723Y-104690476D02*
X47736961Y-104642857D01*
X47736961Y-104642857D02*
X47832200Y-104547619D01*
X47832200Y-104547619D02*
X47879819Y-104404762D01*
X47879819Y-104404762D02*
X47879819Y-104166667D01*
X47356009Y-105166667D02*
X47356009Y-105500000D01*
X47879819Y-105642857D02*
X47879819Y-105166667D01*
X47879819Y-105166667D02*
X46879819Y-105166667D01*
X46879819Y-105166667D02*
X46879819Y-105642857D01*
X47879819Y-106071429D02*
X46879819Y-106071429D01*
X46879819Y-106071429D02*
X47879819Y-106642857D01*
X47879819Y-106642857D02*
X46879819Y-106642857D01*
X46975057Y-107071429D02*
X46927438Y-107119048D01*
X46927438Y-107119048D02*
X46879819Y-107214286D01*
X46879819Y-107214286D02*
X46879819Y-107452381D01*
X46879819Y-107452381D02*
X46927438Y-107547619D01*
X46927438Y-107547619D02*
X46975057Y-107595238D01*
X46975057Y-107595238D02*
X47070295Y-107642857D01*
X47070295Y-107642857D02*
X47165533Y-107642857D01*
X47165533Y-107642857D02*
X47308390Y-107595238D01*
X47308390Y-107595238D02*
X47879819Y-107023810D01*
X47879819Y-107023810D02*
X47879819Y-107642857D01*
D11*
%TO.C,R15*%
X115222936Y-110090000D02*
X116677064Y-110090000D01*
X115222936Y-111910000D02*
X116677064Y-111910000D01*
%TO.C,R12*%
X62227064Y-44765000D02*
X61772936Y-44765000D01*
X62227064Y-46235000D02*
X61772936Y-46235000D01*
%TO.C,U4*%
X72300000Y-92200000D02*
X87900000Y-92200000D01*
X72300000Y-107800000D02*
X72300000Y-92200000D01*
X87900000Y-92200000D02*
X87900000Y-107800000D01*
X87900000Y-107800000D02*
X72300000Y-107800000D01*
X88411000Y-94290000D02*
X88075000Y-94050000D01*
X88411000Y-93810000D01*
X88411000Y-94290000D01*
G36*
X88411000Y-94290000D02*
G01*
X88075000Y-94050000D01*
X88411000Y-93810000D01*
X88411000Y-94290000D01*
G37*
%TO.C,R10*%
X59727064Y-50765000D02*
X59272936Y-50765000D01*
X59727064Y-52235000D02*
X59272936Y-52235000D01*
%TO.C,R_DEN4*%
X54690000Y-110227064D02*
X54690000Y-109772936D01*
X56160000Y-110227064D02*
X56160000Y-109772936D01*
%TO.C,U3*%
X95345000Y-122025000D02*
X95345000Y-123975000D01*
X95345000Y-125925000D02*
X95345000Y-123975000D01*
X100465000Y-122025000D02*
X100465000Y-123975000D01*
X100465000Y-125925000D02*
X100465000Y-123975000D01*
X95440000Y-121275000D02*
X95110000Y-121515000D01*
X95110000Y-121035000D01*
X95440000Y-121275000D01*
G36*
X95440000Y-121275000D02*
G01*
X95110000Y-121515000D01*
X95110000Y-121035000D01*
X95440000Y-121275000D01*
G37*
%TO.C,C4*%
X96866252Y-114590000D02*
X96343748Y-114590000D01*
X96866252Y-116060000D02*
X96343748Y-116060000D01*
%TO.C,U2*%
X94495000Y-111385000D02*
X94495000Y-107625000D01*
X95755000Y-111385000D02*
X94495000Y-111385000D01*
X100055000Y-111385000D02*
X101315000Y-111385000D01*
X101315000Y-111385000D02*
X101315000Y-107625000D01*
X94595000Y-106345000D02*
X94265000Y-106585000D01*
X94265000Y-106105000D01*
X94595000Y-106345000D01*
G36*
X94595000Y-106345000D02*
G01*
X94265000Y-106585000D01*
X94265000Y-106105000D01*
X94595000Y-106345000D01*
G37*
%TO.C,J1*%
X108309000Y-116950000D02*
X108395724Y-116950000D01*
X108309000Y-117825000D02*
X108309000Y-116950000D01*
X108309000Y-117825000D02*
X108609507Y-117825000D01*
X109004000Y-115580000D02*
X109699000Y-115580000D01*
X109398493Y-117825000D02*
X109699000Y-117825000D01*
X109612276Y-116950000D02*
X109699000Y-116950000D01*
X109699000Y-115580000D02*
X109699000Y-116265000D01*
X109699000Y-117825000D02*
X109699000Y-116950000D01*
%TO.C,R_DEN3*%
X50765000Y-110227064D02*
X50765000Y-109772936D01*
X52235000Y-110227064D02*
X52235000Y-109772936D01*
D10*
%TO.C,U5*%
X77125000Y-110400000D02*
X77125000Y-110175000D01*
X77125000Y-118600000D02*
X77125000Y-118825000D01*
X82875000Y-110175000D02*
X77125000Y-110175000D01*
X82875000Y-110400000D02*
X82875000Y-110175000D01*
X82875000Y-118600000D02*
X82875000Y-118825000D01*
X82875000Y-118825000D02*
X77125000Y-118825000D01*
D11*
X76865000Y-118905000D02*
X76385000Y-118905000D01*
X76625000Y-118575000D01*
X76865000Y-118905000D01*
G36*
X76865000Y-118905000D02*
G01*
X76385000Y-118905000D01*
X76625000Y-118575000D01*
X76865000Y-118905000D01*
G37*
%TO.C,R_IN1*%
X40765000Y-110227064D02*
X40765000Y-109772936D01*
X42235000Y-110227064D02*
X42235000Y-109772936D01*
%TO.C,R3*%
X96677936Y-100590000D02*
X97132064Y-100590000D01*
X96677936Y-102060000D02*
X97132064Y-102060000D01*
%TO.C,R_DEN5*%
X58765000Y-110227064D02*
X58765000Y-109772936D01*
X60235000Y-110227064D02*
X60235000Y-109772936D01*
D10*
%TO.C,U8*%
X43925000Y-123575000D02*
X43925000Y-119425000D01*
X44070000Y-119425000D02*
X43925000Y-119425000D01*
X44070000Y-123575000D02*
X43925000Y-123575000D01*
X48930000Y-119425000D02*
X49075000Y-119425000D01*
X48930000Y-123575000D02*
X49075000Y-123575000D01*
X49075000Y-123575000D02*
X49075000Y-119425000D01*
D11*
X44050000Y-118650000D02*
X43720000Y-118890000D01*
X43720000Y-118410000D01*
X44050000Y-118650000D01*
G36*
X44050000Y-118650000D02*
G01*
X43720000Y-118890000D01*
X43720000Y-118410000D01*
X44050000Y-118650000D01*
G37*
%TO.C,C_GND1*%
X28663748Y-127265000D02*
X29186252Y-127265000D01*
X28663748Y-128735000D02*
X29186252Y-128735000D01*
%TO.C,R13*%
X62227064Y-46765000D02*
X61772936Y-46765000D01*
X62227064Y-48235000D02*
X61772936Y-48235000D01*
%TO.C,R2*%
X125272936Y-111265000D02*
X125727064Y-111265000D01*
X125272936Y-112735000D02*
X125727064Y-112735000D01*
%TO.C,R_IN3*%
X48840000Y-110227064D02*
X48840000Y-109772936D01*
X50310000Y-110227064D02*
X50310000Y-109772936D01*
%TO.C,U1*%
X121590000Y-116090000D02*
X125350000Y-116090000D01*
X121590000Y-117350000D02*
X121590000Y-116090000D01*
X121590000Y-121650000D02*
X121590000Y-122910000D01*
X121590000Y-122910000D02*
X125350000Y-122910000D01*
X126630000Y-116190000D02*
X126390000Y-115860000D01*
X126870000Y-115860000D01*
X126630000Y-116190000D01*
G36*
X126630000Y-116190000D02*
G01*
X126390000Y-115860000D01*
X126870000Y-115860000D01*
X126630000Y-116190000D01*
G37*
D10*
%TO.C,U9*%
X51425000Y-123575000D02*
X51425000Y-119425000D01*
X51570000Y-119425000D02*
X51425000Y-119425000D01*
X51570000Y-123575000D02*
X51425000Y-123575000D01*
X56430000Y-119425000D02*
X56575000Y-119425000D01*
X56430000Y-123575000D02*
X56575000Y-123575000D01*
X56575000Y-123575000D02*
X56575000Y-119425000D01*
D11*
X51550000Y-118650000D02*
X51220000Y-118890000D01*
X51220000Y-118410000D01*
X51550000Y-118650000D01*
G36*
X51550000Y-118650000D02*
G01*
X51220000Y-118890000D01*
X51220000Y-118410000D01*
X51550000Y-118650000D01*
G37*
%TO.C,R11*%
X59727064Y-52765000D02*
X59272936Y-52765000D01*
X59727064Y-54235000D02*
X59272936Y-54235000D01*
%TO.C,C6*%
X61765000Y-52761252D02*
X61765000Y-52238748D01*
X63235000Y-52761252D02*
X63235000Y-52238748D01*
%TO.C,C1*%
X101428752Y-100590000D02*
X100906248Y-100590000D01*
X101428752Y-102060000D02*
X100906248Y-102060000D01*
%TO.C,C7*%
X69261252Y-55265000D02*
X68738748Y-55265000D01*
X69261252Y-56735000D02*
X68738748Y-56735000D01*
%TO.C,R_DEN1*%
X42765000Y-110227064D02*
X42765000Y-109772936D01*
X44235000Y-110227064D02*
X44235000Y-109772936D01*
%TO.C,C_GND5*%
X58163748Y-127265000D02*
X58686252Y-127265000D01*
X58163748Y-128735000D02*
X58686252Y-128735000D01*
D10*
%TO.C,U10*%
X58850000Y-123575000D02*
X58850000Y-119425000D01*
X58995000Y-119425000D02*
X58850000Y-119425000D01*
X58995000Y-123575000D02*
X58850000Y-123575000D01*
X63855000Y-119425000D02*
X64000000Y-119425000D01*
X63855000Y-123575000D02*
X64000000Y-123575000D01*
X64000000Y-123575000D02*
X64000000Y-119425000D01*
D11*
X58975000Y-118650000D02*
X58645000Y-118890000D01*
X58645000Y-118410000D01*
X58975000Y-118650000D01*
G36*
X58975000Y-118650000D02*
G01*
X58645000Y-118890000D01*
X58645000Y-118410000D01*
X58975000Y-118650000D01*
G37*
%TO.C,C_GND2*%
X36163748Y-127265000D02*
X36686252Y-127265000D01*
X36163748Y-128735000D02*
X36686252Y-128735000D01*
%TO.C,C_GND4*%
X51163748Y-127265000D02*
X51686252Y-127265000D01*
X51163748Y-128735000D02*
X51686252Y-128735000D01*
%TO.C,C2*%
X130765000Y-117761252D02*
X130765000Y-117238748D01*
X132235000Y-117761252D02*
X132235000Y-117238748D01*
%TO.C,R_IN2*%
X44765000Y-110227064D02*
X44765000Y-109772936D01*
X46235000Y-110227064D02*
X46235000Y-109772936D01*
%TO.C,C8*%
X69776248Y-46265000D02*
X70298752Y-46265000D01*
X69776248Y-47735000D02*
X70298752Y-47735000D01*
%TO.C,R7*%
X67265000Y-58772936D02*
X67265000Y-59227064D01*
X68735000Y-58772936D02*
X68735000Y-59227064D01*
%TO.C,R_IN5*%
X56840000Y-110227064D02*
X56840000Y-109772936D01*
X58310000Y-110227064D02*
X58310000Y-109772936D01*
%TO.C,R14*%
X115272936Y-106090000D02*
X116727064Y-106090000D01*
X115272936Y-107910000D02*
X116727064Y-107910000D01*
%TO.C,R1*%
X130272936Y-111265000D02*
X130727064Y-111265000D01*
X130272936Y-112735000D02*
X130727064Y-112735000D01*
%TO.C,C_GND3*%
X44163748Y-127265000D02*
X44686252Y-127265000D01*
X44163748Y-128735000D02*
X44686252Y-128735000D01*
%TO.C,R_IN4*%
X52765000Y-110227064D02*
X52765000Y-109772936D01*
X54235000Y-110227064D02*
X54235000Y-109772936D01*
D10*
%TO.C,U7*%
X36425000Y-123575000D02*
X36425000Y-119425000D01*
X36570000Y-119425000D02*
X36425000Y-119425000D01*
X36570000Y-123575000D02*
X36425000Y-123575000D01*
X41430000Y-119425000D02*
X41575000Y-119425000D01*
X41430000Y-123575000D02*
X41575000Y-123575000D01*
X41575000Y-123575000D02*
X41575000Y-119425000D01*
D11*
X36550000Y-118650000D02*
X36220000Y-118890000D01*
X36220000Y-118410000D01*
X36550000Y-118650000D01*
G36*
X36550000Y-118650000D02*
G01*
X36220000Y-118890000D01*
X36220000Y-118410000D01*
X36550000Y-118650000D01*
G37*
D10*
%TO.C,U6*%
X28850000Y-123575000D02*
X28850000Y-119425000D01*
X28995000Y-119425000D02*
X28850000Y-119425000D01*
X28995000Y-123575000D02*
X28850000Y-123575000D01*
X33855000Y-119425000D02*
X34000000Y-119425000D01*
X33855000Y-123575000D02*
X34000000Y-123575000D01*
X34000000Y-123575000D02*
X34000000Y-119425000D01*
D11*
X28975000Y-118650000D02*
X28645000Y-118890000D01*
X28645000Y-118410000D01*
X28975000Y-118650000D01*
G36*
X28975000Y-118650000D02*
G01*
X28645000Y-118890000D01*
X28645000Y-118410000D01*
X28975000Y-118650000D01*
G37*
%TO.C,D1*%
X106891500Y-124350000D02*
X110951500Y-124350000D01*
X110951500Y-121180000D02*
X106891500Y-121180000D01*
X110951500Y-124350000D02*
X110951500Y-121180000D01*
%TO.C,R9*%
X69265000Y-58772936D02*
X69265000Y-59227064D01*
X70735000Y-58772936D02*
X70735000Y-59227064D01*
%TO.C,R4*%
X92377936Y-100590000D02*
X92832064Y-100590000D01*
X92377936Y-102060000D02*
X92832064Y-102060000D01*
%TO.C,C5*%
X64265000Y-46761252D02*
X64265000Y-46238748D01*
X65735000Y-46761252D02*
X65735000Y-46238748D01*
%TO.C,C3*%
X115261252Y-117265000D02*
X114738748Y-117265000D01*
X115261252Y-118735000D02*
X114738748Y-118735000D01*
%TO.C,U11*%
X64890000Y-49690000D02*
X64890000Y-50090000D01*
X64890000Y-53610000D02*
X64890000Y-52910000D01*
X65130000Y-49390000D02*
X65590000Y-49390000D01*
X65590000Y-53610000D02*
X64890000Y-53610000D01*
X68410000Y-49390000D02*
X69110000Y-49390000D01*
X68410000Y-53610000D02*
X69110000Y-53610000D01*
X69110000Y-49390000D02*
X69110000Y-50090000D01*
X69110000Y-53610000D02*
X69110000Y-52910000D01*
X64890000Y-49390000D02*
X64560000Y-49630000D01*
X64560000Y-49150000D01*
X64890000Y-49390000D01*
G36*
X64890000Y-49390000D02*
G01*
X64560000Y-49630000D01*
X64560000Y-49150000D01*
X64890000Y-49390000D01*
G37*
%TO.C,R_DEN2*%
X46765000Y-110227064D02*
X46765000Y-109772936D01*
X48235000Y-110227064D02*
X48235000Y-109772936D01*
%TD*%
M02*
