M48
; DRILL file {KiCad 8.0.7-8.0.7-0~ubuntu22.04.1} date 2024-12-30T17:04:26+0100
; FORMAT={-:-/ absolute / inch / decimal}
; #@! TF.CreationDate,2024-12-30T17:04:26+01:00
; #@! TF.GenerationSoftware,Kicad,Pcbnew,8.0.7-8.0.7-0~ubuntu22.04.1
; #@! TF.FileFunction,Plated,1,2,PTH
FMAT,2
INCH
; #@! TA.AperFunction,Plated,PTH,ViaDrill
T1C0.0098
; #@! TA.AperFunction,Plated,PTH,ViaDrill
T2C0.0118
; #@! TA.AperFunction,Plated,PTH,ComponentDrill
T3C0.0197
; #@! TA.AperFunction,Plated,PTH,ViaDrill
T4C0.0236
; #@! TA.AperFunction,Plated,PTH,ComponentDrill
T5C0.0472
; #@! TA.AperFunction,Plated,PTH,ComponentDrill
T6C0.0598
; #@! TA.AperFunction,Plated,PTH,ComponentDrill
T7C0.0689
; #@! TA.AperFunction,Plated,PTH,ComponentDrill
T8C0.0925
; #@! TA.AperFunction,Plated,PTH,ComponentDrill
T9C0.1063
; #@! TA.AperFunction,Plated,PTH,ComponentDrill
T10C0.1181
; #@! TA.AperFunction,Plated,PTH,ComponentDrill
T11C0.1260
%
G90
G05
T1
X1.1417Y-4.6063
X1.1811Y-4.5866
X1.2205Y-4.5866
X1.437Y-4.6063
X1.4961Y-4.5866
X1.5354Y-4.5866
X1.6339Y-4.4291
X1.7126Y-4.4291
X1.7323Y-4.626
X1.7717Y-4.6063
X1.7913Y-4.4291
X1.811Y-4.6063
X1.8701Y-4.4291
X1.9488Y-4.4291
X2.0079Y-4.6063
X2.0276Y-4.4291
X2.0472Y-4.6063
X2.0866Y-4.6063
X2.1063Y-4.4291
X2.185Y-4.4291
X2.2638Y-4.4291
X2.3228Y-4.626
X2.3425Y-4.4291
X2.3622Y-4.626
X2.4016Y-4.5945
T2
X1.7126Y-1.9291
X1.7126Y-2.0472
X2.1654Y-1.9291
X2.1654Y-2.0472
X2.6575Y-1.8701
X2.7362Y-2.6181
X2.7953Y-1.9488
X2.8543Y-2.6181
T3
X4.2915Y-4.5774
X4.2915Y-4.6167
T4
X0.8268Y-4.7441
X0.8268Y-4.7835
X0.8268Y-4.8228
X0.8661Y-4.7441
X0.8661Y-4.7835
X0.8661Y-4.8228
X0.9055Y-4.7441
X0.9055Y-4.7835
X0.9055Y-4.8228
X0.9449Y-4.7441
X0.9449Y-4.7835
X0.9449Y-4.8228
X0.9843Y-4.7441
X0.9843Y-4.7835
X0.9843Y-4.8228
X1.0236Y-4.7441
X1.0236Y-4.7835
X1.0236Y-4.8228
X1.1024Y-4.7441
X1.1024Y-4.7835
X1.1024Y-4.8228
X1.3976Y-4.7441
X1.3976Y-4.7835
X1.3976Y-4.8228
X1.6929Y-4.7441
X1.6929Y-4.7835
X1.6929Y-4.8228
X1.9882Y-4.7441
X1.9882Y-4.7835
X1.9882Y-4.8228
X2.2835Y-4.7441
X2.2835Y-4.7835
X2.2835Y-4.8228
T5
X3.8742Y-5.2746
X3.9742Y-5.2746
X6.0551Y-1.2795
X6.1551Y-1.2795
X6.2551Y-1.2795
X6.3551Y-1.2795
X6.4551Y-1.2795
X6.5551Y-1.2795
T6
X1.3852Y-5.315
X1.5852Y-5.315
X1.7852Y-5.315
X1.9852Y-5.315
X2.1852Y-5.315
T7
X6.2285Y-2.3425
X6.4285Y-2.3425
T8
X3.1236Y-0.9024
X3.1236Y-1.3024
X3.5236Y-0.9024
X3.5236Y-1.3024
X3.9236Y-0.9024
X3.9236Y-1.3024
T9
X3.1299Y-1.6535
X3.1299Y-1.8504
X3.1299Y-2.0157
X3.1299Y-2.2126
X3.5236Y-1.6535
X3.5236Y-1.8504
X3.5236Y-2.0157
X3.5236Y-2.2126
X3.9173Y-1.6535
X3.9173Y-1.8504
X3.9173Y-2.0157
X3.9173Y-2.2126
T10
X6.1024Y-1.6142
X6.1024Y-1.811
X6.1319Y-2.7067
X6.2992Y-1.6142
X6.2992Y-1.811
X6.4961Y-1.6142
X6.4961Y-1.811
X6.5256Y-2.7067
T11
X0.9843Y-0.9843
X0.9843Y-5.315
X5.315Y-0.9843
X5.315Y-5.315
M30
