%TF.GenerationSoftware,KiCad,Pcbnew,8.0.7-8.0.7-0~ubuntu22.04.1*%
%TF.CreationDate,2024-12-30T17:04:27+01:00*%
%TF.ProjectId,electronics,656c6563-7472-46f6-9e69-63732e6b6963,rev?*%
%TF.SameCoordinates,Original*%
%TF.FileFunction,Drillmap*%
%TF.FilePolarity,Positive*%
%FSLAX45Y45*%
G04 Gerber Fmt 4.5, Leading zero omitted, Abs format (unit mm)*
G04 Created by KiCad (PCBNEW 8.0.7-8.0.7-0~ubuntu22.04.1) date 2024-12-30 17:04:27*
%MOMM*%
%LPD*%
G01*
G04 APERTURE LIST*
%ADD10C,0.200000*%
%ADD11C,0.050000*%
%ADD12C,0.700000*%
G04 APERTURE END LIST*
D10*
X2000000Y-2000000D02*
X14000000Y-2000000D01*
X14000000Y-14000000D01*
X2000000Y-14000000D01*
X2000000Y-2000000D01*
D11*
X14525000Y-5225000D02*
X17525000Y-5225000D01*
X17525000Y-7725000D01*
X14525000Y-7725000D01*
X14525000Y-5225000D01*
X14525000Y-2650000D02*
X17525000Y-2650000D01*
X17525000Y-5150000D01*
X14525000Y-5150000D01*
X14525000Y-2650000D01*
D10*
D12*
X2650000Y-7700000D02*
X3350000Y-8400000D01*
X3350000Y-7700000D02*
X2650000Y-8400000D01*
X3800000Y-2400000D02*
X4500000Y-3100000D01*
X4500000Y-2400000D02*
X3800000Y-3100000D01*
X4150000Y-7700000D02*
X4850000Y-8400000D01*
X4850000Y-7700000D02*
X4150000Y-8400000D01*
X5650000Y-7700000D02*
X6350000Y-8400000D01*
X6350000Y-7700000D02*
X5650000Y-8400000D01*
X5800000Y-2400000D02*
X6500000Y-3100000D01*
X6500000Y-2400000D02*
X5800000Y-3100000D01*
X9650000Y-7700000D02*
X10350000Y-8400000D01*
X10350000Y-7700000D02*
X9650000Y-8400000D01*
X11150000Y-7700000D02*
X11850000Y-8400000D01*
X11850000Y-7700000D02*
X11150000Y-8400000D01*
X12650000Y-7700000D02*
X13350000Y-8400000D01*
X13350000Y-7700000D02*
X12650000Y-8400000D01*
D10*
X2250777Y-14321484D02*
X2250777Y-14121484D01*
X2250777Y-14121484D02*
X2298396Y-14121484D01*
X2298396Y-14121484D02*
X2326967Y-14131008D01*
X2326967Y-14131008D02*
X2346015Y-14150055D01*
X2346015Y-14150055D02*
X2355539Y-14169103D01*
X2355539Y-14169103D02*
X2365063Y-14207198D01*
X2365063Y-14207198D02*
X2365063Y-14235769D01*
X2365063Y-14235769D02*
X2355539Y-14273865D01*
X2355539Y-14273865D02*
X2346015Y-14292912D01*
X2346015Y-14292912D02*
X2326967Y-14311960D01*
X2326967Y-14311960D02*
X2298396Y-14321484D01*
X2298396Y-14321484D02*
X2250777Y-14321484D01*
X2450777Y-14321484D02*
X2450777Y-14188150D01*
X2450777Y-14226246D02*
X2460301Y-14207198D01*
X2460301Y-14207198D02*
X2469824Y-14197674D01*
X2469824Y-14197674D02*
X2488872Y-14188150D01*
X2488872Y-14188150D02*
X2507920Y-14188150D01*
X2574586Y-14321484D02*
X2574586Y-14188150D01*
X2574586Y-14121484D02*
X2565063Y-14131008D01*
X2565063Y-14131008D02*
X2574586Y-14140531D01*
X2574586Y-14140531D02*
X2584110Y-14131008D01*
X2584110Y-14131008D02*
X2574586Y-14121484D01*
X2574586Y-14121484D02*
X2574586Y-14140531D01*
X2698396Y-14321484D02*
X2679348Y-14311960D01*
X2679348Y-14311960D02*
X2669824Y-14292912D01*
X2669824Y-14292912D02*
X2669824Y-14121484D01*
X2803158Y-14321484D02*
X2784110Y-14311960D01*
X2784110Y-14311960D02*
X2774586Y-14292912D01*
X2774586Y-14292912D02*
X2774586Y-14121484D01*
X3031729Y-14321484D02*
X3031729Y-14121484D01*
X3031729Y-14121484D02*
X3098396Y-14264341D01*
X3098396Y-14264341D02*
X3165062Y-14121484D01*
X3165062Y-14121484D02*
X3165062Y-14321484D01*
X3346015Y-14321484D02*
X3346015Y-14216722D01*
X3346015Y-14216722D02*
X3336491Y-14197674D01*
X3336491Y-14197674D02*
X3317443Y-14188150D01*
X3317443Y-14188150D02*
X3279348Y-14188150D01*
X3279348Y-14188150D02*
X3260301Y-14197674D01*
X3346015Y-14311960D02*
X3326967Y-14321484D01*
X3326967Y-14321484D02*
X3279348Y-14321484D01*
X3279348Y-14321484D02*
X3260301Y-14311960D01*
X3260301Y-14311960D02*
X3250777Y-14292912D01*
X3250777Y-14292912D02*
X3250777Y-14273865D01*
X3250777Y-14273865D02*
X3260301Y-14254817D01*
X3260301Y-14254817D02*
X3279348Y-14245293D01*
X3279348Y-14245293D02*
X3326967Y-14245293D01*
X3326967Y-14245293D02*
X3346015Y-14235769D01*
X3441253Y-14188150D02*
X3441253Y-14388150D01*
X3441253Y-14197674D02*
X3460301Y-14188150D01*
X3460301Y-14188150D02*
X3498396Y-14188150D01*
X3498396Y-14188150D02*
X3517443Y-14197674D01*
X3517443Y-14197674D02*
X3526967Y-14207198D01*
X3526967Y-14207198D02*
X3536491Y-14226246D01*
X3536491Y-14226246D02*
X3536491Y-14283388D01*
X3536491Y-14283388D02*
X3526967Y-14302436D01*
X3526967Y-14302436D02*
X3517443Y-14311960D01*
X3517443Y-14311960D02*
X3498396Y-14321484D01*
X3498396Y-14321484D02*
X3460301Y-14321484D01*
X3460301Y-14321484D02*
X3441253Y-14311960D01*
X3622205Y-14302436D02*
X3631729Y-14311960D01*
X3631729Y-14311960D02*
X3622205Y-14321484D01*
X3622205Y-14321484D02*
X3612682Y-14311960D01*
X3612682Y-14311960D02*
X3622205Y-14302436D01*
X3622205Y-14302436D02*
X3622205Y-14321484D01*
X3622205Y-14197674D02*
X3631729Y-14207198D01*
X3631729Y-14207198D02*
X3622205Y-14216722D01*
X3622205Y-14216722D02*
X3612682Y-14207198D01*
X3612682Y-14207198D02*
X3622205Y-14197674D01*
X3622205Y-14197674D02*
X3622205Y-14216722D01*
X1790000Y-14550000D02*
X1990000Y-14750000D01*
X1990000Y-14550000D02*
X1790000Y-14750000D01*
X2231729Y-14541484D02*
X2365063Y-14541484D01*
X2365063Y-14541484D02*
X2279348Y-14741484D01*
X2441253Y-14722436D02*
X2450777Y-14731960D01*
X2450777Y-14731960D02*
X2441253Y-14741484D01*
X2441253Y-14741484D02*
X2431729Y-14731960D01*
X2431729Y-14731960D02*
X2441253Y-14722436D01*
X2441253Y-14722436D02*
X2441253Y-14741484D01*
X2574586Y-14541484D02*
X2593634Y-14541484D01*
X2593634Y-14541484D02*
X2612682Y-14551008D01*
X2612682Y-14551008D02*
X2622205Y-14560531D01*
X2622205Y-14560531D02*
X2631729Y-14579579D01*
X2631729Y-14579579D02*
X2641253Y-14617674D01*
X2641253Y-14617674D02*
X2641253Y-14665293D01*
X2641253Y-14665293D02*
X2631729Y-14703388D01*
X2631729Y-14703388D02*
X2622205Y-14722436D01*
X2622205Y-14722436D02*
X2612682Y-14731960D01*
X2612682Y-14731960D02*
X2593634Y-14741484D01*
X2593634Y-14741484D02*
X2574586Y-14741484D01*
X2574586Y-14741484D02*
X2555539Y-14731960D01*
X2555539Y-14731960D02*
X2546015Y-14722436D01*
X2546015Y-14722436D02*
X2536491Y-14703388D01*
X2536491Y-14703388D02*
X2526967Y-14665293D01*
X2526967Y-14665293D02*
X2526967Y-14617674D01*
X2526967Y-14617674D02*
X2536491Y-14579579D01*
X2536491Y-14579579D02*
X2546015Y-14560531D01*
X2546015Y-14560531D02*
X2555539Y-14551008D01*
X2555539Y-14551008D02*
X2574586Y-14541484D01*
X2765063Y-14541484D02*
X2784110Y-14541484D01*
X2784110Y-14541484D02*
X2803158Y-14551008D01*
X2803158Y-14551008D02*
X2812682Y-14560531D01*
X2812682Y-14560531D02*
X2822205Y-14579579D01*
X2822205Y-14579579D02*
X2831729Y-14617674D01*
X2831729Y-14617674D02*
X2831729Y-14665293D01*
X2831729Y-14665293D02*
X2822205Y-14703388D01*
X2822205Y-14703388D02*
X2812682Y-14722436D01*
X2812682Y-14722436D02*
X2803158Y-14731960D01*
X2803158Y-14731960D02*
X2784110Y-14741484D01*
X2784110Y-14741484D02*
X2765063Y-14741484D01*
X2765063Y-14741484D02*
X2746015Y-14731960D01*
X2746015Y-14731960D02*
X2736491Y-14722436D01*
X2736491Y-14722436D02*
X2726967Y-14703388D01*
X2726967Y-14703388D02*
X2717444Y-14665293D01*
X2717444Y-14665293D02*
X2717444Y-14617674D01*
X2717444Y-14617674D02*
X2726967Y-14579579D01*
X2726967Y-14579579D02*
X2736491Y-14560531D01*
X2736491Y-14560531D02*
X2746015Y-14551008D01*
X2746015Y-14551008D02*
X2765063Y-14541484D01*
X2955539Y-14541484D02*
X2974586Y-14541484D01*
X2974586Y-14541484D02*
X2993634Y-14551008D01*
X2993634Y-14551008D02*
X3003158Y-14560531D01*
X3003158Y-14560531D02*
X3012682Y-14579579D01*
X3012682Y-14579579D02*
X3022205Y-14617674D01*
X3022205Y-14617674D02*
X3022205Y-14665293D01*
X3022205Y-14665293D02*
X3012682Y-14703388D01*
X3012682Y-14703388D02*
X3003158Y-14722436D01*
X3003158Y-14722436D02*
X2993634Y-14731960D01*
X2993634Y-14731960D02*
X2974586Y-14741484D01*
X2974586Y-14741484D02*
X2955539Y-14741484D01*
X2955539Y-14741484D02*
X2936491Y-14731960D01*
X2936491Y-14731960D02*
X2926967Y-14722436D01*
X2926967Y-14722436D02*
X2917443Y-14703388D01*
X2917443Y-14703388D02*
X2907920Y-14665293D01*
X2907920Y-14665293D02*
X2907920Y-14617674D01*
X2907920Y-14617674D02*
X2917443Y-14579579D01*
X2917443Y-14579579D02*
X2926967Y-14560531D01*
X2926967Y-14560531D02*
X2936491Y-14551008D01*
X2936491Y-14551008D02*
X2955539Y-14541484D01*
X3107920Y-14741484D02*
X3107920Y-14608150D01*
X3107920Y-14627198D02*
X3117443Y-14617674D01*
X3117443Y-14617674D02*
X3136491Y-14608150D01*
X3136491Y-14608150D02*
X3165063Y-14608150D01*
X3165063Y-14608150D02*
X3184110Y-14617674D01*
X3184110Y-14617674D02*
X3193634Y-14636722D01*
X3193634Y-14636722D02*
X3193634Y-14741484D01*
X3193634Y-14636722D02*
X3203158Y-14617674D01*
X3203158Y-14617674D02*
X3222205Y-14608150D01*
X3222205Y-14608150D02*
X3250777Y-14608150D01*
X3250777Y-14608150D02*
X3269824Y-14617674D01*
X3269824Y-14617674D02*
X3279348Y-14636722D01*
X3279348Y-14636722D02*
X3279348Y-14741484D01*
X3374586Y-14741484D02*
X3374586Y-14608150D01*
X3374586Y-14627198D02*
X3384110Y-14617674D01*
X3384110Y-14617674D02*
X3403158Y-14608150D01*
X3403158Y-14608150D02*
X3431729Y-14608150D01*
X3431729Y-14608150D02*
X3450777Y-14617674D01*
X3450777Y-14617674D02*
X3460301Y-14636722D01*
X3460301Y-14636722D02*
X3460301Y-14741484D01*
X3460301Y-14636722D02*
X3469824Y-14617674D01*
X3469824Y-14617674D02*
X3488872Y-14608150D01*
X3488872Y-14608150D02*
X3517443Y-14608150D01*
X3517443Y-14608150D02*
X3536491Y-14617674D01*
X3536491Y-14617674D02*
X3546015Y-14636722D01*
X3546015Y-14636722D02*
X3546015Y-14741484D01*
X3936491Y-14531960D02*
X3765063Y-14789103D01*
X4193634Y-14541484D02*
X4212682Y-14541484D01*
X4212682Y-14541484D02*
X4231729Y-14551008D01*
X4231729Y-14551008D02*
X4241253Y-14560531D01*
X4241253Y-14560531D02*
X4250777Y-14579579D01*
X4250777Y-14579579D02*
X4260301Y-14617674D01*
X4260301Y-14617674D02*
X4260301Y-14665293D01*
X4260301Y-14665293D02*
X4250777Y-14703388D01*
X4250777Y-14703388D02*
X4241253Y-14722436D01*
X4241253Y-14722436D02*
X4231729Y-14731960D01*
X4231729Y-14731960D02*
X4212682Y-14741484D01*
X4212682Y-14741484D02*
X4193634Y-14741484D01*
X4193634Y-14741484D02*
X4174586Y-14731960D01*
X4174586Y-14731960D02*
X4165063Y-14722436D01*
X4165063Y-14722436D02*
X4155539Y-14703388D01*
X4155539Y-14703388D02*
X4146015Y-14665293D01*
X4146015Y-14665293D02*
X4146015Y-14617674D01*
X4146015Y-14617674D02*
X4155539Y-14579579D01*
X4155539Y-14579579D02*
X4165063Y-14560531D01*
X4165063Y-14560531D02*
X4174586Y-14551008D01*
X4174586Y-14551008D02*
X4193634Y-14541484D01*
X4346015Y-14722436D02*
X4355539Y-14731960D01*
X4355539Y-14731960D02*
X4346015Y-14741484D01*
X4346015Y-14741484D02*
X4336491Y-14731960D01*
X4336491Y-14731960D02*
X4346015Y-14722436D01*
X4346015Y-14722436D02*
X4346015Y-14741484D01*
X4431729Y-14560531D02*
X4441253Y-14551008D01*
X4441253Y-14551008D02*
X4460301Y-14541484D01*
X4460301Y-14541484D02*
X4507920Y-14541484D01*
X4507920Y-14541484D02*
X4526968Y-14551008D01*
X4526968Y-14551008D02*
X4536491Y-14560531D01*
X4536491Y-14560531D02*
X4546015Y-14579579D01*
X4546015Y-14579579D02*
X4546015Y-14598627D01*
X4546015Y-14598627D02*
X4536491Y-14627198D01*
X4536491Y-14627198D02*
X4422206Y-14741484D01*
X4422206Y-14741484D02*
X4546015Y-14741484D01*
X4612682Y-14541484D02*
X4746015Y-14541484D01*
X4746015Y-14541484D02*
X4660301Y-14741484D01*
X4917444Y-14541484D02*
X4822206Y-14541484D01*
X4822206Y-14541484D02*
X4812682Y-14636722D01*
X4812682Y-14636722D02*
X4822206Y-14627198D01*
X4822206Y-14627198D02*
X4841253Y-14617674D01*
X4841253Y-14617674D02*
X4888872Y-14617674D01*
X4888872Y-14617674D02*
X4907920Y-14627198D01*
X4907920Y-14627198D02*
X4917444Y-14636722D01*
X4917444Y-14636722D02*
X4926968Y-14655769D01*
X4926968Y-14655769D02*
X4926968Y-14703388D01*
X4926968Y-14703388D02*
X4917444Y-14722436D01*
X4917444Y-14722436D02*
X4907920Y-14731960D01*
X4907920Y-14731960D02*
X4888872Y-14741484D01*
X4888872Y-14741484D02*
X4841253Y-14741484D01*
X4841253Y-14741484D02*
X4822206Y-14731960D01*
X4822206Y-14731960D02*
X4812682Y-14722436D01*
X5098396Y-14541484D02*
X5060301Y-14541484D01*
X5060301Y-14541484D02*
X5041253Y-14551008D01*
X5041253Y-14551008D02*
X5031729Y-14560531D01*
X5031729Y-14560531D02*
X5012682Y-14589103D01*
X5012682Y-14589103D02*
X5003158Y-14627198D01*
X5003158Y-14627198D02*
X5003158Y-14703388D01*
X5003158Y-14703388D02*
X5012682Y-14722436D01*
X5012682Y-14722436D02*
X5022206Y-14731960D01*
X5022206Y-14731960D02*
X5041253Y-14741484D01*
X5041253Y-14741484D02*
X5079349Y-14741484D01*
X5079349Y-14741484D02*
X5098396Y-14731960D01*
X5098396Y-14731960D02*
X5107920Y-14722436D01*
X5107920Y-14722436D02*
X5117444Y-14703388D01*
X5117444Y-14703388D02*
X5117444Y-14655769D01*
X5117444Y-14655769D02*
X5107920Y-14636722D01*
X5107920Y-14636722D02*
X5098396Y-14627198D01*
X5098396Y-14627198D02*
X5079349Y-14617674D01*
X5079349Y-14617674D02*
X5041253Y-14617674D01*
X5041253Y-14617674D02*
X5022206Y-14627198D01*
X5022206Y-14627198D02*
X5012682Y-14636722D01*
X5012682Y-14636722D02*
X5003158Y-14655769D01*
X5193634Y-14541484D02*
X5193634Y-14579579D01*
X5269825Y-14541484D02*
X5269825Y-14579579D01*
X5565063Y-14817674D02*
X5555539Y-14808150D01*
X5555539Y-14808150D02*
X5536491Y-14779579D01*
X5536491Y-14779579D02*
X5526968Y-14760531D01*
X5526968Y-14760531D02*
X5517444Y-14731960D01*
X5517444Y-14731960D02*
X5507920Y-14684341D01*
X5507920Y-14684341D02*
X5507920Y-14646246D01*
X5507920Y-14646246D02*
X5517444Y-14598627D01*
X5517444Y-14598627D02*
X5526968Y-14570055D01*
X5526968Y-14570055D02*
X5536491Y-14551008D01*
X5536491Y-14551008D02*
X5555539Y-14522436D01*
X5555539Y-14522436D02*
X5565063Y-14512912D01*
X5669825Y-14627198D02*
X5650777Y-14617674D01*
X5650777Y-14617674D02*
X5641253Y-14608150D01*
X5641253Y-14608150D02*
X5631729Y-14589103D01*
X5631729Y-14589103D02*
X5631729Y-14579579D01*
X5631729Y-14579579D02*
X5641253Y-14560531D01*
X5641253Y-14560531D02*
X5650777Y-14551008D01*
X5650777Y-14551008D02*
X5669825Y-14541484D01*
X5669825Y-14541484D02*
X5707920Y-14541484D01*
X5707920Y-14541484D02*
X5726968Y-14551008D01*
X5726968Y-14551008D02*
X5736491Y-14560531D01*
X5736491Y-14560531D02*
X5746015Y-14579579D01*
X5746015Y-14579579D02*
X5746015Y-14589103D01*
X5746015Y-14589103D02*
X5736491Y-14608150D01*
X5736491Y-14608150D02*
X5726968Y-14617674D01*
X5726968Y-14617674D02*
X5707920Y-14627198D01*
X5707920Y-14627198D02*
X5669825Y-14627198D01*
X5669825Y-14627198D02*
X5650777Y-14636722D01*
X5650777Y-14636722D02*
X5641253Y-14646246D01*
X5641253Y-14646246D02*
X5631729Y-14665293D01*
X5631729Y-14665293D02*
X5631729Y-14703388D01*
X5631729Y-14703388D02*
X5641253Y-14722436D01*
X5641253Y-14722436D02*
X5650777Y-14731960D01*
X5650777Y-14731960D02*
X5669825Y-14741484D01*
X5669825Y-14741484D02*
X5707920Y-14741484D01*
X5707920Y-14741484D02*
X5726968Y-14731960D01*
X5726968Y-14731960D02*
X5736491Y-14722436D01*
X5736491Y-14722436D02*
X5746015Y-14703388D01*
X5746015Y-14703388D02*
X5746015Y-14665293D01*
X5746015Y-14665293D02*
X5736491Y-14646246D01*
X5736491Y-14646246D02*
X5726968Y-14636722D01*
X5726968Y-14636722D02*
X5707920Y-14627198D01*
X5984110Y-14741484D02*
X5984110Y-14541484D01*
X6069825Y-14741484D02*
X6069825Y-14636722D01*
X6069825Y-14636722D02*
X6060301Y-14617674D01*
X6060301Y-14617674D02*
X6041253Y-14608150D01*
X6041253Y-14608150D02*
X6012682Y-14608150D01*
X6012682Y-14608150D02*
X5993634Y-14617674D01*
X5993634Y-14617674D02*
X5984110Y-14627198D01*
X6193634Y-14741484D02*
X6174587Y-14731960D01*
X6174587Y-14731960D02*
X6165063Y-14722436D01*
X6165063Y-14722436D02*
X6155539Y-14703388D01*
X6155539Y-14703388D02*
X6155539Y-14646246D01*
X6155539Y-14646246D02*
X6165063Y-14627198D01*
X6165063Y-14627198D02*
X6174587Y-14617674D01*
X6174587Y-14617674D02*
X6193634Y-14608150D01*
X6193634Y-14608150D02*
X6222206Y-14608150D01*
X6222206Y-14608150D02*
X6241253Y-14617674D01*
X6241253Y-14617674D02*
X6250777Y-14627198D01*
X6250777Y-14627198D02*
X6260301Y-14646246D01*
X6260301Y-14646246D02*
X6260301Y-14703388D01*
X6260301Y-14703388D02*
X6250777Y-14722436D01*
X6250777Y-14722436D02*
X6241253Y-14731960D01*
X6241253Y-14731960D02*
X6222206Y-14741484D01*
X6222206Y-14741484D02*
X6193634Y-14741484D01*
X6374587Y-14741484D02*
X6355539Y-14731960D01*
X6355539Y-14731960D02*
X6346015Y-14712912D01*
X6346015Y-14712912D02*
X6346015Y-14541484D01*
X6526968Y-14731960D02*
X6507920Y-14741484D01*
X6507920Y-14741484D02*
X6469825Y-14741484D01*
X6469825Y-14741484D02*
X6450777Y-14731960D01*
X6450777Y-14731960D02*
X6441253Y-14712912D01*
X6441253Y-14712912D02*
X6441253Y-14636722D01*
X6441253Y-14636722D02*
X6450777Y-14617674D01*
X6450777Y-14617674D02*
X6469825Y-14608150D01*
X6469825Y-14608150D02*
X6507920Y-14608150D01*
X6507920Y-14608150D02*
X6526968Y-14617674D01*
X6526968Y-14617674D02*
X6536491Y-14636722D01*
X6536491Y-14636722D02*
X6536491Y-14655769D01*
X6536491Y-14655769D02*
X6441253Y-14674817D01*
X6612682Y-14731960D02*
X6631730Y-14741484D01*
X6631730Y-14741484D02*
X6669825Y-14741484D01*
X6669825Y-14741484D02*
X6688872Y-14731960D01*
X6688872Y-14731960D02*
X6698396Y-14712912D01*
X6698396Y-14712912D02*
X6698396Y-14703388D01*
X6698396Y-14703388D02*
X6688872Y-14684341D01*
X6688872Y-14684341D02*
X6669825Y-14674817D01*
X6669825Y-14674817D02*
X6641253Y-14674817D01*
X6641253Y-14674817D02*
X6622206Y-14665293D01*
X6622206Y-14665293D02*
X6612682Y-14646246D01*
X6612682Y-14646246D02*
X6612682Y-14636722D01*
X6612682Y-14636722D02*
X6622206Y-14617674D01*
X6622206Y-14617674D02*
X6641253Y-14608150D01*
X6641253Y-14608150D02*
X6669825Y-14608150D01*
X6669825Y-14608150D02*
X6688872Y-14617674D01*
X6765063Y-14817674D02*
X6774587Y-14808150D01*
X6774587Y-14808150D02*
X6793634Y-14779579D01*
X6793634Y-14779579D02*
X6803158Y-14760531D01*
X6803158Y-14760531D02*
X6812682Y-14731960D01*
X6812682Y-14731960D02*
X6822206Y-14684341D01*
X6822206Y-14684341D02*
X6822206Y-14646246D01*
X6822206Y-14646246D02*
X6812682Y-14598627D01*
X6812682Y-14598627D02*
X6803158Y-14570055D01*
X6803158Y-14570055D02*
X6793634Y-14551008D01*
X6793634Y-14551008D02*
X6774587Y-14522436D01*
X6774587Y-14522436D02*
X6765063Y-14512912D01*
X7126968Y-14817674D02*
X7117444Y-14808150D01*
X7117444Y-14808150D02*
X7098396Y-14779579D01*
X7098396Y-14779579D02*
X7088872Y-14760531D01*
X7088872Y-14760531D02*
X7079349Y-14731960D01*
X7079349Y-14731960D02*
X7069825Y-14684341D01*
X7069825Y-14684341D02*
X7069825Y-14646246D01*
X7069825Y-14646246D02*
X7079349Y-14598627D01*
X7079349Y-14598627D02*
X7088872Y-14570055D01*
X7088872Y-14570055D02*
X7098396Y-14551008D01*
X7098396Y-14551008D02*
X7117444Y-14522436D01*
X7117444Y-14522436D02*
X7126968Y-14512912D01*
X7203158Y-14608150D02*
X7203158Y-14741484D01*
X7203158Y-14627198D02*
X7212682Y-14617674D01*
X7212682Y-14617674D02*
X7231730Y-14608150D01*
X7231730Y-14608150D02*
X7260301Y-14608150D01*
X7260301Y-14608150D02*
X7279349Y-14617674D01*
X7279349Y-14617674D02*
X7288872Y-14636722D01*
X7288872Y-14636722D02*
X7288872Y-14741484D01*
X7412682Y-14741484D02*
X7393634Y-14731960D01*
X7393634Y-14731960D02*
X7384111Y-14722436D01*
X7384111Y-14722436D02*
X7374587Y-14703388D01*
X7374587Y-14703388D02*
X7374587Y-14646246D01*
X7374587Y-14646246D02*
X7384111Y-14627198D01*
X7384111Y-14627198D02*
X7393634Y-14617674D01*
X7393634Y-14617674D02*
X7412682Y-14608150D01*
X7412682Y-14608150D02*
X7441253Y-14608150D01*
X7441253Y-14608150D02*
X7460301Y-14617674D01*
X7460301Y-14617674D02*
X7469825Y-14627198D01*
X7469825Y-14627198D02*
X7479349Y-14646246D01*
X7479349Y-14646246D02*
X7479349Y-14703388D01*
X7479349Y-14703388D02*
X7469825Y-14722436D01*
X7469825Y-14722436D02*
X7460301Y-14731960D01*
X7460301Y-14731960D02*
X7441253Y-14741484D01*
X7441253Y-14741484D02*
X7412682Y-14741484D01*
X7536492Y-14608150D02*
X7612682Y-14608150D01*
X7565063Y-14541484D02*
X7565063Y-14712912D01*
X7565063Y-14712912D02*
X7574587Y-14731960D01*
X7574587Y-14731960D02*
X7593634Y-14741484D01*
X7593634Y-14741484D02*
X7612682Y-14741484D01*
X7831730Y-14608150D02*
X7831730Y-14808150D01*
X7831730Y-14617674D02*
X7850777Y-14608150D01*
X7850777Y-14608150D02*
X7888873Y-14608150D01*
X7888873Y-14608150D02*
X7907920Y-14617674D01*
X7907920Y-14617674D02*
X7917444Y-14627198D01*
X7917444Y-14627198D02*
X7926968Y-14646246D01*
X7926968Y-14646246D02*
X7926968Y-14703388D01*
X7926968Y-14703388D02*
X7917444Y-14722436D01*
X7917444Y-14722436D02*
X7907920Y-14731960D01*
X7907920Y-14731960D02*
X7888873Y-14741484D01*
X7888873Y-14741484D02*
X7850777Y-14741484D01*
X7850777Y-14741484D02*
X7831730Y-14731960D01*
X8041253Y-14741484D02*
X8022206Y-14731960D01*
X8022206Y-14731960D02*
X8012682Y-14712912D01*
X8012682Y-14712912D02*
X8012682Y-14541484D01*
X8203158Y-14741484D02*
X8203158Y-14636722D01*
X8203158Y-14636722D02*
X8193634Y-14617674D01*
X8193634Y-14617674D02*
X8174587Y-14608150D01*
X8174587Y-14608150D02*
X8136492Y-14608150D01*
X8136492Y-14608150D02*
X8117444Y-14617674D01*
X8203158Y-14731960D02*
X8184111Y-14741484D01*
X8184111Y-14741484D02*
X8136492Y-14741484D01*
X8136492Y-14741484D02*
X8117444Y-14731960D01*
X8117444Y-14731960D02*
X8107920Y-14712912D01*
X8107920Y-14712912D02*
X8107920Y-14693865D01*
X8107920Y-14693865D02*
X8117444Y-14674817D01*
X8117444Y-14674817D02*
X8136492Y-14665293D01*
X8136492Y-14665293D02*
X8184111Y-14665293D01*
X8184111Y-14665293D02*
X8203158Y-14655769D01*
X8269825Y-14608150D02*
X8346015Y-14608150D01*
X8298396Y-14541484D02*
X8298396Y-14712912D01*
X8298396Y-14712912D02*
X8307920Y-14731960D01*
X8307920Y-14731960D02*
X8326968Y-14741484D01*
X8326968Y-14741484D02*
X8346015Y-14741484D01*
X8488873Y-14731960D02*
X8469825Y-14741484D01*
X8469825Y-14741484D02*
X8431730Y-14741484D01*
X8431730Y-14741484D02*
X8412682Y-14731960D01*
X8412682Y-14731960D02*
X8403158Y-14712912D01*
X8403158Y-14712912D02*
X8403158Y-14636722D01*
X8403158Y-14636722D02*
X8412682Y-14617674D01*
X8412682Y-14617674D02*
X8431730Y-14608150D01*
X8431730Y-14608150D02*
X8469825Y-14608150D01*
X8469825Y-14608150D02*
X8488873Y-14617674D01*
X8488873Y-14617674D02*
X8498396Y-14636722D01*
X8498396Y-14636722D02*
X8498396Y-14655769D01*
X8498396Y-14655769D02*
X8403158Y-14674817D01*
X8669825Y-14741484D02*
X8669825Y-14541484D01*
X8669825Y-14731960D02*
X8650777Y-14741484D01*
X8650777Y-14741484D02*
X8612682Y-14741484D01*
X8612682Y-14741484D02*
X8593635Y-14731960D01*
X8593635Y-14731960D02*
X8584111Y-14722436D01*
X8584111Y-14722436D02*
X8574587Y-14703388D01*
X8574587Y-14703388D02*
X8574587Y-14646246D01*
X8574587Y-14646246D02*
X8584111Y-14627198D01*
X8584111Y-14627198D02*
X8593635Y-14617674D01*
X8593635Y-14617674D02*
X8612682Y-14608150D01*
X8612682Y-14608150D02*
X8650777Y-14608150D01*
X8650777Y-14608150D02*
X8669825Y-14617674D01*
X8746016Y-14817674D02*
X8755539Y-14808150D01*
X8755539Y-14808150D02*
X8774587Y-14779579D01*
X8774587Y-14779579D02*
X8784111Y-14760531D01*
X8784111Y-14760531D02*
X8793635Y-14731960D01*
X8793635Y-14731960D02*
X8803158Y-14684341D01*
X8803158Y-14684341D02*
X8803158Y-14646246D01*
X8803158Y-14646246D02*
X8793635Y-14598627D01*
X8793635Y-14598627D02*
X8784111Y-14570055D01*
X8784111Y-14570055D02*
X8774587Y-14551008D01*
X8774587Y-14551008D02*
X8755539Y-14522436D01*
X8755539Y-14522436D02*
X8746016Y-14512912D01*
M02*
