%TF.GenerationSoftware,KiCad,Pcbnew,8.0.7-8.0.7-0~ubuntu22.04.1*%
%TF.CreationDate,2024-12-30T17:04:22+01:00*%
%TF.ProjectId,electronics,656c6563-7472-46f6-9e69-63732e6b6963,rev?*%
%TF.SameCoordinates,Original*%
%TF.FileFunction,Copper,L2,Bot*%
%TF.FilePolarity,Positive*%
%FSLAX46Y46*%
G04 Gerber Fmt 4.6, Leading zero omitted, Abs format (unit mm)*
G04 Created by KiCad (PCBNEW 8.0.7-8.0.7-0~ubuntu22.04.1) date 2024-12-30 17:04:22*
%MOMM*%
%LPD*%
G01*
G04 APERTURE LIST*
G04 Aperture macros list*
%AMRoundRect*
0 Rectangle with rounded corners*
0 $1 Rounding radius*
0 $2 $3 $4 $5 $6 $7 $8 $9 X,Y pos of 4 corners*
0 Add a 4 corners polygon primitive as box body*
4,1,4,$2,$3,$4,$5,$6,$7,$8,$9,$2,$3,0*
0 Add four circle primitives for the rounded corners*
1,1,$1+$1,$2,$3*
1,1,$1+$1,$4,$5*
1,1,$1+$1,$6,$7*
1,1,$1+$1,$8,$9*
0 Add four rect primitives between the rounded corners*
20,1,$1+$1,$2,$3,$4,$5,0*
20,1,$1+$1,$4,$5,$6,$7,0*
20,1,$1+$1,$6,$7,$8,$9,0*
20,1,$1+$1,$8,$9,$2,$3,0*%
%AMOutline5P*
0 Free polygon, 5 corners , with rotation*
0 The origin of the aperture is its center*
0 number of corners: always 5*
0 $1 to $10 corner X, Y*
0 $11 Rotation angle, in degrees counterclockwise*
0 create outline with 5 corners*
4,1,5,$1,$2,$3,$4,$5,$6,$7,$8,$9,$10,$1,$2,$11*%
%AMOutline6P*
0 Free polygon, 6 corners , with rotation*
0 The origin of the aperture is its center*
0 number of corners: always 6*
0 $1 to $12 corner X, Y*
0 $13 Rotation angle, in degrees counterclockwise*
0 create outline with 6 corners*
4,1,6,$1,$2,$3,$4,$5,$6,$7,$8,$9,$10,$11,$12,$1,$2,$13*%
%AMOutline7P*
0 Free polygon, 7 corners , with rotation*
0 The origin of the aperture is its center*
0 number of corners: always 7*
0 $1 to $14 corner X, Y*
0 $15 Rotation angle, in degrees counterclockwise*
0 create outline with 7 corners*
4,1,7,$1,$2,$3,$4,$5,$6,$7,$8,$9,$10,$11,$12,$13,$14,$1,$2,$15*%
%AMOutline8P*
0 Free polygon, 8 corners , with rotation*
0 The origin of the aperture is its center*
0 number of corners: always 8*
0 $1 to $16 corner X, Y*
0 $17 Rotation angle, in degrees counterclockwise*
0 create outline with 8 corners*
4,1,8,$1,$2,$3,$4,$5,$6,$7,$8,$9,$10,$11,$12,$13,$14,$15,$16,$1,$2,$17*%
G04 Aperture macros list end*
%TA.AperFunction,ComponentPad*%
%ADD10C,3.600000*%
%TD*%
%TA.AperFunction,ConnectorPad*%
%ADD11C,5.700000*%
%TD*%
%TA.AperFunction,ComponentPad*%
%ADD12R,2.000000X2.000000*%
%TD*%
%TA.AperFunction,ComponentPad*%
%ADD13C,2.000000*%
%TD*%
%TA.AperFunction,ComponentPad*%
%ADD14C,3.500000*%
%TD*%
%TA.AperFunction,ComponentPad*%
%ADD15R,2.800000X2.800000*%
%TD*%
%TA.AperFunction,ComponentPad*%
%ADD16C,2.800000*%
%TD*%
%TA.AperFunction,ComponentPad*%
%ADD17C,3.000000*%
%TD*%
%TA.AperFunction,ComponentPad*%
%ADD18R,3.000000X3.000000*%
%TD*%
%TA.AperFunction,SMDPad,CuDef*%
%ADD19RoundRect,0.250000X0.400000X0.625000X-0.400000X0.625000X-0.400000X-0.625000X0.400000X-0.625000X0*%
%TD*%
%TA.AperFunction,SMDPad,CuDef*%
%ADD20RoundRect,0.250000X-0.350000X-0.450000X0.350000X-0.450000X0.350000X0.450000X-0.350000X0.450000X0*%
%TD*%
%TA.AperFunction,SMDPad,CuDef*%
%ADD21R,0.800000X0.400000*%
%TD*%
%TA.AperFunction,SMDPad,CuDef*%
%ADD22R,0.400000X0.800000*%
%TD*%
%TA.AperFunction,SMDPad,CuDef*%
%ADD23R,1.200000X1.200000*%
%TD*%
%TA.AperFunction,SMDPad,CuDef*%
%ADD24Outline5P,-0.600000X0.600000X0.600000X0.600000X0.600000X-0.600000X-0.204000X-0.600000X-0.600000X-0.204000X180.000000*%
%TD*%
%TA.AperFunction,SMDPad,CuDef*%
%ADD25R,0.800000X0.800000*%
%TD*%
%TA.AperFunction,SMDPad,CuDef*%
%ADD26RoundRect,0.250000X-0.450000X0.350000X-0.450000X-0.350000X0.450000X-0.350000X0.450000X0.350000X0*%
%TD*%
%TA.AperFunction,SMDPad,CuDef*%
%ADD27RoundRect,0.150000X-0.150000X0.825000X-0.150000X-0.825000X0.150000X-0.825000X0.150000X0.825000X0*%
%TD*%
%TA.AperFunction,SMDPad,CuDef*%
%ADD28RoundRect,0.250000X-0.337500X-0.475000X0.337500X-0.475000X0.337500X0.475000X-0.337500X0.475000X0*%
%TD*%
%TA.AperFunction,SMDPad,CuDef*%
%ADD29RoundRect,0.375000X-0.375000X0.625000X-0.375000X-0.625000X0.375000X-0.625000X0.375000X0.625000X0*%
%TD*%
%TA.AperFunction,SMDPad,CuDef*%
%ADD30RoundRect,0.500000X-1.400000X0.500000X-1.400000X-0.500000X1.400000X-0.500000X1.400000X0.500000X0*%
%TD*%
%TA.AperFunction,ComponentPad*%
%ADD31R,0.850000X0.850000*%
%TD*%
%TA.AperFunction,ComponentPad*%
%ADD32O,0.850000X0.850000*%
%TD*%
%TA.AperFunction,SMDPad,CuDef*%
%ADD33R,1.750000X0.450000*%
%TD*%
%TA.AperFunction,SMDPad,CuDef*%
%ADD34RoundRect,0.250000X0.350000X0.450000X-0.350000X0.450000X-0.350000X-0.450000X0.350000X-0.450000X0*%
%TD*%
%TA.AperFunction,SMDPad,CuDef*%
%ADD35R,0.450000X1.310000*%
%TD*%
%TA.AperFunction,SMDPad,CuDef*%
%ADD36R,4.000000X2.650000*%
%TD*%
%TA.AperFunction,SMDPad,CuDef*%
%ADD37RoundRect,0.250000X0.337500X0.475000X-0.337500X0.475000X-0.337500X-0.475000X0.337500X-0.475000X0*%
%TD*%
%TA.AperFunction,SMDPad,CuDef*%
%ADD38RoundRect,0.375000X0.625000X0.375000X-0.625000X0.375000X-0.625000X-0.375000X0.625000X-0.375000X0*%
%TD*%
%TA.AperFunction,SMDPad,CuDef*%
%ADD39RoundRect,0.500000X0.500000X1.400000X-0.500000X1.400000X-0.500000X-1.400000X0.500000X-1.400000X0*%
%TD*%
%TA.AperFunction,SMDPad,CuDef*%
%ADD40RoundRect,0.250000X-0.475000X0.337500X-0.475000X-0.337500X0.475000X-0.337500X0.475000X0.337500X0*%
%TD*%
%TA.AperFunction,SMDPad,CuDef*%
%ADD41RoundRect,0.250000X0.450000X-0.350000X0.450000X0.350000X-0.450000X0.350000X-0.450000X-0.350000X0*%
%TD*%
%TA.AperFunction,SMDPad,CuDef*%
%ADD42RoundRect,0.250001X0.462499X1.074999X-0.462499X1.074999X-0.462499X-1.074999X0.462499X-1.074999X0*%
%TD*%
%TA.AperFunction,SMDPad,CuDef*%
%ADD43RoundRect,0.087500X-0.087500X0.425000X-0.087500X-0.425000X0.087500X-0.425000X0.087500X0.425000X0*%
%TD*%
%TA.AperFunction,SMDPad,CuDef*%
%ADD44RoundRect,0.087500X-0.425000X0.087500X-0.425000X-0.087500X0.425000X-0.087500X0.425000X0.087500X0*%
%TD*%
%TA.AperFunction,HeatsinkPad*%
%ADD45R,2.100000X2.100000*%
%TD*%
%TA.AperFunction,ViaPad*%
%ADD46C,0.600000*%
%TD*%
%TA.AperFunction,ViaPad*%
%ADD47C,0.400000*%
%TD*%
%TA.AperFunction,ViaPad*%
%ADD48C,0.750000*%
%TD*%
%TA.AperFunction,Conductor*%
%ADD49C,0.350000*%
%TD*%
%TA.AperFunction,Conductor*%
%ADD50C,0.200000*%
%TD*%
G04 APERTURE END LIST*
D10*
%TO.P,MH1,1,1*%
%TO.N,GND*%
X25000000Y-25000000D03*
D11*
X25000000Y-25000000D03*
%TD*%
D10*
%TO.P,MH4,1,1*%
%TO.N,GND*%
X25000000Y-135000000D03*
D11*
X25000000Y-135000000D03*
%TD*%
D12*
%TO.P,J9,1,Pin_1*%
%TO.N,Net-(J11-COM)*%
X153800000Y-32500000D03*
D13*
%TO.P,J9,2,Pin_2*%
%TO.N,Net-(J11-lvl_1)*%
X156340000Y-32500000D03*
%TO.P,J9,3,Pin_3*%
%TO.N,Net-(J11-lvl_2)*%
X158880000Y-32500000D03*
%TO.P,J9,4,Pin_4*%
%TO.N,Net-(J11-lvl_3)*%
X161420000Y-32500000D03*
%TO.P,J9,5,Pin_5*%
%TO.N,Net-(J11-lvl_4)*%
X163960000Y-32500000D03*
%TO.P,J9,6,Pin_6*%
%TO.N,Net-(J11-lvl_5)*%
X166500000Y-32500000D03*
%TD*%
D10*
%TO.P,MH3,1,1*%
%TO.N,GND*%
X135000000Y-135000000D03*
D11*
X135000000Y-135000000D03*
%TD*%
D14*
%TO.P,U12,1,pin_1*%
%TO.N,Net-(J7-Pin_1)*%
X155750000Y-68750000D03*
%TO.P,U12,2,pin_2*%
%TO.N,Net-(J7-Pin_2)*%
X165750000Y-68750000D03*
%TD*%
D15*
%TO.P,J7,1,Pin_1*%
%TO.N,Net-(J7-Pin_1)*%
X158205000Y-59500000D03*
D16*
%TO.P,J7,2,Pin_2*%
%TO.N,Net-(J7-Pin_2)*%
X163285000Y-59500000D03*
%TD*%
D14*
%TO.P,F4,1*%
%TO.N,Net-(F1-Pad1)*%
X99500000Y-56200000D03*
X99500000Y-51200000D03*
%TO.P,F4,2*%
%TO.N,Net-(J4-Pin_1)*%
X99500000Y-47000000D03*
X99500000Y-42000000D03*
%TD*%
%TO.P,J11,1,COM*%
%TO.N,Net-(J11-COM)*%
X155000000Y-41000000D03*
%TO.P,J11,2,lvl_1*%
%TO.N,Net-(J11-lvl_1)*%
X160000000Y-41000000D03*
%TO.P,J11,3,lvl_2*%
%TO.N,Net-(J11-lvl_2)*%
X165000000Y-41000000D03*
%TO.P,J11,4,lvl_3*%
%TO.N,Net-(J11-lvl_3)*%
X155000000Y-46000000D03*
%TO.P,J11,5,lvl_4*%
%TO.N,Net-(J11-lvl_4)*%
X160000000Y-46000000D03*
%TO.P,J11,6,lvl_5*%
%TO.N,Net-(J11-lvl_5)*%
X165000000Y-46000000D03*
%TD*%
D17*
%TO.P,J4,1,Pin_1*%
%TO.N,Net-(J4-Pin_1)*%
X99660000Y-33080000D03*
X99660000Y-22920000D03*
%TO.P,J4,2,Pin_2*%
%TO.N,Net-(J4-Pin_2)*%
X89500000Y-33080000D03*
X89500000Y-22920000D03*
%TO.P,J4,3,Pin_3*%
%TO.N,Net-(J4-Pin_3)*%
X79340000Y-33080000D03*
X79340000Y-22920000D03*
%TD*%
D18*
%TO.P,J3,1,Pin_1*%
%TO.N,Net-(J3-Pin_1)*%
X35185000Y-135000000D03*
D17*
%TO.P,J3,2,Pin_2*%
%TO.N,Net-(J3-Pin_2)*%
X40265000Y-135000000D03*
%TO.P,J3,3,Pin_3*%
%TO.N,Net-(J3-Pin_3)*%
X45345000Y-135000000D03*
%TO.P,J3,4,Pin_4*%
%TO.N,Net-(J3-Pin_4)*%
X50425000Y-135000000D03*
%TO.P,J3,5,Pin_5*%
%TO.N,Net-(J3-Pin_5)*%
X55505000Y-135000000D03*
%TD*%
D12*
%TO.P,J2,1,Pin_1*%
%TO.N,/central_control_unit/CAN_H*%
X98405000Y-133975000D03*
D13*
%TO.P,J2,2,Pin_2*%
%TO.N,/central_control_unit/CAN_L*%
X100945000Y-133975000D03*
%TD*%
D14*
%TO.P,F1,1*%
%TO.N,Net-(F1-Pad1)*%
X89500000Y-56200000D03*
X89500000Y-51200000D03*
%TO.P,F1,2*%
%TO.N,Net-(J4-Pin_2)*%
X89500000Y-47000000D03*
X89500000Y-42000000D03*
%TD*%
%TO.P,F2,1*%
%TO.N,Net-(F1-Pad1)*%
X79500000Y-56200000D03*
X79500000Y-51200000D03*
%TO.P,F2,2*%
%TO.N,Net-(J4-Pin_3)*%
X79500000Y-47000000D03*
X79500000Y-42000000D03*
%TD*%
D10*
%TO.P,MH2,1,1*%
%TO.N,GND*%
X135000000Y-25000000D03*
D11*
X135000000Y-25000000D03*
%TD*%
D19*
%TO.P,R15,1*%
%TO.N,/central_control_unit/SCL*%
X117500000Y-111000000D03*
%TO.P,R15,2*%
%TO.N,+3.3V*%
X114400000Y-111000000D03*
%TD*%
D20*
%TO.P,R12,1*%
%TO.N,/high_power/RSH5_HI*%
X61000000Y-45500000D03*
%TO.P,R12,2*%
%TO.N,Net-(U11-IN+3)*%
X63000000Y-45500000D03*
%TD*%
D21*
%TO.P,U4,1,GND*%
%TO.N,GND*%
X87100000Y-94050000D03*
%TO.P,U4,2,GND*%
X87100000Y-94900000D03*
%TO.P,U4,3,3V3*%
%TO.N,+3.3V*%
X87100000Y-95750000D03*
%TO.P,U4,4,IO0*%
%TO.N,/central_control_unit/strap pin*%
X87100000Y-96600000D03*
%TO.P,U4,5,IO1*%
%TO.N,unconnected-(U4-IO1-Pad5)*%
X87100000Y-97450000D03*
%TO.P,U4,6,IO2*%
%TO.N,unconnected-(U4-IO2-Pad6)*%
X87100000Y-98300000D03*
%TO.P,U4,7,IO3*%
%TO.N,unconnected-(U4-IO3-Pad7)*%
X87100000Y-99150000D03*
%TO.P,U4,8,IO4*%
%TO.N,unconnected-(U4-IO4-Pad8)*%
X87100000Y-100000000D03*
%TO.P,U4,9,IO5*%
%TO.N,unconnected-(U4-IO5-Pad9)*%
X87100000Y-100850000D03*
%TO.P,U4,10,IO6*%
%TO.N,/central_control_unit/SDA*%
X87100000Y-101700000D03*
%TO.P,U4,11,IO7*%
%TO.N,/central_control_unit/SCL*%
X87100000Y-102550000D03*
%TO.P,U4,12,IO8*%
%TO.N,/central_control_unit/CAN_TX*%
X87100000Y-103400000D03*
%TO.P,U4,13,IO9*%
%TO.N,/central_control_unit/CAN_RX*%
X87100000Y-104250000D03*
%TO.P,U4,14,IO10*%
%TO.N,/central_control_unit/CAN_SLEEP*%
X87100000Y-105100000D03*
%TO.P,U4,15,IO11*%
%TO.N,unconnected-(U4-IO11-Pad15)*%
X87100000Y-105950000D03*
D22*
%TO.P,U4,16,IO12*%
%TO.N,/central_control_unit/MUX_ANALOG_COM*%
X86050000Y-107000000D03*
%TO.P,U4,17,IO13*%
%TO.N,/central_control_unit/MUX_S3*%
X85200000Y-107000000D03*
%TO.P,U4,18,IO14*%
%TO.N,/central_control_unit/MUX_S2*%
X84350000Y-107000000D03*
%TO.P,U4,19,IO15*%
%TO.N,/central_control_unit/MUX_S1*%
X83500000Y-107000000D03*
%TO.P,U4,20,IO16*%
%TO.N,/central_control_unit/MUX_S0*%
X82650000Y-107000000D03*
%TO.P,U4,21,IO17*%
%TO.N,/central_control_unit/DAC_1*%
X81800000Y-107000000D03*
%TO.P,U4,22,IO18*%
%TO.N,/central_control_unit/DAC_2*%
X80950000Y-107000000D03*
%TO.P,U4,23,USB_D-*%
%TO.N,unconnected-(U4-USB_D--Pad23)*%
X80100000Y-107000000D03*
%TO.P,U4,24,USB_D+*%
%TO.N,unconnected-(U4-USB_D+-Pad24)*%
X79250000Y-107000000D03*
%TO.P,U4,25,IO21*%
%TO.N,unconnected-(U4-IO21-Pad25)*%
X78400000Y-107000000D03*
%TO.P,U4,26,IO26*%
%TO.N,unconnected-(U4-IO26-Pad26)*%
X77550000Y-107000000D03*
%TO.P,U4,27,IO47*%
%TO.N,/central_control_unit/CH1_DIAG_EN*%
X76700000Y-107000000D03*
%TO.P,U4,28,IO33*%
%TO.N,unconnected-(U4-IO33-Pad28)*%
X75850000Y-107000000D03*
%TO.P,U4,29,IO34*%
%TO.N,unconnected-(U4-IO34-Pad29)*%
X75000000Y-107000000D03*
%TO.P,U4,30,IO48*%
%TO.N,/central_control_unit/CH1_IN*%
X74150000Y-107000000D03*
D21*
%TO.P,U4,31,IO35*%
%TO.N,/central_control_unit/CH5_DAIG_EN*%
X73100000Y-105950000D03*
%TO.P,U4,32,IO36*%
%TO.N,/central_control_unit/CH5_IN*%
X73100000Y-105100000D03*
%TO.P,U4,33,IO37*%
%TO.N,/central_control_unit/CH4_DAIG_EN*%
X73100000Y-104250000D03*
%TO.P,U4,34,IO38*%
%TO.N,/central_control_unit/CH4_IN*%
X73100000Y-103400000D03*
%TO.P,U4,35,IO39*%
%TO.N,/central_control_unit/CH3_DAIG_EN*%
X73100000Y-102550000D03*
%TO.P,U4,36,IO40*%
%TO.N,/central_control_unit/CH3_IN*%
X73100000Y-101700000D03*
%TO.P,U4,37,IO41*%
%TO.N,/central_control_unit/CH2_DAIG_EN*%
X73100000Y-100850000D03*
%TO.P,U4,38,IO42*%
%TO.N,/central_control_unit/CH2_IN*%
X73100000Y-100000000D03*
%TO.P,U4,39,TXD0*%
%TO.N,unconnected-(U4-TXD0-Pad39)*%
X73100000Y-99150000D03*
%TO.P,U4,40,RXD0*%
%TO.N,unconnected-(U4-RXD0-Pad40)*%
X73100000Y-98300000D03*
%TO.P,U4,41,IO45*%
%TO.N,/central_control_unit/strap pin*%
X73100000Y-97450000D03*
%TO.P,U4,42,GND*%
%TO.N,GND*%
X73100000Y-96600000D03*
%TO.P,U4,43,GND*%
X73100000Y-95750000D03*
%TO.P,U4,44,IO46*%
%TO.N,/central_control_unit/strap pin*%
X73100000Y-94900000D03*
%TO.P,U4,45,EN*%
%TO.N,unconnected-(U4-EN-Pad45)*%
X73100000Y-94050000D03*
D22*
%TO.P,U4,46,GND*%
%TO.N,GND*%
X74150000Y-93000000D03*
%TO.P,U4,47,GND*%
X75000000Y-93000000D03*
%TO.P,U4,48,GND*%
X75850000Y-93000000D03*
%TO.P,U4,49,GND*%
X76700000Y-93000000D03*
%TO.P,U4,50,GND*%
X77550000Y-93000000D03*
%TO.P,U4,51,GND*%
X78400000Y-93000000D03*
%TO.P,U4,52,GND*%
X79250000Y-93000000D03*
%TO.P,U4,53,GND*%
X80100000Y-93000000D03*
%TO.P,U4,54,GND*%
X80950000Y-93000000D03*
%TO.P,U4,55,GND*%
X81800000Y-93000000D03*
%TO.P,U4,56,GND*%
X82650000Y-93000000D03*
%TO.P,U4,57,GND*%
X83500000Y-93000000D03*
%TO.P,U4,58,GND*%
X84350000Y-93000000D03*
%TO.P,U4,59,GND*%
X85200000Y-93000000D03*
%TO.P,U4,60,GND*%
X86050000Y-93000000D03*
D23*
%TO.P,U4,61,GND*%
X81750000Y-101650000D03*
X81750000Y-100000000D03*
D24*
X81750000Y-98350000D03*
D23*
X80100000Y-101650000D03*
X80100000Y-100000000D03*
X80100000Y-98350000D03*
X78450000Y-101650000D03*
X78450000Y-100000000D03*
X78450000Y-98350000D03*
D25*
%TO.P,U4,62,GND*%
X87100000Y-93000000D03*
%TO.P,U4,63,GND*%
X87100000Y-107000000D03*
%TO.P,U4,64,GND*%
X73100000Y-107000000D03*
%TO.P,U4,65,GND*%
X73100000Y-93000000D03*
%TD*%
D20*
%TO.P,R10,1*%
%TO.N,/high_power/RSH8_HI*%
X58500000Y-51500000D03*
%TO.P,R10,2*%
%TO.N,Net-(U11-IN+2)*%
X60500000Y-51500000D03*
%TD*%
D26*
%TO.P,R_DEN4,1*%
%TO.N,/central_control_unit/CH4_DAIG_EN*%
X55425000Y-109000000D03*
%TO.P,R_DEN4,2*%
%TO.N,Net-(U9-DEN)*%
X55425000Y-111000000D03*
%TD*%
D27*
%TO.P,U3,1,TXD*%
%TO.N,/central_control_unit/CAN_TX*%
X96000000Y-121500000D03*
%TO.P,U3,2,GND*%
%TO.N,GND*%
X97270000Y-121500000D03*
%TO.P,U3,3,VCC*%
%TO.N,+5V*%
X98540000Y-121500000D03*
%TO.P,U3,4,RXD*%
%TO.N,/central_control_unit/CAN_RX*%
X99810000Y-121500000D03*
%TO.P,U3,5,VIO*%
%TO.N,Net-(U3-VIO)*%
X99810000Y-126450000D03*
%TO.P,U3,6,CANL*%
%TO.N,/central_control_unit/CAN_L*%
X98540000Y-126450000D03*
%TO.P,U3,7,CANH*%
%TO.N,/central_control_unit/CAN_H*%
X97270000Y-126450000D03*
%TO.P,U3,8,S*%
%TO.N,/central_control_unit/CAN_SLEEP*%
X96000000Y-126450000D03*
%TD*%
D28*
%TO.P,C4,1*%
%TO.N,GND*%
X95567500Y-115325000D03*
%TO.P,C4,2*%
%TO.N,+5V*%
X97642500Y-115325000D03*
%TD*%
D29*
%TO.P,U2,1,ADJ*%
%TO.N,Net-(U2-ADJ)*%
X95605000Y-106325000D03*
%TO.P,U2,2,VO*%
%TO.N,+5V*%
X97905000Y-106325000D03*
D30*
X97905000Y-112625000D03*
D29*
%TO.P,U2,3,VI*%
%TO.N,/central_control_unit/12V_MCU*%
X100205000Y-106325000D03*
%TD*%
D31*
%TO.P,J1,1,Pin_1*%
%TO.N,/central_control_unit/HP_GND*%
X109004000Y-116265000D03*
D32*
%TO.P,J1,2,Pin_2*%
%TO.N,GND*%
X109004000Y-117265000D03*
%TD*%
D26*
%TO.P,R_DEN3,1*%
%TO.N,/central_control_unit/CH3_DAIG_EN*%
X51500000Y-109000000D03*
%TO.P,R_DEN3,2*%
%TO.N,Net-(U8-DEN)*%
X51500000Y-111000000D03*
%TD*%
D33*
%TO.P,U5,1,COM*%
%TO.N,/central_control_unit/MUX_ANALOG_COM*%
X76400000Y-118075000D03*
%TO.P,U5,2,I7*%
%TO.N,unconnected-(U5-I7-Pad2)*%
X76400000Y-117425000D03*
%TO.P,U5,3,I6*%
%TO.N,unconnected-(U5-I6-Pad3)*%
X76400000Y-116775000D03*
%TO.P,U5,4,I5*%
%TO.N,unconnected-(U5-I5-Pad4)*%
X76400000Y-116125000D03*
%TO.P,U5,5,I4*%
%TO.N,/central_control_unit/CH5_DIAG*%
X76400000Y-115475000D03*
%TO.P,U5,6,I3*%
%TO.N,/central_control_unit/CH4_DIAG*%
X76400000Y-114825000D03*
%TO.P,U5,7,I2*%
%TO.N,/central_control_unit/CH3_DIAG*%
X76400000Y-114175000D03*
%TO.P,U5,8,I1*%
%TO.N,/central_control_unit/CH2_DIAG*%
X76400000Y-113525000D03*
%TO.P,U5,9,I0*%
%TO.N,/central_control_unit/CH1_DIAG*%
X76400000Y-112875000D03*
%TO.P,U5,10,S0*%
%TO.N,/central_control_unit/MUX_S0*%
X76400000Y-112225000D03*
%TO.P,U5,11,S1*%
%TO.N,/central_control_unit/MUX_S1*%
X76400000Y-111575000D03*
%TO.P,U5,12,GND*%
%TO.N,GND*%
X76400000Y-110925000D03*
%TO.P,U5,13,S3*%
%TO.N,/central_control_unit/MUX_S3*%
X83600000Y-110925000D03*
%TO.P,U5,14,S2*%
%TO.N,/central_control_unit/MUX_S2*%
X83600000Y-111575000D03*
%TO.P,U5,15,~{E}*%
%TO.N,GND*%
X83600000Y-112225000D03*
%TO.P,U5,16,I15*%
%TO.N,unconnected-(U5-I15-Pad16)*%
X83600000Y-112875000D03*
%TO.P,U5,17,I14*%
%TO.N,unconnected-(U5-I14-Pad17)*%
X83600000Y-113525000D03*
%TO.P,U5,18,I13*%
%TO.N,unconnected-(U5-I13-Pad18)*%
X83600000Y-114175000D03*
%TO.P,U5,19,I12*%
%TO.N,unconnected-(U5-I12-Pad19)*%
X83600000Y-114825000D03*
%TO.P,U5,20,I11*%
%TO.N,unconnected-(U5-I11-Pad20)*%
X83600000Y-115475000D03*
%TO.P,U5,21,I10*%
%TO.N,unconnected-(U5-I10-Pad21)*%
X83600000Y-116125000D03*
%TO.P,U5,22,I9*%
%TO.N,unconnected-(U5-I9-Pad22)*%
X83600000Y-116775000D03*
%TO.P,U5,23,I8*%
%TO.N,unconnected-(U5-I8-Pad23)*%
X83600000Y-117425000D03*
%TO.P,U5,24,VCC*%
%TO.N,+3.3V*%
X83600000Y-118075000D03*
%TD*%
D26*
%TO.P,R_IN1,1*%
%TO.N,/central_control_unit/CH1_IN*%
X41500000Y-109000000D03*
%TO.P,R_IN1,2*%
%TO.N,Net-(U6-IN)*%
X41500000Y-111000000D03*
%TD*%
D34*
%TO.P,R3,1*%
%TO.N,+5V*%
X97905000Y-101325000D03*
%TO.P,R3,2*%
%TO.N,Net-(U2-ADJ)*%
X95905000Y-101325000D03*
%TD*%
D26*
%TO.P,R_DEN5,1*%
%TO.N,/central_control_unit/CH5_DAIG_EN*%
X59500000Y-109000000D03*
%TO.P,R_DEN5,2*%
%TO.N,Net-(U10-DEN)*%
X59500000Y-111000000D03*
%TD*%
D35*
%TO.P,U8,1,GND*%
%TO.N,/central_control_unit/HP_GND*%
X44550000Y-118650000D03*
%TO.P,U8,2,IN*%
%TO.N,Net-(U8-IN)*%
X45200000Y-118650000D03*
%TO.P,U8,3,DEN*%
%TO.N,Net-(U8-DEN)*%
X45850000Y-118650000D03*
%TO.P,U8,4,IS*%
%TO.N,/central_control_unit/CH3_DIAG*%
X46500000Y-118655000D03*
%TO.P,U8,5,NC*%
%TO.N,unconnected-(U8-NC-Pad5)*%
X47150000Y-118650000D03*
%TO.P,U8,6,NC*%
%TO.N,unconnected-(U8-NC-Pad6)*%
X47800000Y-118650000D03*
%TO.P,U8,7,NC*%
%TO.N,unconnected-(U8-NC-Pad7)*%
X48450000Y-118650000D03*
%TO.P,U8,8,OUT*%
%TO.N,Net-(J3-Pin_3)*%
X48450000Y-124350000D03*
%TO.P,U8,9,OUT*%
X47800000Y-124350000D03*
%TO.P,U8,10,OUT*%
X47150000Y-124350000D03*
%TO.P,U8,11,NC*%
%TO.N,unconnected-(U8-NC-Pad11)*%
X46500000Y-124350000D03*
%TO.P,U8,12,OUT*%
%TO.N,Net-(J3-Pin_3)*%
X45850000Y-124350000D03*
%TO.P,U8,13,OUT*%
X45200000Y-124350000D03*
%TO.P,U8,14,OUT*%
X44550000Y-124350000D03*
D36*
%TO.P,U8,15,VS*%
%TO.N,/central_control_unit/V_Bat*%
X46500000Y-121500000D03*
%TD*%
D37*
%TO.P,C_GND1,1*%
%TO.N,Net-(J3-Pin_1)*%
X29962500Y-128000000D03*
%TO.P,C_GND1,2*%
%TO.N,/central_control_unit/HP_GND*%
X27887500Y-128000000D03*
%TD*%
D20*
%TO.P,R13,1*%
%TO.N,/high_power/RSH5_LO*%
X61000000Y-47500000D03*
%TO.P,R13,2*%
%TO.N,Net-(U11-IN-3)*%
X63000000Y-47500000D03*
%TD*%
D34*
%TO.P,R2,1*%
%TO.N,Net-(U1-ADJ)*%
X126500000Y-112000000D03*
%TO.P,R2,2*%
%TO.N,GND*%
X124500000Y-112000000D03*
%TD*%
D26*
%TO.P,R_IN3,1*%
%TO.N,/central_control_unit/CH3_IN*%
X49575000Y-109000000D03*
%TO.P,R_IN3,2*%
%TO.N,Net-(U8-IN)*%
X49575000Y-111000000D03*
%TD*%
D38*
%TO.P,U1,1,ADJ*%
%TO.N,Net-(U1-ADJ)*%
X126650000Y-117200000D03*
%TO.P,U1,2,VO*%
%TO.N,+3.3V*%
X126650000Y-119500000D03*
D39*
X120350000Y-119500000D03*
D38*
%TO.P,U1,3,VI*%
%TO.N,/central_control_unit/12V_MCU*%
X126650000Y-121800000D03*
%TD*%
D35*
%TO.P,U9,1,GND*%
%TO.N,/central_control_unit/HP_GND*%
X52050000Y-118650000D03*
%TO.P,U9,2,IN*%
%TO.N,Net-(U9-IN)*%
X52700000Y-118650000D03*
%TO.P,U9,3,DEN*%
%TO.N,Net-(U9-DEN)*%
X53350000Y-118650000D03*
%TO.P,U9,4,IS*%
%TO.N,/central_control_unit/CH4_DIAG*%
X54000000Y-118655000D03*
%TO.P,U9,5,NC*%
%TO.N,unconnected-(U9-NC-Pad5)*%
X54650000Y-118650000D03*
%TO.P,U9,6,NC*%
%TO.N,unconnected-(U9-NC-Pad6)*%
X55300000Y-118650000D03*
%TO.P,U9,7,NC*%
%TO.N,unconnected-(U9-NC-Pad7)*%
X55950000Y-118650000D03*
%TO.P,U9,8,OUT*%
%TO.N,Net-(J3-Pin_4)*%
X55950000Y-124350000D03*
%TO.P,U9,9,OUT*%
X55300000Y-124350000D03*
%TO.P,U9,10,OUT*%
X54650000Y-124350000D03*
%TO.P,U9,11,NC*%
%TO.N,unconnected-(U9-NC-Pad11)*%
X54000000Y-124350000D03*
%TO.P,U9,12,OUT*%
%TO.N,Net-(J3-Pin_4)*%
X53350000Y-124350000D03*
%TO.P,U9,13,OUT*%
X52700000Y-124350000D03*
%TO.P,U9,14,OUT*%
X52050000Y-124350000D03*
D36*
%TO.P,U9,15,VS*%
%TO.N,/central_control_unit/V_Bat*%
X54000000Y-121500000D03*
%TD*%
D20*
%TO.P,R11,1*%
%TO.N,/high_power/RSH8_LO*%
X58500000Y-53500000D03*
%TO.P,R11,2*%
%TO.N,Net-(U11-IN-2)*%
X60500000Y-53500000D03*
%TD*%
D40*
%TO.P,C6,1*%
%TO.N,Net-(U11-IN+2)*%
X62500000Y-51462500D03*
%TO.P,C6,2*%
%TO.N,Net-(U11-IN-2)*%
X62500000Y-53537500D03*
%TD*%
D28*
%TO.P,C1,1*%
%TO.N,/central_control_unit/12V_MCU*%
X100130000Y-101325000D03*
%TO.P,C1,2*%
%TO.N,GND*%
X102205000Y-101325000D03*
%TD*%
%TO.P,C7,1*%
%TO.N,Net-(U11-IN+1)*%
X67962500Y-56000000D03*
%TO.P,C7,2*%
%TO.N,Net-(U11-IN-1)*%
X70037500Y-56000000D03*
%TD*%
D26*
%TO.P,R_DEN1,1*%
%TO.N,/central_control_unit/CH1_DIAG_EN*%
X43500000Y-109000000D03*
%TO.P,R_DEN1,2*%
%TO.N,Net-(U6-DEN)*%
X43500000Y-111000000D03*
%TD*%
D37*
%TO.P,C_GND5,1*%
%TO.N,Net-(J3-Pin_5)*%
X59462500Y-128000000D03*
%TO.P,C_GND5,2*%
%TO.N,/central_control_unit/HP_GND*%
X57387500Y-128000000D03*
%TD*%
D35*
%TO.P,U10,1,GND*%
%TO.N,/central_control_unit/HP_GND*%
X59475000Y-118650000D03*
%TO.P,U10,2,IN*%
%TO.N,Net-(U10-IN)*%
X60125000Y-118650000D03*
%TO.P,U10,3,DEN*%
%TO.N,Net-(U10-DEN)*%
X60775000Y-118650000D03*
%TO.P,U10,4,IS*%
%TO.N,/central_control_unit/CH5_DIAG*%
X61425000Y-118655000D03*
%TO.P,U10,5,NC*%
%TO.N,unconnected-(U10-NC-Pad5)*%
X62075000Y-118650000D03*
%TO.P,U10,6,NC*%
%TO.N,unconnected-(U10-NC-Pad6)*%
X62725000Y-118650000D03*
%TO.P,U10,7,NC*%
%TO.N,unconnected-(U10-NC-Pad7)*%
X63375000Y-118650000D03*
%TO.P,U10,8,OUT*%
%TO.N,Net-(J3-Pin_5)*%
X63375000Y-124350000D03*
%TO.P,U10,9,OUT*%
X62725000Y-124350000D03*
%TO.P,U10,10,OUT*%
X62075000Y-124350000D03*
%TO.P,U10,11,NC*%
%TO.N,unconnected-(U10-NC-Pad11)*%
X61425000Y-124350000D03*
%TO.P,U10,12,OUT*%
%TO.N,Net-(J3-Pin_5)*%
X60775000Y-124350000D03*
%TO.P,U10,13,OUT*%
X60125000Y-124350000D03*
%TO.P,U10,14,OUT*%
X59475000Y-124350000D03*
D36*
%TO.P,U10,15,VS*%
%TO.N,/central_control_unit/V_Bat*%
X61425000Y-121500000D03*
%TD*%
D37*
%TO.P,C_GND2,1*%
%TO.N,Net-(J3-Pin_2)*%
X37462500Y-128000000D03*
%TO.P,C_GND2,2*%
%TO.N,/central_control_unit/HP_GND*%
X35387500Y-128000000D03*
%TD*%
%TO.P,C_GND4,1*%
%TO.N,Net-(J3-Pin_4)*%
X52462500Y-128000000D03*
%TO.P,C_GND4,2*%
%TO.N,/central_control_unit/HP_GND*%
X50387500Y-128000000D03*
%TD*%
D40*
%TO.P,C2,1*%
%TO.N,GND*%
X131500000Y-116462500D03*
%TO.P,C2,2*%
%TO.N,/central_control_unit/12V_MCU*%
X131500000Y-118537500D03*
%TD*%
D26*
%TO.P,R_IN2,1*%
%TO.N,/central_control_unit/CH2_IN*%
X45500000Y-109000000D03*
%TO.P,R_IN2,2*%
%TO.N,Net-(U7-IN)*%
X45500000Y-111000000D03*
%TD*%
D37*
%TO.P,C8,1*%
%TO.N,GND*%
X71075000Y-47000000D03*
%TO.P,C8,2*%
%TO.N,+3.3V*%
X69000000Y-47000000D03*
%TD*%
D41*
%TO.P,R7,1*%
%TO.N,/high_power/RSH6_HI*%
X68000000Y-60000000D03*
%TO.P,R7,2*%
%TO.N,Net-(U11-IN+1)*%
X68000000Y-58000000D03*
%TD*%
D26*
%TO.P,R_IN5,1*%
%TO.N,/central_control_unit/CH5_IN*%
X57575000Y-109000000D03*
%TO.P,R_IN5,2*%
%TO.N,Net-(U10-IN)*%
X57575000Y-111000000D03*
%TD*%
D19*
%TO.P,R14,1*%
%TO.N,/central_control_unit/SDA*%
X117550000Y-107000000D03*
%TO.P,R14,2*%
%TO.N,+3.3V*%
X114450000Y-107000000D03*
%TD*%
D34*
%TO.P,R1,1*%
%TO.N,+3.3V*%
X131500000Y-112000000D03*
%TO.P,R1,2*%
%TO.N,Net-(U1-ADJ)*%
X129500000Y-112000000D03*
%TD*%
D37*
%TO.P,C_GND3,1*%
%TO.N,Net-(J3-Pin_3)*%
X45462500Y-128000000D03*
%TO.P,C_GND3,2*%
%TO.N,/central_control_unit/HP_GND*%
X43387500Y-128000000D03*
%TD*%
D26*
%TO.P,R_IN4,1*%
%TO.N,/central_control_unit/CH4_IN*%
X53500000Y-109000000D03*
%TO.P,R_IN4,2*%
%TO.N,Net-(U9-IN)*%
X53500000Y-111000000D03*
%TD*%
D35*
%TO.P,U7,1,GND*%
%TO.N,/central_control_unit/HP_GND*%
X37050000Y-118650000D03*
%TO.P,U7,2,IN*%
%TO.N,Net-(U7-IN)*%
X37700000Y-118650000D03*
%TO.P,U7,3,DEN*%
%TO.N,Net-(U7-DEN)*%
X38350000Y-118650000D03*
%TO.P,U7,4,IS*%
%TO.N,/central_control_unit/CH2_DIAG*%
X39000000Y-118655000D03*
%TO.P,U7,5,NC*%
%TO.N,unconnected-(U7-NC-Pad5)*%
X39650000Y-118650000D03*
%TO.P,U7,6,NC*%
%TO.N,unconnected-(U7-NC-Pad6)*%
X40300000Y-118650000D03*
%TO.P,U7,7,NC*%
%TO.N,unconnected-(U7-NC-Pad7)*%
X40950000Y-118650000D03*
%TO.P,U7,8,OUT*%
%TO.N,Net-(J3-Pin_2)*%
X40950000Y-124350000D03*
%TO.P,U7,9,OUT*%
X40300000Y-124350000D03*
%TO.P,U7,10,OUT*%
X39650000Y-124350000D03*
%TO.P,U7,11,NC*%
%TO.N,unconnected-(U7-NC-Pad11)*%
X39000000Y-124350000D03*
%TO.P,U7,12,OUT*%
%TO.N,Net-(J3-Pin_2)*%
X38350000Y-124350000D03*
%TO.P,U7,13,OUT*%
X37700000Y-124350000D03*
%TO.P,U7,14,OUT*%
X37050000Y-124350000D03*
D36*
%TO.P,U7,15,VS*%
%TO.N,/central_control_unit/V_Bat*%
X39000000Y-121500000D03*
%TD*%
D35*
%TO.P,U6,1,GND*%
%TO.N,/central_control_unit/HP_GND*%
X29475000Y-118650000D03*
%TO.P,U6,2,IN*%
%TO.N,Net-(U6-IN)*%
X30125000Y-118650000D03*
%TO.P,U6,3,DEN*%
%TO.N,Net-(U6-DEN)*%
X30775000Y-118650000D03*
%TO.P,U6,4,IS*%
%TO.N,/central_control_unit/CH1_DIAG*%
X31425000Y-118655000D03*
%TO.P,U6,5,NC*%
%TO.N,unconnected-(U6-NC-Pad5)*%
X32075000Y-118650000D03*
%TO.P,U6,6,NC*%
%TO.N,unconnected-(U6-NC-Pad6)*%
X32725000Y-118650000D03*
%TO.P,U6,7,NC*%
%TO.N,unconnected-(U6-NC-Pad7)*%
X33375000Y-118650000D03*
%TO.P,U6,8,OUT*%
%TO.N,Net-(J3-Pin_1)*%
X33375000Y-124350000D03*
%TO.P,U6,9,OUT*%
X32725000Y-124350000D03*
%TO.P,U6,10,OUT*%
X32075000Y-124350000D03*
%TO.P,U6,11,NC*%
%TO.N,unconnected-(U6-NC-Pad11)*%
X31425000Y-124350000D03*
%TO.P,U6,12,OUT*%
%TO.N,Net-(J3-Pin_1)*%
X30775000Y-124350000D03*
%TO.P,U6,13,OUT*%
X30125000Y-124350000D03*
%TO.P,U6,14,OUT*%
X29475000Y-124350000D03*
D36*
%TO.P,U6,15,VS*%
%TO.N,/central_control_unit/V_Bat*%
X31425000Y-121500000D03*
%TD*%
D42*
%TO.P,D1,1,K*%
%TO.N,/central_control_unit/12V_MCU*%
X109979000Y-122765000D03*
%TO.P,D1,2,A*%
%TO.N,/central_control_unit/V_Bat*%
X107004000Y-122765000D03*
%TD*%
D41*
%TO.P,R9,1*%
%TO.N,/high_power/RSH6_LO*%
X70000000Y-60000000D03*
%TO.P,R9,2*%
%TO.N,Net-(U11-IN-1)*%
X70000000Y-58000000D03*
%TD*%
D34*
%TO.P,R4,1*%
%TO.N,Net-(U2-ADJ)*%
X93605000Y-101325000D03*
%TO.P,R4,2*%
%TO.N,Net-(R4-Pad2)*%
X91605000Y-101325000D03*
%TD*%
D40*
%TO.P,C5,1*%
%TO.N,Net-(U11-IN+3)*%
X65000000Y-45462500D03*
%TO.P,C5,2*%
%TO.N,Net-(U11-IN-3)*%
X65000000Y-47537500D03*
%TD*%
D28*
%TO.P,C3,1*%
%TO.N,Net-(C3-Pad1)*%
X113962500Y-118000000D03*
%TO.P,C3,2*%
%TO.N,+3.3V*%
X116037500Y-118000000D03*
%TD*%
D43*
%TO.P,U11,1,IN-3*%
%TO.N,Net-(U11-IN-3)*%
X66025000Y-49637500D03*
%TO.P,U11,2,IN+3*%
%TO.N,Net-(U11-IN+3)*%
X66675000Y-49637500D03*
%TO.P,U11,3,GND*%
%TO.N,GND*%
X67325000Y-49637500D03*
%TO.P,U11,4,VS*%
%TO.N,+3.3V*%
X67975000Y-49637500D03*
D44*
%TO.P,U11,5,A0*%
%TO.N,GND*%
X68862500Y-50525000D03*
%TO.P,U11,6,SCL*%
%TO.N,/central_control_unit/SCL*%
X68862500Y-51175000D03*
%TO.P,U11,7,SDA*%
%TO.N,/central_control_unit/SDA*%
X68862500Y-51825000D03*
%TO.P,U11,8,WARNING*%
%TO.N,unconnected-(U11-WARNING-Pad8)*%
X68862500Y-52475000D03*
D43*
%TO.P,U11,9,CRITICAL*%
%TO.N,unconnected-(U11-CRITICAL-Pad9)*%
X67975000Y-53362500D03*
%TO.P,U11,10,PV*%
%TO.N,unconnected-(U11-PV-Pad10)*%
X67325000Y-53362500D03*
%TO.P,U11,11,IN-1*%
%TO.N,Net-(U11-IN-1)*%
X66675000Y-53362500D03*
%TO.P,U11,12,IN+1*%
%TO.N,Net-(U11-IN+1)*%
X66025000Y-53362500D03*
D44*
%TO.P,U11,13,TC*%
%TO.N,unconnected-(U11-TC-Pad13)*%
X65137500Y-52475000D03*
%TO.P,U11,14,IN-2*%
%TO.N,Net-(U11-IN-2)*%
X65137500Y-51825000D03*
%TO.P,U11,15,IN+2*%
%TO.N,Net-(U11-IN+2)*%
X65137500Y-51175000D03*
%TO.P,U11,16,VPU*%
%TO.N,unconnected-(U11-VPU-Pad16)*%
X65137500Y-50525000D03*
D45*
%TO.P,U11,17,EP*%
%TO.N,unconnected-(U11-EP-Pad17)*%
X67000000Y-51500000D03*
%TD*%
D26*
%TO.P,R_DEN2,1*%
%TO.N,/central_control_unit/CH2_DAIG_EN*%
X47500000Y-109000000D03*
%TO.P,R_DEN2,2*%
%TO.N,Net-(U7-DEN)*%
X47500000Y-111000000D03*
%TD*%
D46*
%TO.N,GND*%
X67500000Y-47500000D03*
X71000000Y-49500000D03*
D47*
%TO.N,Net-(U6-DEN)*%
X43500000Y-112500000D03*
X31000000Y-116500000D03*
%TO.N,Net-(U7-DEN)*%
X39000000Y-116500000D03*
X47500000Y-112500000D03*
%TO.N,Net-(U8-DEN)*%
X51500000Y-112500000D03*
X46000000Y-117000000D03*
%TO.N,Net-(U9-DEN)*%
X53000000Y-117000000D03*
X55500000Y-112500000D03*
%TO.N,Net-(U10-DEN)*%
X61000000Y-116700000D03*
X59500000Y-112500000D03*
%TO.N,Net-(U6-IN)*%
X30000000Y-116500000D03*
X41500000Y-112500000D03*
%TO.N,Net-(U7-IN)*%
X45500000Y-112500000D03*
X38000000Y-116500000D03*
%TO.N,/central_control_unit/HP_GND*%
X29000000Y-117000000D03*
X44000000Y-117500000D03*
X51000000Y-117000000D03*
X59000000Y-117500000D03*
X36500000Y-117000000D03*
%TO.N,Net-(U8-IN)*%
X45000000Y-117000000D03*
X49500000Y-112500000D03*
%TO.N,Net-(U9-IN)*%
X52000000Y-117000000D03*
X53500000Y-112500000D03*
%TO.N,Net-(U10-IN)*%
X57500000Y-112500000D03*
X60000000Y-117500000D03*
D46*
%TO.N,/high_power/RSH5_HI*%
X43500000Y-49000000D03*
%TO.N,/high_power/RSH5_LO*%
X43500000Y-52000000D03*
%TO.N,/high_power/RSH6_HI*%
X72500000Y-66500000D03*
%TO.N,/high_power/RSH6_LO*%
X69500000Y-66500000D03*
%TO.N,/high_power/RSH8_LO*%
X55000000Y-52000000D03*
%TO.N,/high_power/RSH8_HI*%
X55000000Y-49000000D03*
D48*
%TO.N,/central_control_unit/V_Bat*%
X50500000Y-120500000D03*
X23000000Y-121500000D03*
X24000000Y-120500000D03*
X21000000Y-120500000D03*
X22000000Y-121500000D03*
X43000000Y-121500000D03*
X24000000Y-121500000D03*
X28000000Y-121500000D03*
X22000000Y-120500000D03*
X43000000Y-120500000D03*
X28000000Y-120500000D03*
X25000000Y-121500000D03*
X21000000Y-122500000D03*
X58000000Y-121500000D03*
X50500000Y-122500000D03*
X25000000Y-122500000D03*
X23000000Y-120500000D03*
X26000000Y-122500000D03*
X50500000Y-121500000D03*
X26000000Y-120500000D03*
X26000000Y-121500000D03*
X22000000Y-122500000D03*
X35500000Y-122500000D03*
X43000000Y-122500000D03*
X23000000Y-122500000D03*
X35500000Y-121500000D03*
X58000000Y-120500000D03*
X25000000Y-120500000D03*
X35500000Y-120500000D03*
X58000000Y-122500000D03*
X24000000Y-122500000D03*
X28000000Y-122500000D03*
X21000000Y-121500000D03*
%TD*%
D49*
%TO.N,GND*%
X71075000Y-49425000D02*
X71075000Y-47000000D01*
X67500000Y-47500000D02*
X67325000Y-47675000D01*
X71000000Y-49500000D02*
X71075000Y-49425000D01*
X68862500Y-50525000D02*
X69975000Y-50525000D01*
X67325000Y-47675000D02*
X67325000Y-49637500D01*
X69975000Y-50525000D02*
X71000000Y-49500000D01*
%TO.N,+3.3V*%
X67975000Y-48025000D02*
X69000000Y-47000000D01*
X67975000Y-49637500D02*
X67975000Y-48025000D01*
D50*
%TO.N,Net-(U6-DEN)*%
X30775000Y-116725000D02*
X30775000Y-118650000D01*
X43500000Y-111000000D02*
X43500000Y-112500000D01*
X31000000Y-116500000D02*
X30775000Y-116725000D01*
%TO.N,Net-(U7-DEN)*%
X38350000Y-118650000D02*
X38350000Y-117150000D01*
X47500000Y-111000000D02*
X47500000Y-112500000D01*
X38350000Y-117150000D02*
X39000000Y-116500000D01*
%TO.N,Net-(U11-IN+3)*%
X65000000Y-45462500D02*
X66675000Y-47137500D01*
X66675000Y-47175000D02*
X66675000Y-49637500D01*
X65000000Y-45462500D02*
X63037500Y-45462500D01*
X63037500Y-45462500D02*
X63000000Y-45500000D01*
X66675000Y-47137500D02*
X66675000Y-47175000D01*
%TO.N,Net-(U8-DEN)*%
X45850000Y-117150000D02*
X46000000Y-117000000D01*
X51500000Y-111000000D02*
X51500000Y-112500000D01*
X45850000Y-118650000D02*
X45850000Y-117150000D01*
%TO.N,Net-(U11-IN-3)*%
X63037500Y-47537500D02*
X63000000Y-47500000D01*
X65000000Y-47537500D02*
X63037500Y-47537500D01*
X66025000Y-48562500D02*
X65000000Y-47537500D01*
X66025000Y-49637500D02*
X66025000Y-48562500D01*
%TO.N,Net-(U11-IN+2)*%
X62500000Y-51462500D02*
X62787500Y-51175000D01*
X62787500Y-51175000D02*
X65137500Y-51175000D01*
%TO.N,Net-(U9-DEN)*%
X55500000Y-112500000D02*
X55425000Y-112425000D01*
X53350000Y-117350000D02*
X53000000Y-117000000D01*
X55425000Y-112425000D02*
X55425000Y-111000000D01*
X53350000Y-118650000D02*
X53350000Y-117350000D01*
%TO.N,Net-(U10-DEN)*%
X59500000Y-111000000D02*
X59500000Y-112500000D01*
X60775000Y-116925000D02*
X60775000Y-118650000D01*
X61000000Y-116700000D02*
X60775000Y-116925000D01*
%TO.N,Net-(U11-IN-2)*%
X62500000Y-53500000D02*
X62500000Y-53537500D01*
X65137500Y-51825000D02*
X64175000Y-51825000D01*
X64175000Y-51825000D02*
X62500000Y-53500000D01*
%TO.N,Net-(U11-IN-1)*%
X70000000Y-56037500D02*
X70037500Y-56000000D01*
X66675000Y-54609314D02*
X67040686Y-54975000D01*
X66675000Y-53362500D02*
X66675000Y-54609314D01*
X67040686Y-54975000D02*
X69012500Y-54975000D01*
X70000000Y-58000000D02*
X70000000Y-56037500D01*
X69012500Y-54975000D02*
X70037500Y-56000000D01*
%TO.N,Net-(U6-IN)*%
X41500000Y-111000000D02*
X41500000Y-112500000D01*
X30125000Y-116625000D02*
X30000000Y-116500000D01*
X30125000Y-118650000D02*
X30125000Y-116625000D01*
%TO.N,Net-(U7-IN)*%
X37700000Y-118650000D02*
X37700000Y-116800000D01*
X37700000Y-116800000D02*
X38000000Y-116500000D01*
X45500000Y-111000000D02*
X45500000Y-112500000D01*
%TO.N,Net-(U11-IN+1)*%
X67500000Y-56000000D02*
X66025000Y-54525000D01*
X67962500Y-56000000D02*
X67962500Y-57962500D01*
X67962500Y-57962500D02*
X68000000Y-58000000D01*
X67962500Y-56000000D02*
X67500000Y-56000000D01*
X66025000Y-54525000D02*
X66025000Y-53362500D01*
%TO.N,/central_control_unit/HP_GND*%
X59475000Y-118650000D02*
X59475000Y-117975000D01*
X44550000Y-118650000D02*
X44550000Y-118050000D01*
X44550000Y-118050000D02*
X44000000Y-117500000D01*
X37050000Y-118650000D02*
X37050000Y-117550000D01*
X52050000Y-118050000D02*
X51000000Y-117000000D01*
X29475000Y-118650000D02*
X29475000Y-117475000D01*
X59475000Y-117975000D02*
X59000000Y-117500000D01*
X52050000Y-118650000D02*
X52050000Y-118050000D01*
X29475000Y-117475000D02*
X29000000Y-117000000D01*
X37050000Y-117550000D02*
X36500000Y-117000000D01*
%TO.N,Net-(U8-IN)*%
X45200000Y-117200000D02*
X45000000Y-117000000D01*
X45200000Y-118650000D02*
X45200000Y-117200000D01*
X49500000Y-112500000D02*
X49575000Y-112500000D01*
X49575000Y-111000000D02*
X49500000Y-112500000D01*
%TO.N,Net-(U9-IN)*%
X52700000Y-118650000D02*
X52700000Y-117700000D01*
X52700000Y-117700000D02*
X52000000Y-117000000D01*
X53500000Y-111000000D02*
X53500000Y-112500000D01*
%TO.N,Net-(U10-IN)*%
X57500000Y-112500000D02*
X57575000Y-112500000D01*
X60125000Y-117625000D02*
X60000000Y-117500000D01*
X60125000Y-118650000D02*
X60125000Y-117625000D01*
X57575000Y-111000000D02*
X57500000Y-112500000D01*
%TO.N,/high_power/RSH5_HI*%
X52400000Y-47100000D02*
X50500000Y-49000000D01*
X43500000Y-49000000D02*
X50500000Y-49000000D01*
X61000000Y-45500000D02*
X60000000Y-45500000D01*
X60000000Y-45500000D02*
X58400000Y-47100000D01*
X58400000Y-47100000D02*
X52400000Y-47100000D01*
%TO.N,/high_power/RSH5_LO*%
X52565686Y-47500000D02*
X61000000Y-47500000D01*
X43500000Y-52000000D02*
X48065686Y-52000000D01*
X48065686Y-52000000D02*
X52565686Y-47500000D01*
%TO.N,/high_power/RSH6_HI*%
X71000000Y-65000000D02*
X71000000Y-59000000D01*
X71000000Y-59000000D02*
X68500000Y-59000000D01*
X72500000Y-66500000D02*
X71000000Y-65000000D01*
X68500000Y-59000000D02*
X68000000Y-59500000D01*
%TO.N,/high_power/RSH6_LO*%
X69500000Y-66500000D02*
X70500000Y-65500000D01*
X70500000Y-65500000D02*
X70500000Y-60500000D01*
X70500000Y-60500000D02*
X70000000Y-60000000D01*
%TO.N,/high_power/RSH8_LO*%
X55000000Y-52000000D02*
X55500000Y-52000000D01*
X55500000Y-52000000D02*
X57000000Y-53500000D01*
X57000000Y-53500000D02*
X58500000Y-53500000D01*
%TO.N,/high_power/RSH8_HI*%
X58500000Y-51500000D02*
X57500000Y-51500000D01*
X57500000Y-51500000D02*
X55000000Y-49000000D01*
%TO.N,/central_control_unit/SDA*%
X73000000Y-54065686D02*
X73000000Y-59065686D01*
X74700000Y-60765686D02*
X74700000Y-72200000D01*
X68862500Y-51825000D02*
X70759314Y-51825000D01*
X70759314Y-51825000D02*
X73000000Y-54065686D01*
X74700000Y-72200000D02*
X78000000Y-75500000D01*
X73000000Y-59065686D02*
X74700000Y-60765686D01*
%TO.N,/central_control_unit/SCL*%
X68862500Y-51175000D02*
X70675000Y-51175000D01*
X75100000Y-71600000D02*
X78500000Y-75000000D01*
X73500000Y-54000000D02*
X73500000Y-59000000D01*
X73500000Y-59000000D02*
X75100000Y-60600000D01*
X75100000Y-60600000D02*
X75100000Y-71600000D01*
X70675000Y-51175000D02*
X73500000Y-54000000D01*
%TO.N,/central_control_unit/CH4_DIAG*%
X55600000Y-116200000D02*
X54000000Y-117800000D01*
X71925000Y-114825000D02*
X70550000Y-116200000D01*
X54000000Y-117800000D02*
X54000000Y-118655000D01*
X70550000Y-116200000D02*
X55600000Y-116200000D01*
X76400000Y-114825000D02*
X71925000Y-114825000D01*
%TO.N,/central_control_unit/CH3_DIAG*%
X70331372Y-115800000D02*
X48200000Y-115800000D01*
X71956372Y-114175000D02*
X70331372Y-115800000D01*
X76400000Y-114175000D02*
X71956372Y-114175000D01*
X46500000Y-117500000D02*
X46500000Y-118655000D01*
X48200000Y-115800000D02*
X46500000Y-117500000D01*
%TO.N,/central_control_unit/CH1_DIAG*%
X70000000Y-115000000D02*
X72125000Y-112875000D01*
X43000000Y-115500000D02*
X43500000Y-115000000D01*
X72125000Y-112875000D02*
X76400000Y-112875000D01*
X31425000Y-118655000D02*
X31425000Y-117575000D01*
X31425000Y-117575000D02*
X33500000Y-115500000D01*
X33500000Y-115500000D02*
X43000000Y-115500000D01*
X43500000Y-115000000D02*
X70000000Y-115000000D01*
%TO.N,/central_control_unit/CH2_DIAG*%
X40900000Y-115900000D02*
X39000000Y-117800000D01*
X76400000Y-113525000D02*
X72040686Y-113525000D01*
X70165686Y-115400000D02*
X43665686Y-115400000D01*
X39000000Y-117800000D02*
X39000000Y-118655000D01*
X72040686Y-113525000D02*
X70165686Y-115400000D01*
X43165686Y-115900000D02*
X40900000Y-115900000D01*
X43665686Y-115400000D02*
X43165686Y-115900000D01*
%TO.N,/central_control_unit/CH5_DIAG*%
X61425000Y-117575000D02*
X62400000Y-116600000D01*
X61425000Y-118655000D02*
X61425000Y-117575000D01*
X72025000Y-115475000D02*
X76400000Y-115475000D01*
X70900000Y-116600000D02*
X72025000Y-115475000D01*
X62400000Y-116600000D02*
X70900000Y-116600000D01*
%TO.N,unconnected-(U11-WARNING-Pad8)*%
X70843628Y-52475000D02*
X72500000Y-54131372D01*
X77500000Y-77065685D02*
X77282843Y-77282843D01*
X74300000Y-72968628D02*
X77500000Y-76168628D01*
X74300000Y-60931372D02*
X74300000Y-72968628D01*
X72500000Y-54131372D02*
X72500000Y-59131372D01*
X72500000Y-59131372D02*
X74300000Y-60931372D01*
X68862500Y-52475000D02*
X70843628Y-52475000D01*
X77500000Y-76168628D02*
X77500000Y-77065685D01*
X77282843Y-77282843D02*
X78000000Y-78000000D01*
%TO.N,unconnected-(U11-PV-Pad10)*%
X71000000Y-54500000D02*
X71700000Y-55200000D01*
X73500000Y-73300000D02*
X76700000Y-76500000D01*
X71700000Y-55200000D02*
X71700000Y-59462744D01*
X73500000Y-61262744D02*
X73500000Y-73300000D01*
X71700000Y-59462744D02*
X73500000Y-61262744D01*
X67500000Y-54500000D02*
X71000000Y-54500000D01*
X67325000Y-54325000D02*
X67500000Y-54500000D01*
X67325000Y-53362500D02*
X67325000Y-54325000D01*
%TO.N,unconnected-(U11-CRITICAL-Pad9)*%
X77100000Y-76334314D02*
X77100000Y-76900000D01*
X77100000Y-76900000D02*
X77000000Y-77000000D01*
X72100000Y-54600000D02*
X72100000Y-59297058D01*
X70862500Y-53362500D02*
X72100000Y-54600000D01*
X73900000Y-61097058D02*
X73900000Y-73134314D01*
X67975000Y-53362500D02*
X70862500Y-53362500D01*
X73900000Y-73134314D02*
X77100000Y-76334314D01*
X72100000Y-59297058D02*
X73900000Y-61097058D01*
%TD*%
%TA.AperFunction,Conductor*%
%TO.N,Net-(J3-Pin_1)*%
G36*
X30950304Y-123519685D02*
G01*
X30996059Y-123572489D01*
X31006003Y-123641647D01*
X31004882Y-123648191D01*
X30999500Y-123675247D01*
X30999500Y-125024752D01*
X31011131Y-125083229D01*
X31011132Y-125083230D01*
X31055447Y-125149552D01*
X31121769Y-125193867D01*
X31121770Y-125193868D01*
X31180247Y-125205499D01*
X31180250Y-125205500D01*
X31180252Y-125205500D01*
X31669750Y-125205500D01*
X31669751Y-125205499D01*
X31684568Y-125202552D01*
X31728229Y-125193868D01*
X31728229Y-125193867D01*
X31728231Y-125193867D01*
X31794552Y-125149552D01*
X31838867Y-125083231D01*
X31838867Y-125083229D01*
X31838868Y-125083229D01*
X31850499Y-125024752D01*
X31850500Y-125024750D01*
X31850500Y-123675249D01*
X31850499Y-123675247D01*
X31845118Y-123648191D01*
X31851345Y-123578599D01*
X31894208Y-123523422D01*
X31960098Y-123500178D01*
X31966735Y-123500000D01*
X34670500Y-123500000D01*
X34737539Y-123519685D01*
X34783294Y-123572489D01*
X34794500Y-123624000D01*
X34794500Y-125754872D01*
X34793991Y-125766099D01*
X34750420Y-126245374D01*
X34749242Y-126254532D01*
X34641910Y-126898525D01*
X34640295Y-126910318D01*
X34638763Y-126924558D01*
X34638763Y-126924563D01*
X34643293Y-126994645D01*
X34659644Y-127062560D01*
X34659652Y-127062587D01*
X34665217Y-127080743D01*
X34670152Y-127128308D01*
X34656987Y-127273123D01*
X34648257Y-127302644D01*
X34650275Y-127303350D01*
X34602353Y-127440298D01*
X34602353Y-127440300D01*
X34599500Y-127470730D01*
X34599500Y-127899872D01*
X34598991Y-127911099D01*
X34544458Y-128510957D01*
X34518785Y-128575938D01*
X34485663Y-128605515D01*
X34445149Y-128630292D01*
X34445123Y-128630309D01*
X34424539Y-128644698D01*
X34367377Y-128716091D01*
X34367371Y-128716101D01*
X34336945Y-128778968D01*
X34336944Y-128778972D01*
X34336942Y-128778977D01*
X34336941Y-128778980D01*
X34331162Y-128797150D01*
X34319211Y-128834724D01*
X34311498Y-128880999D01*
X34310380Y-128888575D01*
X34309202Y-128897726D01*
X34311411Y-128963750D01*
X34311411Y-128963752D01*
X34324938Y-129032287D01*
X34331305Y-129056603D01*
X34331308Y-129056610D01*
X34378453Y-129134967D01*
X34378454Y-129134968D01*
X34378456Y-129134971D01*
X34426896Y-129185323D01*
X34473034Y-129221276D01*
X37732022Y-131083554D01*
X37780461Y-131133905D01*
X37794500Y-131191215D01*
X37794500Y-137376000D01*
X37774815Y-137443039D01*
X37722011Y-137488794D01*
X37670500Y-137500000D01*
X30124000Y-137500000D01*
X30056961Y-137480315D01*
X30011206Y-137427511D01*
X30000000Y-137376000D01*
X30000000Y-133452155D01*
X33185000Y-133452155D01*
X33185000Y-134750000D01*
X34465936Y-134750000D01*
X34454207Y-134778316D01*
X34425000Y-134925147D01*
X34425000Y-135074853D01*
X34454207Y-135221684D01*
X34465936Y-135250000D01*
X33185000Y-135250000D01*
X33185000Y-136547844D01*
X33191401Y-136607372D01*
X33191403Y-136607379D01*
X33241645Y-136742086D01*
X33241649Y-136742093D01*
X33327809Y-136857187D01*
X33327812Y-136857190D01*
X33442906Y-136943350D01*
X33442913Y-136943354D01*
X33577620Y-136993596D01*
X33577627Y-136993598D01*
X33637155Y-136999999D01*
X33637172Y-137000000D01*
X34935000Y-137000000D01*
X34935000Y-135719064D01*
X34963316Y-135730793D01*
X35110147Y-135760000D01*
X35259853Y-135760000D01*
X35406684Y-135730793D01*
X35435000Y-135719064D01*
X35435000Y-137000000D01*
X36732828Y-137000000D01*
X36732844Y-136999999D01*
X36792372Y-136993598D01*
X36792379Y-136993596D01*
X36927086Y-136943354D01*
X36927093Y-136943350D01*
X37042187Y-136857190D01*
X37042190Y-136857187D01*
X37128350Y-136742093D01*
X37128354Y-136742086D01*
X37178596Y-136607379D01*
X37178598Y-136607372D01*
X37184999Y-136547844D01*
X37185000Y-136547827D01*
X37185000Y-135250000D01*
X35904064Y-135250000D01*
X35915793Y-135221684D01*
X35945000Y-135074853D01*
X35945000Y-134925147D01*
X35915793Y-134778316D01*
X35904064Y-134750000D01*
X37185000Y-134750000D01*
X37185000Y-133452172D01*
X37184999Y-133452155D01*
X37178598Y-133392627D01*
X37178596Y-133392620D01*
X37128354Y-133257913D01*
X37128350Y-133257906D01*
X37042190Y-133142812D01*
X37042187Y-133142809D01*
X36927093Y-133056649D01*
X36927086Y-133056645D01*
X36792379Y-133006403D01*
X36792372Y-133006401D01*
X36732844Y-133000000D01*
X35435000Y-133000000D01*
X35435000Y-134280935D01*
X35406684Y-134269207D01*
X35259853Y-134240000D01*
X35110147Y-134240000D01*
X34963316Y-134269207D01*
X34935000Y-134280935D01*
X34935000Y-133000000D01*
X33637155Y-133000000D01*
X33577627Y-133006401D01*
X33577620Y-133006403D01*
X33442913Y-133056645D01*
X33442906Y-133056649D01*
X33327812Y-133142809D01*
X33327809Y-133142812D01*
X33241649Y-133257906D01*
X33241645Y-133257913D01*
X33191403Y-133392620D01*
X33191401Y-133392627D01*
X33185000Y-133452155D01*
X30000000Y-133452155D01*
X30000000Y-130000000D01*
X28510026Y-126523394D01*
X28500000Y-126474548D01*
X28500000Y-123624000D01*
X28519685Y-123556961D01*
X28572489Y-123511206D01*
X28624000Y-123500000D01*
X30883265Y-123500000D01*
X30950304Y-123519685D01*
G37*
%TD.AperFunction*%
%TD*%
%TA.AperFunction,Conductor*%
%TO.N,/central_control_unit/V_Bat*%
G36*
X26943039Y-87019685D02*
G01*
X26988794Y-87072489D01*
X27000000Y-87124000D01*
X27000000Y-120000000D01*
X20500500Y-120000000D01*
X20500500Y-87124000D01*
X20520185Y-87056961D01*
X20572989Y-87011206D01*
X20624500Y-87000000D01*
X26876000Y-87000000D01*
X26943039Y-87019685D01*
G37*
%TD.AperFunction*%
%TD*%
%TA.AperFunction,Conductor*%
%TO.N,Net-(J4-Pin_1)*%
G36*
X106443039Y-20520185D02*
G01*
X106488794Y-20572989D01*
X106500000Y-20624500D01*
X106500000Y-49376000D01*
X106480315Y-49443039D01*
X106427511Y-49488794D01*
X106376000Y-49500000D01*
X101021424Y-49500000D01*
X100954385Y-49480315D01*
X100939665Y-49469228D01*
X100872955Y-49410725D01*
X100627667Y-49246829D01*
X100627660Y-49246825D01*
X100554877Y-49210933D01*
X100503458Y-49163628D01*
X100485776Y-49096033D01*
X100507446Y-49029608D01*
X100554878Y-48988509D01*
X100627400Y-48952744D01*
X100627419Y-48952734D01*
X100872648Y-48788877D01*
X100906039Y-48759593D01*
X100261717Y-48115271D01*
X100379466Y-48029722D01*
X100529722Y-47879466D01*
X100615271Y-47761717D01*
X101259593Y-48406039D01*
X101288877Y-48372648D01*
X101452734Y-48127419D01*
X101452741Y-48127406D01*
X101583187Y-47862888D01*
X101677994Y-47583599D01*
X101677998Y-47583584D01*
X101735535Y-47294324D01*
X101735537Y-47294312D01*
X101754827Y-47000000D01*
X101735537Y-46705687D01*
X101735535Y-46705675D01*
X101677998Y-46416415D01*
X101677994Y-46416400D01*
X101583187Y-46137111D01*
X101452741Y-45872593D01*
X101452734Y-45872580D01*
X101288876Y-45627350D01*
X101259593Y-45593958D01*
X100615270Y-46238281D01*
X100529722Y-46120534D01*
X100379466Y-45970278D01*
X100261717Y-45884728D01*
X100906040Y-45240405D01*
X100872649Y-45211123D01*
X100627419Y-45047265D01*
X100627406Y-45047258D01*
X100362888Y-44916812D01*
X100083599Y-44822005D01*
X100083584Y-44822001D01*
X99794324Y-44764464D01*
X99794312Y-44764462D01*
X99500000Y-44745172D01*
X99205687Y-44764462D01*
X99205675Y-44764464D01*
X98916415Y-44822001D01*
X98916400Y-44822005D01*
X98637111Y-44916812D01*
X98372593Y-45047258D01*
X98372580Y-45047265D01*
X98127346Y-45211126D01*
X98127339Y-45211131D01*
X98093959Y-45240403D01*
X98093959Y-45240405D01*
X98738282Y-45884728D01*
X98620534Y-45970278D01*
X98470278Y-46120534D01*
X98384728Y-46238282D01*
X97740405Y-45593959D01*
X97740403Y-45593959D01*
X97711131Y-45627339D01*
X97711126Y-45627346D01*
X97547265Y-45872580D01*
X97547258Y-45872593D01*
X97416812Y-46137111D01*
X97322005Y-46416400D01*
X97322001Y-46416415D01*
X97264464Y-46705675D01*
X97264462Y-46705687D01*
X97245172Y-47000000D01*
X97264462Y-47294312D01*
X97264464Y-47294324D01*
X97322001Y-47583584D01*
X97322005Y-47583599D01*
X97416812Y-47862888D01*
X97547258Y-48127406D01*
X97547265Y-48127419D01*
X97711123Y-48372649D01*
X97740405Y-48406040D01*
X98384728Y-47761716D01*
X98470278Y-47879466D01*
X98620534Y-48029722D01*
X98738281Y-48115270D01*
X98093958Y-48759593D01*
X98127350Y-48788876D01*
X98372580Y-48952734D01*
X98372593Y-48952741D01*
X98445122Y-48988509D01*
X98496542Y-49035814D01*
X98514223Y-49103410D01*
X98492553Y-49169834D01*
X98445123Y-49210933D01*
X98372332Y-49246830D01*
X98127041Y-49410728D01*
X98060335Y-49469228D01*
X97996953Y-49498631D01*
X97978576Y-49500000D01*
X96129500Y-49500000D01*
X96062461Y-49480315D01*
X96016706Y-49427511D01*
X96005500Y-49376000D01*
X96005500Y-42000000D01*
X97245172Y-42000000D01*
X97264462Y-42294312D01*
X97264464Y-42294324D01*
X97322001Y-42583584D01*
X97322005Y-42583599D01*
X97416812Y-42862888D01*
X97547258Y-43127406D01*
X97547265Y-43127419D01*
X97711123Y-43372649D01*
X97740405Y-43406040D01*
X98384728Y-42761716D01*
X98470278Y-42879466D01*
X98620534Y-43029722D01*
X98738281Y-43115270D01*
X98093958Y-43759593D01*
X98127350Y-43788876D01*
X98372580Y-43952734D01*
X98372593Y-43952741D01*
X98637111Y-44083187D01*
X98916400Y-44177994D01*
X98916415Y-44177998D01*
X99205675Y-44235535D01*
X99205687Y-44235537D01*
X99500000Y-44254827D01*
X99794312Y-44235537D01*
X99794324Y-44235535D01*
X100083584Y-44177998D01*
X100083599Y-44177994D01*
X100362888Y-44083187D01*
X100627406Y-43952741D01*
X100627419Y-43952734D01*
X100872648Y-43788877D01*
X100906039Y-43759593D01*
X100261717Y-43115271D01*
X100379466Y-43029722D01*
X100529722Y-42879466D01*
X100615271Y-42761717D01*
X101259593Y-43406039D01*
X101288877Y-43372648D01*
X101452734Y-43127419D01*
X101452741Y-43127406D01*
X101583187Y-42862888D01*
X101677994Y-42583599D01*
X101677998Y-42583584D01*
X101735535Y-42294324D01*
X101735537Y-42294312D01*
X101754827Y-42000000D01*
X101735537Y-41705687D01*
X101735535Y-41705675D01*
X101677998Y-41416415D01*
X101677994Y-41416400D01*
X101583187Y-41137111D01*
X101452741Y-40872593D01*
X101452734Y-40872580D01*
X101288876Y-40627350D01*
X101259593Y-40593958D01*
X100615270Y-41238281D01*
X100529722Y-41120534D01*
X100379466Y-40970278D01*
X100261717Y-40884728D01*
X100906040Y-40240405D01*
X100872649Y-40211123D01*
X100627419Y-40047265D01*
X100627406Y-40047258D01*
X100362888Y-39916812D01*
X100083599Y-39822005D01*
X100083584Y-39822001D01*
X99794324Y-39764464D01*
X99794312Y-39764462D01*
X99500000Y-39745172D01*
X99205687Y-39764462D01*
X99205675Y-39764464D01*
X98916415Y-39822001D01*
X98916400Y-39822005D01*
X98637111Y-39916812D01*
X98372593Y-40047258D01*
X98372580Y-40047265D01*
X98127346Y-40211126D01*
X98127339Y-40211131D01*
X98093959Y-40240403D01*
X98093959Y-40240405D01*
X98738282Y-40884728D01*
X98620534Y-40970278D01*
X98470278Y-41120534D01*
X98384728Y-41238282D01*
X97740405Y-40593959D01*
X97740403Y-40593959D01*
X97711131Y-40627339D01*
X97711126Y-40627346D01*
X97547265Y-40872580D01*
X97547258Y-40872593D01*
X97416812Y-41137111D01*
X97322005Y-41416400D01*
X97322001Y-41416415D01*
X97264464Y-41705675D01*
X97264462Y-41705687D01*
X97245172Y-42000000D01*
X96005500Y-42000000D01*
X96005500Y-33079998D01*
X97654891Y-33079998D01*
X97654891Y-33080001D01*
X97675300Y-33365362D01*
X97736109Y-33644895D01*
X97836091Y-33912958D01*
X97973191Y-34164038D01*
X97973196Y-34164046D01*
X98079882Y-34306562D01*
X98079883Y-34306563D01*
X98670014Y-33716431D01*
X98763760Y-33845461D01*
X98894539Y-33976240D01*
X99023567Y-34069984D01*
X98433435Y-34660115D01*
X98433436Y-34660116D01*
X98575953Y-34766803D01*
X98575961Y-34766808D01*
X98827042Y-34903908D01*
X98827041Y-34903908D01*
X99095104Y-35003890D01*
X99374637Y-35064699D01*
X99659999Y-35085109D01*
X99660001Y-35085109D01*
X99945362Y-35064699D01*
X100224895Y-35003890D01*
X100492958Y-34903908D01*
X100744038Y-34766808D01*
X100744039Y-34766807D01*
X100886563Y-34660115D01*
X100296432Y-34069984D01*
X100425461Y-33976240D01*
X100556240Y-33845461D01*
X100649984Y-33716432D01*
X101240115Y-34306563D01*
X101346807Y-34164039D01*
X101346808Y-34164038D01*
X101483908Y-33912958D01*
X101583890Y-33644895D01*
X101644699Y-33365362D01*
X101665109Y-33080001D01*
X101665109Y-33079998D01*
X101644699Y-32794637D01*
X101583890Y-32515104D01*
X101483908Y-32247041D01*
X101346808Y-31995961D01*
X101346803Y-31995953D01*
X101240116Y-31853436D01*
X101240115Y-31853435D01*
X100649983Y-32443566D01*
X100556240Y-32314539D01*
X100425461Y-32183760D01*
X100296431Y-32090014D01*
X100886563Y-31499883D01*
X100886562Y-31499882D01*
X100744046Y-31393196D01*
X100744038Y-31393191D01*
X100492957Y-31256091D01*
X100492958Y-31256091D01*
X100224895Y-31156109D01*
X99945362Y-31095300D01*
X99660001Y-31074891D01*
X99659999Y-31074891D01*
X99374637Y-31095300D01*
X99095104Y-31156109D01*
X98827041Y-31256091D01*
X98575961Y-31393191D01*
X98575953Y-31393196D01*
X98433435Y-31499882D01*
X99023568Y-32090014D01*
X98894539Y-32183760D01*
X98763760Y-32314539D01*
X98670015Y-32443568D01*
X98079882Y-31853435D01*
X97973196Y-31995953D01*
X97973191Y-31995961D01*
X97836091Y-32247041D01*
X97736109Y-32515104D01*
X97675300Y-32794637D01*
X97654891Y-33079998D01*
X96005500Y-33079998D01*
X96005500Y-22919998D01*
X97654891Y-22919998D01*
X97654891Y-22920001D01*
X97675300Y-23205362D01*
X97736109Y-23484895D01*
X97836091Y-23752958D01*
X97973191Y-24004038D01*
X97973196Y-24004046D01*
X98079882Y-24146562D01*
X98079883Y-24146563D01*
X98670014Y-23556431D01*
X98763760Y-23685461D01*
X98894539Y-23816240D01*
X99023567Y-23909984D01*
X98433435Y-24500115D01*
X98433436Y-24500116D01*
X98575953Y-24606803D01*
X98575961Y-24606808D01*
X98827042Y-24743908D01*
X98827041Y-24743908D01*
X99095104Y-24843890D01*
X99374637Y-24904699D01*
X99659999Y-24925109D01*
X99660001Y-24925109D01*
X99945362Y-24904699D01*
X100224895Y-24843890D01*
X100492958Y-24743908D01*
X100744038Y-24606808D01*
X100744039Y-24606807D01*
X100886563Y-24500115D01*
X100296432Y-23909984D01*
X100425461Y-23816240D01*
X100556240Y-23685461D01*
X100649984Y-23556432D01*
X101240115Y-24146563D01*
X101346807Y-24004039D01*
X101346808Y-24004038D01*
X101483908Y-23752958D01*
X101583890Y-23484895D01*
X101644699Y-23205362D01*
X101665109Y-22920001D01*
X101665109Y-22919998D01*
X101644699Y-22634637D01*
X101583890Y-22355104D01*
X101483908Y-22087041D01*
X101346808Y-21835961D01*
X101346803Y-21835953D01*
X101240116Y-21693436D01*
X101240115Y-21693435D01*
X100649983Y-22283566D01*
X100556240Y-22154539D01*
X100425461Y-22023760D01*
X100296431Y-21930014D01*
X100886563Y-21339883D01*
X100886562Y-21339882D01*
X100744046Y-21233196D01*
X100744038Y-21233191D01*
X100492957Y-21096091D01*
X100492958Y-21096091D01*
X100224895Y-20996109D01*
X99945362Y-20935300D01*
X99660001Y-20914891D01*
X99659999Y-20914891D01*
X99374637Y-20935300D01*
X99095104Y-20996109D01*
X98827041Y-21096091D01*
X98575961Y-21233191D01*
X98575953Y-21233196D01*
X98433435Y-21339882D01*
X99023568Y-21930014D01*
X98894539Y-22023760D01*
X98763760Y-22154539D01*
X98670015Y-22283568D01*
X98079882Y-21693435D01*
X97973196Y-21835953D01*
X97973191Y-21835961D01*
X97836091Y-22087041D01*
X97736109Y-22355104D01*
X97675300Y-22634637D01*
X97654891Y-22919998D01*
X96005500Y-22919998D01*
X96005500Y-20624500D01*
X96025185Y-20557461D01*
X96077989Y-20511706D01*
X96129500Y-20500500D01*
X106376000Y-20500500D01*
X106443039Y-20520185D01*
G37*
%TD.AperFunction*%
%TD*%
%TA.AperFunction,Conductor*%
%TO.N,Net-(J4-Pin_3)*%
G36*
X82443039Y-20520185D02*
G01*
X82488794Y-20572989D01*
X82500000Y-20624500D01*
X82500000Y-49376000D01*
X82480315Y-49443039D01*
X82427511Y-49488794D01*
X82376000Y-49500000D01*
X81021424Y-49500000D01*
X80954385Y-49480315D01*
X80939665Y-49469228D01*
X80872955Y-49410725D01*
X80627667Y-49246829D01*
X80627660Y-49246825D01*
X80554877Y-49210933D01*
X80503458Y-49163628D01*
X80485776Y-49096033D01*
X80507446Y-49029608D01*
X80554878Y-48988509D01*
X80627400Y-48952744D01*
X80627419Y-48952734D01*
X80872648Y-48788877D01*
X80906039Y-48759593D01*
X80261717Y-48115271D01*
X80379466Y-48029722D01*
X80529722Y-47879466D01*
X80615271Y-47761717D01*
X81259593Y-48406039D01*
X81288877Y-48372648D01*
X81452734Y-48127419D01*
X81452741Y-48127406D01*
X81583187Y-47862888D01*
X81677994Y-47583599D01*
X81677998Y-47583584D01*
X81735535Y-47294324D01*
X81735537Y-47294312D01*
X81754827Y-47000000D01*
X81735537Y-46705687D01*
X81735535Y-46705675D01*
X81677998Y-46416415D01*
X81677994Y-46416400D01*
X81583187Y-46137111D01*
X81452741Y-45872593D01*
X81452734Y-45872580D01*
X81288876Y-45627350D01*
X81259593Y-45593958D01*
X80615270Y-46238281D01*
X80529722Y-46120534D01*
X80379466Y-45970278D01*
X80261717Y-45884728D01*
X80906040Y-45240405D01*
X80872649Y-45211123D01*
X80627419Y-45047265D01*
X80627406Y-45047258D01*
X80362888Y-44916812D01*
X80083599Y-44822005D01*
X80083584Y-44822001D01*
X79794324Y-44764464D01*
X79794312Y-44764462D01*
X79500000Y-44745172D01*
X79205687Y-44764462D01*
X79205675Y-44764464D01*
X78916415Y-44822001D01*
X78916400Y-44822005D01*
X78637111Y-44916812D01*
X78372593Y-45047258D01*
X78372580Y-45047265D01*
X78127346Y-45211126D01*
X78127339Y-45211131D01*
X78093959Y-45240403D01*
X78093959Y-45240405D01*
X78738282Y-45884728D01*
X78620534Y-45970278D01*
X78470278Y-46120534D01*
X78384728Y-46238282D01*
X77740405Y-45593959D01*
X77740403Y-45593959D01*
X77711131Y-45627339D01*
X77711126Y-45627346D01*
X77547265Y-45872580D01*
X77547258Y-45872593D01*
X77416812Y-46137111D01*
X77322005Y-46416400D01*
X77322001Y-46416415D01*
X77264464Y-46705675D01*
X77264462Y-46705687D01*
X77245172Y-47000000D01*
X77264462Y-47294312D01*
X77264464Y-47294324D01*
X77322001Y-47583584D01*
X77322005Y-47583599D01*
X77416812Y-47862888D01*
X77547258Y-48127406D01*
X77547265Y-48127419D01*
X77711123Y-48372649D01*
X77740405Y-48406040D01*
X78384728Y-47761716D01*
X78470278Y-47879466D01*
X78620534Y-48029722D01*
X78738281Y-48115270D01*
X78093958Y-48759593D01*
X78127350Y-48788876D01*
X78372580Y-48952734D01*
X78372593Y-48952741D01*
X78445122Y-48988509D01*
X78496542Y-49035814D01*
X78514223Y-49103410D01*
X78492553Y-49169834D01*
X78445123Y-49210933D01*
X78372332Y-49246830D01*
X78127041Y-49410728D01*
X78060335Y-49469228D01*
X77996953Y-49498631D01*
X77978576Y-49500000D01*
X71916378Y-49500000D01*
X71849339Y-49480315D01*
X71803584Y-49427511D01*
X71793158Y-49389883D01*
X71790921Y-49370037D01*
X71785368Y-49320745D01*
X71757458Y-49240982D01*
X71750500Y-49200028D01*
X71750500Y-48217507D01*
X71770185Y-48150468D01*
X71809403Y-48111968D01*
X71881156Y-48067712D01*
X72005212Y-47943656D01*
X72097314Y-47794334D01*
X72152499Y-47627797D01*
X72163000Y-47525009D01*
X72162999Y-46474992D01*
X72152499Y-46372203D01*
X72097314Y-46205666D01*
X72005212Y-46056344D01*
X71881156Y-45932288D01*
X71731834Y-45840186D01*
X71652634Y-45813941D01*
X71584995Y-45791528D01*
X71527551Y-45751755D01*
X71500728Y-45687239D01*
X71500000Y-45673822D01*
X71500000Y-42000000D01*
X77245172Y-42000000D01*
X77264462Y-42294312D01*
X77264464Y-42294324D01*
X77322001Y-42583584D01*
X77322005Y-42583599D01*
X77416812Y-42862888D01*
X77547258Y-43127406D01*
X77547265Y-43127419D01*
X77711123Y-43372649D01*
X77740405Y-43406040D01*
X78384728Y-42761716D01*
X78470278Y-42879466D01*
X78620534Y-43029722D01*
X78738281Y-43115270D01*
X78093958Y-43759593D01*
X78127350Y-43788876D01*
X78372580Y-43952734D01*
X78372593Y-43952741D01*
X78637111Y-44083187D01*
X78916400Y-44177994D01*
X78916415Y-44177998D01*
X79205675Y-44235535D01*
X79205687Y-44235537D01*
X79500000Y-44254827D01*
X79794312Y-44235537D01*
X79794324Y-44235535D01*
X80083584Y-44177998D01*
X80083599Y-44177994D01*
X80362888Y-44083187D01*
X80627406Y-43952741D01*
X80627419Y-43952734D01*
X80872648Y-43788877D01*
X80906039Y-43759593D01*
X80261717Y-43115271D01*
X80379466Y-43029722D01*
X80529722Y-42879466D01*
X80615271Y-42761717D01*
X81259593Y-43406039D01*
X81288877Y-43372648D01*
X81452734Y-43127419D01*
X81452741Y-43127406D01*
X81583187Y-42862888D01*
X81677994Y-42583599D01*
X81677998Y-42583584D01*
X81735535Y-42294324D01*
X81735537Y-42294312D01*
X81754827Y-42000000D01*
X81735537Y-41705687D01*
X81735535Y-41705675D01*
X81677998Y-41416415D01*
X81677994Y-41416400D01*
X81583187Y-41137111D01*
X81452741Y-40872593D01*
X81452734Y-40872580D01*
X81288876Y-40627350D01*
X81259593Y-40593958D01*
X80615270Y-41238281D01*
X80529722Y-41120534D01*
X80379466Y-40970278D01*
X80261717Y-40884728D01*
X80906040Y-40240405D01*
X80872649Y-40211123D01*
X80627419Y-40047265D01*
X80627406Y-40047258D01*
X80362888Y-39916812D01*
X80083599Y-39822005D01*
X80083584Y-39822001D01*
X79794324Y-39764464D01*
X79794312Y-39764462D01*
X79500000Y-39745172D01*
X79205687Y-39764462D01*
X79205675Y-39764464D01*
X78916415Y-39822001D01*
X78916400Y-39822005D01*
X78637111Y-39916812D01*
X78372593Y-40047258D01*
X78372580Y-40047265D01*
X78127346Y-40211126D01*
X78127339Y-40211131D01*
X78093959Y-40240403D01*
X78093959Y-40240405D01*
X78738282Y-40884728D01*
X78620534Y-40970278D01*
X78470278Y-41120534D01*
X78384728Y-41238282D01*
X77740405Y-40593959D01*
X77740403Y-40593959D01*
X77711131Y-40627339D01*
X77711126Y-40627346D01*
X77547265Y-40872580D01*
X77547258Y-40872593D01*
X77416812Y-41137111D01*
X77322005Y-41416400D01*
X77322001Y-41416415D01*
X77264464Y-41705675D01*
X77264462Y-41705687D01*
X77245172Y-42000000D01*
X71500000Y-42000000D01*
X71500000Y-33079998D01*
X77334891Y-33079998D01*
X77334891Y-33080001D01*
X77355300Y-33365362D01*
X77416109Y-33644895D01*
X77516091Y-33912958D01*
X77653191Y-34164038D01*
X77653196Y-34164046D01*
X77759882Y-34306562D01*
X77759883Y-34306563D01*
X78350014Y-33716431D01*
X78443760Y-33845461D01*
X78574539Y-33976240D01*
X78703567Y-34069984D01*
X78113435Y-34660115D01*
X78113436Y-34660116D01*
X78255953Y-34766803D01*
X78255961Y-34766808D01*
X78507042Y-34903908D01*
X78507041Y-34903908D01*
X78775104Y-35003890D01*
X79054637Y-35064699D01*
X79339999Y-35085109D01*
X79340001Y-35085109D01*
X79625362Y-35064699D01*
X79904895Y-35003890D01*
X80172958Y-34903908D01*
X80424038Y-34766808D01*
X80424039Y-34766807D01*
X80566563Y-34660115D01*
X79976432Y-34069984D01*
X80105461Y-33976240D01*
X80236240Y-33845461D01*
X80329984Y-33716432D01*
X80920115Y-34306563D01*
X81026807Y-34164039D01*
X81026808Y-34164038D01*
X81163908Y-33912958D01*
X81263890Y-33644895D01*
X81324699Y-33365362D01*
X81345109Y-33080001D01*
X81345109Y-33079998D01*
X81324699Y-32794637D01*
X81263890Y-32515104D01*
X81163908Y-32247041D01*
X81026808Y-31995961D01*
X81026803Y-31995953D01*
X80920116Y-31853436D01*
X80920115Y-31853435D01*
X80329983Y-32443566D01*
X80236240Y-32314539D01*
X80105461Y-32183760D01*
X79976431Y-32090014D01*
X80566563Y-31499883D01*
X80566562Y-31499882D01*
X80424046Y-31393196D01*
X80424038Y-31393191D01*
X80172957Y-31256091D01*
X80172958Y-31256091D01*
X79904895Y-31156109D01*
X79625362Y-31095300D01*
X79340001Y-31074891D01*
X79339999Y-31074891D01*
X79054637Y-31095300D01*
X78775104Y-31156109D01*
X78507041Y-31256091D01*
X78255961Y-31393191D01*
X78255953Y-31393196D01*
X78113435Y-31499882D01*
X78703568Y-32090014D01*
X78574539Y-32183760D01*
X78443760Y-32314539D01*
X78350015Y-32443568D01*
X77759882Y-31853435D01*
X77653196Y-31995953D01*
X77653191Y-31995961D01*
X77516091Y-32247041D01*
X77416109Y-32515104D01*
X77355300Y-32794637D01*
X77334891Y-33079998D01*
X71500000Y-33079998D01*
X71500000Y-22919998D01*
X77334891Y-22919998D01*
X77334891Y-22920001D01*
X77355300Y-23205362D01*
X77416109Y-23484895D01*
X77516091Y-23752958D01*
X77653191Y-24004038D01*
X77653196Y-24004046D01*
X77759882Y-24146562D01*
X77759883Y-24146563D01*
X78350014Y-23556431D01*
X78443760Y-23685461D01*
X78574539Y-23816240D01*
X78703567Y-23909984D01*
X78113435Y-24500115D01*
X78113436Y-24500116D01*
X78255953Y-24606803D01*
X78255961Y-24606808D01*
X78507042Y-24743908D01*
X78507041Y-24743908D01*
X78775104Y-24843890D01*
X79054637Y-24904699D01*
X79339999Y-24925109D01*
X79340001Y-24925109D01*
X79625362Y-24904699D01*
X79904895Y-24843890D01*
X80172958Y-24743908D01*
X80424038Y-24606808D01*
X80424039Y-24606807D01*
X80566563Y-24500115D01*
X79976432Y-23909984D01*
X80105461Y-23816240D01*
X80236240Y-23685461D01*
X80329984Y-23556432D01*
X80920115Y-24146563D01*
X81026807Y-24004039D01*
X81026808Y-24004038D01*
X81163908Y-23752958D01*
X81263890Y-23484895D01*
X81324699Y-23205362D01*
X81345109Y-22920001D01*
X81345109Y-22919998D01*
X81324699Y-22634637D01*
X81263890Y-22355104D01*
X81163908Y-22087041D01*
X81026808Y-21835961D01*
X81026803Y-21835953D01*
X80920116Y-21693436D01*
X80920115Y-21693435D01*
X80329983Y-22283566D01*
X80236240Y-22154539D01*
X80105461Y-22023760D01*
X79976431Y-21930014D01*
X80566563Y-21339883D01*
X80566562Y-21339882D01*
X80424046Y-21233196D01*
X80424038Y-21233191D01*
X80172957Y-21096091D01*
X80172958Y-21096091D01*
X79904895Y-20996109D01*
X79625362Y-20935300D01*
X79340001Y-20914891D01*
X79339999Y-20914891D01*
X79054637Y-20935300D01*
X78775104Y-20996109D01*
X78507041Y-21096091D01*
X78255961Y-21233191D01*
X78255953Y-21233196D01*
X78113435Y-21339882D01*
X78703568Y-21930014D01*
X78574539Y-22023760D01*
X78443760Y-22154539D01*
X78350015Y-22283568D01*
X77759882Y-21693435D01*
X77653196Y-21835953D01*
X77653191Y-21835961D01*
X77516091Y-22087041D01*
X77416109Y-22355104D01*
X77355300Y-22634637D01*
X77334891Y-22919998D01*
X71500000Y-22919998D01*
X71500000Y-20624500D01*
X71519685Y-20557461D01*
X71572489Y-20511706D01*
X71624000Y-20500500D01*
X82376000Y-20500500D01*
X82443039Y-20520185D01*
G37*
%TD.AperFunction*%
%TD*%
%TA.AperFunction,Conductor*%
%TO.N,/central_control_unit/V_Bat*%
G36*
X64943039Y-120019685D02*
G01*
X64988794Y-120072489D01*
X65000000Y-120124000D01*
X65000000Y-122876000D01*
X64980315Y-122943039D01*
X64927511Y-122988794D01*
X64876000Y-123000000D01*
X27000000Y-123000000D01*
X20624500Y-123000000D01*
X20557461Y-122980315D01*
X20511706Y-122927511D01*
X20500500Y-122876000D01*
X20500500Y-120000000D01*
X27000000Y-120000000D01*
X64876000Y-120000000D01*
X64943039Y-120019685D01*
G37*
%TD.AperFunction*%
%TD*%
%TA.AperFunction,Conductor*%
%TO.N,Net-(J4-Pin_2)*%
G36*
X95443039Y-20520185D02*
G01*
X95488794Y-20572989D01*
X95500000Y-20624500D01*
X95500000Y-49376000D01*
X95480315Y-49443039D01*
X95427511Y-49488794D01*
X95376000Y-49500000D01*
X91021424Y-49500000D01*
X90954385Y-49480315D01*
X90939665Y-49469228D01*
X90872955Y-49410725D01*
X90627667Y-49246829D01*
X90627660Y-49246825D01*
X90554877Y-49210933D01*
X90503458Y-49163628D01*
X90485776Y-49096033D01*
X90507446Y-49029608D01*
X90554878Y-48988509D01*
X90627400Y-48952744D01*
X90627419Y-48952734D01*
X90872648Y-48788877D01*
X90906039Y-48759593D01*
X90261717Y-48115271D01*
X90379466Y-48029722D01*
X90529722Y-47879466D01*
X90615271Y-47761717D01*
X91259593Y-48406039D01*
X91288877Y-48372648D01*
X91452734Y-48127419D01*
X91452741Y-48127406D01*
X91583187Y-47862888D01*
X91677994Y-47583599D01*
X91677998Y-47583584D01*
X91735535Y-47294324D01*
X91735537Y-47294312D01*
X91754827Y-47000000D01*
X91735537Y-46705687D01*
X91735535Y-46705675D01*
X91677998Y-46416415D01*
X91677994Y-46416400D01*
X91583187Y-46137111D01*
X91452741Y-45872593D01*
X91452734Y-45872580D01*
X91288876Y-45627350D01*
X91259593Y-45593958D01*
X90615270Y-46238281D01*
X90529722Y-46120534D01*
X90379466Y-45970278D01*
X90261717Y-45884728D01*
X90906040Y-45240405D01*
X90872649Y-45211123D01*
X90627419Y-45047265D01*
X90627406Y-45047258D01*
X90362888Y-44916812D01*
X90083599Y-44822005D01*
X90083584Y-44822001D01*
X89794324Y-44764464D01*
X89794312Y-44764462D01*
X89500000Y-44745172D01*
X89205687Y-44764462D01*
X89205675Y-44764464D01*
X88916415Y-44822001D01*
X88916400Y-44822005D01*
X88637111Y-44916812D01*
X88372593Y-45047258D01*
X88372580Y-45047265D01*
X88127346Y-45211126D01*
X88127339Y-45211131D01*
X88093959Y-45240403D01*
X88093959Y-45240405D01*
X88738282Y-45884728D01*
X88620534Y-45970278D01*
X88470278Y-46120534D01*
X88384728Y-46238282D01*
X87740405Y-45593959D01*
X87740403Y-45593959D01*
X87711131Y-45627339D01*
X87711126Y-45627346D01*
X87547265Y-45872580D01*
X87547258Y-45872593D01*
X87416812Y-46137111D01*
X87322005Y-46416400D01*
X87322001Y-46416415D01*
X87264464Y-46705675D01*
X87264462Y-46705687D01*
X87245172Y-47000000D01*
X87264462Y-47294312D01*
X87264464Y-47294324D01*
X87322001Y-47583584D01*
X87322005Y-47583599D01*
X87416812Y-47862888D01*
X87547258Y-48127406D01*
X87547265Y-48127419D01*
X87711123Y-48372649D01*
X87740405Y-48406040D01*
X88384728Y-47761716D01*
X88470278Y-47879466D01*
X88620534Y-48029722D01*
X88738281Y-48115270D01*
X88093958Y-48759593D01*
X88127350Y-48788876D01*
X88372580Y-48952734D01*
X88372593Y-48952741D01*
X88445122Y-48988509D01*
X88496542Y-49035814D01*
X88514223Y-49103410D01*
X88492553Y-49169834D01*
X88445123Y-49210933D01*
X88372332Y-49246830D01*
X88127041Y-49410728D01*
X88060335Y-49469228D01*
X87996953Y-49498631D01*
X87978576Y-49500000D01*
X83129500Y-49500000D01*
X83062461Y-49480315D01*
X83016706Y-49427511D01*
X83005500Y-49376000D01*
X83005500Y-42000000D01*
X87245172Y-42000000D01*
X87264462Y-42294312D01*
X87264464Y-42294324D01*
X87322001Y-42583584D01*
X87322005Y-42583599D01*
X87416812Y-42862888D01*
X87547258Y-43127406D01*
X87547265Y-43127419D01*
X87711123Y-43372649D01*
X87740405Y-43406040D01*
X88384728Y-42761716D01*
X88470278Y-42879466D01*
X88620534Y-43029722D01*
X88738281Y-43115270D01*
X88093958Y-43759593D01*
X88127350Y-43788876D01*
X88372580Y-43952734D01*
X88372593Y-43952741D01*
X88637111Y-44083187D01*
X88916400Y-44177994D01*
X88916415Y-44177998D01*
X89205675Y-44235535D01*
X89205687Y-44235537D01*
X89500000Y-44254827D01*
X89794312Y-44235537D01*
X89794324Y-44235535D01*
X90083584Y-44177998D01*
X90083599Y-44177994D01*
X90362888Y-44083187D01*
X90627406Y-43952741D01*
X90627419Y-43952734D01*
X90872648Y-43788877D01*
X90906039Y-43759593D01*
X90261717Y-43115271D01*
X90379466Y-43029722D01*
X90529722Y-42879466D01*
X90615271Y-42761717D01*
X91259593Y-43406039D01*
X91288877Y-43372648D01*
X91452734Y-43127419D01*
X91452741Y-43127406D01*
X91583187Y-42862888D01*
X91677994Y-42583599D01*
X91677998Y-42583584D01*
X91735535Y-42294324D01*
X91735537Y-42294312D01*
X91754827Y-42000000D01*
X91735537Y-41705687D01*
X91735535Y-41705675D01*
X91677998Y-41416415D01*
X91677994Y-41416400D01*
X91583187Y-41137111D01*
X91452741Y-40872593D01*
X91452734Y-40872580D01*
X91288876Y-40627350D01*
X91259593Y-40593958D01*
X90615270Y-41238281D01*
X90529722Y-41120534D01*
X90379466Y-40970278D01*
X90261717Y-40884728D01*
X90906040Y-40240405D01*
X90872649Y-40211123D01*
X90627419Y-40047265D01*
X90627406Y-40047258D01*
X90362888Y-39916812D01*
X90083599Y-39822005D01*
X90083584Y-39822001D01*
X89794324Y-39764464D01*
X89794312Y-39764462D01*
X89500000Y-39745172D01*
X89205687Y-39764462D01*
X89205675Y-39764464D01*
X88916415Y-39822001D01*
X88916400Y-39822005D01*
X88637111Y-39916812D01*
X88372593Y-40047258D01*
X88372580Y-40047265D01*
X88127346Y-40211126D01*
X88127339Y-40211131D01*
X88093959Y-40240403D01*
X88093959Y-40240405D01*
X88738282Y-40884728D01*
X88620534Y-40970278D01*
X88470278Y-41120534D01*
X88384728Y-41238282D01*
X87740405Y-40593959D01*
X87740403Y-40593959D01*
X87711131Y-40627339D01*
X87711126Y-40627346D01*
X87547265Y-40872580D01*
X87547258Y-40872593D01*
X87416812Y-41137111D01*
X87322005Y-41416400D01*
X87322001Y-41416415D01*
X87264464Y-41705675D01*
X87264462Y-41705687D01*
X87245172Y-42000000D01*
X83005500Y-42000000D01*
X83005500Y-33079998D01*
X87494891Y-33079998D01*
X87494891Y-33080001D01*
X87515300Y-33365362D01*
X87576109Y-33644895D01*
X87676091Y-33912958D01*
X87813191Y-34164038D01*
X87813196Y-34164046D01*
X87919882Y-34306562D01*
X87919883Y-34306563D01*
X88510014Y-33716431D01*
X88603760Y-33845461D01*
X88734539Y-33976240D01*
X88863567Y-34069984D01*
X88273435Y-34660115D01*
X88273436Y-34660116D01*
X88415953Y-34766803D01*
X88415961Y-34766808D01*
X88667042Y-34903908D01*
X88667041Y-34903908D01*
X88935104Y-35003890D01*
X89214637Y-35064699D01*
X89499999Y-35085109D01*
X89500001Y-35085109D01*
X89785362Y-35064699D01*
X90064895Y-35003890D01*
X90332958Y-34903908D01*
X90584038Y-34766808D01*
X90584039Y-34766807D01*
X90726563Y-34660115D01*
X90136432Y-34069984D01*
X90265461Y-33976240D01*
X90396240Y-33845461D01*
X90489984Y-33716432D01*
X91080115Y-34306563D01*
X91186807Y-34164039D01*
X91186808Y-34164038D01*
X91323908Y-33912958D01*
X91423890Y-33644895D01*
X91484699Y-33365362D01*
X91505109Y-33080001D01*
X91505109Y-33079998D01*
X91484699Y-32794637D01*
X91423890Y-32515104D01*
X91323908Y-32247041D01*
X91186808Y-31995961D01*
X91186803Y-31995953D01*
X91080116Y-31853436D01*
X91080115Y-31853435D01*
X90489983Y-32443566D01*
X90396240Y-32314539D01*
X90265461Y-32183760D01*
X90136431Y-32090014D01*
X90726563Y-31499883D01*
X90726562Y-31499882D01*
X90584046Y-31393196D01*
X90584038Y-31393191D01*
X90332957Y-31256091D01*
X90332958Y-31256091D01*
X90064895Y-31156109D01*
X89785362Y-31095300D01*
X89500001Y-31074891D01*
X89499999Y-31074891D01*
X89214637Y-31095300D01*
X88935104Y-31156109D01*
X88667041Y-31256091D01*
X88415961Y-31393191D01*
X88415953Y-31393196D01*
X88273435Y-31499882D01*
X88863568Y-32090014D01*
X88734539Y-32183760D01*
X88603760Y-32314539D01*
X88510015Y-32443568D01*
X87919882Y-31853435D01*
X87813196Y-31995953D01*
X87813191Y-31995961D01*
X87676091Y-32247041D01*
X87576109Y-32515104D01*
X87515300Y-32794637D01*
X87494891Y-33079998D01*
X83005500Y-33079998D01*
X83005500Y-22919998D01*
X87494891Y-22919998D01*
X87494891Y-22920001D01*
X87515300Y-23205362D01*
X87576109Y-23484895D01*
X87676091Y-23752958D01*
X87813191Y-24004038D01*
X87813196Y-24004046D01*
X87919882Y-24146562D01*
X87919883Y-24146563D01*
X88510014Y-23556431D01*
X88603760Y-23685461D01*
X88734539Y-23816240D01*
X88863567Y-23909984D01*
X88273435Y-24500115D01*
X88273436Y-24500116D01*
X88415953Y-24606803D01*
X88415961Y-24606808D01*
X88667042Y-24743908D01*
X88667041Y-24743908D01*
X88935104Y-24843890D01*
X89214637Y-24904699D01*
X89499999Y-24925109D01*
X89500001Y-24925109D01*
X89785362Y-24904699D01*
X90064895Y-24843890D01*
X90332958Y-24743908D01*
X90584038Y-24606808D01*
X90584039Y-24606807D01*
X90726563Y-24500115D01*
X90136432Y-23909984D01*
X90265461Y-23816240D01*
X90396240Y-23685461D01*
X90489984Y-23556432D01*
X91080115Y-24146563D01*
X91186807Y-24004039D01*
X91186808Y-24004038D01*
X91323908Y-23752958D01*
X91423890Y-23484895D01*
X91484699Y-23205362D01*
X91505109Y-22920001D01*
X91505109Y-22919998D01*
X91484699Y-22634637D01*
X91423890Y-22355104D01*
X91323908Y-22087041D01*
X91186808Y-21835961D01*
X91186803Y-21835953D01*
X91080116Y-21693436D01*
X91080115Y-21693435D01*
X90489983Y-22283566D01*
X90396240Y-22154539D01*
X90265461Y-22023760D01*
X90136431Y-21930014D01*
X90726563Y-21339883D01*
X90726562Y-21339882D01*
X90584046Y-21233196D01*
X90584038Y-21233191D01*
X90332957Y-21096091D01*
X90332958Y-21096091D01*
X90064895Y-20996109D01*
X89785362Y-20935300D01*
X89500001Y-20914891D01*
X89499999Y-20914891D01*
X89214637Y-20935300D01*
X88935104Y-20996109D01*
X88667041Y-21096091D01*
X88415961Y-21233191D01*
X88415953Y-21233196D01*
X88273435Y-21339882D01*
X88863568Y-21930014D01*
X88734539Y-22023760D01*
X88603760Y-22154539D01*
X88510015Y-22283568D01*
X87919882Y-21693435D01*
X87813196Y-21835953D01*
X87813191Y-21835961D01*
X87676091Y-22087041D01*
X87576109Y-22355104D01*
X87515300Y-22634637D01*
X87494891Y-22919998D01*
X83005500Y-22919998D01*
X83005500Y-20624500D01*
X83025185Y-20557461D01*
X83077989Y-20511706D01*
X83129500Y-20500500D01*
X95376000Y-20500500D01*
X95443039Y-20520185D01*
G37*
%TD.AperFunction*%
%TD*%
%TA.AperFunction,Conductor*%
%TO.N,Net-(J3-Pin_4)*%
G36*
X53525304Y-123519685D02*
G01*
X53571059Y-123572489D01*
X53581003Y-123641647D01*
X53579882Y-123648191D01*
X53574500Y-123675247D01*
X53574500Y-125024752D01*
X53586131Y-125083229D01*
X53586132Y-125083230D01*
X53630447Y-125149552D01*
X53696769Y-125193867D01*
X53696770Y-125193868D01*
X53755247Y-125205499D01*
X53755250Y-125205500D01*
X53755252Y-125205500D01*
X54244750Y-125205500D01*
X54244751Y-125205499D01*
X54259568Y-125202552D01*
X54303229Y-125193868D01*
X54303229Y-125193867D01*
X54303231Y-125193867D01*
X54369552Y-125149552D01*
X54413867Y-125083231D01*
X54413867Y-125083229D01*
X54413868Y-125083229D01*
X54425499Y-125024752D01*
X54425500Y-125024750D01*
X54425500Y-123675249D01*
X54425499Y-123675247D01*
X54420118Y-123648191D01*
X54426345Y-123578599D01*
X54469208Y-123523422D01*
X54535098Y-123500178D01*
X54541735Y-123500000D01*
X57670500Y-123500000D01*
X57737539Y-123519685D01*
X57783294Y-123572489D01*
X57794500Y-123624000D01*
X57794500Y-126373557D01*
X57774815Y-126440596D01*
X57762669Y-126456508D01*
X57516477Y-126730055D01*
X57515230Y-126731453D01*
X57513648Y-126733244D01*
X57480734Y-126783926D01*
X57480732Y-126783930D01*
X57451710Y-126847478D01*
X57442683Y-126870948D01*
X57442683Y-126870949D01*
X57435350Y-126960608D01*
X57410269Y-127025818D01*
X57353912Y-127067117D01*
X57311764Y-127074500D01*
X56995730Y-127074500D01*
X56965300Y-127077353D01*
X56965298Y-127077353D01*
X56837119Y-127122206D01*
X56837117Y-127122207D01*
X56727850Y-127202850D01*
X56647207Y-127312117D01*
X56647206Y-127312119D01*
X56602353Y-127440298D01*
X56602353Y-127440300D01*
X56599500Y-127470730D01*
X56599500Y-127911122D01*
X56579815Y-127978161D01*
X56568820Y-127992776D01*
X56551974Y-128012029D01*
X56493015Y-128049519D01*
X56456324Y-128054353D01*
X56446687Y-128054171D01*
X56423562Y-128055152D01*
X56421564Y-128055237D01*
X56421563Y-128055237D01*
X56421557Y-128055238D01*
X56334986Y-128084695D01*
X56334981Y-128084697D01*
X56275507Y-128121356D01*
X56230586Y-128158824D01*
X56230584Y-128158825D01*
X53375193Y-131331481D01*
X53369890Y-131337611D01*
X53363701Y-131345055D01*
X53363700Y-131345056D01*
X53330030Y-131402366D01*
X53304844Y-131467543D01*
X53291743Y-131524538D01*
X53291742Y-131524542D01*
X53063779Y-134260112D01*
X53003544Y-134982932D01*
X53002122Y-134999998D01*
X52861555Y-136686807D01*
X52806402Y-137348637D01*
X52807379Y-137370455D01*
X52790712Y-137438307D01*
X52740007Y-137486378D01*
X52683503Y-137500000D01*
X48124000Y-137500000D01*
X48056961Y-137480315D01*
X48011206Y-137427511D01*
X48000000Y-137376000D01*
X48000000Y-134999997D01*
X48419891Y-134999997D01*
X48440300Y-135285362D01*
X48501109Y-135564895D01*
X48601091Y-135832958D01*
X48738191Y-136084038D01*
X48738196Y-136084046D01*
X48844882Y-136226562D01*
X48844883Y-136226563D01*
X49739767Y-135331678D01*
X49751497Y-135359995D01*
X49834670Y-135484472D01*
X49940528Y-135590330D01*
X50065005Y-135673503D01*
X50093320Y-135685231D01*
X49198435Y-136580115D01*
X49198436Y-136580116D01*
X49340953Y-136686803D01*
X49340961Y-136686808D01*
X49592042Y-136823908D01*
X49592041Y-136823908D01*
X49860104Y-136923890D01*
X50139637Y-136984699D01*
X50424999Y-137005109D01*
X50425001Y-137005109D01*
X50710362Y-136984699D01*
X50989895Y-136923890D01*
X51257958Y-136823908D01*
X51509038Y-136686808D01*
X51509039Y-136686807D01*
X51651563Y-136580115D01*
X50756679Y-135685231D01*
X50784995Y-135673503D01*
X50909472Y-135590330D01*
X51015330Y-135484472D01*
X51098503Y-135359995D01*
X51110231Y-135331679D01*
X52005115Y-136226563D01*
X52111807Y-136084039D01*
X52111808Y-136084038D01*
X52248908Y-135832958D01*
X52348890Y-135564895D01*
X52409699Y-135285362D01*
X52430109Y-134999997D01*
X52409699Y-134714637D01*
X52348890Y-134435104D01*
X52248908Y-134167041D01*
X52111808Y-133915961D01*
X52111803Y-133915953D01*
X52005116Y-133773436D01*
X52005115Y-133773435D01*
X51110231Y-134668320D01*
X51098503Y-134640005D01*
X51015330Y-134515528D01*
X50909472Y-134409670D01*
X50784995Y-134326497D01*
X50756678Y-134314767D01*
X51651563Y-133419883D01*
X51651562Y-133419882D01*
X51509046Y-133313196D01*
X51509038Y-133313191D01*
X51257957Y-133176091D01*
X51257958Y-133176091D01*
X50989895Y-133076109D01*
X50710362Y-133015300D01*
X50425001Y-132994891D01*
X50424999Y-132994891D01*
X50139637Y-133015300D01*
X49860104Y-133076109D01*
X49592041Y-133176091D01*
X49340961Y-133313191D01*
X49340953Y-133313196D01*
X49198435Y-133419882D01*
X50093321Y-134314767D01*
X50065005Y-134326497D01*
X49940528Y-134409670D01*
X49834670Y-134515528D01*
X49751497Y-134640005D01*
X49739768Y-134668321D01*
X48844882Y-133773435D01*
X48738196Y-133915953D01*
X48738191Y-133915961D01*
X48601091Y-134167041D01*
X48501109Y-134435104D01*
X48440300Y-134714637D01*
X48419891Y-134999997D01*
X48000000Y-134999997D01*
X48000000Y-132551362D01*
X48019685Y-132484323D01*
X48036319Y-132463681D01*
X49168519Y-131331481D01*
X50500000Y-130000000D01*
X50500000Y-129049500D01*
X50519685Y-128982461D01*
X50572489Y-128936706D01*
X50624000Y-128925500D01*
X50779270Y-128925500D01*
X50809699Y-128922646D01*
X50809701Y-128922646D01*
X50873790Y-128900219D01*
X50937882Y-128877793D01*
X51047150Y-128797150D01*
X51127793Y-128687882D01*
X51150219Y-128623790D01*
X51172646Y-128559701D01*
X51172646Y-128559699D01*
X51175500Y-128529269D01*
X51175500Y-127470730D01*
X51172646Y-127440300D01*
X51172646Y-127440298D01*
X51127793Y-127312119D01*
X51127792Y-127312117D01*
X51047150Y-127202850D01*
X50937882Y-127122207D01*
X50937880Y-127122206D01*
X50809700Y-127077353D01*
X50779270Y-127074500D01*
X50779266Y-127074500D01*
X50624000Y-127074500D01*
X50556961Y-127054815D01*
X50511206Y-127002011D01*
X50500000Y-126950500D01*
X50500000Y-123624000D01*
X50519685Y-123556961D01*
X50572489Y-123511206D01*
X50624000Y-123500000D01*
X53458265Y-123500000D01*
X53525304Y-123519685D01*
G37*
%TD.AperFunction*%
%TD*%
%TA.AperFunction,Conductor*%
%TO.N,Net-(F1-Pad1)*%
G36*
X95801251Y-49911088D02*
G01*
X95920034Y-49965335D01*
X95920041Y-49965338D01*
X95987080Y-49985023D01*
X95987084Y-49985024D01*
X96129500Y-50005500D01*
X96129503Y-50005500D01*
X97380937Y-50005500D01*
X97447976Y-50025185D01*
X97493731Y-50077989D01*
X97503675Y-50147147D01*
X97492149Y-50184344D01*
X97416812Y-50337111D01*
X97322005Y-50616400D01*
X97322001Y-50616415D01*
X97264464Y-50905675D01*
X97264462Y-50905687D01*
X97245172Y-51200000D01*
X97264462Y-51494312D01*
X97264464Y-51494324D01*
X97322001Y-51783584D01*
X97322005Y-51783599D01*
X97416812Y-52062888D01*
X97547258Y-52327406D01*
X97547265Y-52327419D01*
X97711123Y-52572649D01*
X97740405Y-52606040D01*
X98384728Y-51961716D01*
X98470278Y-52079466D01*
X98620534Y-52229722D01*
X98738281Y-52315270D01*
X98093958Y-52959593D01*
X98127350Y-52988876D01*
X98372580Y-53152734D01*
X98372593Y-53152741D01*
X98637111Y-53283187D01*
X98916400Y-53377994D01*
X98916415Y-53377998D01*
X99205675Y-53435535D01*
X99205687Y-53435537D01*
X99500000Y-53454827D01*
X99794312Y-53435537D01*
X99794324Y-53435535D01*
X100083584Y-53377998D01*
X100083599Y-53377994D01*
X100362888Y-53283187D01*
X100627406Y-53152741D01*
X100627419Y-53152734D01*
X100872648Y-52988877D01*
X100906039Y-52959593D01*
X100261717Y-52315271D01*
X100379466Y-52229722D01*
X100529722Y-52079466D01*
X100615271Y-51961717D01*
X101259593Y-52606039D01*
X101288877Y-52572648D01*
X101452734Y-52327419D01*
X101452741Y-52327406D01*
X101583187Y-52062888D01*
X101677994Y-51783599D01*
X101677998Y-51783584D01*
X101735535Y-51494324D01*
X101735537Y-51494312D01*
X101754827Y-51200000D01*
X101735537Y-50905687D01*
X101735535Y-50905675D01*
X101677998Y-50616415D01*
X101677994Y-50616400D01*
X101583187Y-50337111D01*
X101507851Y-50184344D01*
X101495855Y-50115512D01*
X101522976Y-50051121D01*
X101580604Y-50011615D01*
X101619063Y-50005500D01*
X106376000Y-50005500D01*
X106443039Y-50025185D01*
X106488794Y-50077989D01*
X106500000Y-50129500D01*
X106500000Y-70376000D01*
X106480315Y-70443039D01*
X106427511Y-70488794D01*
X106376000Y-70500000D01*
X76124000Y-70500000D01*
X76056961Y-70480315D01*
X76011206Y-70427511D01*
X76000000Y-70376000D01*
X76000000Y-61000000D01*
X75699706Y-60499510D01*
X75686266Y-60467820D01*
X75659577Y-60368216D01*
X75659573Y-60368209D01*
X75580524Y-60231290D01*
X75580518Y-60231282D01*
X75486940Y-60137704D01*
X75468292Y-60113820D01*
X74513924Y-58523207D01*
X74497011Y-58473103D01*
X74494980Y-58454827D01*
X74244444Y-56200000D01*
X77245172Y-56200000D01*
X77264462Y-56494312D01*
X77264464Y-56494324D01*
X77322001Y-56783584D01*
X77322005Y-56783599D01*
X77416812Y-57062888D01*
X77547258Y-57327406D01*
X77547265Y-57327419D01*
X77711123Y-57572649D01*
X77740405Y-57606040D01*
X78384728Y-56961716D01*
X78470278Y-57079466D01*
X78620534Y-57229722D01*
X78738281Y-57315270D01*
X78093958Y-57959593D01*
X78127350Y-57988876D01*
X78372580Y-58152734D01*
X78372593Y-58152741D01*
X78637111Y-58283187D01*
X78916400Y-58377994D01*
X78916415Y-58377998D01*
X79205675Y-58435535D01*
X79205687Y-58435537D01*
X79500000Y-58454827D01*
X79794312Y-58435537D01*
X79794324Y-58435535D01*
X80083584Y-58377998D01*
X80083599Y-58377994D01*
X80362888Y-58283187D01*
X80627406Y-58152741D01*
X80627419Y-58152734D01*
X80872648Y-57988877D01*
X80906039Y-57959593D01*
X80261717Y-57315271D01*
X80379466Y-57229722D01*
X80529722Y-57079466D01*
X80615271Y-56961717D01*
X81259593Y-57606039D01*
X81288877Y-57572648D01*
X81452734Y-57327419D01*
X81452741Y-57327406D01*
X81583187Y-57062888D01*
X81677994Y-56783599D01*
X81677998Y-56783584D01*
X81735535Y-56494324D01*
X81735537Y-56494312D01*
X81754827Y-56200000D01*
X87245172Y-56200000D01*
X87264462Y-56494312D01*
X87264464Y-56494324D01*
X87322001Y-56783584D01*
X87322005Y-56783599D01*
X87416812Y-57062888D01*
X87547258Y-57327406D01*
X87547265Y-57327419D01*
X87711123Y-57572649D01*
X87740405Y-57606040D01*
X88384728Y-56961716D01*
X88470278Y-57079466D01*
X88620534Y-57229722D01*
X88738281Y-57315270D01*
X88093958Y-57959593D01*
X88127350Y-57988876D01*
X88372580Y-58152734D01*
X88372593Y-58152741D01*
X88637111Y-58283187D01*
X88916400Y-58377994D01*
X88916415Y-58377998D01*
X89205675Y-58435535D01*
X89205687Y-58435537D01*
X89500000Y-58454827D01*
X89794312Y-58435537D01*
X89794324Y-58435535D01*
X90083584Y-58377998D01*
X90083599Y-58377994D01*
X90362888Y-58283187D01*
X90627406Y-58152741D01*
X90627419Y-58152734D01*
X90872648Y-57988877D01*
X90906039Y-57959593D01*
X90261717Y-57315271D01*
X90379466Y-57229722D01*
X90529722Y-57079466D01*
X90615271Y-56961717D01*
X91259593Y-57606039D01*
X91288877Y-57572648D01*
X91452734Y-57327419D01*
X91452741Y-57327406D01*
X91583187Y-57062888D01*
X91677994Y-56783599D01*
X91677998Y-56783584D01*
X91735535Y-56494324D01*
X91735537Y-56494312D01*
X91754827Y-56200000D01*
X97245172Y-56200000D01*
X97264462Y-56494312D01*
X97264464Y-56494324D01*
X97322001Y-56783584D01*
X97322005Y-56783599D01*
X97416812Y-57062888D01*
X97547258Y-57327406D01*
X97547265Y-57327419D01*
X97711123Y-57572649D01*
X97740405Y-57606040D01*
X98384728Y-56961716D01*
X98470278Y-57079466D01*
X98620534Y-57229722D01*
X98738281Y-57315270D01*
X98093958Y-57959593D01*
X98127350Y-57988876D01*
X98372580Y-58152734D01*
X98372593Y-58152741D01*
X98637111Y-58283187D01*
X98916400Y-58377994D01*
X98916415Y-58377998D01*
X99205675Y-58435535D01*
X99205687Y-58435537D01*
X99500000Y-58454827D01*
X99794312Y-58435537D01*
X99794324Y-58435535D01*
X100083584Y-58377998D01*
X100083599Y-58377994D01*
X100362888Y-58283187D01*
X100627406Y-58152741D01*
X100627419Y-58152734D01*
X100872648Y-57988877D01*
X100906039Y-57959593D01*
X100261717Y-57315271D01*
X100379466Y-57229722D01*
X100529722Y-57079466D01*
X100615271Y-56961717D01*
X101259593Y-57606039D01*
X101288877Y-57572648D01*
X101452734Y-57327419D01*
X101452741Y-57327406D01*
X101583187Y-57062888D01*
X101677994Y-56783599D01*
X101677998Y-56783584D01*
X101735535Y-56494324D01*
X101735537Y-56494312D01*
X101754827Y-56200000D01*
X101735537Y-55905687D01*
X101735535Y-55905675D01*
X101677998Y-55616415D01*
X101677994Y-55616400D01*
X101583187Y-55337111D01*
X101452741Y-55072593D01*
X101452734Y-55072580D01*
X101288876Y-54827350D01*
X101259593Y-54793958D01*
X100615270Y-55438281D01*
X100529722Y-55320534D01*
X100379466Y-55170278D01*
X100261717Y-55084728D01*
X100906040Y-54440405D01*
X100872649Y-54411123D01*
X100627419Y-54247265D01*
X100627406Y-54247258D01*
X100362888Y-54116812D01*
X100083599Y-54022005D01*
X100083584Y-54022001D01*
X99794324Y-53964464D01*
X99794312Y-53964462D01*
X99500000Y-53945172D01*
X99205687Y-53964462D01*
X99205675Y-53964464D01*
X98916415Y-54022001D01*
X98916400Y-54022005D01*
X98637111Y-54116812D01*
X98372593Y-54247258D01*
X98372580Y-54247265D01*
X98127346Y-54411126D01*
X98127339Y-54411131D01*
X98093959Y-54440403D01*
X98093959Y-54440405D01*
X98738282Y-55084728D01*
X98620534Y-55170278D01*
X98470278Y-55320534D01*
X98384728Y-55438282D01*
X97740405Y-54793959D01*
X97740403Y-54793959D01*
X97711131Y-54827339D01*
X97711126Y-54827346D01*
X97547265Y-55072580D01*
X97547258Y-55072593D01*
X97416812Y-55337111D01*
X97322005Y-55616400D01*
X97322001Y-55616415D01*
X97264464Y-55905675D01*
X97264462Y-55905687D01*
X97245172Y-56200000D01*
X91754827Y-56200000D01*
X91735537Y-55905687D01*
X91735535Y-55905675D01*
X91677998Y-55616415D01*
X91677994Y-55616400D01*
X91583187Y-55337111D01*
X91452741Y-55072593D01*
X91452734Y-55072580D01*
X91288876Y-54827350D01*
X91259593Y-54793958D01*
X90615270Y-55438281D01*
X90529722Y-55320534D01*
X90379466Y-55170278D01*
X90261717Y-55084728D01*
X90906040Y-54440405D01*
X90872649Y-54411123D01*
X90627419Y-54247265D01*
X90627406Y-54247258D01*
X90362888Y-54116812D01*
X90083599Y-54022005D01*
X90083584Y-54022001D01*
X89794324Y-53964464D01*
X89794312Y-53964462D01*
X89500000Y-53945172D01*
X89205687Y-53964462D01*
X89205675Y-53964464D01*
X88916415Y-54022001D01*
X88916400Y-54022005D01*
X88637111Y-54116812D01*
X88372593Y-54247258D01*
X88372580Y-54247265D01*
X88127346Y-54411126D01*
X88127339Y-54411131D01*
X88093959Y-54440403D01*
X88093959Y-54440405D01*
X88738282Y-55084728D01*
X88620534Y-55170278D01*
X88470278Y-55320534D01*
X88384728Y-55438282D01*
X87740405Y-54793959D01*
X87740403Y-54793959D01*
X87711131Y-54827339D01*
X87711126Y-54827346D01*
X87547265Y-55072580D01*
X87547258Y-55072593D01*
X87416812Y-55337111D01*
X87322005Y-55616400D01*
X87322001Y-55616415D01*
X87264464Y-55905675D01*
X87264462Y-55905687D01*
X87245172Y-56200000D01*
X81754827Y-56200000D01*
X81735537Y-55905687D01*
X81735535Y-55905675D01*
X81677998Y-55616415D01*
X81677994Y-55616400D01*
X81583187Y-55337111D01*
X81452741Y-55072593D01*
X81452734Y-55072580D01*
X81288876Y-54827350D01*
X81259593Y-54793958D01*
X80615270Y-55438281D01*
X80529722Y-55320534D01*
X80379466Y-55170278D01*
X80261717Y-55084728D01*
X80906040Y-54440405D01*
X80872649Y-54411123D01*
X80627419Y-54247265D01*
X80627406Y-54247258D01*
X80362888Y-54116812D01*
X80083599Y-54022005D01*
X80083584Y-54022001D01*
X79794324Y-53964464D01*
X79794312Y-53964462D01*
X79500000Y-53945172D01*
X79205687Y-53964462D01*
X79205675Y-53964464D01*
X78916415Y-54022001D01*
X78916400Y-54022005D01*
X78637111Y-54116812D01*
X78372593Y-54247258D01*
X78372580Y-54247265D01*
X78127346Y-54411126D01*
X78127339Y-54411131D01*
X78093959Y-54440403D01*
X78093959Y-54440405D01*
X78738282Y-55084728D01*
X78620534Y-55170278D01*
X78470278Y-55320534D01*
X78384728Y-55438282D01*
X77740405Y-54793959D01*
X77740403Y-54793959D01*
X77711131Y-54827339D01*
X77711126Y-54827346D01*
X77547265Y-55072580D01*
X77547258Y-55072593D01*
X77416812Y-55337111D01*
X77322005Y-55616400D01*
X77322001Y-55616415D01*
X77264464Y-55905675D01*
X77264462Y-55905687D01*
X77245172Y-56200000D01*
X74244444Y-56200000D01*
X74101258Y-54911321D01*
X74100500Y-54897628D01*
X74100500Y-53920945D01*
X74100499Y-53920941D01*
X74077178Y-53833902D01*
X74059577Y-53768215D01*
X74018443Y-53696970D01*
X73980520Y-53631284D01*
X73976442Y-53625970D01*
X73951575Y-53564177D01*
X73571466Y-50143193D01*
X73583627Y-50074390D01*
X73631056Y-50023084D01*
X73694708Y-50005500D01*
X77380937Y-50005500D01*
X77447976Y-50025185D01*
X77493731Y-50077989D01*
X77503675Y-50147147D01*
X77492149Y-50184344D01*
X77416812Y-50337111D01*
X77322005Y-50616400D01*
X77322001Y-50616415D01*
X77264464Y-50905675D01*
X77264462Y-50905687D01*
X77245172Y-51200000D01*
X77264462Y-51494312D01*
X77264464Y-51494324D01*
X77322001Y-51783584D01*
X77322005Y-51783599D01*
X77416812Y-52062888D01*
X77547258Y-52327406D01*
X77547265Y-52327419D01*
X77711123Y-52572649D01*
X77740405Y-52606040D01*
X78384728Y-51961716D01*
X78470278Y-52079466D01*
X78620534Y-52229722D01*
X78738281Y-52315270D01*
X78093958Y-52959593D01*
X78127350Y-52988876D01*
X78372580Y-53152734D01*
X78372593Y-53152741D01*
X78637111Y-53283187D01*
X78916400Y-53377994D01*
X78916415Y-53377998D01*
X79205675Y-53435535D01*
X79205687Y-53435537D01*
X79500000Y-53454827D01*
X79794312Y-53435537D01*
X79794324Y-53435535D01*
X80083584Y-53377998D01*
X80083599Y-53377994D01*
X80362888Y-53283187D01*
X80627406Y-53152741D01*
X80627419Y-53152734D01*
X80872648Y-52988877D01*
X80906039Y-52959593D01*
X80261717Y-52315271D01*
X80379466Y-52229722D01*
X80529722Y-52079466D01*
X80615271Y-51961717D01*
X81259593Y-52606039D01*
X81288877Y-52572648D01*
X81452734Y-52327419D01*
X81452741Y-52327406D01*
X81583187Y-52062888D01*
X81677994Y-51783599D01*
X81677998Y-51783584D01*
X81735535Y-51494324D01*
X81735537Y-51494312D01*
X81754827Y-51200000D01*
X81735537Y-50905687D01*
X81735535Y-50905675D01*
X81677998Y-50616415D01*
X81677994Y-50616400D01*
X81583187Y-50337111D01*
X81507851Y-50184344D01*
X81495855Y-50115512D01*
X81522976Y-50051121D01*
X81580604Y-50011615D01*
X81619063Y-50005500D01*
X82375990Y-50005500D01*
X82376000Y-50005500D01*
X82483456Y-49993947D01*
X82534967Y-49982741D01*
X82637504Y-49948613D01*
X82682698Y-49919567D01*
X82749736Y-49899882D01*
X82801251Y-49911088D01*
X82920034Y-49965335D01*
X82920041Y-49965338D01*
X82987080Y-49985023D01*
X82987084Y-49985024D01*
X83129500Y-50005500D01*
X83129503Y-50005500D01*
X87380937Y-50005500D01*
X87447976Y-50025185D01*
X87493731Y-50077989D01*
X87503675Y-50147147D01*
X87492149Y-50184344D01*
X87416812Y-50337111D01*
X87322005Y-50616400D01*
X87322001Y-50616415D01*
X87264464Y-50905675D01*
X87264462Y-50905687D01*
X87245172Y-51200000D01*
X87264462Y-51494312D01*
X87264464Y-51494324D01*
X87322001Y-51783584D01*
X87322005Y-51783599D01*
X87416812Y-52062888D01*
X87547258Y-52327406D01*
X87547265Y-52327419D01*
X87711123Y-52572649D01*
X87740405Y-52606040D01*
X88384728Y-51961716D01*
X88470278Y-52079466D01*
X88620534Y-52229722D01*
X88738281Y-52315270D01*
X88093958Y-52959593D01*
X88127350Y-52988876D01*
X88372580Y-53152734D01*
X88372593Y-53152741D01*
X88637111Y-53283187D01*
X88916400Y-53377994D01*
X88916415Y-53377998D01*
X89205675Y-53435535D01*
X89205687Y-53435537D01*
X89500000Y-53454827D01*
X89794312Y-53435537D01*
X89794324Y-53435535D01*
X90083584Y-53377998D01*
X90083599Y-53377994D01*
X90362888Y-53283187D01*
X90627406Y-53152741D01*
X90627419Y-53152734D01*
X90872648Y-52988877D01*
X90906039Y-52959593D01*
X90261717Y-52315271D01*
X90379466Y-52229722D01*
X90529722Y-52079466D01*
X90615271Y-51961717D01*
X91259593Y-52606039D01*
X91288877Y-52572648D01*
X91452734Y-52327419D01*
X91452741Y-52327406D01*
X91583187Y-52062888D01*
X91677994Y-51783599D01*
X91677998Y-51783584D01*
X91735535Y-51494324D01*
X91735537Y-51494312D01*
X91754827Y-51200000D01*
X91735537Y-50905687D01*
X91735535Y-50905675D01*
X91677998Y-50616415D01*
X91677994Y-50616400D01*
X91583187Y-50337111D01*
X91507851Y-50184344D01*
X91495855Y-50115512D01*
X91522976Y-50051121D01*
X91580604Y-50011615D01*
X91619063Y-50005500D01*
X95375990Y-50005500D01*
X95376000Y-50005500D01*
X95483456Y-49993947D01*
X95534967Y-49982741D01*
X95637504Y-49948613D01*
X95682698Y-49919567D01*
X95749736Y-49899882D01*
X95801251Y-49911088D01*
G37*
%TD.AperFunction*%
%TD*%
%TA.AperFunction,Conductor*%
%TO.N,Net-(J3-Pin_5)*%
G36*
X60950304Y-123519685D02*
G01*
X60996059Y-123572489D01*
X61006003Y-123641647D01*
X61004882Y-123648191D01*
X60999500Y-123675247D01*
X60999500Y-125024752D01*
X61011131Y-125083229D01*
X61011132Y-125083230D01*
X61055447Y-125149552D01*
X61121769Y-125193867D01*
X61121770Y-125193868D01*
X61180247Y-125205499D01*
X61180250Y-125205500D01*
X61180252Y-125205500D01*
X61669750Y-125205500D01*
X61669751Y-125205499D01*
X61684568Y-125202552D01*
X61728229Y-125193868D01*
X61728229Y-125193867D01*
X61728231Y-125193867D01*
X61794552Y-125149552D01*
X61838867Y-125083231D01*
X61838867Y-125083229D01*
X61838868Y-125083229D01*
X61850499Y-125024752D01*
X61850500Y-125024750D01*
X61850500Y-123675249D01*
X61850499Y-123675247D01*
X61845118Y-123648191D01*
X61851345Y-123578599D01*
X61894208Y-123523422D01*
X61960098Y-123500178D01*
X61966735Y-123500000D01*
X64376000Y-123500000D01*
X64443039Y-123519685D01*
X64488794Y-123572489D01*
X64500000Y-123624000D01*
X64500000Y-129953744D01*
X64480315Y-130020783D01*
X64469705Y-130034955D01*
X60166667Y-135000000D01*
X58585947Y-136823908D01*
X58037084Y-137457211D01*
X57978303Y-137494980D01*
X57943379Y-137500000D01*
X53134764Y-137500000D01*
X53067725Y-137480315D01*
X53021970Y-137427511D01*
X53011192Y-137365702D01*
X53208334Y-134999998D01*
X53499891Y-134999998D01*
X53499891Y-135000001D01*
X53520300Y-135285362D01*
X53581109Y-135564895D01*
X53681091Y-135832958D01*
X53818191Y-136084038D01*
X53818196Y-136084046D01*
X53924882Y-136226562D01*
X53924883Y-136226563D01*
X54819767Y-135331678D01*
X54831497Y-135359995D01*
X54914670Y-135484472D01*
X55020528Y-135590330D01*
X55145005Y-135673503D01*
X55173320Y-135685231D01*
X54278435Y-136580115D01*
X54278436Y-136580116D01*
X54420953Y-136686803D01*
X54420961Y-136686808D01*
X54672042Y-136823908D01*
X54672041Y-136823908D01*
X54940104Y-136923890D01*
X55219637Y-136984699D01*
X55504999Y-137005109D01*
X55505001Y-137005109D01*
X55790362Y-136984699D01*
X56069895Y-136923890D01*
X56337958Y-136823908D01*
X56589038Y-136686808D01*
X56589039Y-136686807D01*
X56731563Y-136580115D01*
X55836679Y-135685231D01*
X55864995Y-135673503D01*
X55989472Y-135590330D01*
X56095330Y-135484472D01*
X56178503Y-135359995D01*
X56190231Y-135331679D01*
X57085115Y-136226563D01*
X57191807Y-136084039D01*
X57191808Y-136084038D01*
X57328908Y-135832958D01*
X57428890Y-135564895D01*
X57489699Y-135285362D01*
X57510109Y-135000001D01*
X57510109Y-134999998D01*
X57489699Y-134714637D01*
X57428890Y-134435104D01*
X57328908Y-134167041D01*
X57191808Y-133915961D01*
X57191803Y-133915953D01*
X57085116Y-133773436D01*
X57085115Y-133773435D01*
X56190231Y-134668320D01*
X56178503Y-134640005D01*
X56095330Y-134515528D01*
X55989472Y-134409670D01*
X55864995Y-134326497D01*
X55836678Y-134314767D01*
X56731563Y-133419883D01*
X56731562Y-133419882D01*
X56589046Y-133313196D01*
X56589038Y-133313191D01*
X56337957Y-133176091D01*
X56337958Y-133176091D01*
X56069895Y-133076109D01*
X55790362Y-133015300D01*
X55505001Y-132994891D01*
X55504999Y-132994891D01*
X55219637Y-133015300D01*
X54940104Y-133076109D01*
X54672041Y-133176091D01*
X54420961Y-133313191D01*
X54420953Y-133313196D01*
X54278435Y-133419882D01*
X55173321Y-134314767D01*
X55145005Y-134326497D01*
X55020528Y-134409670D01*
X54914670Y-134515528D01*
X54831497Y-134640005D01*
X54819768Y-134668321D01*
X53924882Y-133773435D01*
X53818196Y-133915953D01*
X53818191Y-133915961D01*
X53681091Y-134167041D01*
X53581109Y-134435104D01*
X53520300Y-134714637D01*
X53499891Y-134999998D01*
X53208334Y-134999998D01*
X53496532Y-131541613D01*
X53521716Y-131476440D01*
X53527925Y-131468972D01*
X56383333Y-128296296D01*
X56442810Y-128259636D01*
X56512667Y-128260950D01*
X56570724Y-128299824D01*
X56598548Y-128363914D01*
X56599500Y-128379249D01*
X56599500Y-128529269D01*
X56602353Y-128559699D01*
X56602353Y-128559701D01*
X56647206Y-128687880D01*
X56647207Y-128687882D01*
X56727850Y-128797150D01*
X56837118Y-128877793D01*
X56879845Y-128892744D01*
X56965299Y-128922646D01*
X56995730Y-128925500D01*
X56995734Y-128925500D01*
X57779270Y-128925500D01*
X57809699Y-128922646D01*
X57809701Y-128922646D01*
X57873790Y-128900219D01*
X57937882Y-128877793D01*
X58047150Y-128797150D01*
X58127793Y-128687882D01*
X58150219Y-128623790D01*
X58172646Y-128559701D01*
X58172646Y-128559699D01*
X58175500Y-128529269D01*
X58175500Y-127470730D01*
X58172646Y-127440300D01*
X58172646Y-127440298D01*
X58127793Y-127312119D01*
X58127792Y-127312117D01*
X58047150Y-127202850D01*
X57937882Y-127122207D01*
X57937880Y-127122206D01*
X57809700Y-127077353D01*
X57779270Y-127074500D01*
X57779266Y-127074500D01*
X57761375Y-127074500D01*
X57694336Y-127054815D01*
X57648581Y-127002011D01*
X57638637Y-126932853D01*
X57667662Y-126869297D01*
X57669207Y-126867548D01*
X58000000Y-126500000D01*
X58000000Y-123624000D01*
X58019685Y-123556961D01*
X58072489Y-123511206D01*
X58124000Y-123500000D01*
X60883265Y-123500000D01*
X60950304Y-123519685D01*
G37*
%TD.AperFunction*%
%TD*%
%TA.AperFunction,Conductor*%
%TO.N,Net-(J3-Pin_2)*%
G36*
X38525304Y-123519685D02*
G01*
X38571059Y-123572489D01*
X38581003Y-123641647D01*
X38579882Y-123648191D01*
X38574500Y-123675247D01*
X38574500Y-125024752D01*
X38586131Y-125083229D01*
X38586132Y-125083230D01*
X38630447Y-125149552D01*
X38696769Y-125193867D01*
X38696770Y-125193868D01*
X38755247Y-125205499D01*
X38755250Y-125205500D01*
X38755252Y-125205500D01*
X39244750Y-125205500D01*
X39244751Y-125205499D01*
X39259568Y-125202552D01*
X39303229Y-125193868D01*
X39303229Y-125193867D01*
X39303231Y-125193867D01*
X39369552Y-125149552D01*
X39413867Y-125083231D01*
X39413867Y-125083229D01*
X39413868Y-125083229D01*
X39425499Y-125024752D01*
X39425500Y-125024750D01*
X39425500Y-123675249D01*
X39425499Y-123675247D01*
X39420118Y-123648191D01*
X39426345Y-123578599D01*
X39469208Y-123523422D01*
X39535098Y-123500178D01*
X39541735Y-123500000D01*
X42170500Y-123500000D01*
X42237539Y-123519685D01*
X42283294Y-123572489D01*
X42294500Y-123624000D01*
X42294500Y-127134744D01*
X42295159Y-127146669D01*
X42295753Y-127157411D01*
X42295754Y-127157417D01*
X42298766Y-127184575D01*
X42298768Y-127184583D01*
X42323320Y-127261623D01*
X42323323Y-127261629D01*
X42357215Y-127322712D01*
X42370742Y-127343919D01*
X42439645Y-127404038D01*
X42445378Y-127408004D01*
X42443761Y-127410340D01*
X42484402Y-127450401D01*
X42500000Y-127510608D01*
X42500000Y-128489641D01*
X42480315Y-128556680D01*
X42442501Y-128591531D01*
X42443656Y-128593212D01*
X42437917Y-128597153D01*
X42385104Y-128642915D01*
X42367160Y-128660497D01*
X42367154Y-128660504D01*
X42322511Y-128740314D01*
X42322509Y-128740319D01*
X42302826Y-128807351D01*
X42294500Y-128865258D01*
X42294500Y-130495549D01*
X42294631Y-130502938D01*
X42294943Y-130511705D01*
X42295337Y-130519059D01*
X42615404Y-134999998D01*
X42616450Y-135014639D01*
X42616450Y-135014640D01*
X42784488Y-137367165D01*
X42769630Y-137435437D01*
X42720220Y-137484838D01*
X42660803Y-137500000D01*
X38124000Y-137500000D01*
X38056961Y-137480315D01*
X38011206Y-137427511D01*
X38000000Y-137376000D01*
X38000000Y-134999998D01*
X38259891Y-134999998D01*
X38280300Y-135285362D01*
X38341109Y-135564895D01*
X38441091Y-135832958D01*
X38578191Y-136084038D01*
X38578196Y-136084046D01*
X38684882Y-136226562D01*
X38684883Y-136226563D01*
X39579767Y-135331678D01*
X39591497Y-135359995D01*
X39674670Y-135484472D01*
X39780528Y-135590330D01*
X39905005Y-135673503D01*
X39933320Y-135685231D01*
X39038435Y-136580115D01*
X39038436Y-136580116D01*
X39180953Y-136686803D01*
X39180961Y-136686808D01*
X39432042Y-136823908D01*
X39432041Y-136823908D01*
X39700104Y-136923890D01*
X39979637Y-136984699D01*
X40264999Y-137005109D01*
X40265001Y-137005109D01*
X40550362Y-136984699D01*
X40829895Y-136923890D01*
X41097958Y-136823908D01*
X41349038Y-136686808D01*
X41349039Y-136686807D01*
X41491563Y-136580115D01*
X40596679Y-135685231D01*
X40624995Y-135673503D01*
X40749472Y-135590330D01*
X40855330Y-135484472D01*
X40938503Y-135359995D01*
X40950231Y-135331679D01*
X41845115Y-136226563D01*
X41951807Y-136084039D01*
X41951808Y-136084038D01*
X42088908Y-135832958D01*
X42188890Y-135564895D01*
X42249699Y-135285362D01*
X42270109Y-134999998D01*
X42249699Y-134714637D01*
X42188890Y-134435104D01*
X42088908Y-134167041D01*
X41951808Y-133915961D01*
X41951803Y-133915953D01*
X41845116Y-133773436D01*
X41845115Y-133773435D01*
X40950231Y-134668320D01*
X40938503Y-134640005D01*
X40855330Y-134515528D01*
X40749472Y-134409670D01*
X40624995Y-134326497D01*
X40596678Y-134314767D01*
X41491563Y-133419883D01*
X41491562Y-133419882D01*
X41349046Y-133313196D01*
X41349038Y-133313191D01*
X41097957Y-133176091D01*
X41097958Y-133176091D01*
X40829895Y-133076109D01*
X40550362Y-133015300D01*
X40265001Y-132994891D01*
X40264999Y-132994891D01*
X39979637Y-133015300D01*
X39700104Y-133076109D01*
X39432041Y-133176091D01*
X39180961Y-133313191D01*
X39180953Y-133313196D01*
X39038435Y-133419882D01*
X39933321Y-134314767D01*
X39905005Y-134326497D01*
X39780528Y-134409670D01*
X39674670Y-134515528D01*
X39591497Y-134640005D01*
X39579768Y-134668321D01*
X38684882Y-133773435D01*
X38578196Y-133915953D01*
X38578191Y-133915961D01*
X38441091Y-134167041D01*
X38341109Y-134435104D01*
X38280300Y-134714637D01*
X38259891Y-134999998D01*
X38000000Y-134999998D01*
X38000000Y-131000000D01*
X37999999Y-130999999D01*
X34574991Y-129042852D01*
X34526551Y-128992500D01*
X34513022Y-128923953D01*
X34514199Y-128914806D01*
X34521916Y-128868503D01*
X34552352Y-128805615D01*
X34611959Y-128769162D01*
X34681811Y-128770723D01*
X34719071Y-128793396D01*
X34720374Y-128791632D01*
X34727849Y-128797148D01*
X34727850Y-128797150D01*
X34837118Y-128877793D01*
X34879845Y-128892744D01*
X34965299Y-128922646D01*
X34995730Y-128925500D01*
X34995734Y-128925500D01*
X35779270Y-128925500D01*
X35809699Y-128922646D01*
X35809701Y-128922646D01*
X35873790Y-128900219D01*
X35937882Y-128877793D01*
X36047150Y-128797150D01*
X36127793Y-128687882D01*
X36159540Y-128597155D01*
X36172646Y-128559701D01*
X36172646Y-128559699D01*
X36175500Y-128529269D01*
X36175500Y-127470730D01*
X36172646Y-127440300D01*
X36172646Y-127440298D01*
X36127793Y-127312119D01*
X36127792Y-127312117D01*
X36123235Y-127305942D01*
X36047150Y-127202850D01*
X35937882Y-127122207D01*
X35937880Y-127122206D01*
X35809700Y-127077353D01*
X35779270Y-127074500D01*
X35779266Y-127074500D01*
X34995734Y-127074500D01*
X34993777Y-127074683D01*
X34978505Y-127076115D01*
X34909921Y-127062773D01*
X34859438Y-127014469D01*
X34843084Y-126946541D01*
X34844616Y-126932298D01*
X35000000Y-126000000D01*
X35000000Y-123624000D01*
X35019685Y-123556961D01*
X35072489Y-123511206D01*
X35124000Y-123500000D01*
X38458265Y-123500000D01*
X38525304Y-123519685D01*
G37*
%TD.AperFunction*%
%TD*%
%TA.AperFunction,Conductor*%
%TO.N,Net-(J3-Pin_3)*%
G36*
X46025304Y-123519685D02*
G01*
X46071059Y-123572489D01*
X46081003Y-123641647D01*
X46079882Y-123648191D01*
X46074500Y-123675247D01*
X46074500Y-125024752D01*
X46086131Y-125083229D01*
X46086132Y-125083230D01*
X46130447Y-125149552D01*
X46196769Y-125193867D01*
X46196770Y-125193868D01*
X46255247Y-125205499D01*
X46255250Y-125205500D01*
X46255252Y-125205500D01*
X46744750Y-125205500D01*
X46744751Y-125205499D01*
X46759568Y-125202552D01*
X46803229Y-125193868D01*
X46803229Y-125193867D01*
X46803231Y-125193867D01*
X46869552Y-125149552D01*
X46913867Y-125083231D01*
X46913867Y-125083229D01*
X46913868Y-125083229D01*
X46925499Y-125024752D01*
X46925500Y-125024750D01*
X46925500Y-123675249D01*
X46925499Y-123675247D01*
X46920118Y-123648191D01*
X46926345Y-123578599D01*
X46969208Y-123523422D01*
X47035098Y-123500178D01*
X47041735Y-123500000D01*
X50170500Y-123500000D01*
X50237539Y-123519685D01*
X50283294Y-123572489D01*
X50294500Y-123624000D01*
X50294500Y-126950500D01*
X50274815Y-127017539D01*
X50222011Y-127063294D01*
X50170500Y-127074500D01*
X49995730Y-127074500D01*
X49965300Y-127077353D01*
X49965298Y-127077353D01*
X49837119Y-127122206D01*
X49837117Y-127122207D01*
X49727850Y-127202850D01*
X49647207Y-127312117D01*
X49647206Y-127312119D01*
X49602353Y-127440298D01*
X49602353Y-127440300D01*
X49599500Y-127470730D01*
X49599500Y-128529269D01*
X49602353Y-128559699D01*
X49602353Y-128559701D01*
X49647206Y-128687880D01*
X49647207Y-128687882D01*
X49727850Y-128797150D01*
X49837118Y-128877793D01*
X49879845Y-128892744D01*
X49965299Y-128922646D01*
X49995730Y-128925500D01*
X49995734Y-128925500D01*
X50170500Y-128925500D01*
X50237539Y-128945185D01*
X50283294Y-128997989D01*
X50294500Y-129049500D01*
X50294500Y-129863517D01*
X50274815Y-129930556D01*
X50258181Y-129951198D01*
X47891014Y-132318365D01*
X47891012Y-132318366D01*
X47876325Y-132334716D01*
X47876313Y-132334730D01*
X47859672Y-132355379D01*
X47822509Y-132426424D01*
X47802826Y-132493456D01*
X47794500Y-132551365D01*
X47794500Y-137376000D01*
X47774815Y-137443039D01*
X47722011Y-137488794D01*
X47670500Y-137500000D01*
X43115459Y-137500000D01*
X43048420Y-137480315D01*
X43002665Y-137427511D01*
X42991774Y-137384835D01*
X42821428Y-134999998D01*
X43339891Y-134999998D01*
X43339891Y-135000001D01*
X43360300Y-135285362D01*
X43421109Y-135564895D01*
X43521091Y-135832958D01*
X43658191Y-136084038D01*
X43658196Y-136084046D01*
X43764882Y-136226562D01*
X43764883Y-136226563D01*
X44659768Y-135331678D01*
X44671497Y-135359995D01*
X44754670Y-135484472D01*
X44860528Y-135590330D01*
X44985005Y-135673503D01*
X45013320Y-135685231D01*
X44118435Y-136580115D01*
X44118436Y-136580116D01*
X44260953Y-136686803D01*
X44260961Y-136686808D01*
X44512042Y-136823908D01*
X44512041Y-136823908D01*
X44780104Y-136923890D01*
X45059637Y-136984699D01*
X45344999Y-137005109D01*
X45345001Y-137005109D01*
X45630362Y-136984699D01*
X45909895Y-136923890D01*
X46177958Y-136823908D01*
X46429038Y-136686808D01*
X46429039Y-136686807D01*
X46571563Y-136580115D01*
X45676679Y-135685231D01*
X45704995Y-135673503D01*
X45829472Y-135590330D01*
X45935330Y-135484472D01*
X46018503Y-135359995D01*
X46030231Y-135331679D01*
X46925115Y-136226563D01*
X47031807Y-136084039D01*
X47031808Y-136084038D01*
X47168908Y-135832958D01*
X47268890Y-135564895D01*
X47329699Y-135285362D01*
X47350109Y-135000001D01*
X47350109Y-134999998D01*
X47329699Y-134714637D01*
X47268890Y-134435104D01*
X47168908Y-134167041D01*
X47031808Y-133915961D01*
X47031803Y-133915953D01*
X46925116Y-133773436D01*
X46925115Y-133773435D01*
X46030231Y-134668320D01*
X46018503Y-134640005D01*
X45935330Y-134515528D01*
X45829472Y-134409670D01*
X45704995Y-134326497D01*
X45676678Y-134314767D01*
X46571563Y-133419883D01*
X46571562Y-133419882D01*
X46429046Y-133313196D01*
X46429038Y-133313191D01*
X46177957Y-133176091D01*
X46177958Y-133176091D01*
X45909895Y-133076109D01*
X45630362Y-133015300D01*
X45345001Y-132994891D01*
X45344999Y-132994891D01*
X45059637Y-133015300D01*
X44780104Y-133076109D01*
X44512041Y-133176091D01*
X44260961Y-133313191D01*
X44260953Y-133313196D01*
X44118435Y-133419882D01*
X45013321Y-134314767D01*
X44985005Y-134326497D01*
X44860528Y-134409670D01*
X44754670Y-134515528D01*
X44671497Y-134640005D01*
X44659768Y-134668321D01*
X43764882Y-133773435D01*
X43658196Y-133915953D01*
X43658191Y-133915961D01*
X43521091Y-134167041D01*
X43421109Y-134435104D01*
X43360300Y-134714637D01*
X43339891Y-134999998D01*
X42821428Y-134999998D01*
X42500315Y-130504410D01*
X42500000Y-130495575D01*
X42500000Y-128865255D01*
X42519685Y-128798216D01*
X42572489Y-128752461D01*
X42641647Y-128742517D01*
X42705203Y-128771542D01*
X42723766Y-128791617D01*
X42727850Y-128797150D01*
X42837118Y-128877793D01*
X42879845Y-128892744D01*
X42965299Y-128922646D01*
X42995730Y-128925500D01*
X42995734Y-128925500D01*
X43779270Y-128925500D01*
X43809699Y-128922646D01*
X43809701Y-128922646D01*
X43873790Y-128900219D01*
X43937882Y-128877793D01*
X44047150Y-128797150D01*
X44127793Y-128687882D01*
X44150219Y-128623790D01*
X44172646Y-128559701D01*
X44172646Y-128559699D01*
X44175500Y-128529269D01*
X44175500Y-127470730D01*
X44172646Y-127440300D01*
X44172646Y-127440298D01*
X44127793Y-127312119D01*
X44127792Y-127312117D01*
X44123235Y-127305942D01*
X44047150Y-127202850D01*
X43937882Y-127122207D01*
X43937880Y-127122206D01*
X43809700Y-127077353D01*
X43779270Y-127074500D01*
X43779266Y-127074500D01*
X42995734Y-127074500D01*
X42995730Y-127074500D01*
X42965300Y-127077353D01*
X42965298Y-127077353D01*
X42837119Y-127122206D01*
X42837117Y-127122207D01*
X42727849Y-127202850D01*
X42723768Y-127208381D01*
X42668119Y-127250630D01*
X42598463Y-127256086D01*
X42536914Y-127223017D01*
X42503015Y-127161922D01*
X42500000Y-127134744D01*
X42500000Y-123624000D01*
X42519685Y-123556961D01*
X42572489Y-123511206D01*
X42624000Y-123500000D01*
X45958265Y-123500000D01*
X46025304Y-123519685D01*
G37*
%TD.AperFunction*%
%TD*%
M02*
