%TF.GenerationSoftware,KiCad,Pcbnew,8.0.7-8.0.7-0~ubuntu22.04.1*%
%TF.CreationDate,2024-12-30T17:04:22+01:00*%
%TF.ProjectId,electronics,656c6563-7472-46f6-9e69-63732e6b6963,rev?*%
%TF.SameCoordinates,Original*%
%TF.FileFunction,Copper,L1,Top*%
%TF.FilePolarity,Positive*%
%FSLAX46Y46*%
G04 Gerber Fmt 4.6, Leading zero omitted, Abs format (unit mm)*
G04 Created by KiCad (PCBNEW 8.0.7-8.0.7-0~ubuntu22.04.1) date 2024-12-30 17:04:22*
%MOMM*%
%LPD*%
G01*
G04 APERTURE LIST*
%TA.AperFunction,EtchedComponent*%
%ADD10C,0.254000*%
%TD*%
%TA.AperFunction,ComponentPad*%
%ADD11C,3.600000*%
%TD*%
%TA.AperFunction,ConnectorPad*%
%ADD12C,5.700000*%
%TD*%
%TA.AperFunction,ComponentPad*%
%ADD13R,2.000000X2.000000*%
%TD*%
%TA.AperFunction,ComponentPad*%
%ADD14C,2.000000*%
%TD*%
%TA.AperFunction,ComponentPad*%
%ADD15C,3.500000*%
%TD*%
%TA.AperFunction,ComponentPad*%
%ADD16R,2.800000X2.800000*%
%TD*%
%TA.AperFunction,ComponentPad*%
%ADD17C,2.800000*%
%TD*%
%TA.AperFunction,SMDPad,CuDef*%
%ADD18R,5.200000X8.750000*%
%TD*%
%TA.AperFunction,SMDPad,CuDef*%
%ADD19C,1.000000*%
%TD*%
%TA.AperFunction,SMDPad,CuDef*%
%ADD20R,50.000000X16.000000*%
%TD*%
%TA.AperFunction,SMDPad,CuDef*%
%ADD21R,8.750000X5.200000*%
%TD*%
%TA.AperFunction,ComponentPad*%
%ADD22C,3.000000*%
%TD*%
%TA.AperFunction,ComponentPad*%
%ADD23R,3.000000X3.000000*%
%TD*%
%TA.AperFunction,HeatsinkPad*%
%ADD24R,15.000000X15.000000*%
%TD*%
%TA.AperFunction,ComponentPad*%
%ADD25R,0.850000X0.850000*%
%TD*%
%TA.AperFunction,ComponentPad*%
%ADD26O,0.850000X0.850000*%
%TD*%
%TA.AperFunction,ViaPad*%
%ADD27C,0.600000*%
%TD*%
%TA.AperFunction,ViaPad*%
%ADD28C,0.400000*%
%TD*%
%TA.AperFunction,ViaPad*%
%ADD29C,0.750000*%
%TD*%
%TA.AperFunction,Conductor*%
%ADD30C,0.200000*%
%TD*%
G04 APERTURE END LIST*
D10*
%TO.C,R6*%
X69500000Y-66500000D02*
X66000000Y-66500000D01*
X72500000Y-66500000D02*
X76000000Y-66500000D01*
%TO.C,R5*%
X43500000Y-49000000D02*
X43500000Y-45500000D01*
X43500000Y-52000000D02*
X43500000Y-55500000D01*
%TO.C,R8*%
X55000000Y-49000000D02*
X55000000Y-45500000D01*
X55000000Y-52000000D02*
X55000000Y-55500000D01*
%TD*%
D11*
%TO.P,MH1,1,1*%
%TO.N,GND*%
X25000000Y-25000000D03*
D12*
X25000000Y-25000000D03*
%TD*%
D11*
%TO.P,MH4,1,1*%
%TO.N,GND*%
X25000000Y-135000000D03*
D12*
X25000000Y-135000000D03*
%TD*%
D13*
%TO.P,J9,1,Pin_1*%
%TO.N,Net-(J11-COM)*%
X153800000Y-32500000D03*
D14*
%TO.P,J9,2,Pin_2*%
%TO.N,Net-(J11-lvl_1)*%
X156340000Y-32500000D03*
%TO.P,J9,3,Pin_3*%
%TO.N,Net-(J11-lvl_2)*%
X158880000Y-32500000D03*
%TO.P,J9,4,Pin_4*%
%TO.N,Net-(J11-lvl_3)*%
X161420000Y-32500000D03*
%TO.P,J9,5,Pin_5*%
%TO.N,Net-(J11-lvl_4)*%
X163960000Y-32500000D03*
%TO.P,J9,6,Pin_6*%
%TO.N,Net-(J11-lvl_5)*%
X166500000Y-32500000D03*
%TD*%
D11*
%TO.P,MH3,1,1*%
%TO.N,GND*%
X135000000Y-135000000D03*
D12*
X135000000Y-135000000D03*
%TD*%
D15*
%TO.P,U12,1,pin_1*%
%TO.N,Net-(J7-Pin_1)*%
X155750000Y-68750000D03*
%TO.P,U12,2,pin_2*%
%TO.N,Net-(J7-Pin_2)*%
X165750000Y-68750000D03*
%TD*%
D16*
%TO.P,J7,1,Pin_1*%
%TO.N,Net-(J7-Pin_1)*%
X158205000Y-59500000D03*
D17*
%TO.P,J7,2,Pin_2*%
%TO.N,Net-(J7-Pin_2)*%
X163285000Y-59500000D03*
%TD*%
D18*
%TO.P,R6,1,1*%
%TO.N,Net-(F1-Pad1)*%
X78500000Y-66500000D03*
D19*
%TO.P,R6,2,2*%
%TO.N,/high_power/RSH6_HI*%
X72500000Y-66500000D03*
%TO.P,R6,3,3*%
%TO.N,/high_power/RSH6_LO*%
X69500000Y-66500000D03*
D18*
%TO.P,R6,4,4*%
%TO.N,/central_control_unit/V_Bat*%
X63500000Y-66500000D03*
%TD*%
D20*
%TO.P,J5,1,1*%
%TO.N,/central_control_unit/V_Bat*%
X45000000Y-80500000D03*
%TD*%
D15*
%TO.P,F4,1*%
%TO.N,Net-(F1-Pad1)*%
X99500000Y-56200000D03*
X99500000Y-51200000D03*
%TO.P,F4,2*%
%TO.N,Net-(J4-Pin_1)*%
X99500000Y-47000000D03*
X99500000Y-42000000D03*
%TD*%
D21*
%TO.P,R5,1,1*%
%TO.N,Net-(Battery1-Pad1)*%
X43500000Y-43000000D03*
D19*
%TO.P,R5,2,2*%
%TO.N,/high_power/RSH5_HI*%
X43500000Y-49000000D03*
%TO.P,R5,3,3*%
%TO.N,/high_power/RSH5_LO*%
X43500000Y-52000000D03*
D21*
%TO.P,R5,4,4*%
%TO.N,/central_control_unit/V_Bat*%
X43500000Y-58000000D03*
%TD*%
D15*
%TO.P,J11,1,COM*%
%TO.N,Net-(J11-COM)*%
X155000000Y-41000000D03*
%TO.P,J11,2,lvl_1*%
%TO.N,Net-(J11-lvl_1)*%
X160000000Y-41000000D03*
%TO.P,J11,3,lvl_2*%
%TO.N,Net-(J11-lvl_2)*%
X165000000Y-41000000D03*
%TO.P,J11,4,lvl_3*%
%TO.N,Net-(J11-lvl_3)*%
X155000000Y-46000000D03*
%TO.P,J11,5,lvl_4*%
%TO.N,Net-(J11-lvl_4)*%
X160000000Y-46000000D03*
%TO.P,J11,6,lvl_5*%
%TO.N,Net-(J11-lvl_5)*%
X165000000Y-46000000D03*
%TD*%
D22*
%TO.P,J4,1,Pin_1*%
%TO.N,Net-(J4-Pin_1)*%
X99660000Y-33080000D03*
X99660000Y-22920000D03*
%TO.P,J4,2,Pin_2*%
%TO.N,Net-(J4-Pin_2)*%
X89500000Y-33080000D03*
X89500000Y-22920000D03*
%TO.P,J4,3,Pin_3*%
%TO.N,Net-(J4-Pin_3)*%
X79340000Y-33080000D03*
X79340000Y-22920000D03*
%TD*%
D23*
%TO.P,J3,1,Pin_1*%
%TO.N,Net-(J3-Pin_1)*%
X35185000Y-135000000D03*
D22*
%TO.P,J3,2,Pin_2*%
%TO.N,Net-(J3-Pin_2)*%
X40265000Y-135000000D03*
%TO.P,J3,3,Pin_3*%
%TO.N,Net-(J3-Pin_3)*%
X45345000Y-135000000D03*
%TO.P,J3,4,Pin_4*%
%TO.N,Net-(J3-Pin_4)*%
X50425000Y-135000000D03*
%TO.P,J3,5,Pin_5*%
%TO.N,Net-(J3-Pin_5)*%
X55505000Y-135000000D03*
%TD*%
D21*
%TO.P,R8,1,1*%
%TO.N,Net-(Inverter1-Pad1)*%
X55000000Y-43000000D03*
D19*
%TO.P,R8,2,2*%
%TO.N,/high_power/RSH8_HI*%
X55000000Y-49000000D03*
%TO.P,R8,3,3*%
%TO.N,/high_power/RSH8_LO*%
X55000000Y-52000000D03*
D21*
%TO.P,R8,4,4*%
%TO.N,/central_control_unit/V_Bat*%
X55000000Y-58000000D03*
%TD*%
D13*
%TO.P,J2,1,Pin_1*%
%TO.N,/central_control_unit/CAN_H*%
X98405000Y-133975000D03*
D14*
%TO.P,J2,2,Pin_2*%
%TO.N,/central_control_unit/CAN_L*%
X100945000Y-133975000D03*
%TD*%
D20*
%TO.P,J6,1,1*%
%TO.N,GND*%
X115000000Y-80500000D03*
%TD*%
D15*
%TO.P,F1,1*%
%TO.N,Net-(F1-Pad1)*%
X89500000Y-56200000D03*
X89500000Y-51200000D03*
%TO.P,F1,2*%
%TO.N,Net-(J4-Pin_2)*%
X89500000Y-47000000D03*
X89500000Y-42000000D03*
%TD*%
D24*
%TO.P,Battery1,1,1*%
%TO.N,Net-(Battery1-Pad1)*%
X41500000Y-27500000D03*
%TD*%
%TO.P,Inverter1,1,1*%
%TO.N,Net-(Inverter1-Pad1)*%
X61500000Y-27500000D03*
%TD*%
D15*
%TO.P,F2,1*%
%TO.N,Net-(F1-Pad1)*%
X79500000Y-56200000D03*
X79500000Y-51200000D03*
%TO.P,F2,2*%
%TO.N,Net-(J4-Pin_3)*%
X79500000Y-47000000D03*
X79500000Y-42000000D03*
%TD*%
D11*
%TO.P,MH2,1,1*%
%TO.N,GND*%
X135000000Y-25000000D03*
D12*
X135000000Y-25000000D03*
%TD*%
D25*
%TO.P,J1,1,Pin_1*%
%TO.N,/central_control_unit/HP_GND*%
X109004000Y-116265000D03*
D26*
%TO.P,J1,2,Pin_2*%
%TO.N,GND*%
X109004000Y-117265000D03*
%TD*%
D27*
%TO.N,GND*%
X67500000Y-47500000D03*
X71000000Y-49500000D03*
D28*
%TO.N,Net-(U6-DEN)*%
X43500000Y-112500000D03*
X31000000Y-116500000D03*
%TO.N,Net-(U7-DEN)*%
X39000000Y-116500000D03*
X47500000Y-112500000D03*
%TO.N,Net-(U8-DEN)*%
X51500000Y-112500000D03*
X46000000Y-117000000D03*
%TO.N,Net-(U9-DEN)*%
X53000000Y-117000000D03*
X55500000Y-112500000D03*
%TO.N,Net-(U10-DEN)*%
X61000000Y-116700000D03*
X59500000Y-112500000D03*
%TO.N,Net-(U6-IN)*%
X30000000Y-116500000D03*
X41500000Y-112500000D03*
%TO.N,Net-(U7-IN)*%
X45500000Y-112500000D03*
X38000000Y-116500000D03*
%TO.N,/central_control_unit/HP_GND*%
X29000000Y-117000000D03*
X44000000Y-117500000D03*
X51000000Y-117000000D03*
X59000000Y-117500000D03*
X36500000Y-117000000D03*
%TO.N,Net-(U8-IN)*%
X45000000Y-117000000D03*
X49500000Y-112500000D03*
%TO.N,Net-(U9-IN)*%
X52000000Y-117000000D03*
X53500000Y-112500000D03*
%TO.N,Net-(U10-IN)*%
X57500000Y-112500000D03*
X60000000Y-117500000D03*
D27*
%TO.N,/high_power/RSH5_HI*%
X43500000Y-49000000D03*
%TO.N,/high_power/RSH5_LO*%
X43500000Y-52000000D03*
%TO.N,/high_power/RSH6_HI*%
X72500000Y-66500000D03*
%TO.N,/high_power/RSH6_LO*%
X69500000Y-66500000D03*
%TO.N,/high_power/RSH8_LO*%
X55000000Y-52000000D03*
%TO.N,/high_power/RSH8_HI*%
X55000000Y-49000000D03*
D29*
%TO.N,/central_control_unit/V_Bat*%
X50500000Y-120500000D03*
X23000000Y-121500000D03*
X24000000Y-120500000D03*
X21000000Y-120500000D03*
X22000000Y-121500000D03*
X43000000Y-121500000D03*
X24000000Y-121500000D03*
X28000000Y-121500000D03*
X22000000Y-120500000D03*
X43000000Y-120500000D03*
X28000000Y-120500000D03*
X25000000Y-121500000D03*
X21000000Y-122500000D03*
X58000000Y-121500000D03*
X50500000Y-122500000D03*
X25000000Y-122500000D03*
X23000000Y-120500000D03*
X26000000Y-122500000D03*
X50500000Y-121500000D03*
X26000000Y-120500000D03*
X26000000Y-121500000D03*
X22000000Y-122500000D03*
X35500000Y-122500000D03*
X43000000Y-122500000D03*
X23000000Y-122500000D03*
X35500000Y-121500000D03*
X58000000Y-120500000D03*
X25000000Y-120500000D03*
X35500000Y-120500000D03*
X58000000Y-122500000D03*
X24000000Y-122500000D03*
X28000000Y-122500000D03*
X21000000Y-121500000D03*
%TD*%
D30*
%TO.N,Net-(U6-DEN)*%
X42500000Y-113500000D02*
X43500000Y-112500000D01*
X31000000Y-116500000D02*
X34000000Y-113500000D01*
X34000000Y-113500000D02*
X42500000Y-113500000D01*
%TO.N,Net-(U7-DEN)*%
X47500000Y-112500000D02*
X46500000Y-112500000D01*
X44500000Y-114500000D02*
X39065686Y-114500000D01*
X46500000Y-112500000D02*
X44500000Y-114500000D01*
X39000000Y-114565686D02*
X39000000Y-116500000D01*
X39065686Y-114500000D02*
X39000000Y-114565686D01*
%TO.N,Net-(U8-DEN)*%
X51500000Y-112500000D02*
X50500000Y-113500000D01*
X46000000Y-114565686D02*
X46000000Y-117000000D01*
X47065686Y-113500000D02*
X46000000Y-114565686D01*
X50500000Y-113500000D02*
X47065686Y-113500000D01*
%TO.N,Net-(U9-DEN)*%
X55500000Y-112500000D02*
X55500000Y-113500000D01*
X53000000Y-114500000D02*
X53000000Y-117000000D01*
X55000000Y-114000000D02*
X53500000Y-114000000D01*
X53500000Y-114000000D02*
X53000000Y-114500000D01*
X55500000Y-113500000D02*
X55000000Y-114000000D01*
%TO.N,Net-(U10-DEN)*%
X59500000Y-113000000D02*
X59500000Y-112500000D01*
X61000000Y-116700000D02*
X61000000Y-114500000D01*
X61000000Y-114500000D02*
X59500000Y-113000000D01*
%TO.N,Net-(U6-IN)*%
X33500000Y-113000000D02*
X30000000Y-116500000D01*
X41000000Y-113000000D02*
X33500000Y-113000000D01*
X41500000Y-112500000D02*
X41000000Y-113000000D01*
%TO.N,Net-(U7-IN)*%
X44000000Y-114000000D02*
X45500000Y-112500000D01*
X38500000Y-114000000D02*
X44000000Y-114000000D01*
X38000000Y-114500000D02*
X38500000Y-114000000D01*
X38000000Y-116500000D02*
X38000000Y-114500000D01*
%TO.N,Net-(U8-IN)*%
X49000000Y-113000000D02*
X47000000Y-113000000D01*
X49500000Y-112500000D02*
X49000000Y-113000000D01*
X45000000Y-115000000D02*
X45000000Y-117000000D01*
X47000000Y-113000000D02*
X45000000Y-115000000D01*
%TO.N,Net-(U9-IN)*%
X53500000Y-112500000D02*
X53500000Y-113500000D01*
X53334314Y-113600000D02*
X52000000Y-114934314D01*
X53500000Y-113500000D02*
X53400000Y-113600000D01*
X53400000Y-113600000D02*
X53334314Y-113600000D01*
X52000000Y-114934314D02*
X52000000Y-117000000D01*
%TO.N,Net-(U10-IN)*%
X60000000Y-117500000D02*
X60000000Y-114500000D01*
X57500000Y-113000000D02*
X57500000Y-112500000D01*
X58000000Y-113500000D02*
X57500000Y-113000000D01*
X59000000Y-113500000D02*
X58000000Y-113500000D01*
X60000000Y-114500000D02*
X59000000Y-113500000D01*
%TD*%
%TA.AperFunction,Conductor*%
%TO.N,/central_control_unit/V_Bat*%
G36*
X42825481Y-55519685D02*
G01*
X42871236Y-55572489D01*
X42880059Y-55599808D01*
X42896613Y-55683029D01*
X42896616Y-55683039D01*
X42943913Y-55797226D01*
X42943920Y-55797239D01*
X43012588Y-55900007D01*
X43012591Y-55900011D01*
X43099988Y-55987408D01*
X43099992Y-55987411D01*
X43202760Y-56056079D01*
X43202773Y-56056086D01*
X43316960Y-56103383D01*
X43316965Y-56103385D01*
X43316969Y-56103385D01*
X43316970Y-56103386D01*
X43438194Y-56127500D01*
X43438197Y-56127500D01*
X43561805Y-56127500D01*
X43643361Y-56111276D01*
X43683035Y-56103385D01*
X43797233Y-56056083D01*
X43900008Y-55987411D01*
X43987411Y-55900008D01*
X44056083Y-55797233D01*
X44103385Y-55683035D01*
X44106586Y-55666941D01*
X44119941Y-55599808D01*
X44152326Y-55537897D01*
X44213042Y-55503323D01*
X44241558Y-55500000D01*
X54258442Y-55500000D01*
X54325481Y-55519685D01*
X54371236Y-55572489D01*
X54380059Y-55599808D01*
X54396613Y-55683029D01*
X54396616Y-55683039D01*
X54443913Y-55797226D01*
X54443920Y-55797239D01*
X54512588Y-55900007D01*
X54512591Y-55900011D01*
X54599988Y-55987408D01*
X54599992Y-55987411D01*
X54702760Y-56056079D01*
X54702773Y-56056086D01*
X54816960Y-56103383D01*
X54816965Y-56103385D01*
X54816969Y-56103385D01*
X54816970Y-56103386D01*
X54938194Y-56127500D01*
X54938197Y-56127500D01*
X55061805Y-56127500D01*
X55143361Y-56111276D01*
X55183035Y-56103385D01*
X55297233Y-56056083D01*
X55400008Y-55987411D01*
X55487411Y-55900008D01*
X55556083Y-55797233D01*
X55603385Y-55683035D01*
X55606586Y-55666941D01*
X55619941Y-55599808D01*
X55652326Y-55537897D01*
X55713042Y-55503323D01*
X55741558Y-55500000D01*
X60450590Y-55500000D01*
X60517629Y-55519685D01*
X60535869Y-55533981D01*
X69961281Y-64463318D01*
X69996410Y-64523713D01*
X70000000Y-64553335D01*
X70000000Y-65438959D01*
X69980315Y-65505998D01*
X69927511Y-65551753D01*
X69858353Y-65561697D01*
X69840012Y-65557621D01*
X69696132Y-65513976D01*
X69696129Y-65513975D01*
X69500000Y-65494659D01*
X69303870Y-65513975D01*
X69115266Y-65571188D01*
X68941467Y-65664086D01*
X68941460Y-65664090D01*
X68789116Y-65789116D01*
X68757891Y-65827165D01*
X68700145Y-65866499D01*
X68662038Y-65872500D01*
X65938195Y-65872500D01*
X65816970Y-65896613D01*
X65816960Y-65896616D01*
X65702773Y-65943913D01*
X65702760Y-65943920D01*
X65599992Y-66012588D01*
X65599988Y-66012591D01*
X65512591Y-66099988D01*
X65512588Y-66099992D01*
X65443920Y-66202760D01*
X65443913Y-66202773D01*
X65396616Y-66316960D01*
X65396613Y-66316970D01*
X65372500Y-66438194D01*
X65372500Y-66438197D01*
X65372500Y-66561803D01*
X65372500Y-66561805D01*
X65372499Y-66561805D01*
X65396613Y-66683029D01*
X65396616Y-66683039D01*
X65443913Y-66797226D01*
X65443920Y-66797239D01*
X65512588Y-66900007D01*
X65512591Y-66900011D01*
X65599988Y-66987408D01*
X65599992Y-66987411D01*
X65702760Y-67056079D01*
X65702773Y-67056086D01*
X65816960Y-67103383D01*
X65816965Y-67103385D01*
X65816969Y-67103385D01*
X65816970Y-67103386D01*
X65938194Y-67127500D01*
X65938197Y-67127500D01*
X68662038Y-67127500D01*
X68729077Y-67147185D01*
X68757891Y-67172835D01*
X68789116Y-67210883D01*
X68941460Y-67335909D01*
X68941467Y-67335913D01*
X69115266Y-67428811D01*
X69115269Y-67428811D01*
X69115273Y-67428814D01*
X69303868Y-67486024D01*
X69500000Y-67505341D01*
X69696132Y-67486024D01*
X69840006Y-67442379D01*
X69909871Y-67441756D01*
X69968984Y-67479003D01*
X69998575Y-67542297D01*
X70000000Y-67561040D01*
X70000000Y-88376000D01*
X69980315Y-88443039D01*
X69927511Y-88488794D01*
X69876000Y-88500000D01*
X31124000Y-88500000D01*
X31056961Y-88480315D01*
X31011206Y-88427511D01*
X31000000Y-88376000D01*
X31000000Y-84207880D01*
X31019685Y-84140841D01*
X31072489Y-84095086D01*
X31087996Y-84089222D01*
X31265029Y-84035520D01*
X31605479Y-83894501D01*
X31930468Y-83720791D01*
X32236865Y-83516063D01*
X32521719Y-83282289D01*
X32782289Y-83021719D01*
X33016063Y-82736865D01*
X33220791Y-82430468D01*
X33394501Y-82105479D01*
X33535520Y-81765029D01*
X33642490Y-81412396D01*
X33642492Y-81412386D01*
X33642495Y-81412375D01*
X33714381Y-81050975D01*
X33750500Y-80684246D01*
X33750500Y-80315753D01*
X41249500Y-80315753D01*
X41249500Y-80684246D01*
X41285618Y-81050975D01*
X41357504Y-81412375D01*
X41357507Y-81412386D01*
X41464480Y-81765030D01*
X41605500Y-82105481D01*
X41605502Y-82105486D01*
X41779202Y-82430456D01*
X41779213Y-82430474D01*
X41983931Y-82736856D01*
X41983941Y-82736870D01*
X42217715Y-83021724D01*
X42478275Y-83282284D01*
X42478280Y-83282288D01*
X42478281Y-83282289D01*
X42763135Y-83516063D01*
X43069532Y-83720791D01*
X43069541Y-83720796D01*
X43069543Y-83720797D01*
X43394513Y-83894497D01*
X43394515Y-83894497D01*
X43394521Y-83894501D01*
X43734971Y-84035520D01*
X44087604Y-84142490D01*
X44087610Y-84142491D01*
X44087613Y-84142492D01*
X44087624Y-84142495D01*
X44416341Y-84207880D01*
X44449024Y-84214381D01*
X44815750Y-84250500D01*
X44815753Y-84250500D01*
X45184247Y-84250500D01*
X45184250Y-84250500D01*
X45550976Y-84214381D01*
X45621331Y-84200386D01*
X45912375Y-84142495D01*
X45912386Y-84142492D01*
X45912386Y-84142491D01*
X45912396Y-84142490D01*
X46265029Y-84035520D01*
X46605479Y-83894501D01*
X46930468Y-83720791D01*
X47236865Y-83516063D01*
X47521719Y-83282289D01*
X47782289Y-83021719D01*
X48016063Y-82736865D01*
X48220791Y-82430468D01*
X48394501Y-82105479D01*
X48535520Y-81765029D01*
X48642490Y-81412396D01*
X48642492Y-81412386D01*
X48642495Y-81412375D01*
X48714381Y-81050975D01*
X48750500Y-80684246D01*
X48750500Y-80315753D01*
X56249500Y-80315753D01*
X56249500Y-80684246D01*
X56285618Y-81050975D01*
X56357504Y-81412375D01*
X56357507Y-81412386D01*
X56464480Y-81765030D01*
X56605500Y-82105481D01*
X56605502Y-82105486D01*
X56779202Y-82430456D01*
X56779213Y-82430474D01*
X56983931Y-82736856D01*
X56983941Y-82736870D01*
X57217715Y-83021724D01*
X57478275Y-83282284D01*
X57478280Y-83282288D01*
X57478281Y-83282289D01*
X57763135Y-83516063D01*
X58069532Y-83720791D01*
X58069541Y-83720796D01*
X58069543Y-83720797D01*
X58394513Y-83894497D01*
X58394515Y-83894497D01*
X58394521Y-83894501D01*
X58734971Y-84035520D01*
X59087604Y-84142490D01*
X59087610Y-84142491D01*
X59087613Y-84142492D01*
X59087624Y-84142495D01*
X59416341Y-84207880D01*
X59449024Y-84214381D01*
X59815750Y-84250500D01*
X59815753Y-84250500D01*
X60184247Y-84250500D01*
X60184250Y-84250500D01*
X60550976Y-84214381D01*
X60621331Y-84200386D01*
X60912375Y-84142495D01*
X60912386Y-84142492D01*
X60912386Y-84142491D01*
X60912396Y-84142490D01*
X61265029Y-84035520D01*
X61605479Y-83894501D01*
X61930468Y-83720791D01*
X62236865Y-83516063D01*
X62521719Y-83282289D01*
X62782289Y-83021719D01*
X63016063Y-82736865D01*
X63220791Y-82430468D01*
X63394501Y-82105479D01*
X63535520Y-81765029D01*
X63642490Y-81412396D01*
X63642492Y-81412386D01*
X63642495Y-81412375D01*
X63714381Y-81050975D01*
X63750500Y-80684246D01*
X63750500Y-80315753D01*
X63714381Y-79949024D01*
X63642495Y-79587624D01*
X63642492Y-79587613D01*
X63642491Y-79587610D01*
X63642490Y-79587604D01*
X63535520Y-79234971D01*
X63394501Y-78894521D01*
X63220791Y-78569532D01*
X63016063Y-78263135D01*
X62782289Y-77978281D01*
X62782288Y-77978280D01*
X62782284Y-77978275D01*
X62521724Y-77717715D01*
X62236870Y-77483941D01*
X62236869Y-77483940D01*
X62236865Y-77483937D01*
X61930468Y-77279209D01*
X61930463Y-77279206D01*
X61930456Y-77279202D01*
X61605486Y-77105502D01*
X61605481Y-77105500D01*
X61265030Y-76964480D01*
X60912386Y-76857507D01*
X60912375Y-76857504D01*
X60550975Y-76785618D01*
X60274772Y-76758415D01*
X60184250Y-76749500D01*
X59815750Y-76749500D01*
X59732109Y-76757737D01*
X59449024Y-76785618D01*
X59087624Y-76857504D01*
X59087613Y-76857507D01*
X58734969Y-76964480D01*
X58394518Y-77105500D01*
X58394513Y-77105502D01*
X58069543Y-77279202D01*
X58069525Y-77279213D01*
X57763143Y-77483931D01*
X57763129Y-77483941D01*
X57478275Y-77717715D01*
X57217715Y-77978275D01*
X56983941Y-78263129D01*
X56983931Y-78263143D01*
X56779213Y-78569525D01*
X56779202Y-78569543D01*
X56605502Y-78894513D01*
X56605500Y-78894518D01*
X56464480Y-79234969D01*
X56357507Y-79587613D01*
X56357504Y-79587624D01*
X56285618Y-79949024D01*
X56249500Y-80315753D01*
X48750500Y-80315753D01*
X48714381Y-79949024D01*
X48642495Y-79587624D01*
X48642492Y-79587613D01*
X48642491Y-79587610D01*
X48642490Y-79587604D01*
X48535520Y-79234971D01*
X48394501Y-78894521D01*
X48220791Y-78569532D01*
X48016063Y-78263135D01*
X47782289Y-77978281D01*
X47782288Y-77978280D01*
X47782284Y-77978275D01*
X47521724Y-77717715D01*
X47236870Y-77483941D01*
X47236869Y-77483940D01*
X47236865Y-77483937D01*
X46930468Y-77279209D01*
X46930463Y-77279206D01*
X46930456Y-77279202D01*
X46605486Y-77105502D01*
X46605481Y-77105500D01*
X46265030Y-76964480D01*
X45912386Y-76857507D01*
X45912375Y-76857504D01*
X45550975Y-76785618D01*
X45274772Y-76758415D01*
X45184250Y-76749500D01*
X44815750Y-76749500D01*
X44732109Y-76757737D01*
X44449024Y-76785618D01*
X44087624Y-76857504D01*
X44087613Y-76857507D01*
X43734969Y-76964480D01*
X43394518Y-77105500D01*
X43394513Y-77105502D01*
X43069543Y-77279202D01*
X43069525Y-77279213D01*
X42763143Y-77483931D01*
X42763129Y-77483941D01*
X42478275Y-77717715D01*
X42217715Y-77978275D01*
X41983941Y-78263129D01*
X41983931Y-78263143D01*
X41779213Y-78569525D01*
X41779202Y-78569543D01*
X41605502Y-78894513D01*
X41605500Y-78894518D01*
X41464480Y-79234969D01*
X41357507Y-79587613D01*
X41357504Y-79587624D01*
X41285618Y-79949024D01*
X41249500Y-80315753D01*
X33750500Y-80315753D01*
X33714381Y-79949024D01*
X33642495Y-79587624D01*
X33642492Y-79587613D01*
X33642491Y-79587610D01*
X33642490Y-79587604D01*
X33535520Y-79234971D01*
X33394501Y-78894521D01*
X33220791Y-78569532D01*
X33016063Y-78263135D01*
X32782289Y-77978281D01*
X32782288Y-77978280D01*
X32782284Y-77978275D01*
X32521724Y-77717715D01*
X32236870Y-77483941D01*
X32236869Y-77483940D01*
X32236865Y-77483937D01*
X31930468Y-77279209D01*
X31930463Y-77279206D01*
X31930456Y-77279202D01*
X31605486Y-77105502D01*
X31605481Y-77105500D01*
X31265024Y-76964478D01*
X31088004Y-76910779D01*
X31029566Y-76872482D01*
X31001109Y-76808669D01*
X31000000Y-76792119D01*
X31000000Y-55624000D01*
X31019685Y-55556961D01*
X31072489Y-55511206D01*
X31124000Y-55500000D01*
X42758442Y-55500000D01*
X42825481Y-55519685D01*
G37*
%TD.AperFunction*%
%TD*%
%TA.AperFunction,Conductor*%
%TO.N,Net-(J4-Pin_2)*%
G36*
X94937539Y-20520185D02*
G01*
X94983294Y-20572989D01*
X94994500Y-20624500D01*
X94994500Y-48876000D01*
X94974815Y-48943039D01*
X94922011Y-48988794D01*
X94870500Y-49000000D01*
X90961370Y-49000000D01*
X90894331Y-48980315D01*
X90848576Y-48927511D01*
X90838632Y-48858353D01*
X90867657Y-48794797D01*
X90879611Y-48782772D01*
X90906039Y-48759594D01*
X90906039Y-48759593D01*
X90261717Y-48115271D01*
X90379466Y-48029722D01*
X90529722Y-47879466D01*
X90615271Y-47761717D01*
X91259593Y-48406039D01*
X91288877Y-48372648D01*
X91452734Y-48127419D01*
X91452741Y-48127406D01*
X91583187Y-47862888D01*
X91677994Y-47583599D01*
X91677998Y-47583584D01*
X91735535Y-47294324D01*
X91735537Y-47294312D01*
X91754827Y-47000000D01*
X91735537Y-46705687D01*
X91735535Y-46705675D01*
X91677998Y-46416415D01*
X91677994Y-46416400D01*
X91583187Y-46137111D01*
X91452741Y-45872593D01*
X91452734Y-45872580D01*
X91288876Y-45627350D01*
X91259593Y-45593958D01*
X90615270Y-46238281D01*
X90529722Y-46120534D01*
X90379466Y-45970278D01*
X90261717Y-45884728D01*
X90906040Y-45240405D01*
X90872649Y-45211123D01*
X90627419Y-45047265D01*
X90627406Y-45047258D01*
X90362888Y-44916812D01*
X90083599Y-44822005D01*
X90083584Y-44822001D01*
X89794324Y-44764464D01*
X89794312Y-44764462D01*
X89500000Y-44745172D01*
X89205687Y-44764462D01*
X89205675Y-44764464D01*
X88916415Y-44822001D01*
X88916400Y-44822005D01*
X88637111Y-44916812D01*
X88372593Y-45047258D01*
X88372580Y-45047265D01*
X88127346Y-45211126D01*
X88127339Y-45211131D01*
X88093959Y-45240403D01*
X88093959Y-45240405D01*
X88738282Y-45884728D01*
X88620534Y-45970278D01*
X88470278Y-46120534D01*
X88384728Y-46238282D01*
X87740405Y-45593959D01*
X87740403Y-45593959D01*
X87711131Y-45627339D01*
X87711126Y-45627346D01*
X87547265Y-45872580D01*
X87547258Y-45872593D01*
X87416812Y-46137111D01*
X87322005Y-46416400D01*
X87322001Y-46416415D01*
X87264464Y-46705675D01*
X87264462Y-46705687D01*
X87245172Y-47000000D01*
X87264462Y-47294312D01*
X87264464Y-47294324D01*
X87322001Y-47583584D01*
X87322005Y-47583599D01*
X87416812Y-47862888D01*
X87547258Y-48127406D01*
X87547265Y-48127419D01*
X87711123Y-48372649D01*
X87740405Y-48406040D01*
X88384728Y-47761716D01*
X88470278Y-47879466D01*
X88620534Y-48029722D01*
X88738281Y-48115270D01*
X88093958Y-48759593D01*
X88120388Y-48782771D01*
X88157812Y-48841772D01*
X88157398Y-48911641D01*
X88119275Y-48970194D01*
X88055548Y-48998840D01*
X88038630Y-49000000D01*
X83124000Y-49000000D01*
X83056961Y-48980315D01*
X83011206Y-48927511D01*
X83000000Y-48876000D01*
X83000000Y-42000000D01*
X87245172Y-42000000D01*
X87264462Y-42294312D01*
X87264464Y-42294324D01*
X87322001Y-42583584D01*
X87322005Y-42583599D01*
X87416812Y-42862888D01*
X87547258Y-43127406D01*
X87547265Y-43127419D01*
X87711123Y-43372649D01*
X87740405Y-43406040D01*
X88384728Y-42761716D01*
X88470278Y-42879466D01*
X88620534Y-43029722D01*
X88738281Y-43115270D01*
X88093958Y-43759593D01*
X88127350Y-43788876D01*
X88372580Y-43952734D01*
X88372593Y-43952741D01*
X88637111Y-44083187D01*
X88916400Y-44177994D01*
X88916415Y-44177998D01*
X89205675Y-44235535D01*
X89205687Y-44235537D01*
X89500000Y-44254827D01*
X89794312Y-44235537D01*
X89794324Y-44235535D01*
X90083584Y-44177998D01*
X90083599Y-44177994D01*
X90362888Y-44083187D01*
X90627406Y-43952741D01*
X90627419Y-43952734D01*
X90872648Y-43788877D01*
X90906039Y-43759593D01*
X90261717Y-43115271D01*
X90379466Y-43029722D01*
X90529722Y-42879466D01*
X90615271Y-42761717D01*
X91259593Y-43406039D01*
X91288877Y-43372648D01*
X91452734Y-43127419D01*
X91452741Y-43127406D01*
X91583187Y-42862888D01*
X91677994Y-42583599D01*
X91677998Y-42583584D01*
X91735535Y-42294324D01*
X91735537Y-42294312D01*
X91754827Y-42000000D01*
X91735537Y-41705687D01*
X91735535Y-41705675D01*
X91677998Y-41416415D01*
X91677994Y-41416400D01*
X91583187Y-41137111D01*
X91452741Y-40872593D01*
X91452734Y-40872580D01*
X91288876Y-40627350D01*
X91259593Y-40593958D01*
X90615270Y-41238281D01*
X90529722Y-41120534D01*
X90379466Y-40970278D01*
X90261717Y-40884728D01*
X90906040Y-40240405D01*
X90872649Y-40211123D01*
X90627419Y-40047265D01*
X90627406Y-40047258D01*
X90362888Y-39916812D01*
X90083599Y-39822005D01*
X90083584Y-39822001D01*
X89794324Y-39764464D01*
X89794312Y-39764462D01*
X89500000Y-39745172D01*
X89205687Y-39764462D01*
X89205675Y-39764464D01*
X88916415Y-39822001D01*
X88916400Y-39822005D01*
X88637111Y-39916812D01*
X88372593Y-40047258D01*
X88372580Y-40047265D01*
X88127346Y-40211126D01*
X88127339Y-40211131D01*
X88093959Y-40240403D01*
X88093959Y-40240405D01*
X88738282Y-40884728D01*
X88620534Y-40970278D01*
X88470278Y-41120534D01*
X88384728Y-41238282D01*
X87740405Y-40593959D01*
X87740403Y-40593959D01*
X87711131Y-40627339D01*
X87711126Y-40627346D01*
X87547265Y-40872580D01*
X87547258Y-40872593D01*
X87416812Y-41137111D01*
X87322005Y-41416400D01*
X87322001Y-41416415D01*
X87264464Y-41705675D01*
X87264462Y-41705687D01*
X87245172Y-42000000D01*
X83000000Y-42000000D01*
X83000000Y-33079998D01*
X87494891Y-33079998D01*
X87494891Y-33080001D01*
X87515300Y-33365362D01*
X87576109Y-33644895D01*
X87676091Y-33912958D01*
X87813191Y-34164038D01*
X87813196Y-34164046D01*
X87919882Y-34306562D01*
X87919883Y-34306563D01*
X88510014Y-33716431D01*
X88603760Y-33845461D01*
X88734539Y-33976240D01*
X88863567Y-34069984D01*
X88273435Y-34660115D01*
X88273436Y-34660116D01*
X88415953Y-34766803D01*
X88415961Y-34766808D01*
X88667042Y-34903908D01*
X88667041Y-34903908D01*
X88935104Y-35003890D01*
X89214637Y-35064699D01*
X89499999Y-35085109D01*
X89500001Y-35085109D01*
X89785362Y-35064699D01*
X90064895Y-35003890D01*
X90332958Y-34903908D01*
X90584038Y-34766808D01*
X90584039Y-34766807D01*
X90726563Y-34660115D01*
X90136432Y-34069984D01*
X90265461Y-33976240D01*
X90396240Y-33845461D01*
X90489984Y-33716432D01*
X91080115Y-34306563D01*
X91186807Y-34164039D01*
X91186808Y-34164038D01*
X91323908Y-33912958D01*
X91423890Y-33644895D01*
X91484699Y-33365362D01*
X91505109Y-33080001D01*
X91505109Y-33079998D01*
X91484699Y-32794637D01*
X91423890Y-32515104D01*
X91323908Y-32247041D01*
X91186808Y-31995961D01*
X91186803Y-31995953D01*
X91080116Y-31853436D01*
X91080115Y-31853435D01*
X90489983Y-32443566D01*
X90396240Y-32314539D01*
X90265461Y-32183760D01*
X90136431Y-32090014D01*
X90726563Y-31499883D01*
X90726562Y-31499882D01*
X90584046Y-31393196D01*
X90584038Y-31393191D01*
X90332957Y-31256091D01*
X90332958Y-31256091D01*
X90064895Y-31156109D01*
X89785362Y-31095300D01*
X89500001Y-31074891D01*
X89499999Y-31074891D01*
X89214637Y-31095300D01*
X88935104Y-31156109D01*
X88667041Y-31256091D01*
X88415961Y-31393191D01*
X88415953Y-31393196D01*
X88273435Y-31499882D01*
X88863568Y-32090014D01*
X88734539Y-32183760D01*
X88603760Y-32314539D01*
X88510015Y-32443568D01*
X87919882Y-31853435D01*
X87813196Y-31995953D01*
X87813191Y-31995961D01*
X87676091Y-32247041D01*
X87576109Y-32515104D01*
X87515300Y-32794637D01*
X87494891Y-33079998D01*
X83000000Y-33079998D01*
X83000000Y-22919998D01*
X87494891Y-22919998D01*
X87494891Y-22920001D01*
X87515300Y-23205362D01*
X87576109Y-23484895D01*
X87676091Y-23752958D01*
X87813191Y-24004038D01*
X87813196Y-24004046D01*
X87919882Y-24146562D01*
X87919883Y-24146563D01*
X88510014Y-23556431D01*
X88603760Y-23685461D01*
X88734539Y-23816240D01*
X88863567Y-23909984D01*
X88273435Y-24500115D01*
X88273436Y-24500116D01*
X88415953Y-24606803D01*
X88415961Y-24606808D01*
X88667042Y-24743908D01*
X88667041Y-24743908D01*
X88935104Y-24843890D01*
X89214637Y-24904699D01*
X89499999Y-24925109D01*
X89500001Y-24925109D01*
X89785362Y-24904699D01*
X90064895Y-24843890D01*
X90332958Y-24743908D01*
X90584038Y-24606808D01*
X90584039Y-24606807D01*
X90726563Y-24500115D01*
X90136432Y-23909984D01*
X90265461Y-23816240D01*
X90396240Y-23685461D01*
X90489984Y-23556432D01*
X91080115Y-24146563D01*
X91186807Y-24004039D01*
X91186808Y-24004038D01*
X91323908Y-23752958D01*
X91423890Y-23484895D01*
X91484699Y-23205362D01*
X91505109Y-22920001D01*
X91505109Y-22919998D01*
X91484699Y-22634637D01*
X91423890Y-22355104D01*
X91323908Y-22087041D01*
X91186808Y-21835961D01*
X91186803Y-21835953D01*
X91080116Y-21693436D01*
X91080115Y-21693435D01*
X90489983Y-22283566D01*
X90396240Y-22154539D01*
X90265461Y-22023760D01*
X90136431Y-21930014D01*
X90726563Y-21339883D01*
X90726562Y-21339882D01*
X90584046Y-21233196D01*
X90584038Y-21233191D01*
X90332957Y-21096091D01*
X90332958Y-21096091D01*
X90064895Y-20996109D01*
X89785362Y-20935300D01*
X89500001Y-20914891D01*
X89499999Y-20914891D01*
X89214637Y-20935300D01*
X88935104Y-20996109D01*
X88667041Y-21096091D01*
X88415961Y-21233191D01*
X88415953Y-21233196D01*
X88273435Y-21339882D01*
X88863568Y-21930014D01*
X88734539Y-22023760D01*
X88603760Y-22154539D01*
X88510015Y-22283568D01*
X87919882Y-21693435D01*
X87813196Y-21835953D01*
X87813191Y-21835961D01*
X87676091Y-22087041D01*
X87576109Y-22355104D01*
X87515300Y-22634637D01*
X87494891Y-22919998D01*
X83000000Y-22919998D01*
X83000000Y-20624500D01*
X83019685Y-20557461D01*
X83072489Y-20511706D01*
X83124000Y-20500500D01*
X94870500Y-20500500D01*
X94937539Y-20520185D01*
G37*
%TD.AperFunction*%
%TD*%
%TA.AperFunction,Conductor*%
%TO.N,Net-(F1-Pad1)*%
G36*
X95295751Y-49411088D02*
G01*
X95414534Y-49465335D01*
X95414541Y-49465338D01*
X95481580Y-49485023D01*
X95481584Y-49485024D01*
X95624000Y-49505500D01*
X95624003Y-49505500D01*
X97719704Y-49505500D01*
X97786743Y-49525185D01*
X97832498Y-49577989D01*
X97842442Y-49647147D01*
X97813417Y-49710703D01*
X97812932Y-49711259D01*
X97711126Y-49827346D01*
X97547265Y-50072580D01*
X97547258Y-50072593D01*
X97416812Y-50337111D01*
X97322005Y-50616400D01*
X97322001Y-50616415D01*
X97264464Y-50905675D01*
X97264462Y-50905687D01*
X97245172Y-51200000D01*
X97264462Y-51494312D01*
X97264464Y-51494324D01*
X97322001Y-51783584D01*
X97322005Y-51783599D01*
X97416812Y-52062888D01*
X97547258Y-52327406D01*
X97547265Y-52327419D01*
X97711123Y-52572649D01*
X97740405Y-52606040D01*
X98384728Y-51961716D01*
X98470278Y-52079466D01*
X98620534Y-52229722D01*
X98738281Y-52315270D01*
X98093958Y-52959593D01*
X98127350Y-52988876D01*
X98372580Y-53152734D01*
X98372593Y-53152741D01*
X98637111Y-53283187D01*
X98916400Y-53377994D01*
X98916415Y-53377998D01*
X99205675Y-53435535D01*
X99205687Y-53435537D01*
X99500000Y-53454827D01*
X99794312Y-53435537D01*
X99794324Y-53435535D01*
X100083584Y-53377998D01*
X100083599Y-53377994D01*
X100362888Y-53283187D01*
X100627406Y-53152741D01*
X100627419Y-53152734D01*
X100872648Y-52988877D01*
X100906039Y-52959593D01*
X100261717Y-52315271D01*
X100379466Y-52229722D01*
X100529722Y-52079466D01*
X100615271Y-51961717D01*
X101259593Y-52606039D01*
X101288877Y-52572648D01*
X101452734Y-52327419D01*
X101452741Y-52327406D01*
X101583187Y-52062888D01*
X101677994Y-51783599D01*
X101677998Y-51783584D01*
X101735535Y-51494324D01*
X101735537Y-51494312D01*
X101754827Y-51200000D01*
X101735537Y-50905687D01*
X101735535Y-50905675D01*
X101677998Y-50616415D01*
X101677994Y-50616400D01*
X101583187Y-50337111D01*
X101452741Y-50072593D01*
X101452734Y-50072580D01*
X101288873Y-49827346D01*
X101187068Y-49711259D01*
X101157665Y-49647877D01*
X101167197Y-49578661D01*
X101212637Y-49525585D01*
X101279558Y-49505502D01*
X101280296Y-49505500D01*
X106371692Y-49505500D01*
X106438731Y-49525185D01*
X106484486Y-49577989D01*
X106495692Y-49629500D01*
X106495692Y-70376000D01*
X106476007Y-70443039D01*
X106423203Y-70488794D01*
X106371692Y-70500000D01*
X76119745Y-70500000D01*
X76052706Y-70480315D01*
X76006951Y-70427511D01*
X75995745Y-70375947D01*
X75997095Y-67242080D01*
X76016808Y-67175051D01*
X76069632Y-67129318D01*
X76096904Y-67120518D01*
X76114790Y-67116959D01*
X76183035Y-67103385D01*
X76297233Y-67056083D01*
X76400008Y-66987411D01*
X76487411Y-66900008D01*
X76556083Y-66797233D01*
X76603385Y-66683035D01*
X76627500Y-66561803D01*
X76627500Y-66438197D01*
X76627500Y-66438194D01*
X76603386Y-66316970D01*
X76603385Y-66316969D01*
X76603385Y-66316965D01*
X76597960Y-66303868D01*
X76556086Y-66202773D01*
X76556079Y-66202760D01*
X76487411Y-66099992D01*
X76487408Y-66099988D01*
X76400011Y-66012591D01*
X76400007Y-66012588D01*
X76297239Y-65943920D01*
X76297226Y-65943913D01*
X76183039Y-65896616D01*
X76183030Y-65896613D01*
X76097542Y-65879608D01*
X76035632Y-65847222D01*
X76001058Y-65786506D01*
X75997735Y-65757938D01*
X76000000Y-60500000D01*
X74518627Y-58524836D01*
X74495273Y-58469315D01*
X74490070Y-58435537D01*
X74145700Y-56200000D01*
X77245172Y-56200000D01*
X77264462Y-56494312D01*
X77264464Y-56494324D01*
X77322001Y-56783584D01*
X77322005Y-56783599D01*
X77416812Y-57062888D01*
X77547258Y-57327406D01*
X77547265Y-57327419D01*
X77711123Y-57572649D01*
X77740405Y-57606040D01*
X78384728Y-56961716D01*
X78470278Y-57079466D01*
X78620534Y-57229722D01*
X78738281Y-57315270D01*
X78093958Y-57959593D01*
X78127350Y-57988876D01*
X78372580Y-58152734D01*
X78372593Y-58152741D01*
X78637111Y-58283187D01*
X78916400Y-58377994D01*
X78916415Y-58377998D01*
X79205675Y-58435535D01*
X79205687Y-58435537D01*
X79500000Y-58454827D01*
X79794312Y-58435537D01*
X79794324Y-58435535D01*
X80083584Y-58377998D01*
X80083599Y-58377994D01*
X80362888Y-58283187D01*
X80627406Y-58152741D01*
X80627419Y-58152734D01*
X80872648Y-57988877D01*
X80906039Y-57959593D01*
X80261717Y-57315271D01*
X80379466Y-57229722D01*
X80529722Y-57079466D01*
X80615271Y-56961717D01*
X81259593Y-57606039D01*
X81288877Y-57572648D01*
X81452734Y-57327419D01*
X81452741Y-57327406D01*
X81583187Y-57062888D01*
X81677994Y-56783599D01*
X81677998Y-56783584D01*
X81735535Y-56494324D01*
X81735537Y-56494312D01*
X81754827Y-56200000D01*
X87245172Y-56200000D01*
X87264462Y-56494312D01*
X87264464Y-56494324D01*
X87322001Y-56783584D01*
X87322005Y-56783599D01*
X87416812Y-57062888D01*
X87547258Y-57327406D01*
X87547265Y-57327419D01*
X87711123Y-57572649D01*
X87740405Y-57606040D01*
X88384728Y-56961716D01*
X88470278Y-57079466D01*
X88620534Y-57229722D01*
X88738281Y-57315270D01*
X88093958Y-57959593D01*
X88127350Y-57988876D01*
X88372580Y-58152734D01*
X88372593Y-58152741D01*
X88637111Y-58283187D01*
X88916400Y-58377994D01*
X88916415Y-58377998D01*
X89205675Y-58435535D01*
X89205687Y-58435537D01*
X89500000Y-58454827D01*
X89794312Y-58435537D01*
X89794324Y-58435535D01*
X90083584Y-58377998D01*
X90083599Y-58377994D01*
X90362888Y-58283187D01*
X90627406Y-58152741D01*
X90627419Y-58152734D01*
X90872648Y-57988877D01*
X90906039Y-57959593D01*
X90261717Y-57315271D01*
X90379466Y-57229722D01*
X90529722Y-57079466D01*
X90615271Y-56961717D01*
X91259593Y-57606039D01*
X91288877Y-57572648D01*
X91452734Y-57327419D01*
X91452741Y-57327406D01*
X91583187Y-57062888D01*
X91677994Y-56783599D01*
X91677998Y-56783584D01*
X91735535Y-56494324D01*
X91735537Y-56494312D01*
X91754827Y-56200000D01*
X97245172Y-56200000D01*
X97264462Y-56494312D01*
X97264464Y-56494324D01*
X97322001Y-56783584D01*
X97322005Y-56783599D01*
X97416812Y-57062888D01*
X97547258Y-57327406D01*
X97547265Y-57327419D01*
X97711123Y-57572649D01*
X97740405Y-57606040D01*
X98384728Y-56961716D01*
X98470278Y-57079466D01*
X98620534Y-57229722D01*
X98738281Y-57315270D01*
X98093958Y-57959593D01*
X98127350Y-57988876D01*
X98372580Y-58152734D01*
X98372593Y-58152741D01*
X98637111Y-58283187D01*
X98916400Y-58377994D01*
X98916415Y-58377998D01*
X99205675Y-58435535D01*
X99205687Y-58435537D01*
X99500000Y-58454827D01*
X99794312Y-58435537D01*
X99794324Y-58435535D01*
X100083584Y-58377998D01*
X100083599Y-58377994D01*
X100362888Y-58283187D01*
X100627406Y-58152741D01*
X100627419Y-58152734D01*
X100872648Y-57988877D01*
X100906039Y-57959593D01*
X100261717Y-57315271D01*
X100379466Y-57229722D01*
X100529722Y-57079466D01*
X100615271Y-56961717D01*
X101259593Y-57606039D01*
X101288877Y-57572648D01*
X101452734Y-57327419D01*
X101452741Y-57327406D01*
X101583187Y-57062888D01*
X101677994Y-56783599D01*
X101677998Y-56783584D01*
X101735535Y-56494324D01*
X101735537Y-56494312D01*
X101754827Y-56200000D01*
X101735537Y-55905687D01*
X101735535Y-55905675D01*
X101677998Y-55616415D01*
X101677994Y-55616400D01*
X101583187Y-55337111D01*
X101452741Y-55072593D01*
X101452734Y-55072580D01*
X101288876Y-54827350D01*
X101259593Y-54793958D01*
X100615270Y-55438281D01*
X100529722Y-55320534D01*
X100379466Y-55170278D01*
X100261717Y-55084728D01*
X100906040Y-54440405D01*
X100872649Y-54411123D01*
X100627419Y-54247265D01*
X100627406Y-54247258D01*
X100362888Y-54116812D01*
X100083599Y-54022005D01*
X100083584Y-54022001D01*
X99794324Y-53964464D01*
X99794312Y-53964462D01*
X99500000Y-53945172D01*
X99205687Y-53964462D01*
X99205675Y-53964464D01*
X98916415Y-54022001D01*
X98916400Y-54022005D01*
X98637111Y-54116812D01*
X98372593Y-54247258D01*
X98372580Y-54247265D01*
X98127346Y-54411126D01*
X98127339Y-54411131D01*
X98093959Y-54440403D01*
X98093959Y-54440405D01*
X98738282Y-55084728D01*
X98620534Y-55170278D01*
X98470278Y-55320534D01*
X98384728Y-55438282D01*
X97740405Y-54793959D01*
X97740403Y-54793959D01*
X97711131Y-54827339D01*
X97711126Y-54827346D01*
X97547265Y-55072580D01*
X97547258Y-55072593D01*
X97416812Y-55337111D01*
X97322005Y-55616400D01*
X97322001Y-55616415D01*
X97264464Y-55905675D01*
X97264462Y-55905687D01*
X97245172Y-56200000D01*
X91754827Y-56200000D01*
X91735537Y-55905687D01*
X91735535Y-55905675D01*
X91677998Y-55616415D01*
X91677994Y-55616400D01*
X91583187Y-55337111D01*
X91452741Y-55072593D01*
X91452734Y-55072580D01*
X91288876Y-54827350D01*
X91259593Y-54793958D01*
X90615270Y-55438281D01*
X90529722Y-55320534D01*
X90379466Y-55170278D01*
X90261717Y-55084728D01*
X90906040Y-54440405D01*
X90872649Y-54411123D01*
X90627419Y-54247265D01*
X90627406Y-54247258D01*
X90362888Y-54116812D01*
X90083599Y-54022005D01*
X90083584Y-54022001D01*
X89794324Y-53964464D01*
X89794312Y-53964462D01*
X89500000Y-53945172D01*
X89205687Y-53964462D01*
X89205675Y-53964464D01*
X88916415Y-54022001D01*
X88916400Y-54022005D01*
X88637111Y-54116812D01*
X88372593Y-54247258D01*
X88372580Y-54247265D01*
X88127346Y-54411126D01*
X88127339Y-54411131D01*
X88093959Y-54440403D01*
X88093959Y-54440405D01*
X88738282Y-55084728D01*
X88620534Y-55170278D01*
X88470278Y-55320534D01*
X88384728Y-55438282D01*
X87740405Y-54793959D01*
X87740403Y-54793959D01*
X87711131Y-54827339D01*
X87711126Y-54827346D01*
X87547265Y-55072580D01*
X87547258Y-55072593D01*
X87416812Y-55337111D01*
X87322005Y-55616400D01*
X87322001Y-55616415D01*
X87264464Y-55905675D01*
X87264462Y-55905687D01*
X87245172Y-56200000D01*
X81754827Y-56200000D01*
X81735537Y-55905687D01*
X81735535Y-55905675D01*
X81677998Y-55616415D01*
X81677994Y-55616400D01*
X81583187Y-55337111D01*
X81452741Y-55072593D01*
X81452734Y-55072580D01*
X81288876Y-54827350D01*
X81259593Y-54793958D01*
X80615270Y-55438281D01*
X80529722Y-55320534D01*
X80379466Y-55170278D01*
X80261717Y-55084728D01*
X80906040Y-54440405D01*
X80872649Y-54411123D01*
X80627419Y-54247265D01*
X80627406Y-54247258D01*
X80362888Y-54116812D01*
X80083599Y-54022005D01*
X80083584Y-54022001D01*
X79794324Y-53964464D01*
X79794312Y-53964462D01*
X79500000Y-53945172D01*
X79205687Y-53964462D01*
X79205675Y-53964464D01*
X78916415Y-54022001D01*
X78916400Y-54022005D01*
X78637111Y-54116812D01*
X78372593Y-54247258D01*
X78372580Y-54247265D01*
X78127346Y-54411126D01*
X78127339Y-54411131D01*
X78093959Y-54440403D01*
X78093959Y-54440405D01*
X78738282Y-55084728D01*
X78620534Y-55170278D01*
X78470278Y-55320534D01*
X78384728Y-55438282D01*
X77740405Y-54793959D01*
X77740403Y-54793959D01*
X77711131Y-54827339D01*
X77711126Y-54827346D01*
X77547265Y-55072580D01*
X77547258Y-55072593D01*
X77416812Y-55337111D01*
X77322005Y-55616400D01*
X77322001Y-55616415D01*
X77264464Y-55905675D01*
X77264462Y-55905687D01*
X77245172Y-56200000D01*
X74145700Y-56200000D01*
X74000656Y-55258425D01*
X73999643Y-55249889D01*
X73532136Y-49639797D01*
X73546186Y-49571355D01*
X73595007Y-49521373D01*
X73655708Y-49505500D01*
X77719704Y-49505500D01*
X77786743Y-49525185D01*
X77832498Y-49577989D01*
X77842442Y-49647147D01*
X77813417Y-49710703D01*
X77812932Y-49711259D01*
X77711126Y-49827346D01*
X77547265Y-50072580D01*
X77547258Y-50072593D01*
X77416812Y-50337111D01*
X77322005Y-50616400D01*
X77322001Y-50616415D01*
X77264464Y-50905675D01*
X77264462Y-50905687D01*
X77245172Y-51200000D01*
X77264462Y-51494312D01*
X77264464Y-51494324D01*
X77322001Y-51783584D01*
X77322005Y-51783599D01*
X77416812Y-52062888D01*
X77547258Y-52327406D01*
X77547265Y-52327419D01*
X77711123Y-52572649D01*
X77740405Y-52606040D01*
X78384728Y-51961716D01*
X78470278Y-52079466D01*
X78620534Y-52229722D01*
X78738281Y-52315270D01*
X78093958Y-52959593D01*
X78127350Y-52988876D01*
X78372580Y-53152734D01*
X78372593Y-53152741D01*
X78637111Y-53283187D01*
X78916400Y-53377994D01*
X78916415Y-53377998D01*
X79205675Y-53435535D01*
X79205687Y-53435537D01*
X79500000Y-53454827D01*
X79794312Y-53435537D01*
X79794324Y-53435535D01*
X80083584Y-53377998D01*
X80083599Y-53377994D01*
X80362888Y-53283187D01*
X80627406Y-53152741D01*
X80627419Y-53152734D01*
X80872648Y-52988877D01*
X80906039Y-52959593D01*
X80261717Y-52315271D01*
X80379466Y-52229722D01*
X80529722Y-52079466D01*
X80615271Y-51961717D01*
X81259593Y-52606039D01*
X81288877Y-52572648D01*
X81452734Y-52327419D01*
X81452741Y-52327406D01*
X81583187Y-52062888D01*
X81677994Y-51783599D01*
X81677998Y-51783584D01*
X81735535Y-51494324D01*
X81735537Y-51494312D01*
X81754827Y-51200000D01*
X81735537Y-50905687D01*
X81735535Y-50905675D01*
X81677998Y-50616415D01*
X81677994Y-50616400D01*
X81583187Y-50337111D01*
X81452741Y-50072593D01*
X81452734Y-50072580D01*
X81288873Y-49827346D01*
X81187068Y-49711259D01*
X81157665Y-49647877D01*
X81167197Y-49578661D01*
X81212637Y-49525585D01*
X81279558Y-49505502D01*
X81280296Y-49505500D01*
X82370490Y-49505500D01*
X82370500Y-49505500D01*
X82477956Y-49493947D01*
X82529467Y-49482741D01*
X82632004Y-49448613D01*
X82677198Y-49419567D01*
X82744236Y-49399882D01*
X82795751Y-49411088D01*
X82914534Y-49465335D01*
X82914541Y-49465338D01*
X82981580Y-49485023D01*
X82981584Y-49485024D01*
X83124000Y-49505500D01*
X83124003Y-49505500D01*
X87719704Y-49505500D01*
X87786743Y-49525185D01*
X87832498Y-49577989D01*
X87842442Y-49647147D01*
X87813417Y-49710703D01*
X87812932Y-49711259D01*
X87711126Y-49827346D01*
X87547265Y-50072580D01*
X87547258Y-50072593D01*
X87416812Y-50337111D01*
X87322005Y-50616400D01*
X87322001Y-50616415D01*
X87264464Y-50905675D01*
X87264462Y-50905687D01*
X87245172Y-51200000D01*
X87264462Y-51494312D01*
X87264464Y-51494324D01*
X87322001Y-51783584D01*
X87322005Y-51783599D01*
X87416812Y-52062888D01*
X87547258Y-52327406D01*
X87547265Y-52327419D01*
X87711123Y-52572649D01*
X87740405Y-52606040D01*
X88384728Y-51961716D01*
X88470278Y-52079466D01*
X88620534Y-52229722D01*
X88738281Y-52315270D01*
X88093958Y-52959593D01*
X88127350Y-52988876D01*
X88372580Y-53152734D01*
X88372593Y-53152741D01*
X88637111Y-53283187D01*
X88916400Y-53377994D01*
X88916415Y-53377998D01*
X89205675Y-53435535D01*
X89205687Y-53435537D01*
X89500000Y-53454827D01*
X89794312Y-53435537D01*
X89794324Y-53435535D01*
X90083584Y-53377998D01*
X90083599Y-53377994D01*
X90362888Y-53283187D01*
X90627406Y-53152741D01*
X90627419Y-53152734D01*
X90872648Y-52988877D01*
X90906039Y-52959593D01*
X90261717Y-52315271D01*
X90379466Y-52229722D01*
X90529722Y-52079466D01*
X90615271Y-51961717D01*
X91259593Y-52606039D01*
X91288877Y-52572648D01*
X91452734Y-52327419D01*
X91452741Y-52327406D01*
X91583187Y-52062888D01*
X91677994Y-51783599D01*
X91677998Y-51783584D01*
X91735535Y-51494324D01*
X91735537Y-51494312D01*
X91754827Y-51200000D01*
X91735537Y-50905687D01*
X91735535Y-50905675D01*
X91677998Y-50616415D01*
X91677994Y-50616400D01*
X91583187Y-50337111D01*
X91452741Y-50072593D01*
X91452734Y-50072580D01*
X91288873Y-49827346D01*
X91187068Y-49711259D01*
X91157665Y-49647877D01*
X91167197Y-49578661D01*
X91212637Y-49525585D01*
X91279558Y-49505502D01*
X91280296Y-49505500D01*
X94870490Y-49505500D01*
X94870500Y-49505500D01*
X94977956Y-49493947D01*
X95029467Y-49482741D01*
X95132004Y-49448613D01*
X95177198Y-49419567D01*
X95244236Y-49399882D01*
X95295751Y-49411088D01*
G37*
%TD.AperFunction*%
%TD*%
%TA.AperFunction,Conductor*%
%TO.N,Net-(Battery1-Pad1)*%
G36*
X49437539Y-20520185D02*
G01*
X49483294Y-20572989D01*
X49494500Y-20624500D01*
X49494500Y-45376000D01*
X49474815Y-45443039D01*
X49422011Y-45488794D01*
X49370500Y-45500000D01*
X44500000Y-45500000D01*
X44241558Y-45500000D01*
X44174519Y-45480315D01*
X44128764Y-45427511D01*
X44119941Y-45400192D01*
X44103386Y-45316970D01*
X44103385Y-45316969D01*
X44103385Y-45316965D01*
X44103383Y-45316960D01*
X44056086Y-45202773D01*
X44056079Y-45202760D01*
X43987411Y-45099992D01*
X43987408Y-45099988D01*
X43900011Y-45012591D01*
X43900007Y-45012588D01*
X43797239Y-44943920D01*
X43797226Y-44943913D01*
X43683039Y-44896616D01*
X43683029Y-44896613D01*
X43561805Y-44872500D01*
X43561803Y-44872500D01*
X43438197Y-44872500D01*
X43438195Y-44872500D01*
X43316970Y-44896613D01*
X43316960Y-44896616D01*
X43202773Y-44943913D01*
X43202760Y-44943920D01*
X43099992Y-45012588D01*
X43099988Y-45012591D01*
X43012591Y-45099988D01*
X43012588Y-45099992D01*
X42943920Y-45202760D01*
X42943913Y-45202773D01*
X42896616Y-45316960D01*
X42896613Y-45316970D01*
X42880059Y-45400192D01*
X42847674Y-45462103D01*
X42786958Y-45496677D01*
X42758442Y-45500000D01*
X35500000Y-45500000D01*
X29124000Y-45500000D01*
X29056961Y-45480315D01*
X29011206Y-45427511D01*
X29000000Y-45376000D01*
X29000000Y-27315753D01*
X37749500Y-27315753D01*
X37749500Y-27684246D01*
X37785618Y-28050975D01*
X37857504Y-28412375D01*
X37857507Y-28412386D01*
X37964480Y-28765030D01*
X38105500Y-29105481D01*
X38105502Y-29105486D01*
X38279202Y-29430456D01*
X38279213Y-29430474D01*
X38483931Y-29736856D01*
X38483941Y-29736870D01*
X38717715Y-30021724D01*
X38978275Y-30282284D01*
X38978280Y-30282288D01*
X38978281Y-30282289D01*
X39263135Y-30516063D01*
X39569532Y-30720791D01*
X39569541Y-30720796D01*
X39569543Y-30720797D01*
X39894513Y-30894497D01*
X39894515Y-30894497D01*
X39894521Y-30894501D01*
X40234971Y-31035520D01*
X40587604Y-31142490D01*
X40587610Y-31142491D01*
X40587613Y-31142492D01*
X40587624Y-31142495D01*
X40949024Y-31214381D01*
X41315750Y-31250500D01*
X41315753Y-31250500D01*
X41684247Y-31250500D01*
X41684250Y-31250500D01*
X42050976Y-31214381D01*
X42121331Y-31200386D01*
X42412375Y-31142495D01*
X42412386Y-31142492D01*
X42412386Y-31142491D01*
X42412396Y-31142490D01*
X42765029Y-31035520D01*
X43105479Y-30894501D01*
X43430468Y-30720791D01*
X43736865Y-30516063D01*
X44021719Y-30282289D01*
X44282289Y-30021719D01*
X44516063Y-29736865D01*
X44720791Y-29430468D01*
X44894501Y-29105479D01*
X45035520Y-28765029D01*
X45142490Y-28412396D01*
X45142492Y-28412386D01*
X45142495Y-28412375D01*
X45214381Y-28050975D01*
X45250500Y-27684246D01*
X45250500Y-27315753D01*
X45214381Y-26949024D01*
X45142495Y-26587624D01*
X45142492Y-26587613D01*
X45142491Y-26587610D01*
X45142490Y-26587604D01*
X45035520Y-26234971D01*
X44894501Y-25894521D01*
X44859868Y-25829728D01*
X44720797Y-25569543D01*
X44720796Y-25569541D01*
X44720791Y-25569532D01*
X44516063Y-25263135D01*
X44282289Y-24978281D01*
X44282288Y-24978280D01*
X44282284Y-24978275D01*
X44021724Y-24717715D01*
X43736870Y-24483941D01*
X43736869Y-24483940D01*
X43736865Y-24483937D01*
X43430468Y-24279209D01*
X43430463Y-24279206D01*
X43430456Y-24279202D01*
X43105486Y-24105502D01*
X43105481Y-24105500D01*
X42765030Y-23964480D01*
X42412386Y-23857507D01*
X42412375Y-23857504D01*
X42050975Y-23785618D01*
X41774772Y-23758415D01*
X41684250Y-23749500D01*
X41315750Y-23749500D01*
X41232109Y-23757737D01*
X40949024Y-23785618D01*
X40587624Y-23857504D01*
X40587613Y-23857507D01*
X40234969Y-23964480D01*
X39894518Y-24105500D01*
X39894513Y-24105502D01*
X39569543Y-24279202D01*
X39569525Y-24279213D01*
X39263143Y-24483931D01*
X39263129Y-24483941D01*
X38978275Y-24717715D01*
X38717715Y-24978275D01*
X38483941Y-25263129D01*
X38483931Y-25263143D01*
X38279213Y-25569525D01*
X38279202Y-25569543D01*
X38105502Y-25894513D01*
X38105500Y-25894518D01*
X37964480Y-26234969D01*
X37857507Y-26587613D01*
X37857504Y-26587624D01*
X37785618Y-26949024D01*
X37749500Y-27315753D01*
X29000000Y-27315753D01*
X29000000Y-20624500D01*
X29019685Y-20557461D01*
X29072489Y-20511706D01*
X29124000Y-20500500D01*
X49370500Y-20500500D01*
X49437539Y-20520185D01*
G37*
%TD.AperFunction*%
%TD*%
%TA.AperFunction,Conductor*%
%TO.N,Net-(Inverter1-Pad1)*%
G36*
X70937539Y-20520185D02*
G01*
X70983294Y-20572989D01*
X70994500Y-20624500D01*
X70994500Y-45376000D01*
X70974815Y-45443039D01*
X70922011Y-45488794D01*
X70870500Y-45500000D01*
X62500000Y-45500000D01*
X55434201Y-45500000D01*
X55367162Y-45480315D01*
X55321407Y-45427511D01*
X55314427Y-45408099D01*
X55305181Y-45373590D01*
X55262065Y-45298910D01*
X55201090Y-45237935D01*
X55126410Y-45194819D01*
X55126411Y-45194819D01*
X55098645Y-45187379D01*
X55043116Y-45172500D01*
X54956884Y-45172500D01*
X54901354Y-45187379D01*
X54873589Y-45194819D01*
X54798911Y-45237934D01*
X54798908Y-45237936D01*
X54737936Y-45298908D01*
X54737934Y-45298911D01*
X54694819Y-45373589D01*
X54694819Y-45373590D01*
X54685573Y-45408095D01*
X54649208Y-45467754D01*
X54586361Y-45498283D01*
X54565799Y-45500000D01*
X50124000Y-45500000D01*
X50056961Y-45480315D01*
X50011206Y-45427511D01*
X50000000Y-45376000D01*
X50000000Y-27315753D01*
X57749500Y-27315753D01*
X57749500Y-27684246D01*
X57785618Y-28050975D01*
X57857504Y-28412375D01*
X57857507Y-28412386D01*
X57964480Y-28765030D01*
X58105500Y-29105481D01*
X58105502Y-29105486D01*
X58279202Y-29430456D01*
X58279213Y-29430474D01*
X58483931Y-29736856D01*
X58483941Y-29736870D01*
X58717715Y-30021724D01*
X58978275Y-30282284D01*
X58978280Y-30282288D01*
X58978281Y-30282289D01*
X59263135Y-30516063D01*
X59569532Y-30720791D01*
X59569541Y-30720796D01*
X59569543Y-30720797D01*
X59894513Y-30894497D01*
X59894515Y-30894497D01*
X59894521Y-30894501D01*
X60234971Y-31035520D01*
X60587604Y-31142490D01*
X60587610Y-31142491D01*
X60587613Y-31142492D01*
X60587624Y-31142495D01*
X60949024Y-31214381D01*
X61315750Y-31250500D01*
X61315753Y-31250500D01*
X61684247Y-31250500D01*
X61684250Y-31250500D01*
X62050976Y-31214381D01*
X62121331Y-31200386D01*
X62412375Y-31142495D01*
X62412386Y-31142492D01*
X62412386Y-31142491D01*
X62412396Y-31142490D01*
X62765029Y-31035520D01*
X63105479Y-30894501D01*
X63430468Y-30720791D01*
X63736865Y-30516063D01*
X64021719Y-30282289D01*
X64282289Y-30021719D01*
X64516063Y-29736865D01*
X64720791Y-29430468D01*
X64894501Y-29105479D01*
X65035520Y-28765029D01*
X65142490Y-28412396D01*
X65142492Y-28412386D01*
X65142495Y-28412375D01*
X65214381Y-28050975D01*
X65250500Y-27684246D01*
X65250500Y-27315753D01*
X65214381Y-26949024D01*
X65142495Y-26587624D01*
X65142492Y-26587613D01*
X65142491Y-26587610D01*
X65142490Y-26587604D01*
X65035520Y-26234971D01*
X64894501Y-25894521D01*
X64720791Y-25569532D01*
X64516063Y-25263135D01*
X64282289Y-24978281D01*
X64282288Y-24978280D01*
X64282284Y-24978275D01*
X64021724Y-24717715D01*
X63736870Y-24483941D01*
X63736869Y-24483940D01*
X63736865Y-24483937D01*
X63430468Y-24279209D01*
X63430463Y-24279206D01*
X63430456Y-24279202D01*
X63105486Y-24105502D01*
X63105481Y-24105500D01*
X62765030Y-23964480D01*
X62412386Y-23857507D01*
X62412375Y-23857504D01*
X62050975Y-23785618D01*
X61774772Y-23758415D01*
X61684250Y-23749500D01*
X61315750Y-23749500D01*
X61232109Y-23757737D01*
X60949024Y-23785618D01*
X60587624Y-23857504D01*
X60587613Y-23857507D01*
X60234969Y-23964480D01*
X59894518Y-24105500D01*
X59894513Y-24105502D01*
X59569543Y-24279202D01*
X59569525Y-24279213D01*
X59263143Y-24483931D01*
X59263129Y-24483941D01*
X58978275Y-24717715D01*
X58717715Y-24978275D01*
X58483941Y-25263129D01*
X58483931Y-25263143D01*
X58279213Y-25569525D01*
X58279202Y-25569543D01*
X58105502Y-25894513D01*
X58105500Y-25894518D01*
X57964480Y-26234969D01*
X57857507Y-26587613D01*
X57857504Y-26587624D01*
X57785618Y-26949024D01*
X57749500Y-27315753D01*
X50000000Y-27315753D01*
X50000000Y-20624500D01*
X50019685Y-20557461D01*
X50072489Y-20511706D01*
X50124000Y-20500500D01*
X70870500Y-20500500D01*
X70937539Y-20520185D01*
G37*
%TD.AperFunction*%
%TD*%
%TA.AperFunction,Conductor*%
%TO.N,Net-(J4-Pin_3)*%
G36*
X82437539Y-20520185D02*
G01*
X82483294Y-20572989D01*
X82494500Y-20624500D01*
X82494500Y-48876000D01*
X82474815Y-48943039D01*
X82422011Y-48988794D01*
X82370500Y-49000000D01*
X80961370Y-49000000D01*
X80894331Y-48980315D01*
X80848576Y-48927511D01*
X80838632Y-48858353D01*
X80867657Y-48794797D01*
X80879611Y-48782772D01*
X80906039Y-48759594D01*
X80906039Y-48759593D01*
X80261717Y-48115271D01*
X80379466Y-48029722D01*
X80529722Y-47879466D01*
X80615271Y-47761717D01*
X81259593Y-48406039D01*
X81288877Y-48372648D01*
X81452734Y-48127419D01*
X81452741Y-48127406D01*
X81583187Y-47862888D01*
X81677994Y-47583599D01*
X81677998Y-47583584D01*
X81735535Y-47294324D01*
X81735537Y-47294312D01*
X81754827Y-47000000D01*
X81735537Y-46705687D01*
X81735535Y-46705675D01*
X81677998Y-46416415D01*
X81677994Y-46416400D01*
X81583187Y-46137111D01*
X81452741Y-45872593D01*
X81452734Y-45872580D01*
X81288876Y-45627350D01*
X81259593Y-45593958D01*
X80615270Y-46238281D01*
X80529722Y-46120534D01*
X80379466Y-45970278D01*
X80261717Y-45884728D01*
X80906040Y-45240405D01*
X80872649Y-45211123D01*
X80627419Y-45047265D01*
X80627406Y-45047258D01*
X80362888Y-44916812D01*
X80083599Y-44822005D01*
X80083584Y-44822001D01*
X79794324Y-44764464D01*
X79794312Y-44764462D01*
X79500000Y-44745172D01*
X79205687Y-44764462D01*
X79205675Y-44764464D01*
X78916415Y-44822001D01*
X78916400Y-44822005D01*
X78637111Y-44916812D01*
X78372593Y-45047258D01*
X78372580Y-45047265D01*
X78127346Y-45211126D01*
X78127339Y-45211131D01*
X78093959Y-45240403D01*
X78093959Y-45240405D01*
X78738282Y-45884728D01*
X78620534Y-45970278D01*
X78470278Y-46120534D01*
X78384728Y-46238282D01*
X77740405Y-45593959D01*
X77740403Y-45593959D01*
X77711131Y-45627339D01*
X77711126Y-45627346D01*
X77547265Y-45872580D01*
X77547258Y-45872593D01*
X77416812Y-46137111D01*
X77322005Y-46416400D01*
X77322001Y-46416415D01*
X77264464Y-46705675D01*
X77264462Y-46705687D01*
X77245172Y-47000000D01*
X77264462Y-47294312D01*
X77264464Y-47294324D01*
X77322001Y-47583584D01*
X77322005Y-47583599D01*
X77416812Y-47862888D01*
X77547258Y-48127406D01*
X77547265Y-48127419D01*
X77711123Y-48372649D01*
X77740405Y-48406040D01*
X78384728Y-47761716D01*
X78470278Y-47879466D01*
X78620534Y-48029722D01*
X78738281Y-48115270D01*
X78093958Y-48759593D01*
X78120388Y-48782771D01*
X78157812Y-48841772D01*
X78157398Y-48911641D01*
X78119275Y-48970194D01*
X78055548Y-48998840D01*
X78038630Y-49000000D01*
X71683440Y-49000000D01*
X71616401Y-48980315D01*
X71595759Y-48963681D01*
X71536319Y-48904241D01*
X71502834Y-48842918D01*
X71500000Y-48816560D01*
X71500000Y-42000000D01*
X77245172Y-42000000D01*
X77264462Y-42294312D01*
X77264464Y-42294324D01*
X77322001Y-42583584D01*
X77322005Y-42583599D01*
X77416812Y-42862888D01*
X77547258Y-43127406D01*
X77547265Y-43127419D01*
X77711123Y-43372649D01*
X77740405Y-43406040D01*
X78384728Y-42761716D01*
X78470278Y-42879466D01*
X78620534Y-43029722D01*
X78738281Y-43115270D01*
X78093958Y-43759593D01*
X78127350Y-43788876D01*
X78372580Y-43952734D01*
X78372593Y-43952741D01*
X78637111Y-44083187D01*
X78916400Y-44177994D01*
X78916415Y-44177998D01*
X79205675Y-44235535D01*
X79205687Y-44235537D01*
X79500000Y-44254827D01*
X79794312Y-44235537D01*
X79794324Y-44235535D01*
X80083584Y-44177998D01*
X80083599Y-44177994D01*
X80362888Y-44083187D01*
X80627406Y-43952741D01*
X80627419Y-43952734D01*
X80872648Y-43788877D01*
X80906039Y-43759593D01*
X80261717Y-43115271D01*
X80379466Y-43029722D01*
X80529722Y-42879466D01*
X80615271Y-42761717D01*
X81259593Y-43406039D01*
X81288877Y-43372648D01*
X81452734Y-43127419D01*
X81452741Y-43127406D01*
X81583187Y-42862888D01*
X81677994Y-42583599D01*
X81677998Y-42583584D01*
X81735535Y-42294324D01*
X81735537Y-42294312D01*
X81754827Y-42000000D01*
X81735537Y-41705687D01*
X81735535Y-41705675D01*
X81677998Y-41416415D01*
X81677994Y-41416400D01*
X81583187Y-41137111D01*
X81452741Y-40872593D01*
X81452734Y-40872580D01*
X81288876Y-40627350D01*
X81259593Y-40593958D01*
X80615270Y-41238281D01*
X80529722Y-41120534D01*
X80379466Y-40970278D01*
X80261717Y-40884728D01*
X80906040Y-40240405D01*
X80872649Y-40211123D01*
X80627419Y-40047265D01*
X80627406Y-40047258D01*
X80362888Y-39916812D01*
X80083599Y-39822005D01*
X80083584Y-39822001D01*
X79794324Y-39764464D01*
X79794312Y-39764462D01*
X79500000Y-39745172D01*
X79205687Y-39764462D01*
X79205675Y-39764464D01*
X78916415Y-39822001D01*
X78916400Y-39822005D01*
X78637111Y-39916812D01*
X78372593Y-40047258D01*
X78372580Y-40047265D01*
X78127346Y-40211126D01*
X78127339Y-40211131D01*
X78093959Y-40240403D01*
X78093959Y-40240405D01*
X78738282Y-40884728D01*
X78620534Y-40970278D01*
X78470278Y-41120534D01*
X78384728Y-41238282D01*
X77740405Y-40593959D01*
X77740403Y-40593959D01*
X77711131Y-40627339D01*
X77711126Y-40627346D01*
X77547265Y-40872580D01*
X77547258Y-40872593D01*
X77416812Y-41137111D01*
X77322005Y-41416400D01*
X77322001Y-41416415D01*
X77264464Y-41705675D01*
X77264462Y-41705687D01*
X77245172Y-42000000D01*
X71500000Y-42000000D01*
X71500000Y-33079998D01*
X77334891Y-33079998D01*
X77334891Y-33080001D01*
X77355300Y-33365362D01*
X77416109Y-33644895D01*
X77516091Y-33912958D01*
X77653191Y-34164038D01*
X77653196Y-34164046D01*
X77759882Y-34306562D01*
X77759883Y-34306563D01*
X78350014Y-33716431D01*
X78443760Y-33845461D01*
X78574539Y-33976240D01*
X78703567Y-34069984D01*
X78113435Y-34660115D01*
X78113436Y-34660116D01*
X78255953Y-34766803D01*
X78255961Y-34766808D01*
X78507042Y-34903908D01*
X78507041Y-34903908D01*
X78775104Y-35003890D01*
X79054637Y-35064699D01*
X79339999Y-35085109D01*
X79340001Y-35085109D01*
X79625362Y-35064699D01*
X79904895Y-35003890D01*
X80172958Y-34903908D01*
X80424038Y-34766808D01*
X80424039Y-34766807D01*
X80566563Y-34660115D01*
X79976432Y-34069984D01*
X80105461Y-33976240D01*
X80236240Y-33845461D01*
X80329984Y-33716432D01*
X80920115Y-34306563D01*
X81026807Y-34164039D01*
X81026808Y-34164038D01*
X81163908Y-33912958D01*
X81263890Y-33644895D01*
X81324699Y-33365362D01*
X81345109Y-33080001D01*
X81345109Y-33079998D01*
X81324699Y-32794637D01*
X81263890Y-32515104D01*
X81163908Y-32247041D01*
X81026808Y-31995961D01*
X81026803Y-31995953D01*
X80920116Y-31853436D01*
X80920115Y-31853435D01*
X80329983Y-32443566D01*
X80236240Y-32314539D01*
X80105461Y-32183760D01*
X79976431Y-32090014D01*
X80566563Y-31499883D01*
X80566562Y-31499882D01*
X80424046Y-31393196D01*
X80424038Y-31393191D01*
X80172957Y-31256091D01*
X80172958Y-31256091D01*
X79904895Y-31156109D01*
X79625362Y-31095300D01*
X79340001Y-31074891D01*
X79339999Y-31074891D01*
X79054637Y-31095300D01*
X78775104Y-31156109D01*
X78507041Y-31256091D01*
X78255961Y-31393191D01*
X78255953Y-31393196D01*
X78113435Y-31499882D01*
X78703568Y-32090014D01*
X78574539Y-32183760D01*
X78443760Y-32314539D01*
X78350015Y-32443568D01*
X77759882Y-31853435D01*
X77653196Y-31995953D01*
X77653191Y-31995961D01*
X77516091Y-32247041D01*
X77416109Y-32515104D01*
X77355300Y-32794637D01*
X77334891Y-33079998D01*
X71500000Y-33079998D01*
X71500000Y-22919998D01*
X77334891Y-22919998D01*
X77334891Y-22920001D01*
X77355300Y-23205362D01*
X77416109Y-23484895D01*
X77516091Y-23752958D01*
X77653191Y-24004038D01*
X77653196Y-24004046D01*
X77759882Y-24146562D01*
X77759883Y-24146563D01*
X78350014Y-23556431D01*
X78443760Y-23685461D01*
X78574539Y-23816240D01*
X78703567Y-23909984D01*
X78113435Y-24500115D01*
X78113436Y-24500116D01*
X78255953Y-24606803D01*
X78255961Y-24606808D01*
X78507042Y-24743908D01*
X78507041Y-24743908D01*
X78775104Y-24843890D01*
X79054637Y-24904699D01*
X79339999Y-24925109D01*
X79340001Y-24925109D01*
X79625362Y-24904699D01*
X79904895Y-24843890D01*
X80172958Y-24743908D01*
X80424038Y-24606808D01*
X80424039Y-24606807D01*
X80566563Y-24500115D01*
X79976432Y-23909984D01*
X80105461Y-23816240D01*
X80236240Y-23685461D01*
X80329984Y-23556432D01*
X80920115Y-24146563D01*
X81026807Y-24004039D01*
X81026808Y-24004038D01*
X81163908Y-23752958D01*
X81263890Y-23484895D01*
X81324699Y-23205362D01*
X81345109Y-22920001D01*
X81345109Y-22919998D01*
X81324699Y-22634637D01*
X81263890Y-22355104D01*
X81163908Y-22087041D01*
X81026808Y-21835961D01*
X81026803Y-21835953D01*
X80920116Y-21693436D01*
X80920115Y-21693435D01*
X80329983Y-22283566D01*
X80236240Y-22154539D01*
X80105461Y-22023760D01*
X79976431Y-21930014D01*
X80566563Y-21339883D01*
X80566562Y-21339882D01*
X80424046Y-21233196D01*
X80424038Y-21233191D01*
X80172957Y-21096091D01*
X80172958Y-21096091D01*
X79904895Y-20996109D01*
X79625362Y-20935300D01*
X79340001Y-20914891D01*
X79339999Y-20914891D01*
X79054637Y-20935300D01*
X78775104Y-20996109D01*
X78507041Y-21096091D01*
X78255961Y-21233191D01*
X78255953Y-21233196D01*
X78113435Y-21339882D01*
X78703568Y-21930014D01*
X78574539Y-22023760D01*
X78443760Y-22154539D01*
X78350015Y-22283568D01*
X77759882Y-21693435D01*
X77653196Y-21835953D01*
X77653191Y-21835961D01*
X77516091Y-22087041D01*
X77416109Y-22355104D01*
X77355300Y-22634637D01*
X77334891Y-22919998D01*
X71500000Y-22919998D01*
X71500000Y-20624500D01*
X71519685Y-20557461D01*
X71572489Y-20511706D01*
X71624000Y-20500500D01*
X82370500Y-20500500D01*
X82437539Y-20520185D01*
G37*
%TD.AperFunction*%
%TD*%
%TA.AperFunction,Conductor*%
%TO.N,/central_control_unit/V_Bat*%
G36*
X64943039Y-120019685D02*
G01*
X64988794Y-120072489D01*
X65000000Y-120124000D01*
X65000000Y-122876000D01*
X64980315Y-122943039D01*
X64927511Y-122988794D01*
X64876000Y-123000000D01*
X27000000Y-123000000D01*
X20624500Y-123000000D01*
X20557461Y-122980315D01*
X20511706Y-122927511D01*
X20500500Y-122876000D01*
X20500500Y-120000000D01*
X27000000Y-120000000D01*
X64876000Y-120000000D01*
X64943039Y-120019685D01*
G37*
%TD.AperFunction*%
%TD*%
%TA.AperFunction,Conductor*%
%TO.N,Net-(J4-Pin_1)*%
G36*
X106443039Y-20520185D02*
G01*
X106488794Y-20572989D01*
X106500000Y-20624500D01*
X106500000Y-48876000D01*
X106480315Y-48943039D01*
X106427511Y-48988794D01*
X106376000Y-49000000D01*
X100961370Y-49000000D01*
X100894331Y-48980315D01*
X100848576Y-48927511D01*
X100838632Y-48858353D01*
X100867657Y-48794797D01*
X100879611Y-48782772D01*
X100906039Y-48759594D01*
X100906039Y-48759593D01*
X100261717Y-48115271D01*
X100379466Y-48029722D01*
X100529722Y-47879466D01*
X100615271Y-47761717D01*
X101259593Y-48406039D01*
X101288877Y-48372648D01*
X101452734Y-48127419D01*
X101452741Y-48127406D01*
X101583187Y-47862888D01*
X101677994Y-47583599D01*
X101677998Y-47583584D01*
X101735535Y-47294324D01*
X101735537Y-47294312D01*
X101754827Y-47000000D01*
X101735537Y-46705687D01*
X101735535Y-46705675D01*
X101677998Y-46416415D01*
X101677994Y-46416400D01*
X101583187Y-46137111D01*
X101452741Y-45872593D01*
X101452734Y-45872580D01*
X101288876Y-45627350D01*
X101259593Y-45593958D01*
X100615270Y-46238281D01*
X100529722Y-46120534D01*
X100379466Y-45970278D01*
X100261717Y-45884728D01*
X100906040Y-45240405D01*
X100872649Y-45211123D01*
X100627419Y-45047265D01*
X100627406Y-45047258D01*
X100362888Y-44916812D01*
X100083599Y-44822005D01*
X100083584Y-44822001D01*
X99794324Y-44764464D01*
X99794312Y-44764462D01*
X99500000Y-44745172D01*
X99205687Y-44764462D01*
X99205675Y-44764464D01*
X98916415Y-44822001D01*
X98916400Y-44822005D01*
X98637111Y-44916812D01*
X98372593Y-45047258D01*
X98372580Y-45047265D01*
X98127346Y-45211126D01*
X98127339Y-45211131D01*
X98093959Y-45240403D01*
X98093959Y-45240405D01*
X98738282Y-45884728D01*
X98620534Y-45970278D01*
X98470278Y-46120534D01*
X98384728Y-46238282D01*
X97740405Y-45593959D01*
X97740403Y-45593959D01*
X97711131Y-45627339D01*
X97711126Y-45627346D01*
X97547265Y-45872580D01*
X97547258Y-45872593D01*
X97416812Y-46137111D01*
X97322005Y-46416400D01*
X97322001Y-46416415D01*
X97264464Y-46705675D01*
X97264462Y-46705687D01*
X97245172Y-47000000D01*
X97264462Y-47294312D01*
X97264464Y-47294324D01*
X97322001Y-47583584D01*
X97322005Y-47583599D01*
X97416812Y-47862888D01*
X97547258Y-48127406D01*
X97547265Y-48127419D01*
X97711123Y-48372649D01*
X97740405Y-48406040D01*
X98384728Y-47761716D01*
X98470278Y-47879466D01*
X98620534Y-48029722D01*
X98738281Y-48115270D01*
X98093958Y-48759593D01*
X98120388Y-48782771D01*
X98157812Y-48841772D01*
X98157398Y-48911641D01*
X98119275Y-48970194D01*
X98055548Y-48998840D01*
X98038630Y-49000000D01*
X95624000Y-49000000D01*
X95556961Y-48980315D01*
X95511206Y-48927511D01*
X95500000Y-48876000D01*
X95500000Y-42000000D01*
X97245172Y-42000000D01*
X97264462Y-42294312D01*
X97264464Y-42294324D01*
X97322001Y-42583584D01*
X97322005Y-42583599D01*
X97416812Y-42862888D01*
X97547258Y-43127406D01*
X97547265Y-43127419D01*
X97711123Y-43372649D01*
X97740405Y-43406040D01*
X98384728Y-42761716D01*
X98470278Y-42879466D01*
X98620534Y-43029722D01*
X98738281Y-43115270D01*
X98093958Y-43759593D01*
X98127350Y-43788876D01*
X98372580Y-43952734D01*
X98372593Y-43952741D01*
X98637111Y-44083187D01*
X98916400Y-44177994D01*
X98916415Y-44177998D01*
X99205675Y-44235535D01*
X99205687Y-44235537D01*
X99500000Y-44254827D01*
X99794312Y-44235537D01*
X99794324Y-44235535D01*
X100083584Y-44177998D01*
X100083599Y-44177994D01*
X100362888Y-44083187D01*
X100627406Y-43952741D01*
X100627419Y-43952734D01*
X100872648Y-43788877D01*
X100906039Y-43759593D01*
X100261717Y-43115271D01*
X100379466Y-43029722D01*
X100529722Y-42879466D01*
X100615271Y-42761717D01*
X101259593Y-43406039D01*
X101288877Y-43372648D01*
X101452734Y-43127419D01*
X101452741Y-43127406D01*
X101583187Y-42862888D01*
X101677994Y-42583599D01*
X101677998Y-42583584D01*
X101735535Y-42294324D01*
X101735537Y-42294312D01*
X101754827Y-42000000D01*
X101735537Y-41705687D01*
X101735535Y-41705675D01*
X101677998Y-41416415D01*
X101677994Y-41416400D01*
X101583187Y-41137111D01*
X101452741Y-40872593D01*
X101452734Y-40872580D01*
X101288876Y-40627350D01*
X101259593Y-40593958D01*
X100615270Y-41238281D01*
X100529722Y-41120534D01*
X100379466Y-40970278D01*
X100261717Y-40884728D01*
X100906040Y-40240405D01*
X100872649Y-40211123D01*
X100627419Y-40047265D01*
X100627406Y-40047258D01*
X100362888Y-39916812D01*
X100083599Y-39822005D01*
X100083584Y-39822001D01*
X99794324Y-39764464D01*
X99794312Y-39764462D01*
X99500000Y-39745172D01*
X99205687Y-39764462D01*
X99205675Y-39764464D01*
X98916415Y-39822001D01*
X98916400Y-39822005D01*
X98637111Y-39916812D01*
X98372593Y-40047258D01*
X98372580Y-40047265D01*
X98127346Y-40211126D01*
X98127339Y-40211131D01*
X98093959Y-40240403D01*
X98093959Y-40240405D01*
X98738282Y-40884728D01*
X98620534Y-40970278D01*
X98470278Y-41120534D01*
X98384728Y-41238282D01*
X97740405Y-40593959D01*
X97740403Y-40593959D01*
X97711131Y-40627339D01*
X97711126Y-40627346D01*
X97547265Y-40872580D01*
X97547258Y-40872593D01*
X97416812Y-41137111D01*
X97322005Y-41416400D01*
X97322001Y-41416415D01*
X97264464Y-41705675D01*
X97264462Y-41705687D01*
X97245172Y-42000000D01*
X95500000Y-42000000D01*
X95500000Y-33079998D01*
X97654891Y-33079998D01*
X97654891Y-33080001D01*
X97675300Y-33365362D01*
X97736109Y-33644895D01*
X97836091Y-33912958D01*
X97973191Y-34164038D01*
X97973196Y-34164046D01*
X98079882Y-34306562D01*
X98079883Y-34306563D01*
X98670014Y-33716431D01*
X98763760Y-33845461D01*
X98894539Y-33976240D01*
X99023567Y-34069984D01*
X98433435Y-34660115D01*
X98433436Y-34660116D01*
X98575953Y-34766803D01*
X98575961Y-34766808D01*
X98827042Y-34903908D01*
X98827041Y-34903908D01*
X99095104Y-35003890D01*
X99374637Y-35064699D01*
X99659999Y-35085109D01*
X99660001Y-35085109D01*
X99945362Y-35064699D01*
X100224895Y-35003890D01*
X100492958Y-34903908D01*
X100744038Y-34766808D01*
X100744039Y-34766807D01*
X100886563Y-34660115D01*
X100296432Y-34069984D01*
X100425461Y-33976240D01*
X100556240Y-33845461D01*
X100649984Y-33716432D01*
X101240115Y-34306563D01*
X101346807Y-34164039D01*
X101346808Y-34164038D01*
X101483908Y-33912958D01*
X101583890Y-33644895D01*
X101644699Y-33365362D01*
X101665109Y-33080001D01*
X101665109Y-33079998D01*
X101644699Y-32794637D01*
X101583890Y-32515104D01*
X101483908Y-32247041D01*
X101346808Y-31995961D01*
X101346803Y-31995953D01*
X101240116Y-31853436D01*
X101240115Y-31853435D01*
X100649983Y-32443566D01*
X100556240Y-32314539D01*
X100425461Y-32183760D01*
X100296431Y-32090014D01*
X100886563Y-31499883D01*
X100886562Y-31499882D01*
X100744046Y-31393196D01*
X100744038Y-31393191D01*
X100492957Y-31256091D01*
X100492958Y-31256091D01*
X100224895Y-31156109D01*
X99945362Y-31095300D01*
X99660001Y-31074891D01*
X99659999Y-31074891D01*
X99374637Y-31095300D01*
X99095104Y-31156109D01*
X98827041Y-31256091D01*
X98575961Y-31393191D01*
X98575953Y-31393196D01*
X98433435Y-31499882D01*
X99023568Y-32090014D01*
X98894539Y-32183760D01*
X98763760Y-32314539D01*
X98670015Y-32443568D01*
X98079882Y-31853435D01*
X97973196Y-31995953D01*
X97973191Y-31995961D01*
X97836091Y-32247041D01*
X97736109Y-32515104D01*
X97675300Y-32794637D01*
X97654891Y-33079998D01*
X95500000Y-33079998D01*
X95500000Y-22919998D01*
X97654891Y-22919998D01*
X97654891Y-22920001D01*
X97675300Y-23205362D01*
X97736109Y-23484895D01*
X97836091Y-23752958D01*
X97973191Y-24004038D01*
X97973196Y-24004046D01*
X98079882Y-24146562D01*
X98079883Y-24146563D01*
X98670014Y-23556431D01*
X98763760Y-23685461D01*
X98894539Y-23816240D01*
X99023567Y-23909984D01*
X98433435Y-24500115D01*
X98433436Y-24500116D01*
X98575953Y-24606803D01*
X98575961Y-24606808D01*
X98827042Y-24743908D01*
X98827041Y-24743908D01*
X99095104Y-24843890D01*
X99374637Y-24904699D01*
X99659999Y-24925109D01*
X99660001Y-24925109D01*
X99945362Y-24904699D01*
X100224895Y-24843890D01*
X100492958Y-24743908D01*
X100744038Y-24606808D01*
X100744039Y-24606807D01*
X100886563Y-24500115D01*
X100296432Y-23909984D01*
X100425461Y-23816240D01*
X100556240Y-23685461D01*
X100649984Y-23556432D01*
X101240115Y-24146563D01*
X101346807Y-24004039D01*
X101346808Y-24004038D01*
X101483908Y-23752958D01*
X101583890Y-23484895D01*
X101644699Y-23205362D01*
X101665109Y-22920001D01*
X101665109Y-22919998D01*
X101644699Y-22634637D01*
X101583890Y-22355104D01*
X101483908Y-22087041D01*
X101346808Y-21835961D01*
X101346803Y-21835953D01*
X101240116Y-21693436D01*
X101240115Y-21693435D01*
X100649983Y-22283566D01*
X100556240Y-22154539D01*
X100425461Y-22023760D01*
X100296431Y-21930014D01*
X100886563Y-21339883D01*
X100886562Y-21339882D01*
X100744046Y-21233196D01*
X100744038Y-21233191D01*
X100492957Y-21096091D01*
X100492958Y-21096091D01*
X100224895Y-20996109D01*
X99945362Y-20935300D01*
X99660001Y-20914891D01*
X99659999Y-20914891D01*
X99374637Y-20935300D01*
X99095104Y-20996109D01*
X98827041Y-21096091D01*
X98575961Y-21233191D01*
X98575953Y-21233196D01*
X98433435Y-21339882D01*
X99023568Y-21930014D01*
X98894539Y-22023760D01*
X98763760Y-22154539D01*
X98670015Y-22283568D01*
X98079882Y-21693435D01*
X97973196Y-21835953D01*
X97973191Y-21835961D01*
X97836091Y-22087041D01*
X97736109Y-22355104D01*
X97675300Y-22634637D01*
X97654891Y-22919998D01*
X95500000Y-22919998D01*
X95500000Y-20624500D01*
X95519685Y-20557461D01*
X95572489Y-20511706D01*
X95624000Y-20500500D01*
X106376000Y-20500500D01*
X106443039Y-20520185D01*
G37*
%TD.AperFunction*%
%TD*%
%TA.AperFunction,Conductor*%
%TO.N,/central_control_unit/V_Bat*%
G36*
X26943039Y-85019685D02*
G01*
X26988794Y-85072489D01*
X27000000Y-85124000D01*
X27000000Y-120000000D01*
X20500500Y-120000000D01*
X20500500Y-85124000D01*
X20520185Y-85056961D01*
X20572989Y-85011206D01*
X20624500Y-85000000D01*
X26876000Y-85000000D01*
X26943039Y-85019685D01*
G37*
%TD.AperFunction*%
%TD*%
M02*
