%TF.GenerationSoftware,KiCad,Pcbnew,8.0.7-8.0.7-0~ubuntu22.04.1*%
%TF.CreationDate,2024-12-30T17:04:23+01:00*%
%TF.ProjectId,electronics,656c6563-7472-46f6-9e69-63732e6b6963,rev?*%
%TF.SameCoordinates,Original*%
%TF.FileFunction,Soldermask,Top*%
%TF.FilePolarity,Negative*%
%FSLAX46Y46*%
G04 Gerber Fmt 4.6, Leading zero omitted, Abs format (unit mm)*
G04 Created by KiCad (PCBNEW 8.0.7-8.0.7-0~ubuntu22.04.1) date 2024-12-30 17:04:23*
%MOMM*%
%LPD*%
G01*
G04 APERTURE LIST*
%ADD10C,3.600000*%
%ADD11C,5.700000*%
%ADD12R,2.000000X2.000000*%
%ADD13C,2.000000*%
%ADD14C,3.500000*%
%ADD15R,2.800000X2.800000*%
%ADD16C,2.800000*%
%ADD17R,5.200000X8.750000*%
%ADD18C,1.000000*%
%ADD19C,7.000000*%
%ADD20R,50.000000X16.000000*%
%ADD21R,8.750000X5.200000*%
%ADD22C,3.000000*%
%ADD23R,3.000000X3.000000*%
%ADD24R,15.000000X15.000000*%
%ADD25R,0.850000X0.850000*%
%ADD26O,0.850000X0.850000*%
G04 APERTURE END LIST*
D10*
%TO.C,MH1*%
X25000000Y-25000000D03*
D11*
X25000000Y-25000000D03*
%TD*%
D10*
%TO.C,MH4*%
X25000000Y-135000000D03*
D11*
X25000000Y-135000000D03*
%TD*%
D12*
%TO.C,J9*%
X153800000Y-32500000D03*
D13*
X156340000Y-32500000D03*
X158880000Y-32500000D03*
X161420000Y-32500000D03*
X163960000Y-32500000D03*
X166500000Y-32500000D03*
%TD*%
D10*
%TO.C,MH3*%
X135000000Y-135000000D03*
D11*
X135000000Y-135000000D03*
%TD*%
D14*
%TO.C,U12*%
X155750000Y-68750000D03*
X165750000Y-68750000D03*
%TD*%
D15*
%TO.C,J7*%
X158205000Y-59500000D03*
D16*
X163285000Y-59500000D03*
%TD*%
D17*
%TO.C,R6*%
X78500000Y-66500000D03*
D18*
X72500000Y-66500000D03*
X69500000Y-66500000D03*
D17*
X63500000Y-66500000D03*
%TD*%
D19*
%TO.C,J5*%
X30000000Y-80500000D03*
X45000000Y-80500000D03*
X60000000Y-80500000D03*
D20*
X45000000Y-80500000D03*
%TD*%
D14*
%TO.C,F4*%
X99500000Y-56200000D03*
X99500000Y-51200000D03*
X99500000Y-47000000D03*
X99500000Y-42000000D03*
%TD*%
D21*
%TO.C,R5*%
X43500000Y-43000000D03*
D18*
X43500000Y-49000000D03*
X43500000Y-52000000D03*
D21*
X43500000Y-58000000D03*
%TD*%
D14*
%TO.C,J11*%
X155000000Y-41000000D03*
X160000000Y-41000000D03*
X165000000Y-41000000D03*
X155000000Y-46000000D03*
X160000000Y-46000000D03*
X165000000Y-46000000D03*
%TD*%
D22*
%TO.C,J4*%
X99660000Y-33080000D03*
X99660000Y-22920000D03*
X89500000Y-33080000D03*
X89500000Y-22920000D03*
X79340000Y-33080000D03*
X79340000Y-22920000D03*
%TD*%
D23*
%TO.C,J3*%
X35185000Y-135000000D03*
D22*
X40265000Y-135000000D03*
X45345000Y-135000000D03*
X50425000Y-135000000D03*
X55505000Y-135000000D03*
%TD*%
D21*
%TO.C,R8*%
X55000000Y-43000000D03*
D18*
X55000000Y-49000000D03*
X55000000Y-52000000D03*
D21*
X55000000Y-58000000D03*
%TD*%
D12*
%TO.C,J2*%
X98405000Y-133975000D03*
D13*
X100945000Y-133975000D03*
%TD*%
D19*
%TO.C,J6*%
X100000000Y-80500000D03*
X115000000Y-80500000D03*
X130000000Y-80500000D03*
D20*
X115000000Y-80500000D03*
%TD*%
D14*
%TO.C,F1*%
X89500000Y-56200000D03*
X89500000Y-51200000D03*
X89500000Y-47000000D03*
X89500000Y-42000000D03*
%TD*%
D19*
%TO.C,Battery1*%
X41500000Y-27500000D03*
D24*
X41500000Y-27500000D03*
%TD*%
D19*
%TO.C,Inverter1*%
X61500000Y-27500000D03*
D24*
X61500000Y-27500000D03*
%TD*%
D14*
%TO.C,F2*%
X79500000Y-56200000D03*
X79500000Y-51200000D03*
X79500000Y-47000000D03*
X79500000Y-42000000D03*
%TD*%
D10*
%TO.C,MH2*%
X135000000Y-25000000D03*
D11*
X135000000Y-25000000D03*
%TD*%
D25*
%TO.C,J1*%
X109004000Y-116265000D03*
D26*
X109004000Y-117265000D03*
%TD*%
M02*
