<svg xmlns="http://www.w3.org/2000/svg" height="48px" viewBox="0 -960 960 960" width="48px" fill="#000000"><path d="M479.62-61.17q-85.83 0-162.51-32.79-76.68-32.78-133.52-89.63-56.85-56.84-89.63-133.58-32.79-76.74-32.79-162.76 0-87.43 33.21-163.83t89.79-134.07l58.92 59.35q-44.69 43.86-71.71 106.39-27.03 62.54-27.03 132.07 0 139.19 98.41 237.43 98.41 98.24 237.24 98.24 139.12 0 237.39-98.41 98.26-98.41 98.26-237.11 0-69.68-25.68-132.22-25.68-62.53-71.49-106.39l59.35-59.35q55.43 57.57 88.5 133.95 33.06 76.38 33.06 164.21 0 85.62-32.69 162.11-32.7 76.5-89.85 133.6-57.14 57.1-133.65 89.94-76.5 32.85-163.58 32.85Zm-40.71-367.74v-470.48h83.18v470.48h-83.18Z"/></svg>